G04 #@! TF.GenerationSoftware,KiCad,Pcbnew,7.0.8*
G04 #@! TF.CreationDate,2024-02-12T18:07:49+09:00*
G04 #@! TF.ProjectId,cool939v2,636f6f6c-3933-4397-9632-2e6b69636164,rev?*
G04 #@! TF.SameCoordinates,Original*
G04 #@! TF.FileFunction,Profile,NP*
%FSLAX46Y46*%
G04 Gerber Fmt 4.6, Leading zero omitted, Abs format (unit mm)*
G04 Created by KiCad (PCBNEW 7.0.8) date 2024-02-12 18:07:49*
%MOMM*%
%LPD*%
G01*
G04 APERTURE LIST*
G04 #@! TA.AperFunction,Profile*
%ADD10C,0.150000*%
G04 #@! TD*
G04 APERTURE END LIST*
D10*
X117290000Y130190000D02*
X103300000Y130190000D01*
X79490000Y135240000D02*
X93480000Y135240000D01*
X126810000Y97140000D02*
X126810000Y111140000D01*
X36320000Y149240000D02*
X22330000Y149240000D01*
X126810000Y111140000D02*
X112820000Y111140000D01*
X24720000Y130190000D02*
X24720000Y116190000D01*
X38710000Y116190000D02*
X38710000Y130190000D01*
X22330000Y135240000D02*
X36320000Y135240000D01*
X69660000Y92090000D02*
X55670000Y92090000D01*
X65200000Y116190000D02*
X79190000Y116190000D01*
X74720000Y111140000D02*
X74720000Y97140000D01*
X71820000Y164340000D02*
X75550000Y158140000D01*
X98240000Y116190000D02*
X98240000Y130190000D01*
X70810000Y166080000D02*
X17490000Y160440000D01*
X88710000Y92090000D02*
X74720000Y92090000D01*
X84250000Y130190000D02*
X84250000Y116190000D01*
X79590000Y160450000D02*
X134280000Y160440000D01*
X130450000Y129700000D02*
G75*
G03*
X130450000Y129700000I-1100000J0D01*
G01*
X93770000Y97140000D02*
X107760000Y97140000D01*
X55670000Y97140000D02*
X69660000Y97140000D01*
X114910000Y92090000D02*
X100920000Y92090000D01*
X107760000Y97140000D02*
X107760000Y111140000D01*
X107760000Y111140000D02*
X93770000Y111140000D01*
X50610000Y78090000D02*
X50610000Y92090000D01*
X69660000Y97140000D02*
X69660000Y111140000D01*
X93480000Y149240000D02*
X79490000Y149240000D01*
X98240000Y130190000D02*
X84250000Y130190000D01*
X134290000Y66890000D02*
X17490000Y66890000D01*
X58290000Y160370000D02*
G75*
G03*
X58290000Y160370000I-1100000J0D01*
G01*
X134280654Y152199952D02*
X134290000Y150440000D01*
X9749897Y74630103D02*
X9749897Y152699897D01*
X41390000Y135240000D02*
X55380000Y135240000D01*
X41390000Y149240000D02*
X41390000Y135240000D01*
X55380000Y135240000D02*
X55380000Y149240000D01*
X79190000Y116190000D02*
X79190000Y130190000D01*
X130450000Y155690000D02*
G75*
G03*
X130450000Y155690000I-1100000J0D01*
G01*
X65200000Y130190000D02*
X65200000Y116190000D01*
X79190000Y130190000D02*
X65200000Y130190000D01*
X84250000Y116190000D02*
X98240000Y116190000D01*
X36620000Y78090000D02*
X50610000Y78090000D01*
X55670000Y111140000D02*
X55670000Y97140000D01*
X69660000Y111140000D02*
X55670000Y111140000D01*
X103300000Y116190000D02*
X117290000Y116190000D01*
X117290000Y116190000D02*
X117290000Y130190000D01*
X93770000Y111140000D02*
X93770000Y97140000D01*
X50610000Y92090000D02*
X36620000Y92090000D01*
X112820000Y97140000D02*
X126810000Y97140000D01*
X114910000Y78090000D02*
X114910000Y92090000D01*
X55670000Y78090000D02*
X69660000Y78090000D01*
X74720000Y97140000D02*
X88710000Y97140000D01*
X88710000Y97140000D02*
X88710000Y111140000D01*
X88710000Y111140000D02*
X74720000Y111140000D01*
X74420000Y135240000D02*
X74420000Y149240000D01*
X24720000Y116190000D02*
X38710000Y116190000D01*
X36620000Y92090000D02*
X36620000Y78090000D01*
X29480000Y111140000D02*
X29480000Y97140000D01*
X58290000Y72130000D02*
G75*
G03*
X58290000Y72130000I-1100000J0D01*
G01*
X17490000Y160440000D02*
G75*
G03*
X9749897Y152699897I1J-7740104D01*
G01*
X112530000Y135240000D02*
X112530000Y149240000D01*
X112820000Y111140000D02*
X112820000Y97140000D01*
X134290000Y150440000D02*
X134290000Y92090000D01*
X75550000Y158140000D02*
X79590000Y160450000D01*
X103300000Y130190000D02*
X103300000Y116190000D01*
X74420000Y149240000D02*
X60430000Y149240000D01*
X60430000Y135240000D02*
X74420000Y135240000D01*
X60430000Y149240000D02*
X60430000Y135240000D01*
X85040000Y72130000D02*
G75*
G03*
X85040000Y72130000I-1100000J0D01*
G01*
X74720000Y78090000D02*
X88710000Y78090000D01*
X71820000Y164340000D02*
X70810000Y166080000D01*
X88710000Y78090000D02*
X88710000Y92090000D01*
X74720000Y92090000D02*
X74720000Y78090000D01*
X130450000Y72130000D02*
G75*
G03*
X130450000Y72130000I-1100000J0D01*
G01*
X134290000Y92090000D02*
X134290327Y78761090D01*
X22330000Y149240000D02*
X22330000Y135240000D01*
X36320000Y135240000D02*
X36320000Y149240000D01*
X46150000Y130190000D02*
X46150000Y116190000D01*
X38710000Y130190000D02*
X24720000Y130190000D01*
X60140000Y130190000D02*
X46150000Y130190000D01*
X60140000Y116190000D02*
X60140000Y130190000D01*
X9749900Y74630103D02*
G75*
G03*
X17490000Y66890000I7740100J-3D01*
G01*
X43470000Y111140000D02*
X29480000Y111140000D01*
X29480000Y97140000D02*
X43470000Y97140000D01*
X43470000Y97140000D02*
X43470000Y111140000D01*
X100920000Y92090000D02*
X100920000Y78090000D01*
X16490000Y155690000D02*
G75*
G03*
X16490000Y155690000I-1100000J0D01*
G01*
X16490000Y72130000D02*
G75*
G03*
X16490000Y72130000I-1100000J0D01*
G01*
X46150000Y116190000D02*
X60140000Y116190000D01*
X98540000Y149240000D02*
X98540000Y135240000D01*
X98540000Y135240000D02*
X112530000Y135240000D01*
X79490000Y149240000D02*
X79490000Y135240000D01*
X112530000Y149240000D02*
X98540000Y149240000D01*
X93480000Y135240000D02*
X93480000Y149240000D01*
X55380000Y149240000D02*
X41390000Y149240000D01*
X100920000Y78090000D02*
X114910000Y78090000D01*
X16490000Y129700000D02*
G75*
G03*
X16490000Y129700000I-1100000J0D01*
G01*
X69660000Y78090000D02*
X69660000Y92090000D01*
X55670000Y92090000D02*
X55670000Y78090000D01*
X85040000Y155690000D02*
G75*
G03*
X85040000Y155690000I-1100000J0D01*
G01*
X134290327Y78761090D02*
G75*
G03*
X137149673Y78761138I1429673J-1090D01*
G01*
X137139946Y152200000D02*
G75*
G03*
X134280654Y152199952I-1429646J1100D01*
G01*
X134279948Y160440001D02*
G75*
G03*
X137140470Y160449993I1430352J-21101D01*
G01*
X237570000Y111140000D02*
X237570000Y97140000D01*
X225670000Y92090000D02*
X225670000Y78090000D01*
X237570000Y97140000D02*
X251560000Y97140000D01*
X187570000Y130190000D02*
X187570000Y116190000D01*
X251560000Y111140000D02*
X237570000Y111140000D01*
X215840000Y149240000D02*
X201850000Y149240000D01*
X251560000Y97140000D02*
X251560000Y111140000D01*
X201560000Y130190000D02*
X187570000Y130190000D01*
X246800000Y130190000D02*
X232810000Y130190000D01*
X201850000Y149240000D02*
X201850000Y135240000D01*
X239660000Y92090000D02*
X225670000Y92090000D01*
X211080000Y97140000D02*
X211080000Y111140000D01*
X239950000Y149240000D02*
X239950000Y135240000D01*
X211080000Y111140000D02*
X197090000Y111140000D01*
X197090000Y111140000D02*
X197090000Y97140000D01*
X197090000Y97140000D02*
X211080000Y97140000D01*
X196790000Y149240000D02*
X182800000Y149240000D01*
X239660000Y78090000D02*
X239660000Y92090000D01*
X220900000Y135240000D02*
X234890000Y135240000D01*
X216140000Y111140000D02*
X216140000Y97140000D01*
X182800000Y135240000D02*
X196790000Y135240000D01*
X215840000Y135240000D02*
X215840000Y149240000D01*
X201560000Y116190000D02*
X201560000Y130190000D01*
X182800000Y149240000D02*
X182800000Y135240000D01*
X196790000Y135240000D02*
X196790000Y149240000D01*
X253940000Y135240000D02*
X253940000Y149240000D01*
X158690000Y149240000D02*
X144700000Y149240000D01*
X144700000Y135240000D02*
X158690000Y135240000D01*
X168520000Y130190000D02*
X168520000Y116190000D01*
X163760000Y135240000D02*
X177750000Y135240000D01*
X192030000Y111140000D02*
X178040000Y111140000D01*
X182510000Y116190000D02*
X182510000Y130190000D01*
X220610000Y92090000D02*
X206620000Y92090000D01*
X163460000Y116190000D02*
X163460000Y130190000D01*
X206620000Y92090000D02*
X206620000Y78090000D01*
X220610000Y130190000D02*
X206620000Y130190000D01*
X192030000Y97140000D02*
X192030000Y111140000D01*
X220900000Y149240000D02*
X220900000Y135240000D01*
X149470000Y116190000D02*
X163460000Y116190000D01*
X158690000Y135240000D02*
X158690000Y149240000D01*
X201850000Y135240000D02*
X215840000Y135240000D01*
X187570000Y116190000D02*
X201560000Y116190000D01*
X225670000Y78090000D02*
X239660000Y78090000D01*
X253940000Y149240000D02*
X239950000Y149240000D01*
X239950000Y135240000D02*
X253940000Y135240000D01*
X182510000Y130190000D02*
X168520000Y130190000D01*
X144700000Y149240000D02*
X144700000Y135240000D01*
X234890000Y135240000D02*
X234890000Y149240000D01*
X220610000Y116190000D02*
X220610000Y130190000D01*
X177750000Y149240000D02*
X163760000Y149240000D01*
X149470000Y130190000D02*
X149470000Y116190000D01*
X206620000Y116190000D02*
X220610000Y116190000D01*
X206620000Y130190000D02*
X206620000Y116190000D01*
X177750000Y135240000D02*
X177750000Y149240000D01*
X163760000Y149240000D02*
X163760000Y135240000D01*
X178040000Y111140000D02*
X178040000Y97140000D01*
X234890000Y149240000D02*
X220900000Y149240000D01*
X163460000Y130190000D02*
X149470000Y130190000D01*
X178040000Y97140000D02*
X192030000Y97140000D01*
X246800000Y116190000D02*
X246800000Y130190000D01*
X220610000Y78090000D02*
X220610000Y92090000D01*
X216140000Y97140000D02*
X230130000Y97140000D01*
X206620000Y78090000D02*
X220610000Y78090000D01*
X230130000Y97140000D02*
X230130000Y111140000D01*
X168520000Y116190000D02*
X182510000Y116190000D01*
X230130000Y111140000D02*
X216140000Y111140000D01*
X232810000Y116190000D02*
X246800000Y116190000D01*
X232810000Y130190000D02*
X232810000Y116190000D01*
X266450000Y152699897D02*
X266450000Y74640103D01*
X261940000Y130130000D02*
G75*
G03*
X261940000Y130130000I-1100000J0D01*
G01*
X195640000Y158039897D02*
X200490000Y166219897D01*
X137160000Y66900000D02*
X137170000Y70650000D01*
X220210000Y160380000D02*
G75*
G03*
X220210000Y160380000I-1100000J0D01*
G01*
X142770000Y129710000D02*
G75*
G03*
X142770000Y129710000I-1100000J0D01*
G01*
X258709897Y66900000D02*
G75*
G03*
X266450000Y74640103I3J7740100D01*
G01*
X195640000Y158039897D02*
X191570000Y160439897D01*
X188330000Y72140000D02*
G75*
G03*
X188330000Y72140000I-1100000J0D01*
G01*
X266450000Y152699897D02*
G75*
G03*
X258709897Y160440000I-7740100J3D01*
G01*
X188330000Y155700000D02*
G75*
G03*
X188330000Y155700000I-1100000J0D01*
G01*
X137140471Y160449993D02*
X191570000Y160439897D01*
X137160000Y92040000D02*
X137140000Y152200000D01*
X137149673Y78761138D02*
X137160000Y92040000D01*
X261940000Y155700000D02*
G75*
G03*
X261940000Y155700000I-1100000J0D01*
G01*
X142770000Y155700000D02*
G75*
G03*
X142770000Y155700000I-1100000J0D01*
G01*
X258709897Y66900000D02*
X137160000Y66900000D01*
X142770000Y72140000D02*
G75*
G03*
X142770000Y72140000I-1100000J0D01*
G01*
X220210000Y72140000D02*
G75*
G03*
X220210000Y72140000I-1100000J0D01*
G01*
X261940000Y72140000D02*
G75*
G03*
X261940000Y72140000I-1100000J0D01*
G01*
X200490000Y166219897D02*
X258709897Y160440000D01*
X137170049Y70650001D02*
G75*
G03*
X134290901Y70609954I-1439449J-29001D01*
G01*
X134290000Y66890000D02*
X134290654Y70609952D01*
X201550000Y92090000D02*
X187560000Y92090000D01*
X187560000Y92090000D02*
X187560000Y78090000D01*
X201550000Y78090000D02*
X201550000Y92090000D01*
X187560000Y78090000D02*
X201550000Y78090000D01*
X172980000Y97140000D02*
X172980000Y111140000D01*
X158990000Y97140000D02*
X172980000Y97140000D01*
X172980000Y111140000D02*
X158990000Y111140000D01*
X158990000Y111140000D02*
X158990000Y97140000D01*
X161370000Y78090000D02*
X175360000Y78090000D01*
X175360000Y92090000D02*
X161370000Y92090000D01*
X161370000Y92090000D02*
X161370000Y78090000D01*
X175360000Y78090000D02*
X175360000Y92090000D01*
M02*
