G04 #@! TF.GenerationSoftware,KiCad,Pcbnew,7.0.8*
G04 #@! TF.CreationDate,2024-02-12T18:06:56+09:00*
G04 #@! TF.ProjectId,cool939v2,636f6f6c-3933-4397-9632-2e6b69636164,rev?*
G04 #@! TF.SameCoordinates,Original*
G04 #@! TF.FileFunction,Copper,L1,Top*
G04 #@! TF.FilePolarity,Positive*
%FSLAX46Y46*%
G04 Gerber Fmt 4.6, Leading zero omitted, Abs format (unit mm)*
G04 Created by KiCad (PCBNEW 7.0.8) date 2024-02-12 18:06:56*
%MOMM*%
%LPD*%
G01*
G04 APERTURE LIST*
G04 Aperture macros list*
%AMHorizOval*
0 Thick line with rounded ends*
0 $1 width*
0 $2 $3 position (X,Y) of the first rounded end (center of the circle)*
0 $4 $5 position (X,Y) of the second rounded end (center of the circle)*
0 Add line between two ends*
20,1,$1,$2,$3,$4,$5,0*
0 Add two circle primitives to create the rounded ends*
1,1,$1,$2,$3*
1,1,$1,$4,$5*%
G04 Aperture macros list end*
G04 #@! TA.AperFunction,ComponentPad*
%ADD10R,1.397000X1.397000*%
G04 #@! TD*
G04 #@! TA.AperFunction,SMDPad,CuDef*
%ADD11R,0.950000X1.300000*%
G04 #@! TD*
G04 #@! TA.AperFunction,ComponentPad*
%ADD12C,1.397000*%
G04 #@! TD*
G04 #@! TA.AperFunction,ComponentPad*
%ADD13C,2.000000*%
G04 #@! TD*
G04 #@! TA.AperFunction,ComponentPad*
%ADD14HorizOval,1.700000X-0.346410X0.200000X0.346410X-0.200000X0*%
G04 #@! TD*
G04 #@! TA.AperFunction,ComponentPad*
%ADD15C,1.600000*%
G04 #@! TD*
G04 #@! TA.AperFunction,ViaPad*
%ADD16C,0.800000*%
G04 #@! TD*
G04 #@! TA.AperFunction,Conductor*
%ADD17C,0.250000*%
G04 #@! TD*
G04 APERTURE END LIST*
D10*
X210690000Y-58930000D03*
D11*
X210690000Y-56895000D03*
X210690000Y-53345000D03*
D12*
X210690000Y-51310000D03*
D10*
X260940000Y-38840000D03*
D11*
X260940000Y-36805000D03*
X260940000Y-33255000D03*
D12*
X260940000Y-31220000D03*
D10*
X213130000Y-58960000D03*
D11*
X213130000Y-56925000D03*
X213130000Y-53375000D03*
D12*
X213130000Y-51340000D03*
D10*
X256560000Y-22330000D03*
D11*
X256560000Y-20295000D03*
X256560000Y-16745000D03*
D12*
X256560000Y-14710000D03*
D10*
X183720000Y-58910000D03*
D11*
X183720000Y-56875000D03*
X183720000Y-53325000D03*
D12*
X183720000Y-51290000D03*
D10*
X242500000Y-38970000D03*
D11*
X242500000Y-36935000D03*
X242500000Y-33385000D03*
D12*
X242500000Y-31350000D03*
D10*
X208520000Y-58950000D03*
D11*
X208520000Y-56915000D03*
X208520000Y-53365000D03*
D12*
X208520000Y-51330000D03*
D10*
X186320000Y-58890000D03*
D11*
X186320000Y-56855000D03*
X186320000Y-53305000D03*
D12*
X186320000Y-51270000D03*
D10*
X253750000Y-22250000D03*
D11*
X253750000Y-20215000D03*
X253750000Y-16665000D03*
D12*
X253750000Y-14630000D03*
D10*
X234570000Y-26730000D03*
D11*
X234570000Y-24695000D03*
X234570000Y-21145000D03*
D12*
X234570000Y-19110000D03*
D10*
X232080000Y-26750000D03*
D11*
X232080000Y-24715000D03*
X232080000Y-21165000D03*
D12*
X232080000Y-19130000D03*
D10*
X212880000Y-25220000D03*
D11*
X212880000Y-23185000D03*
X212880000Y-19635000D03*
D12*
X212880000Y-17600000D03*
D10*
X194010000Y-25030000D03*
D11*
X194010000Y-22995000D03*
X194010000Y-19445000D03*
D12*
X194010000Y-17410000D03*
D10*
X189180000Y-8230000D03*
D11*
X189180000Y-6195000D03*
X189180000Y-2645000D03*
D12*
X189180000Y-610000D03*
D10*
X246280000Y-5580000D03*
D11*
X246280000Y-3545000D03*
X246280000Y5000D03*
D12*
X246280000Y2040000D03*
D10*
X227340000Y-8360000D03*
D11*
X227340000Y-6325000D03*
X227340000Y-2775000D03*
D12*
X227340000Y-740000D03*
D10*
X208240000Y-8100000D03*
D11*
X208240000Y-6065000D03*
X208240000Y-2515000D03*
D12*
X208240000Y-480000D03*
D10*
X231970000Y-58960000D03*
D11*
X231970000Y-56925000D03*
X231970000Y-53375000D03*
D12*
X231970000Y-51340000D03*
D10*
X282060000Y-20720000D03*
D11*
X282060000Y-18685000D03*
X282060000Y-15135000D03*
D12*
X282060000Y-13100000D03*
D10*
X263490000Y-38840000D03*
D11*
X263490000Y-36805000D03*
X263490000Y-33255000D03*
D12*
X263490000Y-31220000D03*
D13*
X231514583Y9775000D03*
X225885417Y13025000D03*
D14*
X235260062Y11781347D03*
X231795960Y13781347D03*
X229197884Y15281347D03*
X238659100Y14668653D03*
D15*
X273960000Y-7220000D03*
X276500000Y-7220000D03*
X281580000Y8020000D03*
X279040000Y8020000D03*
X276500000Y8020000D03*
X273960000Y8020000D03*
X271420000Y8020000D03*
X268880000Y8020000D03*
X266340000Y8020000D03*
X263800000Y8020000D03*
X256180000Y8020000D03*
X261260000Y8020000D03*
X253640000Y8020000D03*
X258720000Y8020000D03*
X284120000Y8020000D03*
X284120000Y-7220000D03*
X253640000Y-7220000D03*
X256180000Y-7220000D03*
X258720000Y-7220000D03*
X261260000Y-7220000D03*
X263800000Y-7220000D03*
X266340000Y-7220000D03*
X268880000Y-7220000D03*
X271420000Y-7220000D03*
X279040000Y-7220000D03*
X281580000Y-7220000D03*
D16*
X235760000Y-12140000D03*
X203510000Y-49470000D03*
X215240000Y-49470500D03*
X225620000Y-49914500D03*
X255710000Y-8594980D03*
X260180000Y-1430000D03*
X204879999Y-41880000D03*
X204310000Y-8955000D03*
X207080000Y-23960000D03*
X204480000Y-34570000D03*
X208970000Y-27730000D03*
X208930000Y-23950000D03*
X213860000Y-8840000D03*
X216680000Y-4740000D03*
X203450000Y-27730000D03*
X278050000Y-12740000D03*
X200920000Y-47640000D03*
X190570000Y-29340000D03*
X218930000Y-29340000D03*
X232200000Y-29210000D03*
X257600000Y-29875000D03*
X189810000Y-40350000D03*
X245270000Y-29230000D03*
X202490000Y-29955000D03*
X216650000Y-29330000D03*
X260880000Y2780000D03*
X248010000Y5550000D03*
X249680000Y-5070000D03*
X214490000Y-29490000D03*
X215570000Y-23710000D03*
X202600000Y-37940000D03*
X205370000Y-29230000D03*
X228320000Y-29350000D03*
X228330000Y-31150010D03*
X178652500Y-10747500D03*
X218140000Y-10880000D03*
X192970000Y-9810000D03*
X218120000Y-9800000D03*
X204410000Y-31760000D03*
X204440000Y-22820000D03*
X192970000Y-5260000D03*
X209460000Y-43380000D03*
X216730000Y-52200000D03*
X216650000Y-8960000D03*
X237880000Y-50360000D03*
X237890000Y-43210000D03*
X229640000Y-31240000D03*
X228770000Y-22100000D03*
X216630000Y-6540000D03*
X231980000Y-11210000D03*
X231450000Y-3560000D03*
X244450000Y-31880000D03*
X244470000Y-22200000D03*
X252440000Y-5100000D03*
X266710000Y-31440000D03*
X250080000Y-1430000D03*
X266790000Y-27020000D03*
X265260000Y-2880000D03*
X262300000Y-14270000D03*
X248040000Y-5220000D03*
X246460000Y5540000D03*
X202330000Y-48560000D03*
X263500000Y1890000D03*
X261750000Y-13130000D03*
X251525000Y-2875000D03*
X283684500Y-1973000D03*
D17*
X189180000Y-610000D02*
X189180000Y-2645000D01*
X208240000Y-480000D02*
X208240000Y-2515000D01*
X227340000Y-740000D02*
X227340000Y-2775000D01*
X246280000Y2040000D02*
X246280000Y5000D01*
X194010000Y-17410000D02*
X194010000Y-19445000D01*
X212880000Y-19635000D02*
X212880000Y-17600000D01*
X232080000Y-19130000D02*
X232080000Y-21165000D01*
X234570000Y-21145000D02*
X234570000Y-19110000D01*
X235760000Y-17920000D02*
X235760000Y-12140000D01*
X234570000Y-19110000D02*
X235760000Y-17920000D01*
X231970000Y-51340000D02*
X231970000Y-53375000D01*
X186320000Y-51270000D02*
X196590000Y-51270000D01*
X186320000Y-51270000D02*
X186320000Y-53305000D01*
X198390000Y-49470000D02*
X203510000Y-49470000D01*
X198020000Y-49840000D02*
X198390000Y-49470000D01*
X196590000Y-51270000D02*
X198020000Y-49840000D01*
X208520000Y-51330000D02*
X208520000Y-53365000D01*
X242500000Y-31350000D02*
X242500000Y-33385000D01*
X213130000Y-51340000D02*
X213130000Y-53375000D01*
X263490000Y-33255000D02*
X263490000Y-31220000D01*
X225176000Y-49470500D02*
X215240000Y-49470500D01*
X225620000Y-49914500D02*
X225176000Y-49470500D01*
X210690000Y-51310000D02*
X210690000Y-53345000D01*
X189180000Y-8230000D02*
X189180000Y-6195000D01*
X208240000Y-6065000D02*
X208240000Y-8100000D01*
X227340000Y-6325000D02*
X227340000Y-8360000D01*
X256560000Y-22330000D02*
X256010000Y-22330000D01*
X256010000Y-22330000D02*
X255223511Y-21543511D01*
X256560000Y-22330000D02*
X256560000Y-20295000D01*
X255223511Y-17667897D02*
X255223511Y-9081469D01*
X255223511Y-9081469D02*
X255710000Y-8594980D01*
X255223511Y-21543511D02*
X255223511Y-17667897D01*
X246280000Y-5580000D02*
X246280000Y-3545000D01*
X234570000Y-26730000D02*
X234570000Y-24695000D01*
X232080000Y-24715000D02*
X232080000Y-26750000D01*
X212880000Y-25220000D02*
X212880000Y-23185000D01*
X194010000Y-22995000D02*
X194010000Y-25030000D01*
X234570000Y-24695000D02*
X234570000Y-24630000D01*
X255850000Y-24350000D02*
X253750000Y-22250000D01*
X253750000Y-22250000D02*
X253750000Y-20215000D01*
X260180000Y-1430000D02*
X260170999Y-1439001D01*
X259080000Y-24350000D02*
X255850000Y-24350000D01*
X260170999Y-23259001D02*
X259080000Y-24350000D01*
X260170999Y-1439001D02*
X260170999Y-23259001D01*
X252726499Y-25116499D02*
X256760000Y-29150000D01*
X256760000Y-29150000D02*
X261100000Y-29150000D01*
X254773501Y-17481497D02*
X252726499Y-19528499D01*
X208520000Y-56915000D02*
X208520000Y-58950000D01*
X260940000Y-38840000D02*
X258870000Y-40910000D01*
X262120000Y-30170000D02*
X262120000Y-35625000D01*
X262120000Y-35625000D02*
X260940000Y-36805000D01*
X256178000Y2518002D02*
X254773501Y1113503D01*
X186320000Y-56855000D02*
X186320000Y-58890000D01*
X244440000Y-40910000D02*
X242500000Y-38970000D01*
X258870000Y-40910000D02*
X244440000Y-40910000D01*
X263490000Y-38840000D02*
X263490000Y-36805000D01*
X260940000Y-36805000D02*
X260940000Y-38840000D01*
X254773501Y1113503D02*
X254773501Y-17481497D01*
X252726499Y-19528499D02*
X252726499Y-25116499D01*
X242500000Y-36935000D02*
X242500000Y-38970000D01*
X261100000Y-29150000D02*
X262120000Y-30170000D01*
X231970000Y-56925000D02*
X231970000Y-58960000D01*
X212170000Y7920000D02*
X209340000Y5090000D01*
X211713500Y-57906500D02*
X210690000Y-58930000D01*
X209570000Y-46520000D02*
X204930000Y-41880000D01*
X213130000Y-56925000D02*
X213130000Y-58960000D01*
X204310000Y-8284998D02*
X204310000Y-8955000D01*
X204930000Y-41880000D02*
X204879999Y-41880000D01*
X207080000Y-31620000D02*
X207080000Y-31990000D01*
X205330000Y-33740000D02*
X205310000Y-33740000D01*
X204879999Y-41880000D02*
X211713500Y-48713501D01*
X207080000Y-23960000D02*
X207080000Y-31620000D01*
X183720000Y-56875000D02*
X183720000Y-58910000D01*
X209340000Y-3254998D02*
X204310000Y-8284998D01*
X205310000Y-33740000D02*
X204480000Y-34570000D01*
X282060000Y-18685000D02*
X282060000Y-20720000D01*
X207080000Y-31990000D02*
X205330000Y-33740000D01*
X209340000Y5090000D02*
X209340000Y-3254998D01*
X211713500Y-48713501D02*
X211713500Y-57906500D01*
X210690000Y-56895000D02*
X210690000Y-58930000D01*
X208930000Y-27690000D02*
X208970000Y-27730000D01*
X208930000Y-23950000D02*
X208930000Y-27690000D01*
X213940000Y-8760000D02*
X213860000Y-8840000D01*
X203119990Y-36347008D02*
X203119991Y-33486601D01*
X216680000Y-4740000D02*
X213860000Y-7560000D01*
X203520000Y-27800000D02*
X203450000Y-27730000D01*
X201850000Y-42180000D02*
X201850000Y-37616998D01*
X201850000Y-46710000D02*
X200920000Y-47640000D01*
X213860000Y-7560000D02*
X213860000Y-8840000D01*
X201850000Y-42180000D02*
X201850000Y-46710000D01*
X201850000Y-37616998D02*
X203119990Y-36347008D01*
X203520000Y-33086592D02*
X203520000Y-27800000D01*
X203119991Y-33486601D02*
X203520000Y-33086592D01*
X191604999Y-30694999D02*
X190570000Y-29660000D01*
X190570000Y-29660000D02*
X190570000Y-29340000D01*
X199214999Y-30694999D02*
X191604999Y-30694999D01*
X219405010Y-30425010D02*
X218930000Y-29950000D01*
X218930000Y-29950000D02*
X218930000Y-29340000D01*
X224863001Y-32983001D02*
X222305010Y-30425010D01*
X222305010Y-30425010D02*
X219405010Y-30425010D01*
X232200000Y-32630000D02*
X231846999Y-32983001D01*
X231846999Y-32983001D02*
X224863001Y-32983001D01*
X232200000Y-29210000D02*
X232200000Y-32630000D01*
X186140010Y-37800010D02*
X186140010Y-31229990D01*
X188030000Y-29340000D02*
X190570000Y-29340000D01*
X218920000Y-29330000D02*
X218930000Y-29340000D01*
X245270000Y-29230000D02*
X245270000Y-30460000D01*
X257495000Y-29770000D02*
X257600000Y-29875000D01*
X254760000Y-29770000D02*
X257495000Y-29770000D01*
X199214999Y-30694999D02*
X201735001Y-30694999D01*
X260880000Y2780000D02*
X265560000Y2780000D01*
X245720000Y-30910000D02*
X253620000Y-30910000D01*
X187320000Y-38980000D02*
X186140010Y-37800010D01*
X202475000Y-29955000D02*
X202490000Y-29955000D01*
X253620000Y-30910000D02*
X254760000Y-29770000D01*
X186140010Y-31229990D02*
X188030000Y-29340000D01*
X245270000Y-30460000D02*
X245720000Y-30910000D01*
X188440000Y-38980000D02*
X187320000Y-38980000D01*
X189810000Y-40350000D02*
X188440000Y-38980000D01*
X216650000Y-29330000D02*
X218920000Y-29330000D01*
X201735001Y-30694999D02*
X202475000Y-29955000D01*
X249680000Y-4250000D02*
X248010000Y-2580000D01*
X249680000Y-5070000D02*
X249680000Y-4250000D01*
X248010000Y-2580000D02*
X248010000Y5550000D01*
X215570000Y-23710000D02*
X215570000Y-28410000D01*
X215570000Y-28410000D02*
X214490000Y-29490000D01*
X203570000Y-33673002D02*
X205370000Y-31873002D01*
X205370000Y-31873002D02*
X205370000Y-29230000D01*
X203570000Y-36970000D02*
X203570000Y-33673002D01*
X202600000Y-37940000D02*
X203570000Y-36970000D01*
X228330000Y-31150010D02*
X228330000Y-29360000D01*
X228330000Y-29360000D02*
X228320000Y-29350000D01*
X217730000Y-10470000D02*
X217452500Y-10747500D01*
X217452500Y-10747500D02*
X178652500Y-10747500D01*
X218140000Y-10880000D02*
X217730000Y-10470000D01*
X192970000Y-5260000D02*
X192970000Y-9810000D01*
X218120000Y-9800000D02*
X192980000Y-9800000D01*
X192980000Y-9800000D02*
X192970000Y-9810000D01*
X204440000Y-22820000D02*
X204440000Y-31730000D01*
X204440000Y-31730000D02*
X204410000Y-31760000D01*
X209450000Y-44960000D02*
X209460000Y-44950000D01*
X209460000Y-43380000D02*
X209460000Y-44930000D01*
X209660000Y-45130000D02*
X216730000Y-52200000D01*
X209460000Y-44930000D02*
X209660000Y-45130000D01*
X209460000Y-44950000D02*
X209480000Y-44950000D01*
X209480000Y-44950000D02*
X209660000Y-45130000D01*
X237890000Y-43210000D02*
X237890000Y-50350000D01*
X237890000Y-50350000D02*
X237880000Y-50360000D01*
X228770000Y-22100000D02*
X229640000Y-22970000D01*
X229640000Y-22970000D02*
X229640000Y-31240000D01*
X216630000Y-8940000D02*
X216650000Y-8960000D01*
X216630000Y-6540000D02*
X216630000Y-8940000D01*
X231450000Y-3560000D02*
X231980000Y-4090000D01*
X231980000Y-4090000D02*
X231980000Y-11210000D01*
X244450000Y-31880000D02*
X244450000Y-22220000D01*
X244450000Y-22220000D02*
X244470000Y-22200000D01*
X250740000Y-20410000D02*
X248950000Y-22200000D01*
X252440000Y-5100000D02*
X252440000Y-11610000D01*
X250740000Y-13310000D02*
X250740000Y-20410000D01*
X252440000Y-11610000D02*
X250740000Y-13310000D01*
X248950000Y-22200000D02*
X244470000Y-22200000D01*
X266710000Y-27100000D02*
X266790000Y-27020000D01*
X265250999Y-2889001D02*
X265260000Y-2880000D01*
X262300000Y-14270000D02*
X265250999Y-11319001D01*
X266710000Y-31440000D02*
X266710000Y-27100000D01*
X265250999Y-11319001D02*
X265250999Y-2889001D01*
X246460000Y4910000D02*
X246460000Y5540000D01*
X247559990Y-4739990D02*
X247559990Y3810010D01*
X247559990Y3810010D02*
X246460000Y4910000D01*
X248040000Y-5220000D02*
X247559990Y-4739990D01*
X260940000Y-31220000D02*
X260940000Y-33255000D01*
X282060000Y-13100000D02*
X282060000Y-15135000D01*
X184758407Y-50251593D02*
X196068407Y-50251593D01*
X183720000Y-51290000D02*
X183720000Y-53325000D01*
X183720000Y-51290000D02*
X184758407Y-50251593D01*
X197760000Y-48560000D02*
X202330000Y-48560000D01*
X196068407Y-50251593D02*
X197760000Y-48560000D01*
X263530001Y1859999D02*
X263500000Y1890000D01*
X261750000Y-13130000D02*
X262660000Y-12220000D01*
X262660000Y-4750000D02*
X263530001Y-3879999D01*
X263530001Y-3879999D02*
X263530001Y1859999D01*
X256560000Y-16745000D02*
X256560000Y-14710000D01*
X262660000Y-12220000D02*
X262660000Y-4750000D01*
X253750000Y-14630000D02*
X253750000Y-16665000D01*
X256178000Y5478000D02*
X256178000Y2518002D01*
X251525000Y-2875000D02*
X250080000Y-1430000D01*
X253640000Y-4990000D02*
X251525000Y-2875000D01*
X276500000Y-7220000D02*
X273960000Y-7220000D01*
X270765000Y-2425000D02*
X283232500Y-2425000D01*
X265560000Y2780000D02*
X270765000Y-2425000D01*
X255055000Y6895000D02*
X256180000Y8020000D01*
X276500000Y-11190000D02*
X276500000Y-7220000D01*
X278050000Y-12740000D02*
X276500000Y-11190000D01*
X253640000Y-7220000D02*
X253640000Y-4990000D01*
X225750000Y7920000D02*
X225120000Y7920000D01*
X225120000Y7920000D02*
X212170000Y7920000D01*
X283232500Y-2425000D02*
X283684500Y-1973000D01*
X255055000Y6895000D02*
X241501650Y6895000D01*
X241501650Y6895000D02*
X240476650Y7920000D01*
X240476650Y7920000D02*
X225120000Y7920000D01*
X258720000Y8020000D02*
X256178000Y5478000D01*
M02*
