G04 #@! TF.GenerationSoftware,KiCad,Pcbnew,7.0.8*
G04 #@! TF.CreationDate,2024-02-12T18:06:56+09:00*
G04 #@! TF.ProjectId,cool939v2,636f6f6c-3933-4397-9632-2e6b69636164,rev?*
G04 #@! TF.SameCoordinates,Original*
G04 #@! TF.FileFunction,Profile,NP*
%FSLAX46Y46*%
G04 Gerber Fmt 4.6, Leading zero omitted, Abs format (unit mm)*
G04 Created by KiCad (PCBNEW 7.0.8) date 2024-02-12 18:06:56*
%MOMM*%
%LPD*%
G01*
G04 APERTURE LIST*
G04 #@! TA.AperFunction,Profile*
%ADD10C,0.150000*%
G04 #@! TD*
G04 #@! TA.AperFunction,Profile*
%ADD11C,0.120000*%
G04 #@! TD*
G04 APERTURE END LIST*
D10*
X180980000Y-65360000D02*
X180980000Y-48850000D01*
X180980000Y-48850000D02*
X185740000Y-48850000D01*
X185740000Y-48850000D02*
X185740000Y-26130000D01*
X185740000Y-26130000D02*
X176210000Y-26130000D01*
X176210000Y-26130000D02*
X176210000Y-6990000D01*
X176210000Y-6990000D02*
X171450000Y-6990000D01*
X171450000Y-6990000D02*
X171450000Y9240000D01*
X252740000Y9240000D02*
X285760000Y9240000D01*
X285760000Y-65360000D02*
X180980000Y-65360000D01*
X285760000Y-65360000D02*
X285760000Y9240000D01*
X252740000Y9240000D02*
X229360000Y22070000D01*
X229360000Y22070000D02*
X221880000Y9240000D01*
X171450000Y9240000D02*
X221880000Y9240000D01*
D11*
X248070000Y-26980000D02*
X251470000Y-26980000D01*
X248070000Y-29980000D02*
X248070000Y-26980000D01*
X251470000Y-26980000D02*
X251470000Y-29980000D01*
X251470000Y-29980000D02*
X248070000Y-29980000D01*
X222120000Y-27040000D02*
X225520000Y-27040000D01*
X222120000Y-30040000D02*
X222120000Y-27040000D01*
X225520000Y-27040000D02*
X225520000Y-30040000D01*
X225520000Y-30040000D02*
X222120000Y-30040000D01*
X193570000Y-26980000D02*
X196970000Y-26980000D01*
X193570000Y-29980000D02*
X193570000Y-26980000D01*
X196970000Y-26980000D02*
X196970000Y-29980000D01*
X196970000Y-29980000D02*
X193570000Y-29980000D01*
M02*
