M48
; DRILL file {KiCad 7.0.8} date 2024 February 12, Monday 18:06:58
; FORMAT={-:-/ absolute / metric / decimal}
; #@! TF.CreationDate,2024-02-12T18:06:58+09:00
; #@! TF.GenerationSoftware,Kicad,Pcbnew,7.0.8
; #@! TF.FileFunction,NonPlated,1,2,NPTH
FMAT,2
METRIC
; #@! TA.AperFunction,NonPlated,NPTH,ComponentDrill
T1C1.200
; #@! TA.AperFunction,NonPlated,NPTH,ComponentDrill
T2C1.900
; #@! TA.AperFunction,NonPlated,NPTH,ComponentDrill
T3C3.000
; #@! TA.AperFunction,NonPlated,NPTH,ComponentDrill
T4C4.100
%
G90
G05
T1
X228.689Y18.0
X234.751Y14.5
T2
X175.895Y0.0
X180.657Y-19.05
X186.055Y0.0
X190.183Y-38.1
X190.817Y-19.05
X192.564Y-57.15
X194.945Y0.0
X199.707Y-19.05
X200.343Y-38.1
X202.724Y-57.15
X205.105Y0.0
X209.232Y-38.1
X209.867Y-19.05
X213.995Y0.0
X218.757Y-19.05
X218.758Y-57.15
X219.392Y-38.1
X224.155Y0.0
X228.282Y-38.1
X228.917Y-19.05
X228.918Y-57.15
X233.045Y0.0
X237.807Y-19.05
X237.807Y-57.15
X238.442Y-38.1
X243.205Y0.0
X247.332Y-38.1
X247.968Y-19.05
X247.968Y-57.15
X252.095Y0.0
X256.858Y-57.15
X257.493Y-38.1
X262.255Y0.0
X264.001Y-19.05
X267.017Y-57.15
X268.763Y-38.1
X271.145Y0.0
X274.161Y-19.05
X278.923Y-38.1
X281.305Y0.0
T3
X177.165Y2.54
X181.927Y-16.51
X183.515Y5.08
X188.278Y-13.97
X191.452Y-35.56
X193.834Y-54.61
X196.215Y2.54
X197.802Y-33.02
X200.184Y-52.07
X200.977Y-16.51
X202.565Y5.08
X207.327Y-13.97
X210.502Y-35.56
X215.265Y2.54
X216.852Y-33.02
X220.028Y-16.51
X220.028Y-54.61
X221.615Y5.08
X226.377Y-13.97
X226.378Y-52.07
X229.552Y-35.56
X234.315Y2.54
X235.903Y-33.02
X239.077Y-16.51
X239.077Y-54.61
X240.665Y5.08
X245.427Y-13.97
X245.427Y-52.07
X248.602Y-35.56
X253.365Y2.54
X254.952Y-33.02
X258.127Y-54.61
X259.715Y5.08
X264.477Y-52.07
X265.272Y-16.51
X270.034Y-35.56
X271.621Y-13.97
X272.415Y2.54
X276.383Y-33.02
X278.765Y5.08
T4
X180.975Y0.0
X185.737Y-19.05
X195.262Y-38.1
X197.644Y-57.15
X200.025Y0.0
X204.787Y-19.05
X214.312Y-38.1
X219.075Y0.0
X223.837Y-19.05
X223.838Y-57.15
X233.362Y-38.1
X238.125Y0.0
X242.887Y-19.05
X242.887Y-57.15
X252.412Y-38.1
X257.175Y0.0
X261.938Y-57.15
X269.082Y-19.05
X273.844Y-38.1
X276.225Y0.0
T0
M30
