M48
; DRILL file {KiCad 7.0.8} date 2024 February 12, Monday 18:06:58
; FORMAT={-:-/ absolute / metric / decimal}
; #@! TF.CreationDate,2024-02-12T18:06:58+09:00
; #@! TF.GenerationSoftware,Kicad,Pcbnew,7.0.8
; #@! TF.FileFunction,Plated,1,2,PTH
FMAT,2
METRIC
; #@! TA.AperFunction,Plated,PTH,ViaDrill
T1C0.400
; #@! TA.AperFunction,Plated,PTH,ComponentDrill
T2C0.813
; #@! TA.AperFunction,Plated,PTH,ComponentDrill
T3C0.850
; #@! TA.AperFunction,Plated,PTH,ComponentDrill
T4C1.000
; #@! TA.AperFunction,Plated,PTH,ComponentDrill
T5C1.300
%
G90
G05
T1
X178.653Y-10.747
X189.81Y-40.35
X190.57Y-29.34
X192.97Y-5.26
X192.97Y-9.81
X200.92Y-47.64
X202.33Y-48.56
X202.49Y-29.955
X202.6Y-37.94
X203.45Y-27.73
X203.51Y-49.47
X204.31Y-8.955
X204.41Y-31.76
X204.44Y-22.82
X204.48Y-34.57
X204.88Y-41.88
X205.37Y-29.23
X207.08Y-23.96
X208.93Y-23.95
X208.97Y-27.73
X209.46Y-43.38
X213.86Y-8.84
X214.49Y-29.49
X215.24Y-49.471
X215.57Y-23.71
X216.63Y-6.54
X216.65Y-8.96
X216.65Y-29.33
X216.68Y-4.74
X216.73Y-52.2
X218.12Y-9.8
X218.14Y-10.88
X218.93Y-29.34
X225.62Y-49.914
X228.32Y-29.35
X228.33Y-31.15
X228.77Y-22.1
X229.64Y-31.24
X231.45Y-3.56
X231.98Y-11.21
X232.2Y-29.21
X235.76Y-12.14
X237.88Y-50.36
X237.89Y-43.21
X244.45Y-31.88
X244.47Y-22.2
X245.27Y-29.23
X246.46Y5.54
X248.01Y5.55
X248.04Y-5.22
X249.68Y-5.07
X250.08Y-1.43
X251.525Y-2.875
X252.44Y-5.1
X255.71Y-8.595
X257.6Y-29.875
X260.18Y-1.43
X260.88Y2.78
X261.75Y-13.13
X262.3Y-14.27
X263.5Y1.89
X265.26Y-2.88
X266.71Y-31.44
X266.79Y-27.02
X278.05Y-12.74
X283.685Y-1.973
T2
X183.72Y-51.29
X183.72Y-58.91
X186.32Y-51.27
X186.32Y-58.89
X189.18Y-0.61
X189.18Y-8.23
X194.01Y-17.41
X194.01Y-25.03
X208.24Y-0.48
X208.24Y-8.1
X208.52Y-51.33
X208.52Y-58.95
X210.69Y-51.31
X210.69Y-58.93
X212.88Y-17.6
X212.88Y-25.22
X213.13Y-51.34
X213.13Y-58.96
X227.34Y-0.74
X227.34Y-8.36
X231.97Y-51.34
X231.97Y-58.96
X232.08Y-19.13
X232.08Y-26.75
X234.57Y-19.11
X234.57Y-26.73
X242.5Y-31.35
X242.5Y-38.97
X246.28Y2.04
X246.28Y-5.58
X253.75Y-14.63
X253.75Y-22.25
X256.56Y-14.71
X256.56Y-22.33
X260.94Y-31.22
X260.94Y-38.84
X263.49Y-31.22
X263.49Y-38.84
X282.06Y-13.1
X282.06Y-20.72
T3
X253.64Y8.02
X253.64Y-7.22
X256.18Y8.02
X256.18Y-7.22
X258.72Y8.02
X258.72Y-7.22
X261.26Y8.02
X261.26Y-7.22
X263.8Y8.02
X263.8Y-7.22
X266.34Y8.02
X266.34Y-7.22
X268.88Y8.02
X268.88Y-7.22
X271.42Y8.02
X271.42Y-7.22
X273.96Y8.02
X273.96Y-7.22
X276.5Y8.02
X276.5Y-7.22
X279.04Y8.02
X279.04Y-7.22
X281.58Y8.02
X281.58Y-7.22
X284.12Y8.02
X284.12Y-7.22
T5
X225.885Y13.025
X231.515Y9.775
T4
G00X229.414Y15.156
M15
G01X228.981Y15.406
M16
G05
G00X232.012Y13.656
M15
G01X231.579Y13.906
M16
G05
G00X235.477Y11.656
M15
G01X235.044Y11.906
M16
G05
G00X238.876Y14.544
M15
G01X238.443Y14.794
M16
G05
T0
M30
