G04 #@! TF.GenerationSoftware,KiCad,Pcbnew,7.0.8*
G04 #@! TF.CreationDate,2024-02-12T18:05:53+09:00*
G04 #@! TF.ProjectId,cool939v2,636f6f6c-3933-4397-9632-2e6b69636164,rev?*
G04 #@! TF.SameCoordinates,Original*
G04 #@! TF.FileFunction,Legend,Top*
G04 #@! TF.FilePolarity,Positive*
%FSLAX46Y46*%
G04 Gerber Fmt 4.6, Leading zero omitted, Abs format (unit mm)*
G04 Created by KiCad (PCBNEW 7.0.8) date 2024-02-12 18:05:53*
%MOMM*%
%LPD*%
G01*
G04 APERTURE LIST*
%ADD10C,0.300000*%
%ADD11C,0.150000*%
%ADD12C,0.120000*%
%ADD13R,1.397000X1.397000*%
%ADD14C,1.397000*%
G04 APERTURE END LIST*
D10*
X21814287Y-61189400D02*
X21671429Y-61260828D01*
X21671429Y-61260828D02*
X21385715Y-61260828D01*
X21385715Y-61260828D02*
X21242858Y-61189400D01*
X21242858Y-61189400D02*
X21171429Y-61117971D01*
X21171429Y-61117971D02*
X21100001Y-60975114D01*
X21100001Y-60975114D02*
X21100001Y-60546542D01*
X21100001Y-60546542D02*
X21171429Y-60403685D01*
X21171429Y-60403685D02*
X21242858Y-60332257D01*
X21242858Y-60332257D02*
X21385715Y-60260828D01*
X21385715Y-60260828D02*
X21671429Y-60260828D01*
X21671429Y-60260828D02*
X21814287Y-60332257D01*
X22671429Y-61260828D02*
X22528572Y-61189400D01*
X22528572Y-61189400D02*
X22457143Y-61117971D01*
X22457143Y-61117971D02*
X22385715Y-60975114D01*
X22385715Y-60975114D02*
X22385715Y-60546542D01*
X22385715Y-60546542D02*
X22457143Y-60403685D01*
X22457143Y-60403685D02*
X22528572Y-60332257D01*
X22528572Y-60332257D02*
X22671429Y-60260828D01*
X22671429Y-60260828D02*
X22885715Y-60260828D01*
X22885715Y-60260828D02*
X23028572Y-60332257D01*
X23028572Y-60332257D02*
X23100001Y-60403685D01*
X23100001Y-60403685D02*
X23171429Y-60546542D01*
X23171429Y-60546542D02*
X23171429Y-60975114D01*
X23171429Y-60975114D02*
X23100001Y-61117971D01*
X23100001Y-61117971D02*
X23028572Y-61189400D01*
X23028572Y-61189400D02*
X22885715Y-61260828D01*
X22885715Y-61260828D02*
X22671429Y-61260828D01*
X24028572Y-61260828D02*
X23885715Y-61189400D01*
X23885715Y-61189400D02*
X23814286Y-61117971D01*
X23814286Y-61117971D02*
X23742858Y-60975114D01*
X23742858Y-60975114D02*
X23742858Y-60546542D01*
X23742858Y-60546542D02*
X23814286Y-60403685D01*
X23814286Y-60403685D02*
X23885715Y-60332257D01*
X23885715Y-60332257D02*
X24028572Y-60260828D01*
X24028572Y-60260828D02*
X24242858Y-60260828D01*
X24242858Y-60260828D02*
X24385715Y-60332257D01*
X24385715Y-60332257D02*
X24457144Y-60403685D01*
X24457144Y-60403685D02*
X24528572Y-60546542D01*
X24528572Y-60546542D02*
X24528572Y-60975114D01*
X24528572Y-60975114D02*
X24457144Y-61117971D01*
X24457144Y-61117971D02*
X24385715Y-61189400D01*
X24385715Y-61189400D02*
X24242858Y-61260828D01*
X24242858Y-61260828D02*
X24028572Y-61260828D01*
X25385715Y-61260828D02*
X25242858Y-61189400D01*
X25242858Y-61189400D02*
X25171429Y-61046542D01*
X25171429Y-61046542D02*
X25171429Y-59760828D01*
X26028572Y-61260828D02*
X26314286Y-61260828D01*
X26314286Y-61260828D02*
X26457143Y-61189400D01*
X26457143Y-61189400D02*
X26528572Y-61117971D01*
X26528572Y-61117971D02*
X26671429Y-60903685D01*
X26671429Y-60903685D02*
X26742858Y-60617971D01*
X26742858Y-60617971D02*
X26742858Y-60046542D01*
X26742858Y-60046542D02*
X26671429Y-59903685D01*
X26671429Y-59903685D02*
X26600001Y-59832257D01*
X26600001Y-59832257D02*
X26457143Y-59760828D01*
X26457143Y-59760828D02*
X26171429Y-59760828D01*
X26171429Y-59760828D02*
X26028572Y-59832257D01*
X26028572Y-59832257D02*
X25957143Y-59903685D01*
X25957143Y-59903685D02*
X25885715Y-60046542D01*
X25885715Y-60046542D02*
X25885715Y-60403685D01*
X25885715Y-60403685D02*
X25957143Y-60546542D01*
X25957143Y-60546542D02*
X26028572Y-60617971D01*
X26028572Y-60617971D02*
X26171429Y-60689400D01*
X26171429Y-60689400D02*
X26457143Y-60689400D01*
X26457143Y-60689400D02*
X26600001Y-60617971D01*
X26600001Y-60617971D02*
X26671429Y-60546542D01*
X26671429Y-60546542D02*
X26742858Y-60403685D01*
X27242857Y-59760828D02*
X28171429Y-59760828D01*
X28171429Y-59760828D02*
X27671429Y-60332257D01*
X27671429Y-60332257D02*
X27885714Y-60332257D01*
X27885714Y-60332257D02*
X28028572Y-60403685D01*
X28028572Y-60403685D02*
X28100000Y-60475114D01*
X28100000Y-60475114D02*
X28171429Y-60617971D01*
X28171429Y-60617971D02*
X28171429Y-60975114D01*
X28171429Y-60975114D02*
X28100000Y-61117971D01*
X28100000Y-61117971D02*
X28028572Y-61189400D01*
X28028572Y-61189400D02*
X27885714Y-61260828D01*
X27885714Y-61260828D02*
X27457143Y-61260828D01*
X27457143Y-61260828D02*
X27314286Y-61189400D01*
X27314286Y-61189400D02*
X27242857Y-61117971D01*
X28885714Y-61260828D02*
X29171428Y-61260828D01*
X29171428Y-61260828D02*
X29314285Y-61189400D01*
X29314285Y-61189400D02*
X29385714Y-61117971D01*
X29385714Y-61117971D02*
X29528571Y-60903685D01*
X29528571Y-60903685D02*
X29600000Y-60617971D01*
X29600000Y-60617971D02*
X29600000Y-60046542D01*
X29600000Y-60046542D02*
X29528571Y-59903685D01*
X29528571Y-59903685D02*
X29457143Y-59832257D01*
X29457143Y-59832257D02*
X29314285Y-59760828D01*
X29314285Y-59760828D02*
X29028571Y-59760828D01*
X29028571Y-59760828D02*
X28885714Y-59832257D01*
X28885714Y-59832257D02*
X28814285Y-59903685D01*
X28814285Y-59903685D02*
X28742857Y-60046542D01*
X28742857Y-60046542D02*
X28742857Y-60403685D01*
X28742857Y-60403685D02*
X28814285Y-60546542D01*
X28814285Y-60546542D02*
X28885714Y-60617971D01*
X28885714Y-60617971D02*
X29028571Y-60689400D01*
X29028571Y-60689400D02*
X29314285Y-60689400D01*
X29314285Y-60689400D02*
X29457143Y-60617971D01*
X29457143Y-60617971D02*
X29528571Y-60546542D01*
X29528571Y-60546542D02*
X29600000Y-60403685D01*
X21171428Y-63675828D02*
X21028571Y-63604400D01*
X21028571Y-63604400D02*
X20957142Y-63461542D01*
X20957142Y-63461542D02*
X20957142Y-62175828D01*
X22314285Y-63604400D02*
X22171428Y-63675828D01*
X22171428Y-63675828D02*
X21885714Y-63675828D01*
X21885714Y-63675828D02*
X21742856Y-63604400D01*
X21742856Y-63604400D02*
X21671428Y-63461542D01*
X21671428Y-63461542D02*
X21671428Y-62890114D01*
X21671428Y-62890114D02*
X21742856Y-62747257D01*
X21742856Y-62747257D02*
X21885714Y-62675828D01*
X21885714Y-62675828D02*
X22171428Y-62675828D01*
X22171428Y-62675828D02*
X22314285Y-62747257D01*
X22314285Y-62747257D02*
X22385714Y-62890114D01*
X22385714Y-62890114D02*
X22385714Y-63032971D01*
X22385714Y-63032971D02*
X21671428Y-63175828D01*
X22814285Y-62675828D02*
X23385713Y-62675828D01*
X23028570Y-63675828D02*
X23028570Y-62390114D01*
X23028570Y-62390114D02*
X23099999Y-62247257D01*
X23099999Y-62247257D02*
X23242856Y-62175828D01*
X23242856Y-62175828D02*
X23385713Y-62175828D01*
X23671428Y-62675828D02*
X24242856Y-62675828D01*
X23885713Y-62175828D02*
X23885713Y-63461542D01*
X23885713Y-63461542D02*
X23957142Y-63604400D01*
X23957142Y-63604400D02*
X24099999Y-63675828D01*
X24099999Y-63675828D02*
X24242856Y-63675828D01*
X24385714Y-63818685D02*
X25528571Y-63818685D01*
X25814285Y-63604400D02*
X25957142Y-63675828D01*
X25957142Y-63675828D02*
X26242856Y-63675828D01*
X26242856Y-63675828D02*
X26385713Y-63604400D01*
X26385713Y-63604400D02*
X26457142Y-63461542D01*
X26457142Y-63461542D02*
X26457142Y-63390114D01*
X26457142Y-63390114D02*
X26385713Y-63247257D01*
X26385713Y-63247257D02*
X26242856Y-63175828D01*
X26242856Y-63175828D02*
X26028571Y-63175828D01*
X26028571Y-63175828D02*
X25885713Y-63104400D01*
X25885713Y-63104400D02*
X25814285Y-62961542D01*
X25814285Y-62961542D02*
X25814285Y-62890114D01*
X25814285Y-62890114D02*
X25885713Y-62747257D01*
X25885713Y-62747257D02*
X26028571Y-62675828D01*
X26028571Y-62675828D02*
X26242856Y-62675828D01*
X26242856Y-62675828D02*
X26385713Y-62747257D01*
X27099999Y-63675828D02*
X27099999Y-62675828D01*
X27099999Y-62175828D02*
X27028571Y-62247257D01*
X27028571Y-62247257D02*
X27099999Y-62318685D01*
X27099999Y-62318685D02*
X27171428Y-62247257D01*
X27171428Y-62247257D02*
X27099999Y-62175828D01*
X27099999Y-62175828D02*
X27099999Y-62318685D01*
X28457143Y-63675828D02*
X28457143Y-62175828D01*
X28457143Y-63604400D02*
X28314285Y-63675828D01*
X28314285Y-63675828D02*
X28028571Y-63675828D01*
X28028571Y-63675828D02*
X27885714Y-63604400D01*
X27885714Y-63604400D02*
X27814285Y-63532971D01*
X27814285Y-63532971D02*
X27742857Y-63390114D01*
X27742857Y-63390114D02*
X27742857Y-62961542D01*
X27742857Y-62961542D02*
X27814285Y-62818685D01*
X27814285Y-62818685D02*
X27885714Y-62747257D01*
X27885714Y-62747257D02*
X28028571Y-62675828D01*
X28028571Y-62675828D02*
X28314285Y-62675828D01*
X28314285Y-62675828D02*
X28457143Y-62747257D01*
X29742857Y-63604400D02*
X29600000Y-63675828D01*
X29600000Y-63675828D02*
X29314286Y-63675828D01*
X29314286Y-63675828D02*
X29171428Y-63604400D01*
X29171428Y-63604400D02*
X29100000Y-63461542D01*
X29100000Y-63461542D02*
X29100000Y-62890114D01*
X29100000Y-62890114D02*
X29171428Y-62747257D01*
X29171428Y-62747257D02*
X29314286Y-62675828D01*
X29314286Y-62675828D02*
X29600000Y-62675828D01*
X29600000Y-62675828D02*
X29742857Y-62747257D01*
X29742857Y-62747257D02*
X29814286Y-62890114D01*
X29814286Y-62890114D02*
X29814286Y-63032971D01*
X29814286Y-63032971D02*
X29100000Y-63175828D01*
D11*
X35544938Y-5071792D02*
X35497319Y-5147982D01*
X35497319Y-5147982D02*
X35497319Y-5262268D01*
X35497319Y-5262268D02*
X35544938Y-5376554D01*
X35544938Y-5376554D02*
X35640176Y-5452744D01*
X35640176Y-5452744D02*
X35735414Y-5490839D01*
X35735414Y-5490839D02*
X35925890Y-5528935D01*
X35925890Y-5528935D02*
X36068747Y-5528935D01*
X36068747Y-5528935D02*
X36259223Y-5490839D01*
X36259223Y-5490839D02*
X36354461Y-5452744D01*
X36354461Y-5452744D02*
X36449700Y-5376554D01*
X36449700Y-5376554D02*
X36497319Y-5262268D01*
X36497319Y-5262268D02*
X36497319Y-5186077D01*
X36497319Y-5186077D02*
X36449700Y-5071792D01*
X36449700Y-5071792D02*
X36402080Y-5033696D01*
X36402080Y-5033696D02*
X36068747Y-5033696D01*
X36068747Y-5033696D02*
X36068747Y-5186077D01*
X36497319Y-4690839D02*
X35497319Y-4690839D01*
X35497319Y-4690839D02*
X35497319Y-4386077D01*
X35497319Y-4386077D02*
X35544938Y-4309887D01*
X35544938Y-4309887D02*
X35592557Y-4271792D01*
X35592557Y-4271792D02*
X35687795Y-4233696D01*
X35687795Y-4233696D02*
X35830652Y-4233696D01*
X35830652Y-4233696D02*
X35925890Y-4271792D01*
X35925890Y-4271792D02*
X35973509Y-4309887D01*
X35973509Y-4309887D02*
X36021128Y-4386077D01*
X36021128Y-4386077D02*
X36021128Y-4690839D01*
X35592557Y-3928935D02*
X35544938Y-3890839D01*
X35544938Y-3890839D02*
X35497319Y-3814649D01*
X35497319Y-3814649D02*
X35497319Y-3624173D01*
X35497319Y-3624173D02*
X35544938Y-3547982D01*
X35544938Y-3547982D02*
X35592557Y-3509887D01*
X35592557Y-3509887D02*
X35687795Y-3471792D01*
X35687795Y-3471792D02*
X35783033Y-3471792D01*
X35783033Y-3471792D02*
X35925890Y-3509887D01*
X35925890Y-3509887D02*
X36497319Y-3967030D01*
X36497319Y-3967030D02*
X36497319Y-3471792D01*
X35925890Y-3014649D02*
X35878271Y-3090839D01*
X35878271Y-3090839D02*
X35830652Y-3128934D01*
X35830652Y-3128934D02*
X35735414Y-3167030D01*
X35735414Y-3167030D02*
X35687795Y-3167030D01*
X35687795Y-3167030D02*
X35592557Y-3128934D01*
X35592557Y-3128934D02*
X35544938Y-3090839D01*
X35544938Y-3090839D02*
X35497319Y-3014649D01*
X35497319Y-3014649D02*
X35497319Y-2862268D01*
X35497319Y-2862268D02*
X35544938Y-2786077D01*
X35544938Y-2786077D02*
X35592557Y-2747982D01*
X35592557Y-2747982D02*
X35687795Y-2709887D01*
X35687795Y-2709887D02*
X35735414Y-2709887D01*
X35735414Y-2709887D02*
X35830652Y-2747982D01*
X35830652Y-2747982D02*
X35878271Y-2786077D01*
X35878271Y-2786077D02*
X35925890Y-2862268D01*
X35925890Y-2862268D02*
X35925890Y-3014649D01*
X35925890Y-3014649D02*
X35973509Y-3090839D01*
X35973509Y-3090839D02*
X36021128Y-3128934D01*
X36021128Y-3128934D02*
X36116366Y-3167030D01*
X36116366Y-3167030D02*
X36306842Y-3167030D01*
X36306842Y-3167030D02*
X36402080Y-3128934D01*
X36402080Y-3128934D02*
X36449700Y-3090839D01*
X36449700Y-3090839D02*
X36497319Y-3014649D01*
X36497319Y-3014649D02*
X36497319Y-2862268D01*
X36497319Y-2862268D02*
X36449700Y-2786077D01*
X36449700Y-2786077D02*
X36402080Y-2747982D01*
X36402080Y-2747982D02*
X36306842Y-2709887D01*
X36306842Y-2709887D02*
X36116366Y-2709887D01*
X36116366Y-2709887D02*
X36021128Y-2747982D01*
X36021128Y-2747982D02*
X35973509Y-2786077D01*
X35973509Y-2786077D02*
X35925890Y-2862268D01*
X48244938Y4428934D02*
X48197319Y4352744D01*
X48197319Y4352744D02*
X48197319Y4238458D01*
X48197319Y4238458D02*
X48244938Y4124172D01*
X48244938Y4124172D02*
X48340176Y4047982D01*
X48340176Y4047982D02*
X48435414Y4009887D01*
X48435414Y4009887D02*
X48625890Y3971791D01*
X48625890Y3971791D02*
X48768747Y3971791D01*
X48768747Y3971791D02*
X48959223Y4009887D01*
X48959223Y4009887D02*
X49054461Y4047982D01*
X49054461Y4047982D02*
X49149700Y4124172D01*
X49149700Y4124172D02*
X49197319Y4238458D01*
X49197319Y4238458D02*
X49197319Y4314649D01*
X49197319Y4314649D02*
X49149700Y4428934D01*
X49149700Y4428934D02*
X49102080Y4467030D01*
X49102080Y4467030D02*
X48768747Y4467030D01*
X48768747Y4467030D02*
X48768747Y4314649D01*
X49197319Y4809887D02*
X48197319Y4809887D01*
X48197319Y4809887D02*
X48197319Y5114649D01*
X48197319Y5114649D02*
X48244938Y5190839D01*
X48244938Y5190839D02*
X48292557Y5228934D01*
X48292557Y5228934D02*
X48387795Y5267030D01*
X48387795Y5267030D02*
X48530652Y5267030D01*
X48530652Y5267030D02*
X48625890Y5228934D01*
X48625890Y5228934D02*
X48673509Y5190839D01*
X48673509Y5190839D02*
X48721128Y5114649D01*
X48721128Y5114649D02*
X48721128Y4809887D01*
X48625890Y5724172D02*
X48578271Y5647982D01*
X48578271Y5647982D02*
X48530652Y5609887D01*
X48530652Y5609887D02*
X48435414Y5571791D01*
X48435414Y5571791D02*
X48387795Y5571791D01*
X48387795Y5571791D02*
X48292557Y5609887D01*
X48292557Y5609887D02*
X48244938Y5647982D01*
X48244938Y5647982D02*
X48197319Y5724172D01*
X48197319Y5724172D02*
X48197319Y5876553D01*
X48197319Y5876553D02*
X48244938Y5952744D01*
X48244938Y5952744D02*
X48292557Y5990839D01*
X48292557Y5990839D02*
X48387795Y6028934D01*
X48387795Y6028934D02*
X48435414Y6028934D01*
X48435414Y6028934D02*
X48530652Y5990839D01*
X48530652Y5990839D02*
X48578271Y5952744D01*
X48578271Y5952744D02*
X48625890Y5876553D01*
X48625890Y5876553D02*
X48625890Y5724172D01*
X48625890Y5724172D02*
X48673509Y5647982D01*
X48673509Y5647982D02*
X48721128Y5609887D01*
X48721128Y5609887D02*
X48816366Y5571791D01*
X48816366Y5571791D02*
X49006842Y5571791D01*
X49006842Y5571791D02*
X49102080Y5609887D01*
X49102080Y5609887D02*
X49149700Y5647982D01*
X49149700Y5647982D02*
X49197319Y5724172D01*
X49197319Y5724172D02*
X49197319Y5876553D01*
X49197319Y5876553D02*
X49149700Y5952744D01*
X49149700Y5952744D02*
X49102080Y5990839D01*
X49102080Y5990839D02*
X49006842Y6028934D01*
X49006842Y6028934D02*
X48816366Y6028934D01*
X48816366Y6028934D02*
X48721128Y5990839D01*
X48721128Y5990839D02*
X48673509Y5952744D01*
X48673509Y5952744D02*
X48625890Y5876553D01*
X33004938Y-1864399D02*
X32957319Y-1921542D01*
X32957319Y-1921542D02*
X32957319Y-2007256D01*
X32957319Y-2007256D02*
X33004938Y-2092970D01*
X33004938Y-2092970D02*
X33100176Y-2150113D01*
X33100176Y-2150113D02*
X33195414Y-2178684D01*
X33195414Y-2178684D02*
X33385890Y-2207256D01*
X33385890Y-2207256D02*
X33528747Y-2207256D01*
X33528747Y-2207256D02*
X33719223Y-2178684D01*
X33719223Y-2178684D02*
X33814461Y-2150113D01*
X33814461Y-2150113D02*
X33909700Y-2092970D01*
X33909700Y-2092970D02*
X33957319Y-2007256D01*
X33957319Y-2007256D02*
X33957319Y-1950113D01*
X33957319Y-1950113D02*
X33909700Y-1864399D01*
X33909700Y-1864399D02*
X33862080Y-1835827D01*
X33862080Y-1835827D02*
X33528747Y-1835827D01*
X33528747Y-1835827D02*
X33528747Y-1950113D01*
X33957319Y-1578684D02*
X32957319Y-1578684D01*
X32957319Y-1578684D02*
X32957319Y-1350113D01*
X32957319Y-1350113D02*
X33004938Y-1292970D01*
X33004938Y-1292970D02*
X33052557Y-1264399D01*
X33052557Y-1264399D02*
X33147795Y-1235827D01*
X33147795Y-1235827D02*
X33290652Y-1235827D01*
X33290652Y-1235827D02*
X33385890Y-1264399D01*
X33385890Y-1264399D02*
X33433509Y-1292970D01*
X33433509Y-1292970D02*
X33481128Y-1350113D01*
X33481128Y-1350113D02*
X33481128Y-1578684D01*
X33052557Y-1007256D02*
X33004938Y-978684D01*
X33004938Y-978684D02*
X32957319Y-921542D01*
X32957319Y-921542D02*
X32957319Y-778684D01*
X32957319Y-778684D02*
X33004938Y-721542D01*
X33004938Y-721542D02*
X33052557Y-692970D01*
X33052557Y-692970D02*
X33147795Y-664399D01*
X33147795Y-664399D02*
X33243033Y-664399D01*
X33243033Y-664399D02*
X33385890Y-692970D01*
X33385890Y-692970D02*
X33957319Y-1035827D01*
X33957319Y-1035827D02*
X33957319Y-664399D01*
X33957319Y-378684D02*
X33957319Y-264398D01*
X33957319Y-264398D02*
X33909700Y-207255D01*
X33909700Y-207255D02*
X33862080Y-178684D01*
X33862080Y-178684D02*
X33719223Y-121541D01*
X33719223Y-121541D02*
X33528747Y-92970D01*
X33528747Y-92970D02*
X33147795Y-92970D01*
X33147795Y-92970D02*
X33052557Y-121541D01*
X33052557Y-121541D02*
X33004938Y-150113D01*
X33004938Y-150113D02*
X32957319Y-207255D01*
X32957319Y-207255D02*
X32957319Y-321541D01*
X32957319Y-321541D02*
X33004938Y-378684D01*
X33004938Y-378684D02*
X33052557Y-407255D01*
X33052557Y-407255D02*
X33147795Y-435827D01*
X33147795Y-435827D02*
X33385890Y-435827D01*
X33385890Y-435827D02*
X33481128Y-407255D01*
X33481128Y-407255D02*
X33528747Y-378684D01*
X33528747Y-378684D02*
X33576366Y-321541D01*
X33576366Y-321541D02*
X33576366Y-207255D01*
X33576366Y-207255D02*
X33528747Y-150113D01*
X33528747Y-150113D02*
X33481128Y-121541D01*
X33481128Y-121541D02*
X33385890Y-92970D01*
X45704938Y4428934D02*
X45657319Y4352744D01*
X45657319Y4352744D02*
X45657319Y4238458D01*
X45657319Y4238458D02*
X45704938Y4124172D01*
X45704938Y4124172D02*
X45800176Y4047982D01*
X45800176Y4047982D02*
X45895414Y4009887D01*
X45895414Y4009887D02*
X46085890Y3971791D01*
X46085890Y3971791D02*
X46228747Y3971791D01*
X46228747Y3971791D02*
X46419223Y4009887D01*
X46419223Y4009887D02*
X46514461Y4047982D01*
X46514461Y4047982D02*
X46609700Y4124172D01*
X46609700Y4124172D02*
X46657319Y4238458D01*
X46657319Y4238458D02*
X46657319Y4314649D01*
X46657319Y4314649D02*
X46609700Y4428934D01*
X46609700Y4428934D02*
X46562080Y4467030D01*
X46562080Y4467030D02*
X46228747Y4467030D01*
X46228747Y4467030D02*
X46228747Y4314649D01*
X46657319Y4809887D02*
X45657319Y4809887D01*
X45657319Y4809887D02*
X45657319Y5114649D01*
X45657319Y5114649D02*
X45704938Y5190839D01*
X45704938Y5190839D02*
X45752557Y5228934D01*
X45752557Y5228934D02*
X45847795Y5267030D01*
X45847795Y5267030D02*
X45990652Y5267030D01*
X45990652Y5267030D02*
X46085890Y5228934D01*
X46085890Y5228934D02*
X46133509Y5190839D01*
X46133509Y5190839D02*
X46181128Y5114649D01*
X46181128Y5114649D02*
X46181128Y4809887D01*
X45657319Y5533696D02*
X45657319Y6067030D01*
X45657319Y6067030D02*
X46657319Y5724172D01*
X40624938Y-5071792D02*
X40577319Y-5147982D01*
X40577319Y-5147982D02*
X40577319Y-5262268D01*
X40577319Y-5262268D02*
X40624938Y-5376554D01*
X40624938Y-5376554D02*
X40720176Y-5452744D01*
X40720176Y-5452744D02*
X40815414Y-5490839D01*
X40815414Y-5490839D02*
X41005890Y-5528935D01*
X41005890Y-5528935D02*
X41148747Y-5528935D01*
X41148747Y-5528935D02*
X41339223Y-5490839D01*
X41339223Y-5490839D02*
X41434461Y-5452744D01*
X41434461Y-5452744D02*
X41529700Y-5376554D01*
X41529700Y-5376554D02*
X41577319Y-5262268D01*
X41577319Y-5262268D02*
X41577319Y-5186077D01*
X41577319Y-5186077D02*
X41529700Y-5071792D01*
X41529700Y-5071792D02*
X41482080Y-5033696D01*
X41482080Y-5033696D02*
X41148747Y-5033696D01*
X41148747Y-5033696D02*
X41148747Y-5186077D01*
X41577319Y-4690839D02*
X40577319Y-4690839D01*
X40577319Y-4690839D02*
X40577319Y-4386077D01*
X40577319Y-4386077D02*
X40624938Y-4309887D01*
X40624938Y-4309887D02*
X40672557Y-4271792D01*
X40672557Y-4271792D02*
X40767795Y-4233696D01*
X40767795Y-4233696D02*
X40910652Y-4233696D01*
X40910652Y-4233696D02*
X41005890Y-4271792D01*
X41005890Y-4271792D02*
X41053509Y-4309887D01*
X41053509Y-4309887D02*
X41101128Y-4386077D01*
X41101128Y-4386077D02*
X41101128Y-4690839D01*
X40672557Y-3928935D02*
X40624938Y-3890839D01*
X40624938Y-3890839D02*
X40577319Y-3814649D01*
X40577319Y-3814649D02*
X40577319Y-3624173D01*
X40577319Y-3624173D02*
X40624938Y-3547982D01*
X40624938Y-3547982D02*
X40672557Y-3509887D01*
X40672557Y-3509887D02*
X40767795Y-3471792D01*
X40767795Y-3471792D02*
X40863033Y-3471792D01*
X40863033Y-3471792D02*
X41005890Y-3509887D01*
X41005890Y-3509887D02*
X41577319Y-3967030D01*
X41577319Y-3967030D02*
X41577319Y-3471792D01*
X40577319Y-2786077D02*
X40577319Y-2938458D01*
X40577319Y-2938458D02*
X40624938Y-3014649D01*
X40624938Y-3014649D02*
X40672557Y-3052744D01*
X40672557Y-3052744D02*
X40815414Y-3128934D01*
X40815414Y-3128934D02*
X41005890Y-3167030D01*
X41005890Y-3167030D02*
X41386842Y-3167030D01*
X41386842Y-3167030D02*
X41482080Y-3128934D01*
X41482080Y-3128934D02*
X41529700Y-3090839D01*
X41529700Y-3090839D02*
X41577319Y-3014649D01*
X41577319Y-3014649D02*
X41577319Y-2862268D01*
X41577319Y-2862268D02*
X41529700Y-2786077D01*
X41529700Y-2786077D02*
X41482080Y-2747982D01*
X41482080Y-2747982D02*
X41386842Y-2709887D01*
X41386842Y-2709887D02*
X41148747Y-2709887D01*
X41148747Y-2709887D02*
X41053509Y-2747982D01*
X41053509Y-2747982D02*
X41005890Y-2786077D01*
X41005890Y-2786077D02*
X40958271Y-2862268D01*
X40958271Y-2862268D02*
X40958271Y-3014649D01*
X40958271Y-3014649D02*
X41005890Y-3090839D01*
X41005890Y-3090839D02*
X41053509Y-3128934D01*
X41053509Y-3128934D02*
X41148747Y-3167030D01*
X38084938Y-5071792D02*
X38037319Y-5147982D01*
X38037319Y-5147982D02*
X38037319Y-5262268D01*
X38037319Y-5262268D02*
X38084938Y-5376554D01*
X38084938Y-5376554D02*
X38180176Y-5452744D01*
X38180176Y-5452744D02*
X38275414Y-5490839D01*
X38275414Y-5490839D02*
X38465890Y-5528935D01*
X38465890Y-5528935D02*
X38608747Y-5528935D01*
X38608747Y-5528935D02*
X38799223Y-5490839D01*
X38799223Y-5490839D02*
X38894461Y-5452744D01*
X38894461Y-5452744D02*
X38989700Y-5376554D01*
X38989700Y-5376554D02*
X39037319Y-5262268D01*
X39037319Y-5262268D02*
X39037319Y-5186077D01*
X39037319Y-5186077D02*
X38989700Y-5071792D01*
X38989700Y-5071792D02*
X38942080Y-5033696D01*
X38942080Y-5033696D02*
X38608747Y-5033696D01*
X38608747Y-5033696D02*
X38608747Y-5186077D01*
X39037319Y-4690839D02*
X38037319Y-4690839D01*
X38037319Y-4690839D02*
X38037319Y-4386077D01*
X38037319Y-4386077D02*
X38084938Y-4309887D01*
X38084938Y-4309887D02*
X38132557Y-4271792D01*
X38132557Y-4271792D02*
X38227795Y-4233696D01*
X38227795Y-4233696D02*
X38370652Y-4233696D01*
X38370652Y-4233696D02*
X38465890Y-4271792D01*
X38465890Y-4271792D02*
X38513509Y-4309887D01*
X38513509Y-4309887D02*
X38561128Y-4386077D01*
X38561128Y-4386077D02*
X38561128Y-4690839D01*
X38132557Y-3928935D02*
X38084938Y-3890839D01*
X38084938Y-3890839D02*
X38037319Y-3814649D01*
X38037319Y-3814649D02*
X38037319Y-3624173D01*
X38037319Y-3624173D02*
X38084938Y-3547982D01*
X38084938Y-3547982D02*
X38132557Y-3509887D01*
X38132557Y-3509887D02*
X38227795Y-3471792D01*
X38227795Y-3471792D02*
X38323033Y-3471792D01*
X38323033Y-3471792D02*
X38465890Y-3509887D01*
X38465890Y-3509887D02*
X39037319Y-3967030D01*
X39037319Y-3967030D02*
X39037319Y-3471792D01*
X38037319Y-3205125D02*
X38037319Y-2671791D01*
X38037319Y-2671791D02*
X39037319Y-3014649D01*
X22844938Y4428934D02*
X22797319Y4352744D01*
X22797319Y4352744D02*
X22797319Y4238458D01*
X22797319Y4238458D02*
X22844938Y4124172D01*
X22844938Y4124172D02*
X22940176Y4047982D01*
X22940176Y4047982D02*
X23035414Y4009887D01*
X23035414Y4009887D02*
X23225890Y3971791D01*
X23225890Y3971791D02*
X23368747Y3971791D01*
X23368747Y3971791D02*
X23559223Y4009887D01*
X23559223Y4009887D02*
X23654461Y4047982D01*
X23654461Y4047982D02*
X23749700Y4124172D01*
X23749700Y4124172D02*
X23797319Y4238458D01*
X23797319Y4238458D02*
X23797319Y4314649D01*
X23797319Y4314649D02*
X23749700Y4428934D01*
X23749700Y4428934D02*
X23702080Y4467030D01*
X23702080Y4467030D02*
X23368747Y4467030D01*
X23368747Y4467030D02*
X23368747Y4314649D01*
X23797319Y4809887D02*
X22797319Y4809887D01*
X22797319Y4809887D02*
X22797319Y5114649D01*
X22797319Y5114649D02*
X22844938Y5190839D01*
X22844938Y5190839D02*
X22892557Y5228934D01*
X22892557Y5228934D02*
X22987795Y5267030D01*
X22987795Y5267030D02*
X23130652Y5267030D01*
X23130652Y5267030D02*
X23225890Y5228934D01*
X23225890Y5228934D02*
X23273509Y5190839D01*
X23273509Y5190839D02*
X23321128Y5114649D01*
X23321128Y5114649D02*
X23321128Y4809887D01*
X22797319Y5762268D02*
X22797319Y5838458D01*
X22797319Y5838458D02*
X22844938Y5914649D01*
X22844938Y5914649D02*
X22892557Y5952744D01*
X22892557Y5952744D02*
X22987795Y5990839D01*
X22987795Y5990839D02*
X23178271Y6028934D01*
X23178271Y6028934D02*
X23416366Y6028934D01*
X23416366Y6028934D02*
X23606842Y5990839D01*
X23606842Y5990839D02*
X23702080Y5952744D01*
X23702080Y5952744D02*
X23749700Y5914649D01*
X23749700Y5914649D02*
X23797319Y5838458D01*
X23797319Y5838458D02*
X23797319Y5762268D01*
X23797319Y5762268D02*
X23749700Y5686077D01*
X23749700Y5686077D02*
X23702080Y5647982D01*
X23702080Y5647982D02*
X23606842Y5609887D01*
X23606842Y5609887D02*
X23416366Y5571791D01*
X23416366Y5571791D02*
X23178271Y5571791D01*
X23178271Y5571791D02*
X22987795Y5609887D01*
X22987795Y5609887D02*
X22892557Y5647982D01*
X22892557Y5647982D02*
X22844938Y5686077D01*
X22844938Y5686077D02*
X22797319Y5762268D01*
X22797319Y-5109887D02*
X22797319Y-5490839D01*
X22797319Y-5490839D02*
X23273509Y-5528935D01*
X23273509Y-5528935D02*
X23225890Y-5490839D01*
X23225890Y-5490839D02*
X23178271Y-5414649D01*
X23178271Y-5414649D02*
X23178271Y-5224173D01*
X23178271Y-5224173D02*
X23225890Y-5147982D01*
X23225890Y-5147982D02*
X23273509Y-5109887D01*
X23273509Y-5109887D02*
X23368747Y-5071792D01*
X23368747Y-5071792D02*
X23606842Y-5071792D01*
X23606842Y-5071792D02*
X23702080Y-5109887D01*
X23702080Y-5109887D02*
X23749700Y-5147982D01*
X23749700Y-5147982D02*
X23797319Y-5224173D01*
X23797319Y-5224173D02*
X23797319Y-5414649D01*
X23797319Y-5414649D02*
X23749700Y-5490839D01*
X23749700Y-5490839D02*
X23702080Y-5528935D01*
X22797319Y-4843220D02*
X23797319Y-4576553D01*
X23797319Y-4576553D02*
X22797319Y-4309887D01*
X43164938Y4428934D02*
X43117319Y4352744D01*
X43117319Y4352744D02*
X43117319Y4238458D01*
X43117319Y4238458D02*
X43164938Y4124172D01*
X43164938Y4124172D02*
X43260176Y4047982D01*
X43260176Y4047982D02*
X43355414Y4009887D01*
X43355414Y4009887D02*
X43545890Y3971791D01*
X43545890Y3971791D02*
X43688747Y3971791D01*
X43688747Y3971791D02*
X43879223Y4009887D01*
X43879223Y4009887D02*
X43974461Y4047982D01*
X43974461Y4047982D02*
X44069700Y4124172D01*
X44069700Y4124172D02*
X44117319Y4238458D01*
X44117319Y4238458D02*
X44117319Y4314649D01*
X44117319Y4314649D02*
X44069700Y4428934D01*
X44069700Y4428934D02*
X44022080Y4467030D01*
X44022080Y4467030D02*
X43688747Y4467030D01*
X43688747Y4467030D02*
X43688747Y4314649D01*
X44117319Y4809887D02*
X43117319Y4809887D01*
X43117319Y4809887D02*
X43117319Y5114649D01*
X43117319Y5114649D02*
X43164938Y5190839D01*
X43164938Y5190839D02*
X43212557Y5228934D01*
X43212557Y5228934D02*
X43307795Y5267030D01*
X43307795Y5267030D02*
X43450652Y5267030D01*
X43450652Y5267030D02*
X43545890Y5228934D01*
X43545890Y5228934D02*
X43593509Y5190839D01*
X43593509Y5190839D02*
X43641128Y5114649D01*
X43641128Y5114649D02*
X43641128Y4809887D01*
X43117319Y5952744D02*
X43117319Y5800363D01*
X43117319Y5800363D02*
X43164938Y5724172D01*
X43164938Y5724172D02*
X43212557Y5686077D01*
X43212557Y5686077D02*
X43355414Y5609887D01*
X43355414Y5609887D02*
X43545890Y5571791D01*
X43545890Y5571791D02*
X43926842Y5571791D01*
X43926842Y5571791D02*
X44022080Y5609887D01*
X44022080Y5609887D02*
X44069700Y5647982D01*
X44069700Y5647982D02*
X44117319Y5724172D01*
X44117319Y5724172D02*
X44117319Y5876553D01*
X44117319Y5876553D02*
X44069700Y5952744D01*
X44069700Y5952744D02*
X44022080Y5990839D01*
X44022080Y5990839D02*
X43926842Y6028934D01*
X43926842Y6028934D02*
X43688747Y6028934D01*
X43688747Y6028934D02*
X43593509Y5990839D01*
X43593509Y5990839D02*
X43545890Y5952744D01*
X43545890Y5952744D02*
X43498271Y5876553D01*
X43498271Y5876553D02*
X43498271Y5724172D01*
X43498271Y5724172D02*
X43545890Y5647982D01*
X43545890Y5647982D02*
X43593509Y5609887D01*
X43593509Y5609887D02*
X43688747Y5571791D01*
X25384938Y-5071792D02*
X25337319Y-5147982D01*
X25337319Y-5147982D02*
X25337319Y-5262268D01*
X25337319Y-5262268D02*
X25384938Y-5376554D01*
X25384938Y-5376554D02*
X25480176Y-5452744D01*
X25480176Y-5452744D02*
X25575414Y-5490839D01*
X25575414Y-5490839D02*
X25765890Y-5528935D01*
X25765890Y-5528935D02*
X25908747Y-5528935D01*
X25908747Y-5528935D02*
X26099223Y-5490839D01*
X26099223Y-5490839D02*
X26194461Y-5452744D01*
X26194461Y-5452744D02*
X26289700Y-5376554D01*
X26289700Y-5376554D02*
X26337319Y-5262268D01*
X26337319Y-5262268D02*
X26337319Y-5186077D01*
X26337319Y-5186077D02*
X26289700Y-5071792D01*
X26289700Y-5071792D02*
X26242080Y-5033696D01*
X26242080Y-5033696D02*
X25908747Y-5033696D01*
X25908747Y-5033696D02*
X25908747Y-5186077D01*
X26337319Y-4690839D02*
X25337319Y-4690839D01*
X25337319Y-4690839D02*
X26337319Y-4233696D01*
X26337319Y-4233696D02*
X25337319Y-4233696D01*
X26337319Y-3852744D02*
X25337319Y-3852744D01*
X25337319Y-3852744D02*
X25337319Y-3662268D01*
X25337319Y-3662268D02*
X25384938Y-3547982D01*
X25384938Y-3547982D02*
X25480176Y-3471792D01*
X25480176Y-3471792D02*
X25575414Y-3433697D01*
X25575414Y-3433697D02*
X25765890Y-3395601D01*
X25765890Y-3395601D02*
X25908747Y-3395601D01*
X25908747Y-3395601D02*
X26099223Y-3433697D01*
X26099223Y-3433697D02*
X26194461Y-3471792D01*
X26194461Y-3471792D02*
X26289700Y-3547982D01*
X26289700Y-3547982D02*
X26337319Y-3662268D01*
X26337319Y-3662268D02*
X26337319Y-3852744D01*
X55310840Y-7645061D02*
X55387030Y-7692680D01*
X55387030Y-7692680D02*
X55501316Y-7692680D01*
X55501316Y-7692680D02*
X55615602Y-7645061D01*
X55615602Y-7645061D02*
X55691792Y-7549823D01*
X55691792Y-7549823D02*
X55729887Y-7454585D01*
X55729887Y-7454585D02*
X55767983Y-7264109D01*
X55767983Y-7264109D02*
X55767983Y-7121252D01*
X55767983Y-7121252D02*
X55729887Y-6930776D01*
X55729887Y-6930776D02*
X55691792Y-6835538D01*
X55691792Y-6835538D02*
X55615602Y-6740300D01*
X55615602Y-6740300D02*
X55501316Y-6692680D01*
X55501316Y-6692680D02*
X55425125Y-6692680D01*
X55425125Y-6692680D02*
X55310840Y-6740300D01*
X55310840Y-6740300D02*
X55272744Y-6787919D01*
X55272744Y-6787919D02*
X55272744Y-7121252D01*
X55272744Y-7121252D02*
X55425125Y-7121252D01*
X54929887Y-6692680D02*
X54929887Y-7692680D01*
X54929887Y-7692680D02*
X54625125Y-7692680D01*
X54625125Y-7692680D02*
X54548935Y-7645061D01*
X54548935Y-7645061D02*
X54510840Y-7597442D01*
X54510840Y-7597442D02*
X54472744Y-7502204D01*
X54472744Y-7502204D02*
X54472744Y-7359347D01*
X54472744Y-7359347D02*
X54510840Y-7264109D01*
X54510840Y-7264109D02*
X54548935Y-7216490D01*
X54548935Y-7216490D02*
X54625125Y-7168871D01*
X54625125Y-7168871D02*
X54929887Y-7168871D01*
X54167983Y-7597442D02*
X54129887Y-7645061D01*
X54129887Y-7645061D02*
X54053697Y-7692680D01*
X54053697Y-7692680D02*
X53863221Y-7692680D01*
X53863221Y-7692680D02*
X53787030Y-7645061D01*
X53787030Y-7645061D02*
X53748935Y-7597442D01*
X53748935Y-7597442D02*
X53710840Y-7502204D01*
X53710840Y-7502204D02*
X53710840Y-7406966D01*
X53710840Y-7406966D02*
X53748935Y-7264109D01*
X53748935Y-7264109D02*
X54206078Y-6692680D01*
X54206078Y-6692680D02*
X53710840Y-6692680D01*
X52948935Y-6692680D02*
X53406078Y-6692680D01*
X53177506Y-6692680D02*
X53177506Y-7692680D01*
X53177506Y-7692680D02*
X53253697Y-7549823D01*
X53253697Y-7549823D02*
X53329887Y-7454585D01*
X53329887Y-7454585D02*
X53406078Y-7406966D01*
X20304938Y3667029D02*
X20257319Y3590839D01*
X20257319Y3590839D02*
X20257319Y3476553D01*
X20257319Y3476553D02*
X20304938Y3362267D01*
X20304938Y3362267D02*
X20400176Y3286077D01*
X20400176Y3286077D02*
X20495414Y3247982D01*
X20495414Y3247982D02*
X20685890Y3209886D01*
X20685890Y3209886D02*
X20828747Y3209886D01*
X20828747Y3209886D02*
X21019223Y3247982D01*
X21019223Y3247982D02*
X21114461Y3286077D01*
X21114461Y3286077D02*
X21209700Y3362267D01*
X21209700Y3362267D02*
X21257319Y3476553D01*
X21257319Y3476553D02*
X21257319Y3552744D01*
X21257319Y3552744D02*
X21209700Y3667029D01*
X21209700Y3667029D02*
X21162080Y3705125D01*
X21162080Y3705125D02*
X20828747Y3705125D01*
X20828747Y3705125D02*
X20828747Y3552744D01*
X21257319Y4047982D02*
X20257319Y4047982D01*
X20257319Y4047982D02*
X20257319Y4352744D01*
X20257319Y4352744D02*
X20304938Y4428934D01*
X20304938Y4428934D02*
X20352557Y4467029D01*
X20352557Y4467029D02*
X20447795Y4505125D01*
X20447795Y4505125D02*
X20590652Y4505125D01*
X20590652Y4505125D02*
X20685890Y4467029D01*
X20685890Y4467029D02*
X20733509Y4428934D01*
X20733509Y4428934D02*
X20781128Y4352744D01*
X20781128Y4352744D02*
X20781128Y4047982D01*
X21257319Y5267029D02*
X21257319Y4809886D01*
X21257319Y5038458D02*
X20257319Y5038458D01*
X20257319Y5038458D02*
X20400176Y4962267D01*
X20400176Y4962267D02*
X20495414Y4886077D01*
X20495414Y4886077D02*
X20543033Y4809886D01*
X20257319Y5762268D02*
X20257319Y5838458D01*
X20257319Y5838458D02*
X20304938Y5914649D01*
X20304938Y5914649D02*
X20352557Y5952744D01*
X20352557Y5952744D02*
X20447795Y5990839D01*
X20447795Y5990839D02*
X20638271Y6028934D01*
X20638271Y6028934D02*
X20876366Y6028934D01*
X20876366Y6028934D02*
X21066842Y5990839D01*
X21066842Y5990839D02*
X21162080Y5952744D01*
X21162080Y5952744D02*
X21209700Y5914649D01*
X21209700Y5914649D02*
X21257319Y5838458D01*
X21257319Y5838458D02*
X21257319Y5762268D01*
X21257319Y5762268D02*
X21209700Y5686077D01*
X21209700Y5686077D02*
X21162080Y5647982D01*
X21162080Y5647982D02*
X21066842Y5609887D01*
X21066842Y5609887D02*
X20876366Y5571791D01*
X20876366Y5571791D02*
X20638271Y5571791D01*
X20638271Y5571791D02*
X20447795Y5609887D01*
X20447795Y5609887D02*
X20352557Y5647982D01*
X20352557Y5647982D02*
X20304938Y5686077D01*
X20304938Y5686077D02*
X20257319Y5762268D01*
X38084938Y4428934D02*
X38037319Y4352744D01*
X38037319Y4352744D02*
X38037319Y4238458D01*
X38037319Y4238458D02*
X38084938Y4124172D01*
X38084938Y4124172D02*
X38180176Y4047982D01*
X38180176Y4047982D02*
X38275414Y4009887D01*
X38275414Y4009887D02*
X38465890Y3971791D01*
X38465890Y3971791D02*
X38608747Y3971791D01*
X38608747Y3971791D02*
X38799223Y4009887D01*
X38799223Y4009887D02*
X38894461Y4047982D01*
X38894461Y4047982D02*
X38989700Y4124172D01*
X38989700Y4124172D02*
X39037319Y4238458D01*
X39037319Y4238458D02*
X39037319Y4314649D01*
X39037319Y4314649D02*
X38989700Y4428934D01*
X38989700Y4428934D02*
X38942080Y4467030D01*
X38942080Y4467030D02*
X38608747Y4467030D01*
X38608747Y4467030D02*
X38608747Y4314649D01*
X39037319Y4809887D02*
X38037319Y4809887D01*
X38037319Y4809887D02*
X38037319Y5114649D01*
X38037319Y5114649D02*
X38084938Y5190839D01*
X38084938Y5190839D02*
X38132557Y5228934D01*
X38132557Y5228934D02*
X38227795Y5267030D01*
X38227795Y5267030D02*
X38370652Y5267030D01*
X38370652Y5267030D02*
X38465890Y5228934D01*
X38465890Y5228934D02*
X38513509Y5190839D01*
X38513509Y5190839D02*
X38561128Y5114649D01*
X38561128Y5114649D02*
X38561128Y4809887D01*
X38370652Y5952744D02*
X39037319Y5952744D01*
X37989700Y5762268D02*
X38703985Y5571791D01*
X38703985Y5571791D02*
X38703985Y6067030D01*
X48244938Y-5071792D02*
X48197319Y-5147982D01*
X48197319Y-5147982D02*
X48197319Y-5262268D01*
X48197319Y-5262268D02*
X48244938Y-5376554D01*
X48244938Y-5376554D02*
X48340176Y-5452744D01*
X48340176Y-5452744D02*
X48435414Y-5490839D01*
X48435414Y-5490839D02*
X48625890Y-5528935D01*
X48625890Y-5528935D02*
X48768747Y-5528935D01*
X48768747Y-5528935D02*
X48959223Y-5490839D01*
X48959223Y-5490839D02*
X49054461Y-5452744D01*
X49054461Y-5452744D02*
X49149700Y-5376554D01*
X49149700Y-5376554D02*
X49197319Y-5262268D01*
X49197319Y-5262268D02*
X49197319Y-5186077D01*
X49197319Y-5186077D02*
X49149700Y-5071792D01*
X49149700Y-5071792D02*
X49102080Y-5033696D01*
X49102080Y-5033696D02*
X48768747Y-5033696D01*
X48768747Y-5033696D02*
X48768747Y-5186077D01*
X49197319Y-4690839D02*
X48197319Y-4690839D01*
X48197319Y-4690839D02*
X48197319Y-4386077D01*
X48197319Y-4386077D02*
X48244938Y-4309887D01*
X48244938Y-4309887D02*
X48292557Y-4271792D01*
X48292557Y-4271792D02*
X48387795Y-4233696D01*
X48387795Y-4233696D02*
X48530652Y-4233696D01*
X48530652Y-4233696D02*
X48625890Y-4271792D01*
X48625890Y-4271792D02*
X48673509Y-4309887D01*
X48673509Y-4309887D02*
X48721128Y-4386077D01*
X48721128Y-4386077D02*
X48721128Y-4690839D01*
X48292557Y-3928935D02*
X48244938Y-3890839D01*
X48244938Y-3890839D02*
X48197319Y-3814649D01*
X48197319Y-3814649D02*
X48197319Y-3624173D01*
X48197319Y-3624173D02*
X48244938Y-3547982D01*
X48244938Y-3547982D02*
X48292557Y-3509887D01*
X48292557Y-3509887D02*
X48387795Y-3471792D01*
X48387795Y-3471792D02*
X48483033Y-3471792D01*
X48483033Y-3471792D02*
X48625890Y-3509887D01*
X48625890Y-3509887D02*
X49197319Y-3967030D01*
X49197319Y-3967030D02*
X49197319Y-3471792D01*
X48197319Y-3205125D02*
X48197319Y-2709887D01*
X48197319Y-2709887D02*
X48578271Y-2976553D01*
X48578271Y-2976553D02*
X48578271Y-2862268D01*
X48578271Y-2862268D02*
X48625890Y-2786077D01*
X48625890Y-2786077D02*
X48673509Y-2747982D01*
X48673509Y-2747982D02*
X48768747Y-2709887D01*
X48768747Y-2709887D02*
X49006842Y-2709887D01*
X49006842Y-2709887D02*
X49102080Y-2747982D01*
X49102080Y-2747982D02*
X49149700Y-2786077D01*
X49149700Y-2786077D02*
X49197319Y-2862268D01*
X49197319Y-2862268D02*
X49197319Y-3090839D01*
X49197319Y-3090839D02*
X49149700Y-3167030D01*
X49149700Y-3167030D02*
X49102080Y-3205125D01*
X25384938Y4428934D02*
X25337319Y4352744D01*
X25337319Y4352744D02*
X25337319Y4238458D01*
X25337319Y4238458D02*
X25384938Y4124172D01*
X25384938Y4124172D02*
X25480176Y4047982D01*
X25480176Y4047982D02*
X25575414Y4009887D01*
X25575414Y4009887D02*
X25765890Y3971791D01*
X25765890Y3971791D02*
X25908747Y3971791D01*
X25908747Y3971791D02*
X26099223Y4009887D01*
X26099223Y4009887D02*
X26194461Y4047982D01*
X26194461Y4047982D02*
X26289700Y4124172D01*
X26289700Y4124172D02*
X26337319Y4238458D01*
X26337319Y4238458D02*
X26337319Y4314649D01*
X26337319Y4314649D02*
X26289700Y4428934D01*
X26289700Y4428934D02*
X26242080Y4467030D01*
X26242080Y4467030D02*
X25908747Y4467030D01*
X25908747Y4467030D02*
X25908747Y4314649D01*
X26337319Y4809887D02*
X25337319Y4809887D01*
X25337319Y4809887D02*
X25337319Y5114649D01*
X25337319Y5114649D02*
X25384938Y5190839D01*
X25384938Y5190839D02*
X25432557Y5228934D01*
X25432557Y5228934D02*
X25527795Y5267030D01*
X25527795Y5267030D02*
X25670652Y5267030D01*
X25670652Y5267030D02*
X25765890Y5228934D01*
X25765890Y5228934D02*
X25813509Y5190839D01*
X25813509Y5190839D02*
X25861128Y5114649D01*
X25861128Y5114649D02*
X25861128Y4809887D01*
X26337319Y6028934D02*
X26337319Y5571791D01*
X26337319Y5800363D02*
X25337319Y5800363D01*
X25337319Y5800363D02*
X25480176Y5724172D01*
X25480176Y5724172D02*
X25575414Y5647982D01*
X25575414Y5647982D02*
X25623033Y5571791D01*
X40624938Y4428934D02*
X40577319Y4352744D01*
X40577319Y4352744D02*
X40577319Y4238458D01*
X40577319Y4238458D02*
X40624938Y4124172D01*
X40624938Y4124172D02*
X40720176Y4047982D01*
X40720176Y4047982D02*
X40815414Y4009887D01*
X40815414Y4009887D02*
X41005890Y3971791D01*
X41005890Y3971791D02*
X41148747Y3971791D01*
X41148747Y3971791D02*
X41339223Y4009887D01*
X41339223Y4009887D02*
X41434461Y4047982D01*
X41434461Y4047982D02*
X41529700Y4124172D01*
X41529700Y4124172D02*
X41577319Y4238458D01*
X41577319Y4238458D02*
X41577319Y4314649D01*
X41577319Y4314649D02*
X41529700Y4428934D01*
X41529700Y4428934D02*
X41482080Y4467030D01*
X41482080Y4467030D02*
X41148747Y4467030D01*
X41148747Y4467030D02*
X41148747Y4314649D01*
X41577319Y4809887D02*
X40577319Y4809887D01*
X40577319Y4809887D02*
X40577319Y5114649D01*
X40577319Y5114649D02*
X40624938Y5190839D01*
X40624938Y5190839D02*
X40672557Y5228934D01*
X40672557Y5228934D02*
X40767795Y5267030D01*
X40767795Y5267030D02*
X40910652Y5267030D01*
X40910652Y5267030D02*
X41005890Y5228934D01*
X41005890Y5228934D02*
X41053509Y5190839D01*
X41053509Y5190839D02*
X41101128Y5114649D01*
X41101128Y5114649D02*
X41101128Y4809887D01*
X40577319Y5990839D02*
X40577319Y5609887D01*
X40577319Y5609887D02*
X41053509Y5571791D01*
X41053509Y5571791D02*
X41005890Y5609887D01*
X41005890Y5609887D02*
X40958271Y5686077D01*
X40958271Y5686077D02*
X40958271Y5876553D01*
X40958271Y5876553D02*
X41005890Y5952744D01*
X41005890Y5952744D02*
X41053509Y5990839D01*
X41053509Y5990839D02*
X41148747Y6028934D01*
X41148747Y6028934D02*
X41386842Y6028934D01*
X41386842Y6028934D02*
X41482080Y5990839D01*
X41482080Y5990839D02*
X41529700Y5952744D01*
X41529700Y5952744D02*
X41577319Y5876553D01*
X41577319Y5876553D02*
X41577319Y5686077D01*
X41577319Y5686077D02*
X41529700Y5609887D01*
X41529700Y5609887D02*
X41482080Y5571791D01*
X45704938Y-5071792D02*
X45657319Y-5147982D01*
X45657319Y-5147982D02*
X45657319Y-5262268D01*
X45657319Y-5262268D02*
X45704938Y-5376554D01*
X45704938Y-5376554D02*
X45800176Y-5452744D01*
X45800176Y-5452744D02*
X45895414Y-5490839D01*
X45895414Y-5490839D02*
X46085890Y-5528935D01*
X46085890Y-5528935D02*
X46228747Y-5528935D01*
X46228747Y-5528935D02*
X46419223Y-5490839D01*
X46419223Y-5490839D02*
X46514461Y-5452744D01*
X46514461Y-5452744D02*
X46609700Y-5376554D01*
X46609700Y-5376554D02*
X46657319Y-5262268D01*
X46657319Y-5262268D02*
X46657319Y-5186077D01*
X46657319Y-5186077D02*
X46609700Y-5071792D01*
X46609700Y-5071792D02*
X46562080Y-5033696D01*
X46562080Y-5033696D02*
X46228747Y-5033696D01*
X46228747Y-5033696D02*
X46228747Y-5186077D01*
X46657319Y-4690839D02*
X45657319Y-4690839D01*
X45657319Y-4690839D02*
X45657319Y-4386077D01*
X45657319Y-4386077D02*
X45704938Y-4309887D01*
X45704938Y-4309887D02*
X45752557Y-4271792D01*
X45752557Y-4271792D02*
X45847795Y-4233696D01*
X45847795Y-4233696D02*
X45990652Y-4233696D01*
X45990652Y-4233696D02*
X46085890Y-4271792D01*
X46085890Y-4271792D02*
X46133509Y-4309887D01*
X46133509Y-4309887D02*
X46181128Y-4386077D01*
X46181128Y-4386077D02*
X46181128Y-4690839D01*
X45752557Y-3928935D02*
X45704938Y-3890839D01*
X45704938Y-3890839D02*
X45657319Y-3814649D01*
X45657319Y-3814649D02*
X45657319Y-3624173D01*
X45657319Y-3624173D02*
X45704938Y-3547982D01*
X45704938Y-3547982D02*
X45752557Y-3509887D01*
X45752557Y-3509887D02*
X45847795Y-3471792D01*
X45847795Y-3471792D02*
X45943033Y-3471792D01*
X45943033Y-3471792D02*
X46085890Y-3509887D01*
X46085890Y-3509887D02*
X46657319Y-3967030D01*
X46657319Y-3967030D02*
X46657319Y-3471792D01*
X45657319Y-2976553D02*
X45657319Y-2900363D01*
X45657319Y-2900363D02*
X45704938Y-2824172D01*
X45704938Y-2824172D02*
X45752557Y-2786077D01*
X45752557Y-2786077D02*
X45847795Y-2747982D01*
X45847795Y-2747982D02*
X46038271Y-2709887D01*
X46038271Y-2709887D02*
X46276366Y-2709887D01*
X46276366Y-2709887D02*
X46466842Y-2747982D01*
X46466842Y-2747982D02*
X46562080Y-2786077D01*
X46562080Y-2786077D02*
X46609700Y-2824172D01*
X46609700Y-2824172D02*
X46657319Y-2900363D01*
X46657319Y-2900363D02*
X46657319Y-2976553D01*
X46657319Y-2976553D02*
X46609700Y-3052744D01*
X46609700Y-3052744D02*
X46562080Y-3090839D01*
X46562080Y-3090839D02*
X46466842Y-3128934D01*
X46466842Y-3128934D02*
X46276366Y-3167030D01*
X46276366Y-3167030D02*
X46038271Y-3167030D01*
X46038271Y-3167030D02*
X45847795Y-3128934D01*
X45847795Y-3128934D02*
X45752557Y-3090839D01*
X45752557Y-3090839D02*
X45704938Y-3052744D01*
X45704938Y-3052744D02*
X45657319Y-2976553D01*
X27924938Y4352744D02*
X27877319Y4276554D01*
X27877319Y4276554D02*
X27877319Y4162268D01*
X27877319Y4162268D02*
X27924938Y4047982D01*
X27924938Y4047982D02*
X28020176Y3971792D01*
X28020176Y3971792D02*
X28115414Y3933697D01*
X28115414Y3933697D02*
X28305890Y3895601D01*
X28305890Y3895601D02*
X28448747Y3895601D01*
X28448747Y3895601D02*
X28639223Y3933697D01*
X28639223Y3933697D02*
X28734461Y3971792D01*
X28734461Y3971792D02*
X28829700Y4047982D01*
X28829700Y4047982D02*
X28877319Y4162268D01*
X28877319Y4162268D02*
X28877319Y4238459D01*
X28877319Y4238459D02*
X28829700Y4352744D01*
X28829700Y4352744D02*
X28782080Y4390840D01*
X28782080Y4390840D02*
X28448747Y4390840D01*
X28448747Y4390840D02*
X28448747Y4238459D01*
X28877319Y4733697D02*
X27877319Y4733697D01*
X27877319Y4733697D02*
X28877319Y5190840D01*
X28877319Y5190840D02*
X27877319Y5190840D01*
X28877319Y5571792D02*
X27877319Y5571792D01*
X27877319Y5571792D02*
X27877319Y5762268D01*
X27877319Y5762268D02*
X27924938Y5876554D01*
X27924938Y5876554D02*
X28020176Y5952744D01*
X28020176Y5952744D02*
X28115414Y5990839D01*
X28115414Y5990839D02*
X28305890Y6028935D01*
X28305890Y6028935D02*
X28448747Y6028935D01*
X28448747Y6028935D02*
X28639223Y5990839D01*
X28639223Y5990839D02*
X28734461Y5952744D01*
X28734461Y5952744D02*
X28829700Y5876554D01*
X28829700Y5876554D02*
X28877319Y5762268D01*
X28877319Y5762268D02*
X28877319Y5571792D01*
X28877319Y-5033696D02*
X28401128Y-5300363D01*
X28877319Y-5490839D02*
X27877319Y-5490839D01*
X27877319Y-5490839D02*
X27877319Y-5186077D01*
X27877319Y-5186077D02*
X27924938Y-5109887D01*
X27924938Y-5109887D02*
X27972557Y-5071792D01*
X27972557Y-5071792D02*
X28067795Y-5033696D01*
X28067795Y-5033696D02*
X28210652Y-5033696D01*
X28210652Y-5033696D02*
X28305890Y-5071792D01*
X28305890Y-5071792D02*
X28353509Y-5109887D01*
X28353509Y-5109887D02*
X28401128Y-5186077D01*
X28401128Y-5186077D02*
X28401128Y-5490839D01*
X28829700Y-4728935D02*
X28877319Y-4614649D01*
X28877319Y-4614649D02*
X28877319Y-4424173D01*
X28877319Y-4424173D02*
X28829700Y-4347982D01*
X28829700Y-4347982D02*
X28782080Y-4309887D01*
X28782080Y-4309887D02*
X28686842Y-4271792D01*
X28686842Y-4271792D02*
X28591604Y-4271792D01*
X28591604Y-4271792D02*
X28496366Y-4309887D01*
X28496366Y-4309887D02*
X28448747Y-4347982D01*
X28448747Y-4347982D02*
X28401128Y-4424173D01*
X28401128Y-4424173D02*
X28353509Y-4576554D01*
X28353509Y-4576554D02*
X28305890Y-4652744D01*
X28305890Y-4652744D02*
X28258271Y-4690839D01*
X28258271Y-4690839D02*
X28163033Y-4728935D01*
X28163033Y-4728935D02*
X28067795Y-4728935D01*
X28067795Y-4728935D02*
X27972557Y-4690839D01*
X27972557Y-4690839D02*
X27924938Y-4652744D01*
X27924938Y-4652744D02*
X27877319Y-4576554D01*
X27877319Y-4576554D02*
X27877319Y-4386077D01*
X27877319Y-4386077D02*
X27924938Y-4271792D01*
X27877319Y-4043220D02*
X27877319Y-3586077D01*
X28877319Y-3814649D02*
X27877319Y-3814649D01*
X30464938Y1609887D02*
X30417319Y1552745D01*
X30417319Y1552745D02*
X30417319Y1467030D01*
X30417319Y1467030D02*
X30464938Y1381316D01*
X30464938Y1381316D02*
X30560176Y1324173D01*
X30560176Y1324173D02*
X30655414Y1295602D01*
X30655414Y1295602D02*
X30845890Y1267030D01*
X30845890Y1267030D02*
X30988747Y1267030D01*
X30988747Y1267030D02*
X31179223Y1295602D01*
X31179223Y1295602D02*
X31274461Y1324173D01*
X31274461Y1324173D02*
X31369700Y1381316D01*
X31369700Y1381316D02*
X31417319Y1467030D01*
X31417319Y1467030D02*
X31417319Y1524173D01*
X31417319Y1524173D02*
X31369700Y1609887D01*
X31369700Y1609887D02*
X31322080Y1638459D01*
X31322080Y1638459D02*
X30988747Y1638459D01*
X30988747Y1638459D02*
X30988747Y1524173D01*
X31417319Y1895602D02*
X30417319Y1895602D01*
X30417319Y1895602D02*
X31417319Y2238459D01*
X31417319Y2238459D02*
X30417319Y2238459D01*
X31417319Y2524173D02*
X30417319Y2524173D01*
X30417319Y2524173D02*
X30417319Y2667030D01*
X30417319Y2667030D02*
X30464938Y2752744D01*
X30464938Y2752744D02*
X30560176Y2809887D01*
X30560176Y2809887D02*
X30655414Y2838458D01*
X30655414Y2838458D02*
X30845890Y2867030D01*
X30845890Y2867030D02*
X30988747Y2867030D01*
X30988747Y2867030D02*
X31179223Y2838458D01*
X31179223Y2838458D02*
X31274461Y2809887D01*
X31274461Y2809887D02*
X31369700Y2752744D01*
X31369700Y2752744D02*
X31417319Y2667030D01*
X31417319Y2667030D02*
X31417319Y2524173D01*
X55310840Y7594938D02*
X55387030Y7547319D01*
X55387030Y7547319D02*
X55501316Y7547319D01*
X55501316Y7547319D02*
X55615602Y7594938D01*
X55615602Y7594938D02*
X55691792Y7690176D01*
X55691792Y7690176D02*
X55729887Y7785414D01*
X55729887Y7785414D02*
X55767983Y7975890D01*
X55767983Y7975890D02*
X55767983Y8118747D01*
X55767983Y8118747D02*
X55729887Y8309223D01*
X55729887Y8309223D02*
X55691792Y8404461D01*
X55691792Y8404461D02*
X55615602Y8499700D01*
X55615602Y8499700D02*
X55501316Y8547319D01*
X55501316Y8547319D02*
X55425125Y8547319D01*
X55425125Y8547319D02*
X55310840Y8499700D01*
X55310840Y8499700D02*
X55272744Y8452080D01*
X55272744Y8452080D02*
X55272744Y8118747D01*
X55272744Y8118747D02*
X55425125Y8118747D01*
X54929887Y8547319D02*
X54929887Y7547319D01*
X54929887Y7547319D02*
X54625125Y7547319D01*
X54625125Y7547319D02*
X54548935Y7594938D01*
X54548935Y7594938D02*
X54510840Y7642557D01*
X54510840Y7642557D02*
X54472744Y7737795D01*
X54472744Y7737795D02*
X54472744Y7880652D01*
X54472744Y7880652D02*
X54510840Y7975890D01*
X54510840Y7975890D02*
X54548935Y8023509D01*
X54548935Y8023509D02*
X54625125Y8071128D01*
X54625125Y8071128D02*
X54929887Y8071128D01*
X54091792Y8547319D02*
X53939411Y8547319D01*
X53939411Y8547319D02*
X53863221Y8499700D01*
X53863221Y8499700D02*
X53825125Y8452080D01*
X53825125Y8452080D02*
X53748935Y8309223D01*
X53748935Y8309223D02*
X53710840Y8118747D01*
X53710840Y8118747D02*
X53710840Y7737795D01*
X53710840Y7737795D02*
X53748935Y7642557D01*
X53748935Y7642557D02*
X53787030Y7594938D01*
X53787030Y7594938D02*
X53863221Y7547319D01*
X53863221Y7547319D02*
X54015602Y7547319D01*
X54015602Y7547319D02*
X54091792Y7594938D01*
X54091792Y7594938D02*
X54129887Y7642557D01*
X54129887Y7642557D02*
X54167983Y7737795D01*
X54167983Y7737795D02*
X54167983Y7975890D01*
X54167983Y7975890D02*
X54129887Y8071128D01*
X54129887Y8071128D02*
X54091792Y8118747D01*
X54091792Y8118747D02*
X54015602Y8166366D01*
X54015602Y8166366D02*
X53863221Y8166366D01*
X53863221Y8166366D02*
X53787030Y8118747D01*
X53787030Y8118747D02*
X53748935Y8071128D01*
X53748935Y8071128D02*
X53710840Y7975890D01*
X30417319Y-2235827D02*
X30417319Y-1864399D01*
X30417319Y-1864399D02*
X30798271Y-2064399D01*
X30798271Y-2064399D02*
X30798271Y-1978684D01*
X30798271Y-1978684D02*
X30845890Y-1921542D01*
X30845890Y-1921542D02*
X30893509Y-1892970D01*
X30893509Y-1892970D02*
X30988747Y-1864399D01*
X30988747Y-1864399D02*
X31226842Y-1864399D01*
X31226842Y-1864399D02*
X31322080Y-1892970D01*
X31322080Y-1892970D02*
X31369700Y-1921542D01*
X31369700Y-1921542D02*
X31417319Y-1978684D01*
X31417319Y-1978684D02*
X31417319Y-2150113D01*
X31417319Y-2150113D02*
X31369700Y-2207256D01*
X31369700Y-2207256D02*
X31322080Y-2235827D01*
X30417319Y-1692970D02*
X31417319Y-1492970D01*
X31417319Y-1492970D02*
X30417319Y-1292970D01*
X30417319Y-1150112D02*
X30417319Y-778684D01*
X30417319Y-778684D02*
X30798271Y-978684D01*
X30798271Y-978684D02*
X30798271Y-892969D01*
X30798271Y-892969D02*
X30845890Y-835827D01*
X30845890Y-835827D02*
X30893509Y-807255D01*
X30893509Y-807255D02*
X30988747Y-778684D01*
X30988747Y-778684D02*
X31226842Y-778684D01*
X31226842Y-778684D02*
X31322080Y-807255D01*
X31322080Y-807255D02*
X31369700Y-835827D01*
X31369700Y-835827D02*
X31417319Y-892969D01*
X31417319Y-892969D02*
X31417319Y-1064398D01*
X31417319Y-1064398D02*
X31369700Y-1121541D01*
X31369700Y-1121541D02*
X31322080Y-1150112D01*
X43164938Y-5071792D02*
X43117319Y-5147982D01*
X43117319Y-5147982D02*
X43117319Y-5262268D01*
X43117319Y-5262268D02*
X43164938Y-5376554D01*
X43164938Y-5376554D02*
X43260176Y-5452744D01*
X43260176Y-5452744D02*
X43355414Y-5490839D01*
X43355414Y-5490839D02*
X43545890Y-5528935D01*
X43545890Y-5528935D02*
X43688747Y-5528935D01*
X43688747Y-5528935D02*
X43879223Y-5490839D01*
X43879223Y-5490839D02*
X43974461Y-5452744D01*
X43974461Y-5452744D02*
X44069700Y-5376554D01*
X44069700Y-5376554D02*
X44117319Y-5262268D01*
X44117319Y-5262268D02*
X44117319Y-5186077D01*
X44117319Y-5186077D02*
X44069700Y-5071792D01*
X44069700Y-5071792D02*
X44022080Y-5033696D01*
X44022080Y-5033696D02*
X43688747Y-5033696D01*
X43688747Y-5033696D02*
X43688747Y-5186077D01*
X44117319Y-4690839D02*
X43117319Y-4690839D01*
X43117319Y-4690839D02*
X43117319Y-4386077D01*
X43117319Y-4386077D02*
X43164938Y-4309887D01*
X43164938Y-4309887D02*
X43212557Y-4271792D01*
X43212557Y-4271792D02*
X43307795Y-4233696D01*
X43307795Y-4233696D02*
X43450652Y-4233696D01*
X43450652Y-4233696D02*
X43545890Y-4271792D01*
X43545890Y-4271792D02*
X43593509Y-4309887D01*
X43593509Y-4309887D02*
X43641128Y-4386077D01*
X43641128Y-4386077D02*
X43641128Y-4690839D01*
X43212557Y-3928935D02*
X43164938Y-3890839D01*
X43164938Y-3890839D02*
X43117319Y-3814649D01*
X43117319Y-3814649D02*
X43117319Y-3624173D01*
X43117319Y-3624173D02*
X43164938Y-3547982D01*
X43164938Y-3547982D02*
X43212557Y-3509887D01*
X43212557Y-3509887D02*
X43307795Y-3471792D01*
X43307795Y-3471792D02*
X43403033Y-3471792D01*
X43403033Y-3471792D02*
X43545890Y-3509887D01*
X43545890Y-3509887D02*
X44117319Y-3967030D01*
X44117319Y-3967030D02*
X44117319Y-3471792D01*
X43212557Y-3167030D02*
X43164938Y-3128934D01*
X43164938Y-3128934D02*
X43117319Y-3052744D01*
X43117319Y-3052744D02*
X43117319Y-2862268D01*
X43117319Y-2862268D02*
X43164938Y-2786077D01*
X43164938Y-2786077D02*
X43212557Y-2747982D01*
X43212557Y-2747982D02*
X43307795Y-2709887D01*
X43307795Y-2709887D02*
X43403033Y-2709887D01*
X43403033Y-2709887D02*
X43545890Y-2747982D01*
X43545890Y-2747982D02*
X44117319Y-3205125D01*
X44117319Y-3205125D02*
X44117319Y-2709887D01*
X35544938Y4428934D02*
X35497319Y4352744D01*
X35497319Y4352744D02*
X35497319Y4238458D01*
X35497319Y4238458D02*
X35544938Y4124172D01*
X35544938Y4124172D02*
X35640176Y4047982D01*
X35640176Y4047982D02*
X35735414Y4009887D01*
X35735414Y4009887D02*
X35925890Y3971791D01*
X35925890Y3971791D02*
X36068747Y3971791D01*
X36068747Y3971791D02*
X36259223Y4009887D01*
X36259223Y4009887D02*
X36354461Y4047982D01*
X36354461Y4047982D02*
X36449700Y4124172D01*
X36449700Y4124172D02*
X36497319Y4238458D01*
X36497319Y4238458D02*
X36497319Y4314649D01*
X36497319Y4314649D02*
X36449700Y4428934D01*
X36449700Y4428934D02*
X36402080Y4467030D01*
X36402080Y4467030D02*
X36068747Y4467030D01*
X36068747Y4467030D02*
X36068747Y4314649D01*
X36497319Y4809887D02*
X35497319Y4809887D01*
X35497319Y4809887D02*
X35497319Y5114649D01*
X35497319Y5114649D02*
X35544938Y5190839D01*
X35544938Y5190839D02*
X35592557Y5228934D01*
X35592557Y5228934D02*
X35687795Y5267030D01*
X35687795Y5267030D02*
X35830652Y5267030D01*
X35830652Y5267030D02*
X35925890Y5228934D01*
X35925890Y5228934D02*
X35973509Y5190839D01*
X35973509Y5190839D02*
X36021128Y5114649D01*
X36021128Y5114649D02*
X36021128Y4809887D01*
X35497319Y5533696D02*
X35497319Y6028934D01*
X35497319Y6028934D02*
X35878271Y5762268D01*
X35878271Y5762268D02*
X35878271Y5876553D01*
X35878271Y5876553D02*
X35925890Y5952744D01*
X35925890Y5952744D02*
X35973509Y5990839D01*
X35973509Y5990839D02*
X36068747Y6028934D01*
X36068747Y6028934D02*
X36306842Y6028934D01*
X36306842Y6028934D02*
X36402080Y5990839D01*
X36402080Y5990839D02*
X36449700Y5952744D01*
X36449700Y5952744D02*
X36497319Y5876553D01*
X36497319Y5876553D02*
X36497319Y5647982D01*
X36497319Y5647982D02*
X36449700Y5571791D01*
X36449700Y5571791D02*
X36402080Y5533696D01*
X33004938Y1667029D02*
X32957319Y1609887D01*
X32957319Y1609887D02*
X32957319Y1524172D01*
X32957319Y1524172D02*
X33004938Y1438458D01*
X33004938Y1438458D02*
X33100176Y1381315D01*
X33100176Y1381315D02*
X33195414Y1352744D01*
X33195414Y1352744D02*
X33385890Y1324172D01*
X33385890Y1324172D02*
X33528747Y1324172D01*
X33528747Y1324172D02*
X33719223Y1352744D01*
X33719223Y1352744D02*
X33814461Y1381315D01*
X33814461Y1381315D02*
X33909700Y1438458D01*
X33909700Y1438458D02*
X33957319Y1524172D01*
X33957319Y1524172D02*
X33957319Y1581315D01*
X33957319Y1581315D02*
X33909700Y1667029D01*
X33909700Y1667029D02*
X33862080Y1695601D01*
X33862080Y1695601D02*
X33528747Y1695601D01*
X33528747Y1695601D02*
X33528747Y1581315D01*
X33957319Y1952744D02*
X32957319Y1952744D01*
X32957319Y1952744D02*
X32957319Y2181315D01*
X32957319Y2181315D02*
X33004938Y2238458D01*
X33004938Y2238458D02*
X33052557Y2267029D01*
X33052557Y2267029D02*
X33147795Y2295601D01*
X33147795Y2295601D02*
X33290652Y2295601D01*
X33290652Y2295601D02*
X33385890Y2267029D01*
X33385890Y2267029D02*
X33433509Y2238458D01*
X33433509Y2238458D02*
X33481128Y2181315D01*
X33481128Y2181315D02*
X33481128Y1952744D01*
X33052557Y2524172D02*
X33004938Y2552744D01*
X33004938Y2552744D02*
X32957319Y2609887D01*
X32957319Y2609887D02*
X32957319Y2752744D01*
X32957319Y2752744D02*
X33004938Y2809887D01*
X33004938Y2809887D02*
X33052557Y2838458D01*
X33052557Y2838458D02*
X33147795Y2867029D01*
X33147795Y2867029D02*
X33243033Y2867029D01*
X33243033Y2867029D02*
X33385890Y2838458D01*
X33385890Y2838458D02*
X33957319Y2495601D01*
X33957319Y2495601D02*
X33957319Y2867029D01*
X20304938Y-5071792D02*
X20257319Y-5147982D01*
X20257319Y-5147982D02*
X20257319Y-5262268D01*
X20257319Y-5262268D02*
X20304938Y-5376554D01*
X20304938Y-5376554D02*
X20400176Y-5452744D01*
X20400176Y-5452744D02*
X20495414Y-5490839D01*
X20495414Y-5490839D02*
X20685890Y-5528935D01*
X20685890Y-5528935D02*
X20828747Y-5528935D01*
X20828747Y-5528935D02*
X21019223Y-5490839D01*
X21019223Y-5490839D02*
X21114461Y-5452744D01*
X21114461Y-5452744D02*
X21209700Y-5376554D01*
X21209700Y-5376554D02*
X21257319Y-5262268D01*
X21257319Y-5262268D02*
X21257319Y-5186077D01*
X21257319Y-5186077D02*
X21209700Y-5071792D01*
X21209700Y-5071792D02*
X21162080Y-5033696D01*
X21162080Y-5033696D02*
X20828747Y-5033696D01*
X20828747Y-5033696D02*
X20828747Y-5186077D01*
X21257319Y-4690839D02*
X20257319Y-4690839D01*
X20257319Y-4690839D02*
X20257319Y-4386077D01*
X20257319Y-4386077D02*
X20304938Y-4309887D01*
X20304938Y-4309887D02*
X20352557Y-4271792D01*
X20352557Y-4271792D02*
X20447795Y-4233696D01*
X20447795Y-4233696D02*
X20590652Y-4233696D01*
X20590652Y-4233696D02*
X20685890Y-4271792D01*
X20685890Y-4271792D02*
X20733509Y-4309887D01*
X20733509Y-4309887D02*
X20781128Y-4386077D01*
X20781128Y-4386077D02*
X20781128Y-4690839D01*
X21257319Y-3471792D02*
X21257319Y-3928935D01*
X21257319Y-3700363D02*
X20257319Y-3700363D01*
X20257319Y-3700363D02*
X20400176Y-3776554D01*
X20400176Y-3776554D02*
X20495414Y-3852744D01*
X20495414Y-3852744D02*
X20543033Y-3928935D01*
X21257319Y-2709887D02*
X21257319Y-3167030D01*
X21257319Y-2938458D02*
X20257319Y-2938458D01*
X20257319Y-2938458D02*
X20400176Y-3014649D01*
X20400176Y-3014649D02*
X20495414Y-3090839D01*
X20495414Y-3090839D02*
X20543033Y-3167030D01*
X95972380Y-30771009D02*
X96115237Y-30818628D01*
X96115237Y-30818628D02*
X96162856Y-30866247D01*
X96162856Y-30866247D02*
X96210475Y-30961485D01*
X96210475Y-30961485D02*
X96210475Y-31104342D01*
X96210475Y-31104342D02*
X96162856Y-31199580D01*
X96162856Y-31199580D02*
X96115237Y-31247200D01*
X96115237Y-31247200D02*
X96019999Y-31294819D01*
X96019999Y-31294819D02*
X95639047Y-31294819D01*
X95639047Y-31294819D02*
X95639047Y-30294819D01*
X95639047Y-30294819D02*
X95972380Y-30294819D01*
X95972380Y-30294819D02*
X96067618Y-30342438D01*
X96067618Y-30342438D02*
X96115237Y-30390057D01*
X96115237Y-30390057D02*
X96162856Y-30485295D01*
X96162856Y-30485295D02*
X96162856Y-30580533D01*
X96162856Y-30580533D02*
X96115237Y-30675771D01*
X96115237Y-30675771D02*
X96067618Y-30723390D01*
X96067618Y-30723390D02*
X95972380Y-30771009D01*
X95972380Y-30771009D02*
X95639047Y-30771009D01*
X96781904Y-31294819D02*
X96686666Y-31247200D01*
X96686666Y-31247200D02*
X96639047Y-31199580D01*
X96639047Y-31199580D02*
X96591428Y-31104342D01*
X96591428Y-31104342D02*
X96591428Y-30818628D01*
X96591428Y-30818628D02*
X96639047Y-30723390D01*
X96639047Y-30723390D02*
X96686666Y-30675771D01*
X96686666Y-30675771D02*
X96781904Y-30628152D01*
X96781904Y-30628152D02*
X96924761Y-30628152D01*
X96924761Y-30628152D02*
X97019999Y-30675771D01*
X97019999Y-30675771D02*
X97067618Y-30723390D01*
X97067618Y-30723390D02*
X97115237Y-30818628D01*
X97115237Y-30818628D02*
X97115237Y-31104342D01*
X97115237Y-31104342D02*
X97067618Y-31199580D01*
X97067618Y-31199580D02*
X97019999Y-31247200D01*
X97019999Y-31247200D02*
X96924761Y-31294819D01*
X96924761Y-31294819D02*
X96781904Y-31294819D01*
X97400952Y-30628152D02*
X97781904Y-30628152D01*
X97543809Y-30294819D02*
X97543809Y-31151961D01*
X97543809Y-31151961D02*
X97591428Y-31247200D01*
X97591428Y-31247200D02*
X97686666Y-31294819D01*
X97686666Y-31294819D02*
X97781904Y-31294819D01*
X97972381Y-30628152D02*
X98353333Y-30628152D01*
X98115238Y-30294819D02*
X98115238Y-31151961D01*
X98115238Y-31151961D02*
X98162857Y-31247200D01*
X98162857Y-31247200D02*
X98258095Y-31294819D01*
X98258095Y-31294819D02*
X98353333Y-31294819D01*
X98829524Y-31294819D02*
X98734286Y-31247200D01*
X98734286Y-31247200D02*
X98686667Y-31199580D01*
X98686667Y-31199580D02*
X98639048Y-31104342D01*
X98639048Y-31104342D02*
X98639048Y-30818628D01*
X98639048Y-30818628D02*
X98686667Y-30723390D01*
X98686667Y-30723390D02*
X98734286Y-30675771D01*
X98734286Y-30675771D02*
X98829524Y-30628152D01*
X98829524Y-30628152D02*
X98972381Y-30628152D01*
X98972381Y-30628152D02*
X99067619Y-30675771D01*
X99067619Y-30675771D02*
X99115238Y-30723390D01*
X99115238Y-30723390D02*
X99162857Y-30818628D01*
X99162857Y-30818628D02*
X99162857Y-31104342D01*
X99162857Y-31104342D02*
X99115238Y-31199580D01*
X99115238Y-31199580D02*
X99067619Y-31247200D01*
X99067619Y-31247200D02*
X98972381Y-31294819D01*
X98972381Y-31294819D02*
X98829524Y-31294819D01*
X99591429Y-31294819D02*
X99591429Y-30628152D01*
X99591429Y-30723390D02*
X99639048Y-30675771D01*
X99639048Y-30675771D02*
X99734286Y-30628152D01*
X99734286Y-30628152D02*
X99877143Y-30628152D01*
X99877143Y-30628152D02*
X99972381Y-30675771D01*
X99972381Y-30675771D02*
X100020000Y-30771009D01*
X100020000Y-30771009D02*
X100020000Y-31294819D01*
X100020000Y-30771009D02*
X100067619Y-30675771D01*
X100067619Y-30675771D02*
X100162857Y-30628152D01*
X100162857Y-30628152D02*
X100305714Y-30628152D01*
X100305714Y-30628152D02*
X100400953Y-30675771D01*
X100400953Y-30675771D02*
X100448572Y-30771009D01*
X100448572Y-30771009D02*
X100448572Y-31294819D01*
X101639048Y-31247200D02*
X101781905Y-31294819D01*
X101781905Y-31294819D02*
X102020000Y-31294819D01*
X102020000Y-31294819D02*
X102115238Y-31247200D01*
X102115238Y-31247200D02*
X102162857Y-31199580D01*
X102162857Y-31199580D02*
X102210476Y-31104342D01*
X102210476Y-31104342D02*
X102210476Y-31009104D01*
X102210476Y-31009104D02*
X102162857Y-30913866D01*
X102162857Y-30913866D02*
X102115238Y-30866247D01*
X102115238Y-30866247D02*
X102020000Y-30818628D01*
X102020000Y-30818628D02*
X101829524Y-30771009D01*
X101829524Y-30771009D02*
X101734286Y-30723390D01*
X101734286Y-30723390D02*
X101686667Y-30675771D01*
X101686667Y-30675771D02*
X101639048Y-30580533D01*
X101639048Y-30580533D02*
X101639048Y-30485295D01*
X101639048Y-30485295D02*
X101686667Y-30390057D01*
X101686667Y-30390057D02*
X101734286Y-30342438D01*
X101734286Y-30342438D02*
X101829524Y-30294819D01*
X101829524Y-30294819D02*
X102067619Y-30294819D01*
X102067619Y-30294819D02*
X102210476Y-30342438D01*
X102639048Y-31294819D02*
X102639048Y-30628152D01*
X102639048Y-30294819D02*
X102591429Y-30342438D01*
X102591429Y-30342438D02*
X102639048Y-30390057D01*
X102639048Y-30390057D02*
X102686667Y-30342438D01*
X102686667Y-30342438D02*
X102639048Y-30294819D01*
X102639048Y-30294819D02*
X102639048Y-30390057D01*
X103543809Y-31294819D02*
X103543809Y-30294819D01*
X103543809Y-31247200D02*
X103448571Y-31294819D01*
X103448571Y-31294819D02*
X103258095Y-31294819D01*
X103258095Y-31294819D02*
X103162857Y-31247200D01*
X103162857Y-31247200D02*
X103115238Y-31199580D01*
X103115238Y-31199580D02*
X103067619Y-31104342D01*
X103067619Y-31104342D02*
X103067619Y-30818628D01*
X103067619Y-30818628D02*
X103115238Y-30723390D01*
X103115238Y-30723390D02*
X103162857Y-30675771D01*
X103162857Y-30675771D02*
X103258095Y-30628152D01*
X103258095Y-30628152D02*
X103448571Y-30628152D01*
X103448571Y-30628152D02*
X103543809Y-30675771D01*
X104400952Y-31247200D02*
X104305714Y-31294819D01*
X104305714Y-31294819D02*
X104115238Y-31294819D01*
X104115238Y-31294819D02*
X104020000Y-31247200D01*
X104020000Y-31247200D02*
X103972381Y-31151961D01*
X103972381Y-31151961D02*
X103972381Y-30771009D01*
X103972381Y-30771009D02*
X104020000Y-30675771D01*
X104020000Y-30675771D02*
X104115238Y-30628152D01*
X104115238Y-30628152D02*
X104305714Y-30628152D01*
X104305714Y-30628152D02*
X104400952Y-30675771D01*
X104400952Y-30675771D02*
X104448571Y-30771009D01*
X104448571Y-30771009D02*
X104448571Y-30866247D01*
X104448571Y-30866247D02*
X103972381Y-30961485D01*
X41172380Y-30761009D02*
X41315237Y-30808628D01*
X41315237Y-30808628D02*
X41362856Y-30856247D01*
X41362856Y-30856247D02*
X41410475Y-30951485D01*
X41410475Y-30951485D02*
X41410475Y-31094342D01*
X41410475Y-31094342D02*
X41362856Y-31189580D01*
X41362856Y-31189580D02*
X41315237Y-31237200D01*
X41315237Y-31237200D02*
X41219999Y-31284819D01*
X41219999Y-31284819D02*
X40839047Y-31284819D01*
X40839047Y-31284819D02*
X40839047Y-30284819D01*
X40839047Y-30284819D02*
X41172380Y-30284819D01*
X41172380Y-30284819D02*
X41267618Y-30332438D01*
X41267618Y-30332438D02*
X41315237Y-30380057D01*
X41315237Y-30380057D02*
X41362856Y-30475295D01*
X41362856Y-30475295D02*
X41362856Y-30570533D01*
X41362856Y-30570533D02*
X41315237Y-30665771D01*
X41315237Y-30665771D02*
X41267618Y-30713390D01*
X41267618Y-30713390D02*
X41172380Y-30761009D01*
X41172380Y-30761009D02*
X40839047Y-30761009D01*
X41981904Y-31284819D02*
X41886666Y-31237200D01*
X41886666Y-31237200D02*
X41839047Y-31189580D01*
X41839047Y-31189580D02*
X41791428Y-31094342D01*
X41791428Y-31094342D02*
X41791428Y-30808628D01*
X41791428Y-30808628D02*
X41839047Y-30713390D01*
X41839047Y-30713390D02*
X41886666Y-30665771D01*
X41886666Y-30665771D02*
X41981904Y-30618152D01*
X41981904Y-30618152D02*
X42124761Y-30618152D01*
X42124761Y-30618152D02*
X42219999Y-30665771D01*
X42219999Y-30665771D02*
X42267618Y-30713390D01*
X42267618Y-30713390D02*
X42315237Y-30808628D01*
X42315237Y-30808628D02*
X42315237Y-31094342D01*
X42315237Y-31094342D02*
X42267618Y-31189580D01*
X42267618Y-31189580D02*
X42219999Y-31237200D01*
X42219999Y-31237200D02*
X42124761Y-31284819D01*
X42124761Y-31284819D02*
X41981904Y-31284819D01*
X42600952Y-30618152D02*
X42981904Y-30618152D01*
X42743809Y-30284819D02*
X42743809Y-31141961D01*
X42743809Y-31141961D02*
X42791428Y-31237200D01*
X42791428Y-31237200D02*
X42886666Y-31284819D01*
X42886666Y-31284819D02*
X42981904Y-31284819D01*
X43172381Y-30618152D02*
X43553333Y-30618152D01*
X43315238Y-30284819D02*
X43315238Y-31141961D01*
X43315238Y-31141961D02*
X43362857Y-31237200D01*
X43362857Y-31237200D02*
X43458095Y-31284819D01*
X43458095Y-31284819D02*
X43553333Y-31284819D01*
X44029524Y-31284819D02*
X43934286Y-31237200D01*
X43934286Y-31237200D02*
X43886667Y-31189580D01*
X43886667Y-31189580D02*
X43839048Y-31094342D01*
X43839048Y-31094342D02*
X43839048Y-30808628D01*
X43839048Y-30808628D02*
X43886667Y-30713390D01*
X43886667Y-30713390D02*
X43934286Y-30665771D01*
X43934286Y-30665771D02*
X44029524Y-30618152D01*
X44029524Y-30618152D02*
X44172381Y-30618152D01*
X44172381Y-30618152D02*
X44267619Y-30665771D01*
X44267619Y-30665771D02*
X44315238Y-30713390D01*
X44315238Y-30713390D02*
X44362857Y-30808628D01*
X44362857Y-30808628D02*
X44362857Y-31094342D01*
X44362857Y-31094342D02*
X44315238Y-31189580D01*
X44315238Y-31189580D02*
X44267619Y-31237200D01*
X44267619Y-31237200D02*
X44172381Y-31284819D01*
X44172381Y-31284819D02*
X44029524Y-31284819D01*
X44791429Y-31284819D02*
X44791429Y-30618152D01*
X44791429Y-30713390D02*
X44839048Y-30665771D01*
X44839048Y-30665771D02*
X44934286Y-30618152D01*
X44934286Y-30618152D02*
X45077143Y-30618152D01*
X45077143Y-30618152D02*
X45172381Y-30665771D01*
X45172381Y-30665771D02*
X45220000Y-30761009D01*
X45220000Y-30761009D02*
X45220000Y-31284819D01*
X45220000Y-30761009D02*
X45267619Y-30665771D01*
X45267619Y-30665771D02*
X45362857Y-30618152D01*
X45362857Y-30618152D02*
X45505714Y-30618152D01*
X45505714Y-30618152D02*
X45600953Y-30665771D01*
X45600953Y-30665771D02*
X45648572Y-30761009D01*
X45648572Y-30761009D02*
X45648572Y-31284819D01*
X46839048Y-31237200D02*
X46981905Y-31284819D01*
X46981905Y-31284819D02*
X47220000Y-31284819D01*
X47220000Y-31284819D02*
X47315238Y-31237200D01*
X47315238Y-31237200D02*
X47362857Y-31189580D01*
X47362857Y-31189580D02*
X47410476Y-31094342D01*
X47410476Y-31094342D02*
X47410476Y-30999104D01*
X47410476Y-30999104D02*
X47362857Y-30903866D01*
X47362857Y-30903866D02*
X47315238Y-30856247D01*
X47315238Y-30856247D02*
X47220000Y-30808628D01*
X47220000Y-30808628D02*
X47029524Y-30761009D01*
X47029524Y-30761009D02*
X46934286Y-30713390D01*
X46934286Y-30713390D02*
X46886667Y-30665771D01*
X46886667Y-30665771D02*
X46839048Y-30570533D01*
X46839048Y-30570533D02*
X46839048Y-30475295D01*
X46839048Y-30475295D02*
X46886667Y-30380057D01*
X46886667Y-30380057D02*
X46934286Y-30332438D01*
X46934286Y-30332438D02*
X47029524Y-30284819D01*
X47029524Y-30284819D02*
X47267619Y-30284819D01*
X47267619Y-30284819D02*
X47410476Y-30332438D01*
X47839048Y-31284819D02*
X47839048Y-30618152D01*
X47839048Y-30284819D02*
X47791429Y-30332438D01*
X47791429Y-30332438D02*
X47839048Y-30380057D01*
X47839048Y-30380057D02*
X47886667Y-30332438D01*
X47886667Y-30332438D02*
X47839048Y-30284819D01*
X47839048Y-30284819D02*
X47839048Y-30380057D01*
X48743809Y-31284819D02*
X48743809Y-30284819D01*
X48743809Y-31237200D02*
X48648571Y-31284819D01*
X48648571Y-31284819D02*
X48458095Y-31284819D01*
X48458095Y-31284819D02*
X48362857Y-31237200D01*
X48362857Y-31237200D02*
X48315238Y-31189580D01*
X48315238Y-31189580D02*
X48267619Y-31094342D01*
X48267619Y-31094342D02*
X48267619Y-30808628D01*
X48267619Y-30808628D02*
X48315238Y-30713390D01*
X48315238Y-30713390D02*
X48362857Y-30665771D01*
X48362857Y-30665771D02*
X48458095Y-30618152D01*
X48458095Y-30618152D02*
X48648571Y-30618152D01*
X48648571Y-30618152D02*
X48743809Y-30665771D01*
X49600952Y-31237200D02*
X49505714Y-31284819D01*
X49505714Y-31284819D02*
X49315238Y-31284819D01*
X49315238Y-31284819D02*
X49220000Y-31237200D01*
X49220000Y-31237200D02*
X49172381Y-31141961D01*
X49172381Y-31141961D02*
X49172381Y-30761009D01*
X49172381Y-30761009D02*
X49220000Y-30665771D01*
X49220000Y-30665771D02*
X49315238Y-30618152D01*
X49315238Y-30618152D02*
X49505714Y-30618152D01*
X49505714Y-30618152D02*
X49600952Y-30665771D01*
X49600952Y-30665771D02*
X49648571Y-30761009D01*
X49648571Y-30761009D02*
X49648571Y-30856247D01*
X49648571Y-30856247D02*
X49172381Y-30951485D01*
X67452380Y-30781009D02*
X67595237Y-30828628D01*
X67595237Y-30828628D02*
X67642856Y-30876247D01*
X67642856Y-30876247D02*
X67690475Y-30971485D01*
X67690475Y-30971485D02*
X67690475Y-31114342D01*
X67690475Y-31114342D02*
X67642856Y-31209580D01*
X67642856Y-31209580D02*
X67595237Y-31257200D01*
X67595237Y-31257200D02*
X67499999Y-31304819D01*
X67499999Y-31304819D02*
X67119047Y-31304819D01*
X67119047Y-31304819D02*
X67119047Y-30304819D01*
X67119047Y-30304819D02*
X67452380Y-30304819D01*
X67452380Y-30304819D02*
X67547618Y-30352438D01*
X67547618Y-30352438D02*
X67595237Y-30400057D01*
X67595237Y-30400057D02*
X67642856Y-30495295D01*
X67642856Y-30495295D02*
X67642856Y-30590533D01*
X67642856Y-30590533D02*
X67595237Y-30685771D01*
X67595237Y-30685771D02*
X67547618Y-30733390D01*
X67547618Y-30733390D02*
X67452380Y-30781009D01*
X67452380Y-30781009D02*
X67119047Y-30781009D01*
X68261904Y-31304819D02*
X68166666Y-31257200D01*
X68166666Y-31257200D02*
X68119047Y-31209580D01*
X68119047Y-31209580D02*
X68071428Y-31114342D01*
X68071428Y-31114342D02*
X68071428Y-30828628D01*
X68071428Y-30828628D02*
X68119047Y-30733390D01*
X68119047Y-30733390D02*
X68166666Y-30685771D01*
X68166666Y-30685771D02*
X68261904Y-30638152D01*
X68261904Y-30638152D02*
X68404761Y-30638152D01*
X68404761Y-30638152D02*
X68499999Y-30685771D01*
X68499999Y-30685771D02*
X68547618Y-30733390D01*
X68547618Y-30733390D02*
X68595237Y-30828628D01*
X68595237Y-30828628D02*
X68595237Y-31114342D01*
X68595237Y-31114342D02*
X68547618Y-31209580D01*
X68547618Y-31209580D02*
X68499999Y-31257200D01*
X68499999Y-31257200D02*
X68404761Y-31304819D01*
X68404761Y-31304819D02*
X68261904Y-31304819D01*
X68880952Y-30638152D02*
X69261904Y-30638152D01*
X69023809Y-30304819D02*
X69023809Y-31161961D01*
X69023809Y-31161961D02*
X69071428Y-31257200D01*
X69071428Y-31257200D02*
X69166666Y-31304819D01*
X69166666Y-31304819D02*
X69261904Y-31304819D01*
X69452381Y-30638152D02*
X69833333Y-30638152D01*
X69595238Y-30304819D02*
X69595238Y-31161961D01*
X69595238Y-31161961D02*
X69642857Y-31257200D01*
X69642857Y-31257200D02*
X69738095Y-31304819D01*
X69738095Y-31304819D02*
X69833333Y-31304819D01*
X70309524Y-31304819D02*
X70214286Y-31257200D01*
X70214286Y-31257200D02*
X70166667Y-31209580D01*
X70166667Y-31209580D02*
X70119048Y-31114342D01*
X70119048Y-31114342D02*
X70119048Y-30828628D01*
X70119048Y-30828628D02*
X70166667Y-30733390D01*
X70166667Y-30733390D02*
X70214286Y-30685771D01*
X70214286Y-30685771D02*
X70309524Y-30638152D01*
X70309524Y-30638152D02*
X70452381Y-30638152D01*
X70452381Y-30638152D02*
X70547619Y-30685771D01*
X70547619Y-30685771D02*
X70595238Y-30733390D01*
X70595238Y-30733390D02*
X70642857Y-30828628D01*
X70642857Y-30828628D02*
X70642857Y-31114342D01*
X70642857Y-31114342D02*
X70595238Y-31209580D01*
X70595238Y-31209580D02*
X70547619Y-31257200D01*
X70547619Y-31257200D02*
X70452381Y-31304819D01*
X70452381Y-31304819D02*
X70309524Y-31304819D01*
X71071429Y-31304819D02*
X71071429Y-30638152D01*
X71071429Y-30733390D02*
X71119048Y-30685771D01*
X71119048Y-30685771D02*
X71214286Y-30638152D01*
X71214286Y-30638152D02*
X71357143Y-30638152D01*
X71357143Y-30638152D02*
X71452381Y-30685771D01*
X71452381Y-30685771D02*
X71500000Y-30781009D01*
X71500000Y-30781009D02*
X71500000Y-31304819D01*
X71500000Y-30781009D02*
X71547619Y-30685771D01*
X71547619Y-30685771D02*
X71642857Y-30638152D01*
X71642857Y-30638152D02*
X71785714Y-30638152D01*
X71785714Y-30638152D02*
X71880953Y-30685771D01*
X71880953Y-30685771D02*
X71928572Y-30781009D01*
X71928572Y-30781009D02*
X71928572Y-31304819D01*
X73119048Y-31257200D02*
X73261905Y-31304819D01*
X73261905Y-31304819D02*
X73500000Y-31304819D01*
X73500000Y-31304819D02*
X73595238Y-31257200D01*
X73595238Y-31257200D02*
X73642857Y-31209580D01*
X73642857Y-31209580D02*
X73690476Y-31114342D01*
X73690476Y-31114342D02*
X73690476Y-31019104D01*
X73690476Y-31019104D02*
X73642857Y-30923866D01*
X73642857Y-30923866D02*
X73595238Y-30876247D01*
X73595238Y-30876247D02*
X73500000Y-30828628D01*
X73500000Y-30828628D02*
X73309524Y-30781009D01*
X73309524Y-30781009D02*
X73214286Y-30733390D01*
X73214286Y-30733390D02*
X73166667Y-30685771D01*
X73166667Y-30685771D02*
X73119048Y-30590533D01*
X73119048Y-30590533D02*
X73119048Y-30495295D01*
X73119048Y-30495295D02*
X73166667Y-30400057D01*
X73166667Y-30400057D02*
X73214286Y-30352438D01*
X73214286Y-30352438D02*
X73309524Y-30304819D01*
X73309524Y-30304819D02*
X73547619Y-30304819D01*
X73547619Y-30304819D02*
X73690476Y-30352438D01*
X74119048Y-31304819D02*
X74119048Y-30638152D01*
X74119048Y-30304819D02*
X74071429Y-30352438D01*
X74071429Y-30352438D02*
X74119048Y-30400057D01*
X74119048Y-30400057D02*
X74166667Y-30352438D01*
X74166667Y-30352438D02*
X74119048Y-30304819D01*
X74119048Y-30304819D02*
X74119048Y-30400057D01*
X75023809Y-31304819D02*
X75023809Y-30304819D01*
X75023809Y-31257200D02*
X74928571Y-31304819D01*
X74928571Y-31304819D02*
X74738095Y-31304819D01*
X74738095Y-31304819D02*
X74642857Y-31257200D01*
X74642857Y-31257200D02*
X74595238Y-31209580D01*
X74595238Y-31209580D02*
X74547619Y-31114342D01*
X74547619Y-31114342D02*
X74547619Y-30828628D01*
X74547619Y-30828628D02*
X74595238Y-30733390D01*
X74595238Y-30733390D02*
X74642857Y-30685771D01*
X74642857Y-30685771D02*
X74738095Y-30638152D01*
X74738095Y-30638152D02*
X74928571Y-30638152D01*
X74928571Y-30638152D02*
X75023809Y-30685771D01*
X75880952Y-31257200D02*
X75785714Y-31304819D01*
X75785714Y-31304819D02*
X75595238Y-31304819D01*
X75595238Y-31304819D02*
X75500000Y-31257200D01*
X75500000Y-31257200D02*
X75452381Y-31161961D01*
X75452381Y-31161961D02*
X75452381Y-30781009D01*
X75452381Y-30781009D02*
X75500000Y-30685771D01*
X75500000Y-30685771D02*
X75595238Y-30638152D01*
X75595238Y-30638152D02*
X75785714Y-30638152D01*
X75785714Y-30638152D02*
X75880952Y-30685771D01*
X75880952Y-30685771D02*
X75928571Y-30781009D01*
X75928571Y-30781009D02*
X75928571Y-30876247D01*
X75928571Y-30876247D02*
X75452381Y-30971485D01*
D12*
X19430000Y-8520000D02*
X52450000Y-8520000D01*
X19430000Y-8520000D02*
X19430000Y9260000D01*
X21970000Y-8520000D02*
X21970000Y-5980000D01*
X52450000Y-8520000D02*
X52450000Y9260000D01*
X19430000Y-5980000D02*
X49910000Y-5980000D01*
X49910000Y-5980000D02*
X52450000Y-5980000D01*
X49910000Y-5980000D02*
X49910000Y6720000D01*
X19430000Y6720000D02*
X49910000Y6720000D01*
X21970000Y6720000D02*
X21970000Y9260000D01*
X49910000Y6720000D02*
X52450000Y6720000D01*
X52450000Y9260000D02*
X19430000Y9260000D01*
D11*
X36130000Y-4040000D02*
X37630000Y-4040000D01*
X37630000Y-4040000D02*
X37630000Y1360000D01*
X36380000Y-1840000D02*
X37380000Y-1840000D01*
X36880000Y-1740000D02*
X36380000Y-840000D01*
X36380000Y-840000D02*
X37380000Y-840000D01*
X37380000Y-840000D02*
X36880000Y-1740000D01*
X36130000Y1360000D02*
X36130000Y-4040000D01*
X37630000Y1360000D02*
X36130000Y1360000D01*
X57450000Y-7210000D02*
X58950000Y-7210000D01*
X58950000Y-7210000D02*
X58950000Y-1810000D01*
X57700000Y-5010000D02*
X58700000Y-5010000D01*
X58200000Y-4910000D02*
X57700000Y-4010000D01*
X57700000Y-4010000D02*
X58700000Y-4010000D01*
X58700000Y-4010000D02*
X58200000Y-4910000D01*
X57450000Y-1810000D02*
X57450000Y-7210000D01*
X58950000Y-1810000D02*
X57450000Y-1810000D01*
X74290000Y-7070000D02*
X75790000Y-7070000D01*
X75790000Y-7070000D02*
X75790000Y-1670000D01*
X74540000Y-4870000D02*
X75540000Y-4870000D01*
X75040000Y-4770000D02*
X74540000Y-3870000D01*
X74540000Y-3870000D02*
X75540000Y-3870000D01*
X75540000Y-3870000D02*
X75040000Y-4770000D01*
X74290000Y-1670000D02*
X74290000Y-7070000D01*
X75790000Y-1670000D02*
X74290000Y-1670000D01*
X93150000Y-7100000D02*
X94650000Y-7100000D01*
X94650000Y-7100000D02*
X94650000Y-1700000D01*
X93400000Y-4900000D02*
X94400000Y-4900000D01*
X93900000Y-4800000D02*
X93400000Y-3900000D01*
X93400000Y-3900000D02*
X94400000Y-3900000D01*
X94400000Y-3900000D02*
X93900000Y-4800000D01*
X93150000Y-1700000D02*
X93150000Y-7100000D01*
X94650000Y-1700000D02*
X93150000Y-1700000D01*
X95730000Y-7010000D02*
X97230000Y-7010000D01*
X97230000Y-7010000D02*
X97230000Y-1610000D01*
X95980000Y-4810000D02*
X96980000Y-4810000D01*
X96480000Y-4710000D02*
X95980000Y-3810000D01*
X95980000Y-3810000D02*
X96980000Y-3810000D01*
X96980000Y-3810000D02*
X96480000Y-4710000D01*
X95730000Y-1610000D02*
X95730000Y-7010000D01*
X97230000Y-1610000D02*
X95730000Y-1610000D01*
X59940000Y-24170000D02*
X61440000Y-24170000D01*
X61440000Y-24170000D02*
X61440000Y-18770000D01*
X60190000Y-21970000D02*
X61190000Y-21970000D01*
X60690000Y-21870000D02*
X60190000Y-20970000D01*
X60190000Y-20970000D02*
X61190000Y-20970000D01*
X61190000Y-20970000D02*
X60690000Y-21870000D01*
X59940000Y-18770000D02*
X59940000Y-24170000D01*
X61440000Y-18770000D02*
X59940000Y-18770000D01*
X78950000Y-24120000D02*
X80450000Y-24120000D01*
X80450000Y-24120000D02*
X80450000Y-18720000D01*
X79200000Y-21920000D02*
X80200000Y-21920000D01*
X79700000Y-21820000D02*
X79200000Y-20920000D01*
X79200000Y-20920000D02*
X80200000Y-20920000D01*
X80200000Y-20920000D02*
X79700000Y-21820000D01*
X78950000Y-18720000D02*
X78950000Y-24120000D01*
X80450000Y-18720000D02*
X78950000Y-18720000D01*
X83450000Y-9870000D02*
X83450000Y-11370000D01*
X83450000Y-11370000D02*
X88850000Y-11370000D01*
X85650000Y-10120000D02*
X85650000Y-11120000D01*
X85750000Y-10620000D02*
X86650000Y-10120000D01*
X86650000Y-10120000D02*
X86650000Y-11120000D01*
X86650000Y-11120000D02*
X85750000Y-10620000D01*
X88850000Y-9870000D02*
X83450000Y-9870000D01*
X88850000Y-11370000D02*
X88850000Y-9870000D01*
X102040000Y-9870000D02*
X102040000Y-11370000D01*
X102040000Y-11370000D02*
X107440000Y-11370000D01*
X104240000Y-10120000D02*
X104240000Y-11120000D01*
X104340000Y-10620000D02*
X105240000Y-10120000D01*
X105240000Y-10120000D02*
X105240000Y-11120000D01*
X105240000Y-11120000D02*
X104340000Y-10620000D01*
X107440000Y-9870000D02*
X102040000Y-9870000D01*
X107440000Y-11370000D02*
X107440000Y-9870000D01*
X69610000Y-38800000D02*
X71110000Y-38800000D01*
X71110000Y-38800000D02*
X71110000Y-33400000D01*
X69860000Y-36600000D02*
X70860000Y-36600000D01*
X70360000Y-36500000D02*
X69860000Y-35600000D01*
X69860000Y-35600000D02*
X70860000Y-35600000D01*
X70860000Y-35600000D02*
X70360000Y-36500000D01*
X69610000Y-33400000D02*
X69610000Y-38800000D01*
X71110000Y-33400000D02*
X69610000Y-33400000D01*
X88730000Y-38740000D02*
X90230000Y-38740000D01*
X90230000Y-38740000D02*
X90230000Y-33340000D01*
X88980000Y-36540000D02*
X89980000Y-36540000D01*
X89480000Y-36440000D02*
X88980000Y-35540000D01*
X88980000Y-35540000D02*
X89980000Y-35540000D01*
X89980000Y-35540000D02*
X89480000Y-36440000D01*
X88730000Y-33340000D02*
X88730000Y-38740000D01*
X90230000Y-33340000D02*
X88730000Y-33340000D01*
X107620000Y-31660000D02*
X109120000Y-31660000D01*
X109120000Y-31660000D02*
X109120000Y-26260000D01*
X107870000Y-29460000D02*
X108870000Y-29460000D01*
X108370000Y-29360000D02*
X107870000Y-28460000D01*
X107870000Y-28460000D02*
X108870000Y-28460000D01*
X108870000Y-28460000D02*
X108370000Y-29360000D01*
X107620000Y-26260000D02*
X107620000Y-31660000D01*
X109120000Y-26260000D02*
X107620000Y-26260000D01*
X109880000Y-31660000D02*
X111380000Y-31660000D01*
X111380000Y-31660000D02*
X111380000Y-26260000D01*
X110130000Y-29460000D02*
X111130000Y-29460000D01*
X110630000Y-29360000D02*
X110130000Y-28460000D01*
X110130000Y-28460000D02*
X111130000Y-28460000D01*
X111130000Y-28460000D02*
X110630000Y-29360000D01*
X109880000Y-26260000D02*
X109880000Y-31660000D01*
X111380000Y-26260000D02*
X109880000Y-26260000D01*
X50600000Y-58710000D02*
X52100000Y-58710000D01*
X52100000Y-58710000D02*
X52100000Y-53310000D01*
X50850000Y-56510000D02*
X51850000Y-56510000D01*
X51350000Y-56410000D02*
X50850000Y-55510000D01*
X50850000Y-55510000D02*
X51850000Y-55510000D01*
X51850000Y-55510000D02*
X51350000Y-56410000D01*
X50600000Y-53310000D02*
X50600000Y-58710000D01*
X52100000Y-53310000D02*
X50600000Y-53310000D01*
X69710000Y-58640000D02*
X71210000Y-58640000D01*
X71210000Y-58640000D02*
X71210000Y-53240000D01*
X69960000Y-56440000D02*
X70960000Y-56440000D01*
X70460000Y-56340000D02*
X69960000Y-55440000D01*
X69960000Y-55440000D02*
X70960000Y-55440000D01*
X70960000Y-55440000D02*
X70460000Y-56340000D01*
X69710000Y-53240000D02*
X69710000Y-58640000D01*
X71210000Y-53240000D02*
X69710000Y-53240000D01*
X91340000Y-59380000D02*
X92840000Y-59380000D01*
X92840000Y-59380000D02*
X92840000Y-53980000D01*
X91590000Y-57180000D02*
X92590000Y-57180000D01*
X92090000Y-57080000D02*
X91590000Y-56180000D01*
X91590000Y-56180000D02*
X92590000Y-56180000D01*
X92590000Y-56180000D02*
X92090000Y-57080000D01*
X91340000Y-53980000D02*
X91340000Y-59380000D01*
X92840000Y-53980000D02*
X91340000Y-53980000D01*
X38470000Y-24090000D02*
X39970000Y-24090000D01*
X39970000Y-24090000D02*
X39970000Y-18690000D01*
X38720000Y-21890000D02*
X39720000Y-21890000D01*
X39220000Y-21790000D02*
X38720000Y-20890000D01*
X38720000Y-20890000D02*
X39720000Y-20890000D01*
X39720000Y-20890000D02*
X39220000Y-21790000D01*
X38470000Y-18690000D02*
X38470000Y-24090000D01*
X39970000Y-18690000D02*
X38470000Y-18690000D01*
X45980000Y-38710000D02*
X47480000Y-38710000D01*
X47480000Y-38710000D02*
X47480000Y-33310000D01*
X46230000Y-36510000D02*
X47230000Y-36510000D01*
X46730000Y-36410000D02*
X46230000Y-35510000D01*
X46230000Y-35510000D02*
X47230000Y-35510000D01*
X47230000Y-35510000D02*
X46730000Y-36410000D01*
X45980000Y-33310000D02*
X45980000Y-38710000D01*
X47480000Y-33310000D02*
X45980000Y-33310000D01*
X94350000Y-59380000D02*
X95850000Y-59380000D01*
X95850000Y-59380000D02*
X95850000Y-53980000D01*
X94600000Y-57180000D02*
X95600000Y-57180000D01*
X95100000Y-57080000D02*
X94600000Y-56180000D01*
X94600000Y-56180000D02*
X95600000Y-56180000D01*
X95600000Y-56180000D02*
X95100000Y-57080000D01*
X94350000Y-53980000D02*
X94350000Y-59380000D01*
X95850000Y-53980000D02*
X94350000Y-53980000D01*
D13*
X36880000Y-5150000D03*
D14*
X36880000Y2470000D03*
D13*
X58200000Y-8320000D03*
D14*
X58200000Y-700000D03*
D13*
X75040000Y-8180000D03*
D14*
X75040000Y-560000D03*
D13*
X93900000Y-8210000D03*
D14*
X93900000Y-590000D03*
D13*
X96480000Y-8120000D03*
D14*
X96480000Y-500000D03*
D13*
X60690000Y-25280000D03*
D14*
X60690000Y-17660000D03*
D13*
X79700000Y-25230000D03*
D14*
X79700000Y-17610000D03*
D13*
X82340000Y-10620000D03*
D14*
X89960000Y-10620000D03*
D13*
X100930000Y-10620000D03*
D14*
X108550000Y-10620000D03*
D13*
X70360000Y-39910000D03*
D14*
X70360000Y-32290000D03*
D13*
X89480000Y-39850000D03*
D14*
X89480000Y-32230000D03*
D13*
X108370000Y-32770000D03*
D14*
X108370000Y-25150000D03*
D13*
X110630000Y-32770000D03*
D14*
X110630000Y-25150000D03*
D13*
X51350000Y-59820000D03*
D14*
X51350000Y-52200000D03*
D13*
X70460000Y-59750000D03*
D14*
X70460000Y-52130000D03*
D13*
X92090000Y-60490000D03*
D14*
X92090000Y-52870000D03*
D13*
X39220000Y-25200000D03*
D14*
X39220000Y-17580000D03*
D13*
X46730000Y-39820000D03*
D14*
X46730000Y-32200000D03*
D13*
X95100000Y-60490000D03*
D14*
X95100000Y-52870000D03*
M02*
