G04 #@! TF.GenerationSoftware,KiCad,Pcbnew,7.0.8*
G04 #@! TF.CreationDate,2024-02-12T18:05:53+09:00*
G04 #@! TF.ProjectId,cool939v2,636f6f6c-3933-4397-9632-2e6b69636164,rev?*
G04 #@! TF.SameCoordinates,Original*
G04 #@! TF.FileFunction,Legend,Bot*
G04 #@! TF.FilePolarity,Positive*
%FSLAX46Y46*%
G04 Gerber Fmt 4.6, Leading zero omitted, Abs format (unit mm)*
G04 Created by KiCad (PCBNEW 7.0.8) date 2024-02-12 18:05:53*
%MOMM*%
%LPD*%
G01*
G04 APERTURE LIST*
G04 Aperture macros list*
%AMHorizOval*
0 Thick line with rounded ends*
0 $1 width*
0 $2 $3 position (X,Y) of the first rounded end (center of the circle)*
0 $4 $5 position (X,Y) of the second rounded end (center of the circle)*
0 Add line between two ends*
20,1,$1,$2,$3,$4,$5,0*
0 Add two circle primitives to create the rounded ends*
1,1,$1,$2,$3*
1,1,$1,$4,$5*%
G04 Aperture macros list end*
%ADD10C,0.300000*%
%ADD11C,0.150000*%
%ADD12C,0.100000*%
%ADD13HorizOval,1.700000X0.346410X0.200000X-0.346410X-0.200000X0*%
%ADD14C,1.200000*%
%ADD15C,2.000000*%
G04 APERTURE END LIST*
D10*
X33105713Y-25474400D02*
X33248570Y-25545828D01*
X33248570Y-25545828D02*
X33534284Y-25545828D01*
X33534284Y-25545828D02*
X33677141Y-25474400D01*
X33677141Y-25474400D02*
X33748570Y-25402971D01*
X33748570Y-25402971D02*
X33819998Y-25260114D01*
X33819998Y-25260114D02*
X33819998Y-24831542D01*
X33819998Y-24831542D02*
X33748570Y-24688685D01*
X33748570Y-24688685D02*
X33677141Y-24617257D01*
X33677141Y-24617257D02*
X33534284Y-24545828D01*
X33534284Y-24545828D02*
X33248570Y-24545828D01*
X33248570Y-24545828D02*
X33105713Y-24617257D01*
X32248570Y-25545828D02*
X32391427Y-25474400D01*
X32391427Y-25474400D02*
X32462856Y-25402971D01*
X32462856Y-25402971D02*
X32534284Y-25260114D01*
X32534284Y-25260114D02*
X32534284Y-24831542D01*
X32534284Y-24831542D02*
X32462856Y-24688685D01*
X32462856Y-24688685D02*
X32391427Y-24617257D01*
X32391427Y-24617257D02*
X32248570Y-24545828D01*
X32248570Y-24545828D02*
X32034284Y-24545828D01*
X32034284Y-24545828D02*
X31891427Y-24617257D01*
X31891427Y-24617257D02*
X31819999Y-24688685D01*
X31819999Y-24688685D02*
X31748570Y-24831542D01*
X31748570Y-24831542D02*
X31748570Y-25260114D01*
X31748570Y-25260114D02*
X31819999Y-25402971D01*
X31819999Y-25402971D02*
X31891427Y-25474400D01*
X31891427Y-25474400D02*
X32034284Y-25545828D01*
X32034284Y-25545828D02*
X32248570Y-25545828D01*
X30891427Y-25545828D02*
X31034284Y-25474400D01*
X31034284Y-25474400D02*
X31105713Y-25402971D01*
X31105713Y-25402971D02*
X31177141Y-25260114D01*
X31177141Y-25260114D02*
X31177141Y-24831542D01*
X31177141Y-24831542D02*
X31105713Y-24688685D01*
X31105713Y-24688685D02*
X31034284Y-24617257D01*
X31034284Y-24617257D02*
X30891427Y-24545828D01*
X30891427Y-24545828D02*
X30677141Y-24545828D01*
X30677141Y-24545828D02*
X30534284Y-24617257D01*
X30534284Y-24617257D02*
X30462856Y-24688685D01*
X30462856Y-24688685D02*
X30391427Y-24831542D01*
X30391427Y-24831542D02*
X30391427Y-25260114D01*
X30391427Y-25260114D02*
X30462856Y-25402971D01*
X30462856Y-25402971D02*
X30534284Y-25474400D01*
X30534284Y-25474400D02*
X30677141Y-25545828D01*
X30677141Y-25545828D02*
X30891427Y-25545828D01*
X29534284Y-25545828D02*
X29677141Y-25474400D01*
X29677141Y-25474400D02*
X29748570Y-25331542D01*
X29748570Y-25331542D02*
X29748570Y-24045828D01*
X28891427Y-25545828D02*
X28605713Y-25545828D01*
X28605713Y-25545828D02*
X28462856Y-25474400D01*
X28462856Y-25474400D02*
X28391427Y-25402971D01*
X28391427Y-25402971D02*
X28248570Y-25188685D01*
X28248570Y-25188685D02*
X28177141Y-24902971D01*
X28177141Y-24902971D02*
X28177141Y-24331542D01*
X28177141Y-24331542D02*
X28248570Y-24188685D01*
X28248570Y-24188685D02*
X28319999Y-24117257D01*
X28319999Y-24117257D02*
X28462856Y-24045828D01*
X28462856Y-24045828D02*
X28748570Y-24045828D01*
X28748570Y-24045828D02*
X28891427Y-24117257D01*
X28891427Y-24117257D02*
X28962856Y-24188685D01*
X28962856Y-24188685D02*
X29034284Y-24331542D01*
X29034284Y-24331542D02*
X29034284Y-24688685D01*
X29034284Y-24688685D02*
X28962856Y-24831542D01*
X28962856Y-24831542D02*
X28891427Y-24902971D01*
X28891427Y-24902971D02*
X28748570Y-24974400D01*
X28748570Y-24974400D02*
X28462856Y-24974400D01*
X28462856Y-24974400D02*
X28319999Y-24902971D01*
X28319999Y-24902971D02*
X28248570Y-24831542D01*
X28248570Y-24831542D02*
X28177141Y-24688685D01*
X27677142Y-24045828D02*
X26748570Y-24045828D01*
X26748570Y-24045828D02*
X27248570Y-24617257D01*
X27248570Y-24617257D02*
X27034285Y-24617257D01*
X27034285Y-24617257D02*
X26891428Y-24688685D01*
X26891428Y-24688685D02*
X26819999Y-24760114D01*
X26819999Y-24760114D02*
X26748570Y-24902971D01*
X26748570Y-24902971D02*
X26748570Y-25260114D01*
X26748570Y-25260114D02*
X26819999Y-25402971D01*
X26819999Y-25402971D02*
X26891428Y-25474400D01*
X26891428Y-25474400D02*
X27034285Y-25545828D01*
X27034285Y-25545828D02*
X27462856Y-25545828D01*
X27462856Y-25545828D02*
X27605713Y-25474400D01*
X27605713Y-25474400D02*
X27677142Y-25402971D01*
X26034285Y-25545828D02*
X25748571Y-25545828D01*
X25748571Y-25545828D02*
X25605714Y-25474400D01*
X25605714Y-25474400D02*
X25534285Y-25402971D01*
X25534285Y-25402971D02*
X25391428Y-25188685D01*
X25391428Y-25188685D02*
X25319999Y-24902971D01*
X25319999Y-24902971D02*
X25319999Y-24331542D01*
X25319999Y-24331542D02*
X25391428Y-24188685D01*
X25391428Y-24188685D02*
X25462857Y-24117257D01*
X25462857Y-24117257D02*
X25605714Y-24045828D01*
X25605714Y-24045828D02*
X25891428Y-24045828D01*
X25891428Y-24045828D02*
X26034285Y-24117257D01*
X26034285Y-24117257D02*
X26105714Y-24188685D01*
X26105714Y-24188685D02*
X26177142Y-24331542D01*
X26177142Y-24331542D02*
X26177142Y-24688685D01*
X26177142Y-24688685D02*
X26105714Y-24831542D01*
X26105714Y-24831542D02*
X26034285Y-24902971D01*
X26034285Y-24902971D02*
X25891428Y-24974400D01*
X25891428Y-24974400D02*
X25605714Y-24974400D01*
X25605714Y-24974400D02*
X25462857Y-24902971D01*
X25462857Y-24902971D02*
X25391428Y-24831542D01*
X25391428Y-24831542D02*
X25319999Y-24688685D01*
X38248572Y-27960828D02*
X38248572Y-26460828D01*
X38248572Y-27889400D02*
X38391429Y-27960828D01*
X38391429Y-27960828D02*
X38677143Y-27960828D01*
X38677143Y-27960828D02*
X38820000Y-27889400D01*
X38820000Y-27889400D02*
X38891429Y-27817971D01*
X38891429Y-27817971D02*
X38962857Y-27675114D01*
X38962857Y-27675114D02*
X38962857Y-27246542D01*
X38962857Y-27246542D02*
X38891429Y-27103685D01*
X38891429Y-27103685D02*
X38820000Y-27032257D01*
X38820000Y-27032257D02*
X38677143Y-26960828D01*
X38677143Y-26960828D02*
X38391429Y-26960828D01*
X38391429Y-26960828D02*
X38248572Y-27032257D01*
X36962857Y-27889400D02*
X37105714Y-27960828D01*
X37105714Y-27960828D02*
X37391429Y-27960828D01*
X37391429Y-27960828D02*
X37534286Y-27889400D01*
X37534286Y-27889400D02*
X37605714Y-27746542D01*
X37605714Y-27746542D02*
X37605714Y-27175114D01*
X37605714Y-27175114D02*
X37534286Y-27032257D01*
X37534286Y-27032257D02*
X37391429Y-26960828D01*
X37391429Y-26960828D02*
X37105714Y-26960828D01*
X37105714Y-26960828D02*
X36962857Y-27032257D01*
X36962857Y-27032257D02*
X36891429Y-27175114D01*
X36891429Y-27175114D02*
X36891429Y-27317971D01*
X36891429Y-27317971D02*
X37605714Y-27460828D01*
X36320000Y-27889400D02*
X36177143Y-27960828D01*
X36177143Y-27960828D02*
X35891429Y-27960828D01*
X35891429Y-27960828D02*
X35748572Y-27889400D01*
X35748572Y-27889400D02*
X35677143Y-27746542D01*
X35677143Y-27746542D02*
X35677143Y-27675114D01*
X35677143Y-27675114D02*
X35748572Y-27532257D01*
X35748572Y-27532257D02*
X35891429Y-27460828D01*
X35891429Y-27460828D02*
X36105715Y-27460828D01*
X36105715Y-27460828D02*
X36248572Y-27389400D01*
X36248572Y-27389400D02*
X36320000Y-27246542D01*
X36320000Y-27246542D02*
X36320000Y-27175114D01*
X36320000Y-27175114D02*
X36248572Y-27032257D01*
X36248572Y-27032257D02*
X36105715Y-26960828D01*
X36105715Y-26960828D02*
X35891429Y-26960828D01*
X35891429Y-26960828D02*
X35748572Y-27032257D01*
X35034286Y-27960828D02*
X35034286Y-26960828D01*
X35034286Y-26460828D02*
X35105714Y-26532257D01*
X35105714Y-26532257D02*
X35034286Y-26603685D01*
X35034286Y-26603685D02*
X34962857Y-26532257D01*
X34962857Y-26532257D02*
X35034286Y-26460828D01*
X35034286Y-26460828D02*
X35034286Y-26603685D01*
X33677143Y-26960828D02*
X33677143Y-28175114D01*
X33677143Y-28175114D02*
X33748571Y-28317971D01*
X33748571Y-28317971D02*
X33820000Y-28389400D01*
X33820000Y-28389400D02*
X33962857Y-28460828D01*
X33962857Y-28460828D02*
X34177143Y-28460828D01*
X34177143Y-28460828D02*
X34320000Y-28389400D01*
X33677143Y-27889400D02*
X33820000Y-27960828D01*
X33820000Y-27960828D02*
X34105714Y-27960828D01*
X34105714Y-27960828D02*
X34248571Y-27889400D01*
X34248571Y-27889400D02*
X34320000Y-27817971D01*
X34320000Y-27817971D02*
X34391428Y-27675114D01*
X34391428Y-27675114D02*
X34391428Y-27246542D01*
X34391428Y-27246542D02*
X34320000Y-27103685D01*
X34320000Y-27103685D02*
X34248571Y-27032257D01*
X34248571Y-27032257D02*
X34105714Y-26960828D01*
X34105714Y-26960828D02*
X33820000Y-26960828D01*
X33820000Y-26960828D02*
X33677143Y-27032257D01*
X32962857Y-26960828D02*
X32962857Y-27960828D01*
X32962857Y-27103685D02*
X32891428Y-27032257D01*
X32891428Y-27032257D02*
X32748571Y-26960828D01*
X32748571Y-26960828D02*
X32534285Y-26960828D01*
X32534285Y-26960828D02*
X32391428Y-27032257D01*
X32391428Y-27032257D02*
X32320000Y-27175114D01*
X32320000Y-27175114D02*
X32320000Y-27960828D01*
X31034285Y-27889400D02*
X31177142Y-27960828D01*
X31177142Y-27960828D02*
X31462857Y-27960828D01*
X31462857Y-27960828D02*
X31605714Y-27889400D01*
X31605714Y-27889400D02*
X31677142Y-27746542D01*
X31677142Y-27746542D02*
X31677142Y-27175114D01*
X31677142Y-27175114D02*
X31605714Y-27032257D01*
X31605714Y-27032257D02*
X31462857Y-26960828D01*
X31462857Y-26960828D02*
X31177142Y-26960828D01*
X31177142Y-26960828D02*
X31034285Y-27032257D01*
X31034285Y-27032257D02*
X30962857Y-27175114D01*
X30962857Y-27175114D02*
X30962857Y-27317971D01*
X30962857Y-27317971D02*
X31677142Y-27460828D01*
X29677143Y-27960828D02*
X29677143Y-26460828D01*
X29677143Y-27889400D02*
X29820000Y-27960828D01*
X29820000Y-27960828D02*
X30105714Y-27960828D01*
X30105714Y-27960828D02*
X30248571Y-27889400D01*
X30248571Y-27889400D02*
X30320000Y-27817971D01*
X30320000Y-27817971D02*
X30391428Y-27675114D01*
X30391428Y-27675114D02*
X30391428Y-27246542D01*
X30391428Y-27246542D02*
X30320000Y-27103685D01*
X30320000Y-27103685D02*
X30248571Y-27032257D01*
X30248571Y-27032257D02*
X30105714Y-26960828D01*
X30105714Y-26960828D02*
X29820000Y-26960828D01*
X29820000Y-26960828D02*
X29677143Y-27032257D01*
X27820000Y-27960828D02*
X27820000Y-26460828D01*
X27820000Y-27032257D02*
X27677143Y-26960828D01*
X27677143Y-26960828D02*
X27391428Y-26960828D01*
X27391428Y-26960828D02*
X27248571Y-27032257D01*
X27248571Y-27032257D02*
X27177143Y-27103685D01*
X27177143Y-27103685D02*
X27105714Y-27246542D01*
X27105714Y-27246542D02*
X27105714Y-27675114D01*
X27105714Y-27675114D02*
X27177143Y-27817971D01*
X27177143Y-27817971D02*
X27248571Y-27889400D01*
X27248571Y-27889400D02*
X27391428Y-27960828D01*
X27391428Y-27960828D02*
X27677143Y-27960828D01*
X27677143Y-27960828D02*
X27820000Y-27889400D01*
X26605714Y-26960828D02*
X26248571Y-27960828D01*
X25891428Y-26960828D02*
X26248571Y-27960828D01*
X26248571Y-27960828D02*
X26391428Y-28317971D01*
X26391428Y-28317971D02*
X26462857Y-28389400D01*
X26462857Y-28389400D02*
X26605714Y-28460828D01*
X24177143Y-27960828D02*
X24177143Y-26960828D01*
X24177143Y-27103685D02*
X24105714Y-27032257D01*
X24105714Y-27032257D02*
X23962857Y-26960828D01*
X23962857Y-26960828D02*
X23748571Y-26960828D01*
X23748571Y-26960828D02*
X23605714Y-27032257D01*
X23605714Y-27032257D02*
X23534286Y-27175114D01*
X23534286Y-27175114D02*
X23534286Y-27960828D01*
X23534286Y-27175114D02*
X23462857Y-27032257D01*
X23462857Y-27032257D02*
X23320000Y-26960828D01*
X23320000Y-26960828D02*
X23105714Y-26960828D01*
X23105714Y-26960828D02*
X22962857Y-27032257D01*
X22962857Y-27032257D02*
X22891428Y-27175114D01*
X22891428Y-27175114D02*
X22891428Y-27960828D01*
X22177143Y-27817971D02*
X22105714Y-27889400D01*
X22105714Y-27889400D02*
X22177143Y-27960828D01*
X22177143Y-27960828D02*
X22248571Y-27889400D01*
X22248571Y-27889400D02*
X22177143Y-27817971D01*
X22177143Y-27817971D02*
X22177143Y-27960828D01*
X21462857Y-27960828D02*
X21462857Y-26460828D01*
X21320000Y-27389400D02*
X20891428Y-27960828D01*
X20891428Y-26960828D02*
X21462857Y-27532257D01*
X20248571Y-27960828D02*
X20248571Y-26960828D01*
X20248571Y-26460828D02*
X20319999Y-26532257D01*
X20319999Y-26532257D02*
X20248571Y-26603685D01*
X20248571Y-26603685D02*
X20177142Y-26532257D01*
X20177142Y-26532257D02*
X20248571Y-26460828D01*
X20248571Y-26460828D02*
X20248571Y-26603685D01*
X37284284Y-30375828D02*
X37284284Y-28875828D01*
X37284284Y-30304400D02*
X37427141Y-30375828D01*
X37427141Y-30375828D02*
X37712855Y-30375828D01*
X37712855Y-30375828D02*
X37855712Y-30304400D01*
X37855712Y-30304400D02*
X37927141Y-30232971D01*
X37927141Y-30232971D02*
X37998569Y-30090114D01*
X37998569Y-30090114D02*
X37998569Y-29661542D01*
X37998569Y-29661542D02*
X37927141Y-29518685D01*
X37927141Y-29518685D02*
X37855712Y-29447257D01*
X37855712Y-29447257D02*
X37712855Y-29375828D01*
X37712855Y-29375828D02*
X37427141Y-29375828D01*
X37427141Y-29375828D02*
X37284284Y-29447257D01*
X35927141Y-30375828D02*
X35927141Y-29590114D01*
X35927141Y-29590114D02*
X35998569Y-29447257D01*
X35998569Y-29447257D02*
X36141426Y-29375828D01*
X36141426Y-29375828D02*
X36427141Y-29375828D01*
X36427141Y-29375828D02*
X36569998Y-29447257D01*
X35927141Y-30304400D02*
X36069998Y-30375828D01*
X36069998Y-30375828D02*
X36427141Y-30375828D01*
X36427141Y-30375828D02*
X36569998Y-30304400D01*
X36569998Y-30304400D02*
X36641426Y-30161542D01*
X36641426Y-30161542D02*
X36641426Y-30018685D01*
X36641426Y-30018685D02*
X36569998Y-29875828D01*
X36569998Y-29875828D02*
X36427141Y-29804400D01*
X36427141Y-29804400D02*
X36069998Y-29804400D01*
X36069998Y-29804400D02*
X35927141Y-29732971D01*
X35427140Y-29375828D02*
X34855712Y-29375828D01*
X35212855Y-28875828D02*
X35212855Y-30161542D01*
X35212855Y-30161542D02*
X35141426Y-30304400D01*
X35141426Y-30304400D02*
X34998569Y-30375828D01*
X34998569Y-30375828D02*
X34855712Y-30375828D01*
X33784283Y-30304400D02*
X33927140Y-30375828D01*
X33927140Y-30375828D02*
X34212855Y-30375828D01*
X34212855Y-30375828D02*
X34355712Y-30304400D01*
X34355712Y-30304400D02*
X34427140Y-30161542D01*
X34427140Y-30161542D02*
X34427140Y-29590114D01*
X34427140Y-29590114D02*
X34355712Y-29447257D01*
X34355712Y-29447257D02*
X34212855Y-29375828D01*
X34212855Y-29375828D02*
X33927140Y-29375828D01*
X33927140Y-29375828D02*
X33784283Y-29447257D01*
X33784283Y-29447257D02*
X33712855Y-29590114D01*
X33712855Y-29590114D02*
X33712855Y-29732971D01*
X33712855Y-29732971D02*
X34427140Y-29875828D01*
X31998569Y-29018685D02*
X31927141Y-28947257D01*
X31927141Y-28947257D02*
X31784284Y-28875828D01*
X31784284Y-28875828D02*
X31427141Y-28875828D01*
X31427141Y-28875828D02*
X31284284Y-28947257D01*
X31284284Y-28947257D02*
X31212855Y-29018685D01*
X31212855Y-29018685D02*
X31141426Y-29161542D01*
X31141426Y-29161542D02*
X31141426Y-29304400D01*
X31141426Y-29304400D02*
X31212855Y-29518685D01*
X31212855Y-29518685D02*
X32069998Y-30375828D01*
X32069998Y-30375828D02*
X31141426Y-30375828D01*
X30212855Y-28875828D02*
X30069998Y-28875828D01*
X30069998Y-28875828D02*
X29927141Y-28947257D01*
X29927141Y-28947257D02*
X29855713Y-29018685D01*
X29855713Y-29018685D02*
X29784284Y-29161542D01*
X29784284Y-29161542D02*
X29712855Y-29447257D01*
X29712855Y-29447257D02*
X29712855Y-29804400D01*
X29712855Y-29804400D02*
X29784284Y-30090114D01*
X29784284Y-30090114D02*
X29855713Y-30232971D01*
X29855713Y-30232971D02*
X29927141Y-30304400D01*
X29927141Y-30304400D02*
X30069998Y-30375828D01*
X30069998Y-30375828D02*
X30212855Y-30375828D01*
X30212855Y-30375828D02*
X30355713Y-30304400D01*
X30355713Y-30304400D02*
X30427141Y-30232971D01*
X30427141Y-30232971D02*
X30498570Y-30090114D01*
X30498570Y-30090114D02*
X30569998Y-29804400D01*
X30569998Y-29804400D02*
X30569998Y-29447257D01*
X30569998Y-29447257D02*
X30498570Y-29161542D01*
X30498570Y-29161542D02*
X30427141Y-29018685D01*
X30427141Y-29018685D02*
X30355713Y-28947257D01*
X30355713Y-28947257D02*
X30212855Y-28875828D01*
X29141427Y-29018685D02*
X29069999Y-28947257D01*
X29069999Y-28947257D02*
X28927142Y-28875828D01*
X28927142Y-28875828D02*
X28569999Y-28875828D01*
X28569999Y-28875828D02*
X28427142Y-28947257D01*
X28427142Y-28947257D02*
X28355713Y-29018685D01*
X28355713Y-29018685D02*
X28284284Y-29161542D01*
X28284284Y-29161542D02*
X28284284Y-29304400D01*
X28284284Y-29304400D02*
X28355713Y-29518685D01*
X28355713Y-29518685D02*
X29212856Y-30375828D01*
X29212856Y-30375828D02*
X28284284Y-30375828D01*
X26998571Y-29375828D02*
X26998571Y-30375828D01*
X27355713Y-28804400D02*
X27712856Y-29875828D01*
X27712856Y-29875828D02*
X26784285Y-29875828D01*
X25927142Y-28875828D02*
X25784285Y-28875828D01*
X25784285Y-28875828D02*
X25641428Y-28947257D01*
X25641428Y-28947257D02*
X25570000Y-29018685D01*
X25570000Y-29018685D02*
X25498571Y-29161542D01*
X25498571Y-29161542D02*
X25427142Y-29447257D01*
X25427142Y-29447257D02*
X25427142Y-29804400D01*
X25427142Y-29804400D02*
X25498571Y-30090114D01*
X25498571Y-30090114D02*
X25570000Y-30232971D01*
X25570000Y-30232971D02*
X25641428Y-30304400D01*
X25641428Y-30304400D02*
X25784285Y-30375828D01*
X25784285Y-30375828D02*
X25927142Y-30375828D01*
X25927142Y-30375828D02*
X26070000Y-30304400D01*
X26070000Y-30304400D02*
X26141428Y-30232971D01*
X26141428Y-30232971D02*
X26212857Y-30090114D01*
X26212857Y-30090114D02*
X26284285Y-29804400D01*
X26284285Y-29804400D02*
X26284285Y-29447257D01*
X26284285Y-29447257D02*
X26212857Y-29161542D01*
X26212857Y-29161542D02*
X26141428Y-29018685D01*
X26141428Y-29018685D02*
X26070000Y-28947257D01*
X26070000Y-28947257D02*
X25927142Y-28875828D01*
X24855714Y-29018685D02*
X24784286Y-28947257D01*
X24784286Y-28947257D02*
X24641429Y-28875828D01*
X24641429Y-28875828D02*
X24284286Y-28875828D01*
X24284286Y-28875828D02*
X24141429Y-28947257D01*
X24141429Y-28947257D02*
X24070000Y-29018685D01*
X24070000Y-29018685D02*
X23998571Y-29161542D01*
X23998571Y-29161542D02*
X23998571Y-29304400D01*
X23998571Y-29304400D02*
X24070000Y-29518685D01*
X24070000Y-29518685D02*
X24927143Y-30375828D01*
X24927143Y-30375828D02*
X23998571Y-30375828D01*
X23070000Y-28875828D02*
X22927143Y-28875828D01*
X22927143Y-28875828D02*
X22784286Y-28947257D01*
X22784286Y-28947257D02*
X22712858Y-29018685D01*
X22712858Y-29018685D02*
X22641429Y-29161542D01*
X22641429Y-29161542D02*
X22570000Y-29447257D01*
X22570000Y-29447257D02*
X22570000Y-29804400D01*
X22570000Y-29804400D02*
X22641429Y-30090114D01*
X22641429Y-30090114D02*
X22712858Y-30232971D01*
X22712858Y-30232971D02*
X22784286Y-30304400D01*
X22784286Y-30304400D02*
X22927143Y-30375828D01*
X22927143Y-30375828D02*
X23070000Y-30375828D01*
X23070000Y-30375828D02*
X23212858Y-30304400D01*
X23212858Y-30304400D02*
X23284286Y-30232971D01*
X23284286Y-30232971D02*
X23355715Y-30090114D01*
X23355715Y-30090114D02*
X23427143Y-29804400D01*
X23427143Y-29804400D02*
X23427143Y-29447257D01*
X23427143Y-29447257D02*
X23355715Y-29161542D01*
X23355715Y-29161542D02*
X23284286Y-29018685D01*
X23284286Y-29018685D02*
X23212858Y-28947257D01*
X23212858Y-28947257D02*
X23070000Y-28875828D01*
X21855715Y-30375828D02*
X21570001Y-30375828D01*
X21570001Y-30375828D02*
X21427144Y-30304400D01*
X21427144Y-30304400D02*
X21355715Y-30232971D01*
X21355715Y-30232971D02*
X21212858Y-30018685D01*
X21212858Y-30018685D02*
X21141429Y-29732971D01*
X21141429Y-29732971D02*
X21141429Y-29161542D01*
X21141429Y-29161542D02*
X21212858Y-29018685D01*
X21212858Y-29018685D02*
X21284287Y-28947257D01*
X21284287Y-28947257D02*
X21427144Y-28875828D01*
X21427144Y-28875828D02*
X21712858Y-28875828D01*
X21712858Y-28875828D02*
X21855715Y-28947257D01*
X21855715Y-28947257D02*
X21927144Y-29018685D01*
X21927144Y-29018685D02*
X21998572Y-29161542D01*
X21998572Y-29161542D02*
X21998572Y-29518685D01*
X21998572Y-29518685D02*
X21927144Y-29661542D01*
X21927144Y-29661542D02*
X21855715Y-29732971D01*
X21855715Y-29732971D02*
X21712858Y-29804400D01*
X21712858Y-29804400D02*
X21427144Y-29804400D01*
X21427144Y-29804400D02*
X21284287Y-29732971D01*
X21284287Y-29732971D02*
X21212858Y-29661542D01*
X21212858Y-29661542D02*
X21141429Y-29518685D01*
X33177142Y-31790828D02*
X32819999Y-32790828D01*
X32819999Y-32790828D02*
X32462856Y-31790828D01*
X31319999Y-32719400D02*
X31462856Y-32790828D01*
X31462856Y-32790828D02*
X31748571Y-32790828D01*
X31748571Y-32790828D02*
X31891428Y-32719400D01*
X31891428Y-32719400D02*
X31962856Y-32576542D01*
X31962856Y-32576542D02*
X31962856Y-32005114D01*
X31962856Y-32005114D02*
X31891428Y-31862257D01*
X31891428Y-31862257D02*
X31748571Y-31790828D01*
X31748571Y-31790828D02*
X31462856Y-31790828D01*
X31462856Y-31790828D02*
X31319999Y-31862257D01*
X31319999Y-31862257D02*
X31248571Y-32005114D01*
X31248571Y-32005114D02*
X31248571Y-32147971D01*
X31248571Y-32147971D02*
X31962856Y-32290828D01*
X30605714Y-32790828D02*
X30605714Y-31790828D01*
X30605714Y-32076542D02*
X30534285Y-31933685D01*
X30534285Y-31933685D02*
X30462857Y-31862257D01*
X30462857Y-31862257D02*
X30319999Y-31790828D01*
X30319999Y-31790828D02*
X30177142Y-31790828D01*
X29677143Y-32647971D02*
X29605714Y-32719400D01*
X29605714Y-32719400D02*
X29677143Y-32790828D01*
X29677143Y-32790828D02*
X29748571Y-32719400D01*
X29748571Y-32719400D02*
X29677143Y-32647971D01*
X29677143Y-32647971D02*
X29677143Y-32790828D01*
X29034285Y-31433685D02*
X28962857Y-31362257D01*
X28962857Y-31362257D02*
X28820000Y-31290828D01*
X28820000Y-31290828D02*
X28462857Y-31290828D01*
X28462857Y-31290828D02*
X28320000Y-31362257D01*
X28320000Y-31362257D02*
X28248571Y-31433685D01*
X28248571Y-31433685D02*
X28177142Y-31576542D01*
X28177142Y-31576542D02*
X28177142Y-31719400D01*
X28177142Y-31719400D02*
X28248571Y-31933685D01*
X28248571Y-31933685D02*
X29105714Y-32790828D01*
X29105714Y-32790828D02*
X28177142Y-32790828D01*
X27534286Y-32647971D02*
X27462857Y-32719400D01*
X27462857Y-32719400D02*
X27534286Y-32790828D01*
X27534286Y-32790828D02*
X27605714Y-32719400D01*
X27605714Y-32719400D02*
X27534286Y-32647971D01*
X27534286Y-32647971D02*
X27534286Y-32790828D01*
X26534285Y-31290828D02*
X26391428Y-31290828D01*
X26391428Y-31290828D02*
X26248571Y-31362257D01*
X26248571Y-31362257D02*
X26177143Y-31433685D01*
X26177143Y-31433685D02*
X26105714Y-31576542D01*
X26105714Y-31576542D02*
X26034285Y-31862257D01*
X26034285Y-31862257D02*
X26034285Y-32219400D01*
X26034285Y-32219400D02*
X26105714Y-32505114D01*
X26105714Y-32505114D02*
X26177143Y-32647971D01*
X26177143Y-32647971D02*
X26248571Y-32719400D01*
X26248571Y-32719400D02*
X26391428Y-32790828D01*
X26391428Y-32790828D02*
X26534285Y-32790828D01*
X26534285Y-32790828D02*
X26677143Y-32719400D01*
X26677143Y-32719400D02*
X26748571Y-32647971D01*
X26748571Y-32647971D02*
X26820000Y-32505114D01*
X26820000Y-32505114D02*
X26891428Y-32219400D01*
X26891428Y-32219400D02*
X26891428Y-31862257D01*
X26891428Y-31862257D02*
X26820000Y-31576542D01*
X26820000Y-31576542D02*
X26748571Y-31433685D01*
X26748571Y-31433685D02*
X26677143Y-31362257D01*
X26677143Y-31362257D02*
X26534285Y-31290828D01*
X94028328Y-54804286D02*
X92528328Y-54804286D01*
X93956900Y-54804286D02*
X94028328Y-54661428D01*
X94028328Y-54661428D02*
X94028328Y-54375714D01*
X94028328Y-54375714D02*
X93956900Y-54232857D01*
X93956900Y-54232857D02*
X93885471Y-54161428D01*
X93885471Y-54161428D02*
X93742614Y-54090000D01*
X93742614Y-54090000D02*
X93314042Y-54090000D01*
X93314042Y-54090000D02*
X93171185Y-54161428D01*
X93171185Y-54161428D02*
X93099757Y-54232857D01*
X93099757Y-54232857D02*
X93028328Y-54375714D01*
X93028328Y-54375714D02*
X93028328Y-54661428D01*
X93028328Y-54661428D02*
X93099757Y-54804286D01*
X94028328Y-55518571D02*
X93028328Y-55518571D01*
X92528328Y-55518571D02*
X92599757Y-55447143D01*
X92599757Y-55447143D02*
X92671185Y-55518571D01*
X92671185Y-55518571D02*
X92599757Y-55590000D01*
X92599757Y-55590000D02*
X92528328Y-55518571D01*
X92528328Y-55518571D02*
X92671185Y-55518571D01*
X94028328Y-56447143D02*
X93956900Y-56304286D01*
X93956900Y-56304286D02*
X93885471Y-56232857D01*
X93885471Y-56232857D02*
X93742614Y-56161429D01*
X93742614Y-56161429D02*
X93314042Y-56161429D01*
X93314042Y-56161429D02*
X93171185Y-56232857D01*
X93171185Y-56232857D02*
X93099757Y-56304286D01*
X93099757Y-56304286D02*
X93028328Y-56447143D01*
X93028328Y-56447143D02*
X93028328Y-56661429D01*
X93028328Y-56661429D02*
X93099757Y-56804286D01*
X93099757Y-56804286D02*
X93171185Y-56875715D01*
X93171185Y-56875715D02*
X93314042Y-56947143D01*
X93314042Y-56947143D02*
X93742614Y-56947143D01*
X93742614Y-56947143D02*
X93885471Y-56875715D01*
X93885471Y-56875715D02*
X93956900Y-56804286D01*
X93956900Y-56804286D02*
X94028328Y-56661429D01*
X94028328Y-56661429D02*
X94028328Y-56447143D01*
X94028328Y-58232858D02*
X92528328Y-58232858D01*
X93956900Y-58232858D02*
X94028328Y-58090000D01*
X94028328Y-58090000D02*
X94028328Y-57804286D01*
X94028328Y-57804286D02*
X93956900Y-57661429D01*
X93956900Y-57661429D02*
X93885471Y-57590000D01*
X93885471Y-57590000D02*
X93742614Y-57518572D01*
X93742614Y-57518572D02*
X93314042Y-57518572D01*
X93314042Y-57518572D02*
X93171185Y-57590000D01*
X93171185Y-57590000D02*
X93099757Y-57661429D01*
X93099757Y-57661429D02*
X93028328Y-57804286D01*
X93028328Y-57804286D02*
X93028328Y-58090000D01*
X93028328Y-58090000D02*
X93099757Y-58232858D01*
X93956900Y-59518572D02*
X94028328Y-59375715D01*
X94028328Y-59375715D02*
X94028328Y-59090001D01*
X94028328Y-59090001D02*
X93956900Y-58947143D01*
X93956900Y-58947143D02*
X93814042Y-58875715D01*
X93814042Y-58875715D02*
X93242614Y-58875715D01*
X93242614Y-58875715D02*
X93099757Y-58947143D01*
X93099757Y-58947143D02*
X93028328Y-59090001D01*
X93028328Y-59090001D02*
X93028328Y-59375715D01*
X93028328Y-59375715D02*
X93099757Y-59518572D01*
X93099757Y-59518572D02*
X93242614Y-59590001D01*
X93242614Y-59590001D02*
X93385471Y-59590001D01*
X93385471Y-59590001D02*
X93528328Y-58875715D01*
X45478328Y-35734286D02*
X43978328Y-35734286D01*
X45406900Y-35734286D02*
X45478328Y-35591428D01*
X45478328Y-35591428D02*
X45478328Y-35305714D01*
X45478328Y-35305714D02*
X45406900Y-35162857D01*
X45406900Y-35162857D02*
X45335471Y-35091428D01*
X45335471Y-35091428D02*
X45192614Y-35020000D01*
X45192614Y-35020000D02*
X44764042Y-35020000D01*
X44764042Y-35020000D02*
X44621185Y-35091428D01*
X44621185Y-35091428D02*
X44549757Y-35162857D01*
X44549757Y-35162857D02*
X44478328Y-35305714D01*
X44478328Y-35305714D02*
X44478328Y-35591428D01*
X44478328Y-35591428D02*
X44549757Y-35734286D01*
X45478328Y-36448571D02*
X44478328Y-36448571D01*
X43978328Y-36448571D02*
X44049757Y-36377143D01*
X44049757Y-36377143D02*
X44121185Y-36448571D01*
X44121185Y-36448571D02*
X44049757Y-36520000D01*
X44049757Y-36520000D02*
X43978328Y-36448571D01*
X43978328Y-36448571D02*
X44121185Y-36448571D01*
X45478328Y-37377143D02*
X45406900Y-37234286D01*
X45406900Y-37234286D02*
X45335471Y-37162857D01*
X45335471Y-37162857D02*
X45192614Y-37091429D01*
X45192614Y-37091429D02*
X44764042Y-37091429D01*
X44764042Y-37091429D02*
X44621185Y-37162857D01*
X44621185Y-37162857D02*
X44549757Y-37234286D01*
X44549757Y-37234286D02*
X44478328Y-37377143D01*
X44478328Y-37377143D02*
X44478328Y-37591429D01*
X44478328Y-37591429D02*
X44549757Y-37734286D01*
X44549757Y-37734286D02*
X44621185Y-37805715D01*
X44621185Y-37805715D02*
X44764042Y-37877143D01*
X44764042Y-37877143D02*
X45192614Y-37877143D01*
X45192614Y-37877143D02*
X45335471Y-37805715D01*
X45335471Y-37805715D02*
X45406900Y-37734286D01*
X45406900Y-37734286D02*
X45478328Y-37591429D01*
X45478328Y-37591429D02*
X45478328Y-37377143D01*
X45478328Y-39162858D02*
X43978328Y-39162858D01*
X45406900Y-39162858D02*
X45478328Y-39020000D01*
X45478328Y-39020000D02*
X45478328Y-38734286D01*
X45478328Y-38734286D02*
X45406900Y-38591429D01*
X45406900Y-38591429D02*
X45335471Y-38520000D01*
X45335471Y-38520000D02*
X45192614Y-38448572D01*
X45192614Y-38448572D02*
X44764042Y-38448572D01*
X44764042Y-38448572D02*
X44621185Y-38520000D01*
X44621185Y-38520000D02*
X44549757Y-38591429D01*
X44549757Y-38591429D02*
X44478328Y-38734286D01*
X44478328Y-38734286D02*
X44478328Y-39020000D01*
X44478328Y-39020000D02*
X44549757Y-39162858D01*
X45406900Y-40448572D02*
X45478328Y-40305715D01*
X45478328Y-40305715D02*
X45478328Y-40020001D01*
X45478328Y-40020001D02*
X45406900Y-39877143D01*
X45406900Y-39877143D02*
X45264042Y-39805715D01*
X45264042Y-39805715D02*
X44692614Y-39805715D01*
X44692614Y-39805715D02*
X44549757Y-39877143D01*
X44549757Y-39877143D02*
X44478328Y-40020001D01*
X44478328Y-40020001D02*
X44478328Y-40305715D01*
X44478328Y-40305715D02*
X44549757Y-40448572D01*
X44549757Y-40448572D02*
X44692614Y-40520001D01*
X44692614Y-40520001D02*
X44835471Y-40520001D01*
X44835471Y-40520001D02*
X44978328Y-39805715D01*
X69148328Y-40684286D02*
X67648328Y-40684286D01*
X69076900Y-40684286D02*
X69148328Y-40541428D01*
X69148328Y-40541428D02*
X69148328Y-40255714D01*
X69148328Y-40255714D02*
X69076900Y-40112857D01*
X69076900Y-40112857D02*
X69005471Y-40041428D01*
X69005471Y-40041428D02*
X68862614Y-39970000D01*
X68862614Y-39970000D02*
X68434042Y-39970000D01*
X68434042Y-39970000D02*
X68291185Y-40041428D01*
X68291185Y-40041428D02*
X68219757Y-40112857D01*
X68219757Y-40112857D02*
X68148328Y-40255714D01*
X68148328Y-40255714D02*
X68148328Y-40541428D01*
X68148328Y-40541428D02*
X68219757Y-40684286D01*
X69148328Y-41398571D02*
X68148328Y-41398571D01*
X67648328Y-41398571D02*
X67719757Y-41327143D01*
X67719757Y-41327143D02*
X67791185Y-41398571D01*
X67791185Y-41398571D02*
X67719757Y-41470000D01*
X67719757Y-41470000D02*
X67648328Y-41398571D01*
X67648328Y-41398571D02*
X67791185Y-41398571D01*
X69148328Y-42327143D02*
X69076900Y-42184286D01*
X69076900Y-42184286D02*
X69005471Y-42112857D01*
X69005471Y-42112857D02*
X68862614Y-42041429D01*
X68862614Y-42041429D02*
X68434042Y-42041429D01*
X68434042Y-42041429D02*
X68291185Y-42112857D01*
X68291185Y-42112857D02*
X68219757Y-42184286D01*
X68219757Y-42184286D02*
X68148328Y-42327143D01*
X68148328Y-42327143D02*
X68148328Y-42541429D01*
X68148328Y-42541429D02*
X68219757Y-42684286D01*
X68219757Y-42684286D02*
X68291185Y-42755715D01*
X68291185Y-42755715D02*
X68434042Y-42827143D01*
X68434042Y-42827143D02*
X68862614Y-42827143D01*
X68862614Y-42827143D02*
X69005471Y-42755715D01*
X69005471Y-42755715D02*
X69076900Y-42684286D01*
X69076900Y-42684286D02*
X69148328Y-42541429D01*
X69148328Y-42541429D02*
X69148328Y-42327143D01*
X69148328Y-44112858D02*
X67648328Y-44112858D01*
X69076900Y-44112858D02*
X69148328Y-43970000D01*
X69148328Y-43970000D02*
X69148328Y-43684286D01*
X69148328Y-43684286D02*
X69076900Y-43541429D01*
X69076900Y-43541429D02*
X69005471Y-43470000D01*
X69005471Y-43470000D02*
X68862614Y-43398572D01*
X68862614Y-43398572D02*
X68434042Y-43398572D01*
X68434042Y-43398572D02*
X68291185Y-43470000D01*
X68291185Y-43470000D02*
X68219757Y-43541429D01*
X68219757Y-43541429D02*
X68148328Y-43684286D01*
X68148328Y-43684286D02*
X68148328Y-43970000D01*
X68148328Y-43970000D02*
X68219757Y-44112858D01*
X69076900Y-45398572D02*
X69148328Y-45255715D01*
X69148328Y-45255715D02*
X69148328Y-44970001D01*
X69148328Y-44970001D02*
X69076900Y-44827143D01*
X69076900Y-44827143D02*
X68934042Y-44755715D01*
X68934042Y-44755715D02*
X68362614Y-44755715D01*
X68362614Y-44755715D02*
X68219757Y-44827143D01*
X68219757Y-44827143D02*
X68148328Y-44970001D01*
X68148328Y-44970001D02*
X68148328Y-45255715D01*
X68148328Y-45255715D02*
X68219757Y-45398572D01*
X68219757Y-45398572D02*
X68362614Y-45470001D01*
X68362614Y-45470001D02*
X68505471Y-45470001D01*
X68505471Y-45470001D02*
X68648328Y-44755715D01*
X88078328Y-40234286D02*
X86578328Y-40234286D01*
X88006900Y-40234286D02*
X88078328Y-40091428D01*
X88078328Y-40091428D02*
X88078328Y-39805714D01*
X88078328Y-39805714D02*
X88006900Y-39662857D01*
X88006900Y-39662857D02*
X87935471Y-39591428D01*
X87935471Y-39591428D02*
X87792614Y-39520000D01*
X87792614Y-39520000D02*
X87364042Y-39520000D01*
X87364042Y-39520000D02*
X87221185Y-39591428D01*
X87221185Y-39591428D02*
X87149757Y-39662857D01*
X87149757Y-39662857D02*
X87078328Y-39805714D01*
X87078328Y-39805714D02*
X87078328Y-40091428D01*
X87078328Y-40091428D02*
X87149757Y-40234286D01*
X88078328Y-40948571D02*
X87078328Y-40948571D01*
X86578328Y-40948571D02*
X86649757Y-40877143D01*
X86649757Y-40877143D02*
X86721185Y-40948571D01*
X86721185Y-40948571D02*
X86649757Y-41020000D01*
X86649757Y-41020000D02*
X86578328Y-40948571D01*
X86578328Y-40948571D02*
X86721185Y-40948571D01*
X88078328Y-41877143D02*
X88006900Y-41734286D01*
X88006900Y-41734286D02*
X87935471Y-41662857D01*
X87935471Y-41662857D02*
X87792614Y-41591429D01*
X87792614Y-41591429D02*
X87364042Y-41591429D01*
X87364042Y-41591429D02*
X87221185Y-41662857D01*
X87221185Y-41662857D02*
X87149757Y-41734286D01*
X87149757Y-41734286D02*
X87078328Y-41877143D01*
X87078328Y-41877143D02*
X87078328Y-42091429D01*
X87078328Y-42091429D02*
X87149757Y-42234286D01*
X87149757Y-42234286D02*
X87221185Y-42305715D01*
X87221185Y-42305715D02*
X87364042Y-42377143D01*
X87364042Y-42377143D02*
X87792614Y-42377143D01*
X87792614Y-42377143D02*
X87935471Y-42305715D01*
X87935471Y-42305715D02*
X88006900Y-42234286D01*
X88006900Y-42234286D02*
X88078328Y-42091429D01*
X88078328Y-42091429D02*
X88078328Y-41877143D01*
X88078328Y-43662858D02*
X86578328Y-43662858D01*
X88006900Y-43662858D02*
X88078328Y-43520000D01*
X88078328Y-43520000D02*
X88078328Y-43234286D01*
X88078328Y-43234286D02*
X88006900Y-43091429D01*
X88006900Y-43091429D02*
X87935471Y-43020000D01*
X87935471Y-43020000D02*
X87792614Y-42948572D01*
X87792614Y-42948572D02*
X87364042Y-42948572D01*
X87364042Y-42948572D02*
X87221185Y-43020000D01*
X87221185Y-43020000D02*
X87149757Y-43091429D01*
X87149757Y-43091429D02*
X87078328Y-43234286D01*
X87078328Y-43234286D02*
X87078328Y-43520000D01*
X87078328Y-43520000D02*
X87149757Y-43662858D01*
X88006900Y-44948572D02*
X88078328Y-44805715D01*
X88078328Y-44805715D02*
X88078328Y-44520001D01*
X88078328Y-44520001D02*
X88006900Y-44377143D01*
X88006900Y-44377143D02*
X87864042Y-44305715D01*
X87864042Y-44305715D02*
X87292614Y-44305715D01*
X87292614Y-44305715D02*
X87149757Y-44377143D01*
X87149757Y-44377143D02*
X87078328Y-44520001D01*
X87078328Y-44520001D02*
X87078328Y-44805715D01*
X87078328Y-44805715D02*
X87149757Y-44948572D01*
X87149757Y-44948572D02*
X87292614Y-45020001D01*
X87292614Y-45020001D02*
X87435471Y-45020001D01*
X87435471Y-45020001D02*
X87578328Y-44305715D01*
X113438328Y-26964286D02*
X111938328Y-26964286D01*
X113366900Y-26964286D02*
X113438328Y-26821428D01*
X113438328Y-26821428D02*
X113438328Y-26535714D01*
X113438328Y-26535714D02*
X113366900Y-26392857D01*
X113366900Y-26392857D02*
X113295471Y-26321428D01*
X113295471Y-26321428D02*
X113152614Y-26250000D01*
X113152614Y-26250000D02*
X112724042Y-26250000D01*
X112724042Y-26250000D02*
X112581185Y-26321428D01*
X112581185Y-26321428D02*
X112509757Y-26392857D01*
X112509757Y-26392857D02*
X112438328Y-26535714D01*
X112438328Y-26535714D02*
X112438328Y-26821428D01*
X112438328Y-26821428D02*
X112509757Y-26964286D01*
X113438328Y-27678571D02*
X112438328Y-27678571D01*
X111938328Y-27678571D02*
X112009757Y-27607143D01*
X112009757Y-27607143D02*
X112081185Y-27678571D01*
X112081185Y-27678571D02*
X112009757Y-27750000D01*
X112009757Y-27750000D02*
X111938328Y-27678571D01*
X111938328Y-27678571D02*
X112081185Y-27678571D01*
X113438328Y-28607143D02*
X113366900Y-28464286D01*
X113366900Y-28464286D02*
X113295471Y-28392857D01*
X113295471Y-28392857D02*
X113152614Y-28321429D01*
X113152614Y-28321429D02*
X112724042Y-28321429D01*
X112724042Y-28321429D02*
X112581185Y-28392857D01*
X112581185Y-28392857D02*
X112509757Y-28464286D01*
X112509757Y-28464286D02*
X112438328Y-28607143D01*
X112438328Y-28607143D02*
X112438328Y-28821429D01*
X112438328Y-28821429D02*
X112509757Y-28964286D01*
X112509757Y-28964286D02*
X112581185Y-29035715D01*
X112581185Y-29035715D02*
X112724042Y-29107143D01*
X112724042Y-29107143D02*
X113152614Y-29107143D01*
X113152614Y-29107143D02*
X113295471Y-29035715D01*
X113295471Y-29035715D02*
X113366900Y-28964286D01*
X113366900Y-28964286D02*
X113438328Y-28821429D01*
X113438328Y-28821429D02*
X113438328Y-28607143D01*
X113438328Y-30392858D02*
X111938328Y-30392858D01*
X113366900Y-30392858D02*
X113438328Y-30250000D01*
X113438328Y-30250000D02*
X113438328Y-29964286D01*
X113438328Y-29964286D02*
X113366900Y-29821429D01*
X113366900Y-29821429D02*
X113295471Y-29750000D01*
X113295471Y-29750000D02*
X113152614Y-29678572D01*
X113152614Y-29678572D02*
X112724042Y-29678572D01*
X112724042Y-29678572D02*
X112581185Y-29750000D01*
X112581185Y-29750000D02*
X112509757Y-29821429D01*
X112509757Y-29821429D02*
X112438328Y-29964286D01*
X112438328Y-29964286D02*
X112438328Y-30250000D01*
X112438328Y-30250000D02*
X112509757Y-30392858D01*
X113366900Y-31678572D02*
X113438328Y-31535715D01*
X113438328Y-31535715D02*
X113438328Y-31250001D01*
X113438328Y-31250001D02*
X113366900Y-31107143D01*
X113366900Y-31107143D02*
X113224042Y-31035715D01*
X113224042Y-31035715D02*
X112652614Y-31035715D01*
X112652614Y-31035715D02*
X112509757Y-31107143D01*
X112509757Y-31107143D02*
X112438328Y-31250001D01*
X112438328Y-31250001D02*
X112438328Y-31535715D01*
X112438328Y-31535715D02*
X112509757Y-31678572D01*
X112509757Y-31678572D02*
X112652614Y-31750001D01*
X112652614Y-31750001D02*
X112795471Y-31750001D01*
X112795471Y-31750001D02*
X112938328Y-31035715D01*
X78758328Y-19494286D02*
X77258328Y-19494286D01*
X78686900Y-19494286D02*
X78758328Y-19351428D01*
X78758328Y-19351428D02*
X78758328Y-19065714D01*
X78758328Y-19065714D02*
X78686900Y-18922857D01*
X78686900Y-18922857D02*
X78615471Y-18851428D01*
X78615471Y-18851428D02*
X78472614Y-18780000D01*
X78472614Y-18780000D02*
X78044042Y-18780000D01*
X78044042Y-18780000D02*
X77901185Y-18851428D01*
X77901185Y-18851428D02*
X77829757Y-18922857D01*
X77829757Y-18922857D02*
X77758328Y-19065714D01*
X77758328Y-19065714D02*
X77758328Y-19351428D01*
X77758328Y-19351428D02*
X77829757Y-19494286D01*
X78758328Y-20208571D02*
X77758328Y-20208571D01*
X77258328Y-20208571D02*
X77329757Y-20137143D01*
X77329757Y-20137143D02*
X77401185Y-20208571D01*
X77401185Y-20208571D02*
X77329757Y-20280000D01*
X77329757Y-20280000D02*
X77258328Y-20208571D01*
X77258328Y-20208571D02*
X77401185Y-20208571D01*
X78758328Y-21137143D02*
X78686900Y-20994286D01*
X78686900Y-20994286D02*
X78615471Y-20922857D01*
X78615471Y-20922857D02*
X78472614Y-20851429D01*
X78472614Y-20851429D02*
X78044042Y-20851429D01*
X78044042Y-20851429D02*
X77901185Y-20922857D01*
X77901185Y-20922857D02*
X77829757Y-20994286D01*
X77829757Y-20994286D02*
X77758328Y-21137143D01*
X77758328Y-21137143D02*
X77758328Y-21351429D01*
X77758328Y-21351429D02*
X77829757Y-21494286D01*
X77829757Y-21494286D02*
X77901185Y-21565715D01*
X77901185Y-21565715D02*
X78044042Y-21637143D01*
X78044042Y-21637143D02*
X78472614Y-21637143D01*
X78472614Y-21637143D02*
X78615471Y-21565715D01*
X78615471Y-21565715D02*
X78686900Y-21494286D01*
X78686900Y-21494286D02*
X78758328Y-21351429D01*
X78758328Y-21351429D02*
X78758328Y-21137143D01*
X78758328Y-22922858D02*
X77258328Y-22922858D01*
X78686900Y-22922858D02*
X78758328Y-22780000D01*
X78758328Y-22780000D02*
X78758328Y-22494286D01*
X78758328Y-22494286D02*
X78686900Y-22351429D01*
X78686900Y-22351429D02*
X78615471Y-22280000D01*
X78615471Y-22280000D02*
X78472614Y-22208572D01*
X78472614Y-22208572D02*
X78044042Y-22208572D01*
X78044042Y-22208572D02*
X77901185Y-22280000D01*
X77901185Y-22280000D02*
X77829757Y-22351429D01*
X77829757Y-22351429D02*
X77758328Y-22494286D01*
X77758328Y-22494286D02*
X77758328Y-22780000D01*
X77758328Y-22780000D02*
X77829757Y-22922858D01*
X78686900Y-24208572D02*
X78758328Y-24065715D01*
X78758328Y-24065715D02*
X78758328Y-23780001D01*
X78758328Y-23780001D02*
X78686900Y-23637143D01*
X78686900Y-23637143D02*
X78544042Y-23565715D01*
X78544042Y-23565715D02*
X77972614Y-23565715D01*
X77972614Y-23565715D02*
X77829757Y-23637143D01*
X77829757Y-23637143D02*
X77758328Y-23780001D01*
X77758328Y-23780001D02*
X77758328Y-24065715D01*
X77758328Y-24065715D02*
X77829757Y-24208572D01*
X77829757Y-24208572D02*
X77972614Y-24280001D01*
X77972614Y-24280001D02*
X78115471Y-24280001D01*
X78115471Y-24280001D02*
X78258328Y-23565715D01*
X63258328Y-19534286D02*
X61758328Y-19534286D01*
X63186900Y-19534286D02*
X63258328Y-19391428D01*
X63258328Y-19391428D02*
X63258328Y-19105714D01*
X63258328Y-19105714D02*
X63186900Y-18962857D01*
X63186900Y-18962857D02*
X63115471Y-18891428D01*
X63115471Y-18891428D02*
X62972614Y-18820000D01*
X62972614Y-18820000D02*
X62544042Y-18820000D01*
X62544042Y-18820000D02*
X62401185Y-18891428D01*
X62401185Y-18891428D02*
X62329757Y-18962857D01*
X62329757Y-18962857D02*
X62258328Y-19105714D01*
X62258328Y-19105714D02*
X62258328Y-19391428D01*
X62258328Y-19391428D02*
X62329757Y-19534286D01*
X63258328Y-20248571D02*
X62258328Y-20248571D01*
X61758328Y-20248571D02*
X61829757Y-20177143D01*
X61829757Y-20177143D02*
X61901185Y-20248571D01*
X61901185Y-20248571D02*
X61829757Y-20320000D01*
X61829757Y-20320000D02*
X61758328Y-20248571D01*
X61758328Y-20248571D02*
X61901185Y-20248571D01*
X63258328Y-21177143D02*
X63186900Y-21034286D01*
X63186900Y-21034286D02*
X63115471Y-20962857D01*
X63115471Y-20962857D02*
X62972614Y-20891429D01*
X62972614Y-20891429D02*
X62544042Y-20891429D01*
X62544042Y-20891429D02*
X62401185Y-20962857D01*
X62401185Y-20962857D02*
X62329757Y-21034286D01*
X62329757Y-21034286D02*
X62258328Y-21177143D01*
X62258328Y-21177143D02*
X62258328Y-21391429D01*
X62258328Y-21391429D02*
X62329757Y-21534286D01*
X62329757Y-21534286D02*
X62401185Y-21605715D01*
X62401185Y-21605715D02*
X62544042Y-21677143D01*
X62544042Y-21677143D02*
X62972614Y-21677143D01*
X62972614Y-21677143D02*
X63115471Y-21605715D01*
X63115471Y-21605715D02*
X63186900Y-21534286D01*
X63186900Y-21534286D02*
X63258328Y-21391429D01*
X63258328Y-21391429D02*
X63258328Y-21177143D01*
X63258328Y-22962858D02*
X61758328Y-22962858D01*
X63186900Y-22962858D02*
X63258328Y-22820000D01*
X63258328Y-22820000D02*
X63258328Y-22534286D01*
X63258328Y-22534286D02*
X63186900Y-22391429D01*
X63186900Y-22391429D02*
X63115471Y-22320000D01*
X63115471Y-22320000D02*
X62972614Y-22248572D01*
X62972614Y-22248572D02*
X62544042Y-22248572D01*
X62544042Y-22248572D02*
X62401185Y-22320000D01*
X62401185Y-22320000D02*
X62329757Y-22391429D01*
X62329757Y-22391429D02*
X62258328Y-22534286D01*
X62258328Y-22534286D02*
X62258328Y-22820000D01*
X62258328Y-22820000D02*
X62329757Y-22962858D01*
X63186900Y-24248572D02*
X63258328Y-24105715D01*
X63258328Y-24105715D02*
X63258328Y-23820001D01*
X63258328Y-23820001D02*
X63186900Y-23677143D01*
X63186900Y-23677143D02*
X63044042Y-23605715D01*
X63044042Y-23605715D02*
X62472614Y-23605715D01*
X62472614Y-23605715D02*
X62329757Y-23677143D01*
X62329757Y-23677143D02*
X62258328Y-23820001D01*
X62258328Y-23820001D02*
X62258328Y-24105715D01*
X62258328Y-24105715D02*
X62329757Y-24248572D01*
X62329757Y-24248572D02*
X62472614Y-24320001D01*
X62472614Y-24320001D02*
X62615471Y-24320001D01*
X62615471Y-24320001D02*
X62758328Y-23605715D01*
X41808328Y-19274286D02*
X40308328Y-19274286D01*
X41736900Y-19274286D02*
X41808328Y-19131428D01*
X41808328Y-19131428D02*
X41808328Y-18845714D01*
X41808328Y-18845714D02*
X41736900Y-18702857D01*
X41736900Y-18702857D02*
X41665471Y-18631428D01*
X41665471Y-18631428D02*
X41522614Y-18560000D01*
X41522614Y-18560000D02*
X41094042Y-18560000D01*
X41094042Y-18560000D02*
X40951185Y-18631428D01*
X40951185Y-18631428D02*
X40879757Y-18702857D01*
X40879757Y-18702857D02*
X40808328Y-18845714D01*
X40808328Y-18845714D02*
X40808328Y-19131428D01*
X40808328Y-19131428D02*
X40879757Y-19274286D01*
X41808328Y-19988571D02*
X40808328Y-19988571D01*
X40308328Y-19988571D02*
X40379757Y-19917143D01*
X40379757Y-19917143D02*
X40451185Y-19988571D01*
X40451185Y-19988571D02*
X40379757Y-20060000D01*
X40379757Y-20060000D02*
X40308328Y-19988571D01*
X40308328Y-19988571D02*
X40451185Y-19988571D01*
X41808328Y-20917143D02*
X41736900Y-20774286D01*
X41736900Y-20774286D02*
X41665471Y-20702857D01*
X41665471Y-20702857D02*
X41522614Y-20631429D01*
X41522614Y-20631429D02*
X41094042Y-20631429D01*
X41094042Y-20631429D02*
X40951185Y-20702857D01*
X40951185Y-20702857D02*
X40879757Y-20774286D01*
X40879757Y-20774286D02*
X40808328Y-20917143D01*
X40808328Y-20917143D02*
X40808328Y-21131429D01*
X40808328Y-21131429D02*
X40879757Y-21274286D01*
X40879757Y-21274286D02*
X40951185Y-21345715D01*
X40951185Y-21345715D02*
X41094042Y-21417143D01*
X41094042Y-21417143D02*
X41522614Y-21417143D01*
X41522614Y-21417143D02*
X41665471Y-21345715D01*
X41665471Y-21345715D02*
X41736900Y-21274286D01*
X41736900Y-21274286D02*
X41808328Y-21131429D01*
X41808328Y-21131429D02*
X41808328Y-20917143D01*
X41808328Y-22702858D02*
X40308328Y-22702858D01*
X41736900Y-22702858D02*
X41808328Y-22560000D01*
X41808328Y-22560000D02*
X41808328Y-22274286D01*
X41808328Y-22274286D02*
X41736900Y-22131429D01*
X41736900Y-22131429D02*
X41665471Y-22060000D01*
X41665471Y-22060000D02*
X41522614Y-21988572D01*
X41522614Y-21988572D02*
X41094042Y-21988572D01*
X41094042Y-21988572D02*
X40951185Y-22060000D01*
X40951185Y-22060000D02*
X40879757Y-22131429D01*
X40879757Y-22131429D02*
X40808328Y-22274286D01*
X40808328Y-22274286D02*
X40808328Y-22560000D01*
X40808328Y-22560000D02*
X40879757Y-22702858D01*
X41736900Y-23988572D02*
X41808328Y-23845715D01*
X41808328Y-23845715D02*
X41808328Y-23560001D01*
X41808328Y-23560001D02*
X41736900Y-23417143D01*
X41736900Y-23417143D02*
X41594042Y-23345715D01*
X41594042Y-23345715D02*
X41022614Y-23345715D01*
X41022614Y-23345715D02*
X40879757Y-23417143D01*
X40879757Y-23417143D02*
X40808328Y-23560001D01*
X40808328Y-23560001D02*
X40808328Y-23845715D01*
X40808328Y-23845715D02*
X40879757Y-23988572D01*
X40879757Y-23988572D02*
X41022614Y-24060001D01*
X41022614Y-24060001D02*
X41165471Y-24060001D01*
X41165471Y-24060001D02*
X41308328Y-23345715D01*
X39508328Y235714D02*
X38008328Y235714D01*
X39436900Y235714D02*
X39508328Y378571D01*
X39508328Y378571D02*
X39508328Y664285D01*
X39508328Y664285D02*
X39436900Y807142D01*
X39436900Y807142D02*
X39365471Y878571D01*
X39365471Y878571D02*
X39222614Y949999D01*
X39222614Y949999D02*
X38794042Y949999D01*
X38794042Y949999D02*
X38651185Y878571D01*
X38651185Y878571D02*
X38579757Y807142D01*
X38579757Y807142D02*
X38508328Y664285D01*
X38508328Y664285D02*
X38508328Y378571D01*
X38508328Y378571D02*
X38579757Y235714D01*
X39508328Y-478571D02*
X38508328Y-478571D01*
X38008328Y-478571D02*
X38079757Y-407143D01*
X38079757Y-407143D02*
X38151185Y-478571D01*
X38151185Y-478571D02*
X38079757Y-550000D01*
X38079757Y-550000D02*
X38008328Y-478571D01*
X38008328Y-478571D02*
X38151185Y-478571D01*
X39508328Y-1407143D02*
X39436900Y-1264286D01*
X39436900Y-1264286D02*
X39365471Y-1192857D01*
X39365471Y-1192857D02*
X39222614Y-1121429D01*
X39222614Y-1121429D02*
X38794042Y-1121429D01*
X38794042Y-1121429D02*
X38651185Y-1192857D01*
X38651185Y-1192857D02*
X38579757Y-1264286D01*
X38579757Y-1264286D02*
X38508328Y-1407143D01*
X38508328Y-1407143D02*
X38508328Y-1621429D01*
X38508328Y-1621429D02*
X38579757Y-1764286D01*
X38579757Y-1764286D02*
X38651185Y-1835715D01*
X38651185Y-1835715D02*
X38794042Y-1907143D01*
X38794042Y-1907143D02*
X39222614Y-1907143D01*
X39222614Y-1907143D02*
X39365471Y-1835715D01*
X39365471Y-1835715D02*
X39436900Y-1764286D01*
X39436900Y-1764286D02*
X39508328Y-1621429D01*
X39508328Y-1621429D02*
X39508328Y-1407143D01*
X39508328Y-3192858D02*
X38008328Y-3192858D01*
X39436900Y-3192858D02*
X39508328Y-3050000D01*
X39508328Y-3050000D02*
X39508328Y-2764286D01*
X39508328Y-2764286D02*
X39436900Y-2621429D01*
X39436900Y-2621429D02*
X39365471Y-2550000D01*
X39365471Y-2550000D02*
X39222614Y-2478572D01*
X39222614Y-2478572D02*
X38794042Y-2478572D01*
X38794042Y-2478572D02*
X38651185Y-2550000D01*
X38651185Y-2550000D02*
X38579757Y-2621429D01*
X38579757Y-2621429D02*
X38508328Y-2764286D01*
X38508328Y-2764286D02*
X38508328Y-3050000D01*
X38508328Y-3050000D02*
X38579757Y-3192858D01*
X39436900Y-4478572D02*
X39508328Y-4335715D01*
X39508328Y-4335715D02*
X39508328Y-4050001D01*
X39508328Y-4050001D02*
X39436900Y-3907143D01*
X39436900Y-3907143D02*
X39294042Y-3835715D01*
X39294042Y-3835715D02*
X38722614Y-3835715D01*
X38722614Y-3835715D02*
X38579757Y-3907143D01*
X38579757Y-3907143D02*
X38508328Y-4050001D01*
X38508328Y-4050001D02*
X38508328Y-4335715D01*
X38508328Y-4335715D02*
X38579757Y-4478572D01*
X38579757Y-4478572D02*
X38722614Y-4550001D01*
X38722614Y-4550001D02*
X38865471Y-4550001D01*
X38865471Y-4550001D02*
X39008328Y-3835715D01*
X60638328Y-2744286D02*
X59138328Y-2744286D01*
X60566900Y-2744286D02*
X60638328Y-2601428D01*
X60638328Y-2601428D02*
X60638328Y-2315714D01*
X60638328Y-2315714D02*
X60566900Y-2172857D01*
X60566900Y-2172857D02*
X60495471Y-2101428D01*
X60495471Y-2101428D02*
X60352614Y-2030000D01*
X60352614Y-2030000D02*
X59924042Y-2030000D01*
X59924042Y-2030000D02*
X59781185Y-2101428D01*
X59781185Y-2101428D02*
X59709757Y-2172857D01*
X59709757Y-2172857D02*
X59638328Y-2315714D01*
X59638328Y-2315714D02*
X59638328Y-2601428D01*
X59638328Y-2601428D02*
X59709757Y-2744286D01*
X60638328Y-3458571D02*
X59638328Y-3458571D01*
X59138328Y-3458571D02*
X59209757Y-3387143D01*
X59209757Y-3387143D02*
X59281185Y-3458571D01*
X59281185Y-3458571D02*
X59209757Y-3530000D01*
X59209757Y-3530000D02*
X59138328Y-3458571D01*
X59138328Y-3458571D02*
X59281185Y-3458571D01*
X60638328Y-4387143D02*
X60566900Y-4244286D01*
X60566900Y-4244286D02*
X60495471Y-4172857D01*
X60495471Y-4172857D02*
X60352614Y-4101429D01*
X60352614Y-4101429D02*
X59924042Y-4101429D01*
X59924042Y-4101429D02*
X59781185Y-4172857D01*
X59781185Y-4172857D02*
X59709757Y-4244286D01*
X59709757Y-4244286D02*
X59638328Y-4387143D01*
X59638328Y-4387143D02*
X59638328Y-4601429D01*
X59638328Y-4601429D02*
X59709757Y-4744286D01*
X59709757Y-4744286D02*
X59781185Y-4815715D01*
X59781185Y-4815715D02*
X59924042Y-4887143D01*
X59924042Y-4887143D02*
X60352614Y-4887143D01*
X60352614Y-4887143D02*
X60495471Y-4815715D01*
X60495471Y-4815715D02*
X60566900Y-4744286D01*
X60566900Y-4744286D02*
X60638328Y-4601429D01*
X60638328Y-4601429D02*
X60638328Y-4387143D01*
X60638328Y-6172858D02*
X59138328Y-6172858D01*
X60566900Y-6172858D02*
X60638328Y-6030000D01*
X60638328Y-6030000D02*
X60638328Y-5744286D01*
X60638328Y-5744286D02*
X60566900Y-5601429D01*
X60566900Y-5601429D02*
X60495471Y-5530000D01*
X60495471Y-5530000D02*
X60352614Y-5458572D01*
X60352614Y-5458572D02*
X59924042Y-5458572D01*
X59924042Y-5458572D02*
X59781185Y-5530000D01*
X59781185Y-5530000D02*
X59709757Y-5601429D01*
X59709757Y-5601429D02*
X59638328Y-5744286D01*
X59638328Y-5744286D02*
X59638328Y-6030000D01*
X59638328Y-6030000D02*
X59709757Y-6172858D01*
X60566900Y-7458572D02*
X60638328Y-7315715D01*
X60638328Y-7315715D02*
X60638328Y-7030001D01*
X60638328Y-7030001D02*
X60566900Y-6887143D01*
X60566900Y-6887143D02*
X60424042Y-6815715D01*
X60424042Y-6815715D02*
X59852614Y-6815715D01*
X59852614Y-6815715D02*
X59709757Y-6887143D01*
X59709757Y-6887143D02*
X59638328Y-7030001D01*
X59638328Y-7030001D02*
X59638328Y-7315715D01*
X59638328Y-7315715D02*
X59709757Y-7458572D01*
X59709757Y-7458572D02*
X59852614Y-7530001D01*
X59852614Y-7530001D02*
X59995471Y-7530001D01*
X59995471Y-7530001D02*
X60138328Y-6815715D01*
X74098328Y-2294286D02*
X72598328Y-2294286D01*
X74026900Y-2294286D02*
X74098328Y-2151428D01*
X74098328Y-2151428D02*
X74098328Y-1865714D01*
X74098328Y-1865714D02*
X74026900Y-1722857D01*
X74026900Y-1722857D02*
X73955471Y-1651428D01*
X73955471Y-1651428D02*
X73812614Y-1580000D01*
X73812614Y-1580000D02*
X73384042Y-1580000D01*
X73384042Y-1580000D02*
X73241185Y-1651428D01*
X73241185Y-1651428D02*
X73169757Y-1722857D01*
X73169757Y-1722857D02*
X73098328Y-1865714D01*
X73098328Y-1865714D02*
X73098328Y-2151428D01*
X73098328Y-2151428D02*
X73169757Y-2294286D01*
X74098328Y-3008571D02*
X73098328Y-3008571D01*
X72598328Y-3008571D02*
X72669757Y-2937143D01*
X72669757Y-2937143D02*
X72741185Y-3008571D01*
X72741185Y-3008571D02*
X72669757Y-3080000D01*
X72669757Y-3080000D02*
X72598328Y-3008571D01*
X72598328Y-3008571D02*
X72741185Y-3008571D01*
X74098328Y-3937143D02*
X74026900Y-3794286D01*
X74026900Y-3794286D02*
X73955471Y-3722857D01*
X73955471Y-3722857D02*
X73812614Y-3651429D01*
X73812614Y-3651429D02*
X73384042Y-3651429D01*
X73384042Y-3651429D02*
X73241185Y-3722857D01*
X73241185Y-3722857D02*
X73169757Y-3794286D01*
X73169757Y-3794286D02*
X73098328Y-3937143D01*
X73098328Y-3937143D02*
X73098328Y-4151429D01*
X73098328Y-4151429D02*
X73169757Y-4294286D01*
X73169757Y-4294286D02*
X73241185Y-4365715D01*
X73241185Y-4365715D02*
X73384042Y-4437143D01*
X73384042Y-4437143D02*
X73812614Y-4437143D01*
X73812614Y-4437143D02*
X73955471Y-4365715D01*
X73955471Y-4365715D02*
X74026900Y-4294286D01*
X74026900Y-4294286D02*
X74098328Y-4151429D01*
X74098328Y-4151429D02*
X74098328Y-3937143D01*
X74098328Y-5722858D02*
X72598328Y-5722858D01*
X74026900Y-5722858D02*
X74098328Y-5580000D01*
X74098328Y-5580000D02*
X74098328Y-5294286D01*
X74098328Y-5294286D02*
X74026900Y-5151429D01*
X74026900Y-5151429D02*
X73955471Y-5080000D01*
X73955471Y-5080000D02*
X73812614Y-5008572D01*
X73812614Y-5008572D02*
X73384042Y-5008572D01*
X73384042Y-5008572D02*
X73241185Y-5080000D01*
X73241185Y-5080000D02*
X73169757Y-5151429D01*
X73169757Y-5151429D02*
X73098328Y-5294286D01*
X73098328Y-5294286D02*
X73098328Y-5580000D01*
X73098328Y-5580000D02*
X73169757Y-5722858D01*
X74026900Y-7008572D02*
X74098328Y-6865715D01*
X74098328Y-6865715D02*
X74098328Y-6580001D01*
X74098328Y-6580001D02*
X74026900Y-6437143D01*
X74026900Y-6437143D02*
X73884042Y-6365715D01*
X73884042Y-6365715D02*
X73312614Y-6365715D01*
X73312614Y-6365715D02*
X73169757Y-6437143D01*
X73169757Y-6437143D02*
X73098328Y-6580001D01*
X73098328Y-6580001D02*
X73098328Y-6865715D01*
X73098328Y-6865715D02*
X73169757Y-7008572D01*
X73169757Y-7008572D02*
X73312614Y-7080001D01*
X73312614Y-7080001D02*
X73455471Y-7080001D01*
X73455471Y-7080001D02*
X73598328Y-6365715D01*
X92318328Y-2654286D02*
X90818328Y-2654286D01*
X92246900Y-2654286D02*
X92318328Y-2511428D01*
X92318328Y-2511428D02*
X92318328Y-2225714D01*
X92318328Y-2225714D02*
X92246900Y-2082857D01*
X92246900Y-2082857D02*
X92175471Y-2011428D01*
X92175471Y-2011428D02*
X92032614Y-1940000D01*
X92032614Y-1940000D02*
X91604042Y-1940000D01*
X91604042Y-1940000D02*
X91461185Y-2011428D01*
X91461185Y-2011428D02*
X91389757Y-2082857D01*
X91389757Y-2082857D02*
X91318328Y-2225714D01*
X91318328Y-2225714D02*
X91318328Y-2511428D01*
X91318328Y-2511428D02*
X91389757Y-2654286D01*
X92318328Y-3368571D02*
X91318328Y-3368571D01*
X90818328Y-3368571D02*
X90889757Y-3297143D01*
X90889757Y-3297143D02*
X90961185Y-3368571D01*
X90961185Y-3368571D02*
X90889757Y-3440000D01*
X90889757Y-3440000D02*
X90818328Y-3368571D01*
X90818328Y-3368571D02*
X90961185Y-3368571D01*
X92318328Y-4297143D02*
X92246900Y-4154286D01*
X92246900Y-4154286D02*
X92175471Y-4082857D01*
X92175471Y-4082857D02*
X92032614Y-4011429D01*
X92032614Y-4011429D02*
X91604042Y-4011429D01*
X91604042Y-4011429D02*
X91461185Y-4082857D01*
X91461185Y-4082857D02*
X91389757Y-4154286D01*
X91389757Y-4154286D02*
X91318328Y-4297143D01*
X91318328Y-4297143D02*
X91318328Y-4511429D01*
X91318328Y-4511429D02*
X91389757Y-4654286D01*
X91389757Y-4654286D02*
X91461185Y-4725715D01*
X91461185Y-4725715D02*
X91604042Y-4797143D01*
X91604042Y-4797143D02*
X92032614Y-4797143D01*
X92032614Y-4797143D02*
X92175471Y-4725715D01*
X92175471Y-4725715D02*
X92246900Y-4654286D01*
X92246900Y-4654286D02*
X92318328Y-4511429D01*
X92318328Y-4511429D02*
X92318328Y-4297143D01*
X92318328Y-6082858D02*
X90818328Y-6082858D01*
X92246900Y-6082858D02*
X92318328Y-5940000D01*
X92318328Y-5940000D02*
X92318328Y-5654286D01*
X92318328Y-5654286D02*
X92246900Y-5511429D01*
X92246900Y-5511429D02*
X92175471Y-5440000D01*
X92175471Y-5440000D02*
X92032614Y-5368572D01*
X92032614Y-5368572D02*
X91604042Y-5368572D01*
X91604042Y-5368572D02*
X91461185Y-5440000D01*
X91461185Y-5440000D02*
X91389757Y-5511429D01*
X91389757Y-5511429D02*
X91318328Y-5654286D01*
X91318328Y-5654286D02*
X91318328Y-5940000D01*
X91318328Y-5940000D02*
X91389757Y-6082858D01*
X92246900Y-7368572D02*
X92318328Y-7225715D01*
X92318328Y-7225715D02*
X92318328Y-6940001D01*
X92318328Y-6940001D02*
X92246900Y-6797143D01*
X92246900Y-6797143D02*
X92104042Y-6725715D01*
X92104042Y-6725715D02*
X91532614Y-6725715D01*
X91532614Y-6725715D02*
X91389757Y-6797143D01*
X91389757Y-6797143D02*
X91318328Y-6940001D01*
X91318328Y-6940001D02*
X91318328Y-7225715D01*
X91318328Y-7225715D02*
X91389757Y-7368572D01*
X91389757Y-7368572D02*
X91532614Y-7440001D01*
X91532614Y-7440001D02*
X91675471Y-7440001D01*
X91675471Y-7440001D02*
X91818328Y-6725715D01*
X106345714Y-9598328D02*
X106345714Y-8098328D01*
X106345714Y-9526900D02*
X106488571Y-9598328D01*
X106488571Y-9598328D02*
X106774285Y-9598328D01*
X106774285Y-9598328D02*
X106917142Y-9526900D01*
X106917142Y-9526900D02*
X106988571Y-9455471D01*
X106988571Y-9455471D02*
X107059999Y-9312614D01*
X107059999Y-9312614D02*
X107059999Y-8884042D01*
X107059999Y-8884042D02*
X106988571Y-8741185D01*
X106988571Y-8741185D02*
X106917142Y-8669757D01*
X106917142Y-8669757D02*
X106774285Y-8598328D01*
X106774285Y-8598328D02*
X106488571Y-8598328D01*
X106488571Y-8598328D02*
X106345714Y-8669757D01*
X105631428Y-9598328D02*
X105631428Y-8598328D01*
X105631428Y-8098328D02*
X105702856Y-8169757D01*
X105702856Y-8169757D02*
X105631428Y-8241185D01*
X105631428Y-8241185D02*
X105559999Y-8169757D01*
X105559999Y-8169757D02*
X105631428Y-8098328D01*
X105631428Y-8098328D02*
X105631428Y-8241185D01*
X104702856Y-9598328D02*
X104845713Y-9526900D01*
X104845713Y-9526900D02*
X104917142Y-9455471D01*
X104917142Y-9455471D02*
X104988570Y-9312614D01*
X104988570Y-9312614D02*
X104988570Y-8884042D01*
X104988570Y-8884042D02*
X104917142Y-8741185D01*
X104917142Y-8741185D02*
X104845713Y-8669757D01*
X104845713Y-8669757D02*
X104702856Y-8598328D01*
X104702856Y-8598328D02*
X104488570Y-8598328D01*
X104488570Y-8598328D02*
X104345713Y-8669757D01*
X104345713Y-8669757D02*
X104274285Y-8741185D01*
X104274285Y-8741185D02*
X104202856Y-8884042D01*
X104202856Y-8884042D02*
X104202856Y-9312614D01*
X104202856Y-9312614D02*
X104274285Y-9455471D01*
X104274285Y-9455471D02*
X104345713Y-9526900D01*
X104345713Y-9526900D02*
X104488570Y-9598328D01*
X104488570Y-9598328D02*
X104702856Y-9598328D01*
X102917142Y-9598328D02*
X102917142Y-8098328D01*
X102917142Y-9526900D02*
X103059999Y-9598328D01*
X103059999Y-9598328D02*
X103345713Y-9598328D01*
X103345713Y-9598328D02*
X103488570Y-9526900D01*
X103488570Y-9526900D02*
X103559999Y-9455471D01*
X103559999Y-9455471D02*
X103631427Y-9312614D01*
X103631427Y-9312614D02*
X103631427Y-8884042D01*
X103631427Y-8884042D02*
X103559999Y-8741185D01*
X103559999Y-8741185D02*
X103488570Y-8669757D01*
X103488570Y-8669757D02*
X103345713Y-8598328D01*
X103345713Y-8598328D02*
X103059999Y-8598328D01*
X103059999Y-8598328D02*
X102917142Y-8669757D01*
X101631427Y-9526900D02*
X101774284Y-9598328D01*
X101774284Y-9598328D02*
X102059999Y-9598328D01*
X102059999Y-9598328D02*
X102202856Y-9526900D01*
X102202856Y-9526900D02*
X102274284Y-9384042D01*
X102274284Y-9384042D02*
X102274284Y-8812614D01*
X102274284Y-8812614D02*
X102202856Y-8669757D01*
X102202856Y-8669757D02*
X102059999Y-8598328D01*
X102059999Y-8598328D02*
X101774284Y-8598328D01*
X101774284Y-8598328D02*
X101631427Y-8669757D01*
X101631427Y-8669757D02*
X101559999Y-8812614D01*
X101559999Y-8812614D02*
X101559999Y-8955471D01*
X101559999Y-8955471D02*
X102274284Y-9098328D01*
X87925714Y-9578328D02*
X87925714Y-8078328D01*
X87925714Y-9506900D02*
X88068571Y-9578328D01*
X88068571Y-9578328D02*
X88354285Y-9578328D01*
X88354285Y-9578328D02*
X88497142Y-9506900D01*
X88497142Y-9506900D02*
X88568571Y-9435471D01*
X88568571Y-9435471D02*
X88639999Y-9292614D01*
X88639999Y-9292614D02*
X88639999Y-8864042D01*
X88639999Y-8864042D02*
X88568571Y-8721185D01*
X88568571Y-8721185D02*
X88497142Y-8649757D01*
X88497142Y-8649757D02*
X88354285Y-8578328D01*
X88354285Y-8578328D02*
X88068571Y-8578328D01*
X88068571Y-8578328D02*
X87925714Y-8649757D01*
X87211428Y-9578328D02*
X87211428Y-8578328D01*
X87211428Y-8078328D02*
X87282856Y-8149757D01*
X87282856Y-8149757D02*
X87211428Y-8221185D01*
X87211428Y-8221185D02*
X87139999Y-8149757D01*
X87139999Y-8149757D02*
X87211428Y-8078328D01*
X87211428Y-8078328D02*
X87211428Y-8221185D01*
X86282856Y-9578328D02*
X86425713Y-9506900D01*
X86425713Y-9506900D02*
X86497142Y-9435471D01*
X86497142Y-9435471D02*
X86568570Y-9292614D01*
X86568570Y-9292614D02*
X86568570Y-8864042D01*
X86568570Y-8864042D02*
X86497142Y-8721185D01*
X86497142Y-8721185D02*
X86425713Y-8649757D01*
X86425713Y-8649757D02*
X86282856Y-8578328D01*
X86282856Y-8578328D02*
X86068570Y-8578328D01*
X86068570Y-8578328D02*
X85925713Y-8649757D01*
X85925713Y-8649757D02*
X85854285Y-8721185D01*
X85854285Y-8721185D02*
X85782856Y-8864042D01*
X85782856Y-8864042D02*
X85782856Y-9292614D01*
X85782856Y-9292614D02*
X85854285Y-9435471D01*
X85854285Y-9435471D02*
X85925713Y-9506900D01*
X85925713Y-9506900D02*
X86068570Y-9578328D01*
X86068570Y-9578328D02*
X86282856Y-9578328D01*
X84497142Y-9578328D02*
X84497142Y-8078328D01*
X84497142Y-9506900D02*
X84639999Y-9578328D01*
X84639999Y-9578328D02*
X84925713Y-9578328D01*
X84925713Y-9578328D02*
X85068570Y-9506900D01*
X85068570Y-9506900D02*
X85139999Y-9435471D01*
X85139999Y-9435471D02*
X85211427Y-9292614D01*
X85211427Y-9292614D02*
X85211427Y-8864042D01*
X85211427Y-8864042D02*
X85139999Y-8721185D01*
X85139999Y-8721185D02*
X85068570Y-8649757D01*
X85068570Y-8649757D02*
X84925713Y-8578328D01*
X84925713Y-8578328D02*
X84639999Y-8578328D01*
X84639999Y-8578328D02*
X84497142Y-8649757D01*
X83211427Y-9506900D02*
X83354284Y-9578328D01*
X83354284Y-9578328D02*
X83639999Y-9578328D01*
X83639999Y-9578328D02*
X83782856Y-9506900D01*
X83782856Y-9506900D02*
X83854284Y-9364042D01*
X83854284Y-9364042D02*
X83854284Y-8792614D01*
X83854284Y-8792614D02*
X83782856Y-8649757D01*
X83782856Y-8649757D02*
X83639999Y-8578328D01*
X83639999Y-8578328D02*
X83354284Y-8578328D01*
X83354284Y-8578328D02*
X83211427Y-8649757D01*
X83211427Y-8649757D02*
X83139999Y-8792614D01*
X83139999Y-8792614D02*
X83139999Y-8935471D01*
X83139999Y-8935471D02*
X83854284Y-9078328D01*
X69438328Y-54594286D02*
X67938328Y-54594286D01*
X69366900Y-54594286D02*
X69438328Y-54451428D01*
X69438328Y-54451428D02*
X69438328Y-54165714D01*
X69438328Y-54165714D02*
X69366900Y-54022857D01*
X69366900Y-54022857D02*
X69295471Y-53951428D01*
X69295471Y-53951428D02*
X69152614Y-53880000D01*
X69152614Y-53880000D02*
X68724042Y-53880000D01*
X68724042Y-53880000D02*
X68581185Y-53951428D01*
X68581185Y-53951428D02*
X68509757Y-54022857D01*
X68509757Y-54022857D02*
X68438328Y-54165714D01*
X68438328Y-54165714D02*
X68438328Y-54451428D01*
X68438328Y-54451428D02*
X68509757Y-54594286D01*
X69438328Y-55308571D02*
X68438328Y-55308571D01*
X67938328Y-55308571D02*
X68009757Y-55237143D01*
X68009757Y-55237143D02*
X68081185Y-55308571D01*
X68081185Y-55308571D02*
X68009757Y-55380000D01*
X68009757Y-55380000D02*
X67938328Y-55308571D01*
X67938328Y-55308571D02*
X68081185Y-55308571D01*
X69438328Y-56237143D02*
X69366900Y-56094286D01*
X69366900Y-56094286D02*
X69295471Y-56022857D01*
X69295471Y-56022857D02*
X69152614Y-55951429D01*
X69152614Y-55951429D02*
X68724042Y-55951429D01*
X68724042Y-55951429D02*
X68581185Y-56022857D01*
X68581185Y-56022857D02*
X68509757Y-56094286D01*
X68509757Y-56094286D02*
X68438328Y-56237143D01*
X68438328Y-56237143D02*
X68438328Y-56451429D01*
X68438328Y-56451429D02*
X68509757Y-56594286D01*
X68509757Y-56594286D02*
X68581185Y-56665715D01*
X68581185Y-56665715D02*
X68724042Y-56737143D01*
X68724042Y-56737143D02*
X69152614Y-56737143D01*
X69152614Y-56737143D02*
X69295471Y-56665715D01*
X69295471Y-56665715D02*
X69366900Y-56594286D01*
X69366900Y-56594286D02*
X69438328Y-56451429D01*
X69438328Y-56451429D02*
X69438328Y-56237143D01*
X69438328Y-58022858D02*
X67938328Y-58022858D01*
X69366900Y-58022858D02*
X69438328Y-57880000D01*
X69438328Y-57880000D02*
X69438328Y-57594286D01*
X69438328Y-57594286D02*
X69366900Y-57451429D01*
X69366900Y-57451429D02*
X69295471Y-57380000D01*
X69295471Y-57380000D02*
X69152614Y-57308572D01*
X69152614Y-57308572D02*
X68724042Y-57308572D01*
X68724042Y-57308572D02*
X68581185Y-57380000D01*
X68581185Y-57380000D02*
X68509757Y-57451429D01*
X68509757Y-57451429D02*
X68438328Y-57594286D01*
X68438328Y-57594286D02*
X68438328Y-57880000D01*
X68438328Y-57880000D02*
X68509757Y-58022858D01*
X69366900Y-59308572D02*
X69438328Y-59165715D01*
X69438328Y-59165715D02*
X69438328Y-58880001D01*
X69438328Y-58880001D02*
X69366900Y-58737143D01*
X69366900Y-58737143D02*
X69224042Y-58665715D01*
X69224042Y-58665715D02*
X68652614Y-58665715D01*
X68652614Y-58665715D02*
X68509757Y-58737143D01*
X68509757Y-58737143D02*
X68438328Y-58880001D01*
X68438328Y-58880001D02*
X68438328Y-59165715D01*
X68438328Y-59165715D02*
X68509757Y-59308572D01*
X68509757Y-59308572D02*
X68652614Y-59380001D01*
X68652614Y-59380001D02*
X68795471Y-59380001D01*
X68795471Y-59380001D02*
X68938328Y-58665715D01*
X50358328Y-54634286D02*
X48858328Y-54634286D01*
X50286900Y-54634286D02*
X50358328Y-54491428D01*
X50358328Y-54491428D02*
X50358328Y-54205714D01*
X50358328Y-54205714D02*
X50286900Y-54062857D01*
X50286900Y-54062857D02*
X50215471Y-53991428D01*
X50215471Y-53991428D02*
X50072614Y-53920000D01*
X50072614Y-53920000D02*
X49644042Y-53920000D01*
X49644042Y-53920000D02*
X49501185Y-53991428D01*
X49501185Y-53991428D02*
X49429757Y-54062857D01*
X49429757Y-54062857D02*
X49358328Y-54205714D01*
X49358328Y-54205714D02*
X49358328Y-54491428D01*
X49358328Y-54491428D02*
X49429757Y-54634286D01*
X50358328Y-55348571D02*
X49358328Y-55348571D01*
X48858328Y-55348571D02*
X48929757Y-55277143D01*
X48929757Y-55277143D02*
X49001185Y-55348571D01*
X49001185Y-55348571D02*
X48929757Y-55420000D01*
X48929757Y-55420000D02*
X48858328Y-55348571D01*
X48858328Y-55348571D02*
X49001185Y-55348571D01*
X50358328Y-56277143D02*
X50286900Y-56134286D01*
X50286900Y-56134286D02*
X50215471Y-56062857D01*
X50215471Y-56062857D02*
X50072614Y-55991429D01*
X50072614Y-55991429D02*
X49644042Y-55991429D01*
X49644042Y-55991429D02*
X49501185Y-56062857D01*
X49501185Y-56062857D02*
X49429757Y-56134286D01*
X49429757Y-56134286D02*
X49358328Y-56277143D01*
X49358328Y-56277143D02*
X49358328Y-56491429D01*
X49358328Y-56491429D02*
X49429757Y-56634286D01*
X49429757Y-56634286D02*
X49501185Y-56705715D01*
X49501185Y-56705715D02*
X49644042Y-56777143D01*
X49644042Y-56777143D02*
X50072614Y-56777143D01*
X50072614Y-56777143D02*
X50215471Y-56705715D01*
X50215471Y-56705715D02*
X50286900Y-56634286D01*
X50286900Y-56634286D02*
X50358328Y-56491429D01*
X50358328Y-56491429D02*
X50358328Y-56277143D01*
X50358328Y-58062858D02*
X48858328Y-58062858D01*
X50286900Y-58062858D02*
X50358328Y-57920000D01*
X50358328Y-57920000D02*
X50358328Y-57634286D01*
X50358328Y-57634286D02*
X50286900Y-57491429D01*
X50286900Y-57491429D02*
X50215471Y-57420000D01*
X50215471Y-57420000D02*
X50072614Y-57348572D01*
X50072614Y-57348572D02*
X49644042Y-57348572D01*
X49644042Y-57348572D02*
X49501185Y-57420000D01*
X49501185Y-57420000D02*
X49429757Y-57491429D01*
X49429757Y-57491429D02*
X49358328Y-57634286D01*
X49358328Y-57634286D02*
X49358328Y-57920000D01*
X49358328Y-57920000D02*
X49429757Y-58062858D01*
X50286900Y-59348572D02*
X50358328Y-59205715D01*
X50358328Y-59205715D02*
X50358328Y-58920001D01*
X50358328Y-58920001D02*
X50286900Y-58777143D01*
X50286900Y-58777143D02*
X50144042Y-58705715D01*
X50144042Y-58705715D02*
X49572614Y-58705715D01*
X49572614Y-58705715D02*
X49429757Y-58777143D01*
X49429757Y-58777143D02*
X49358328Y-58920001D01*
X49358328Y-58920001D02*
X49358328Y-59205715D01*
X49358328Y-59205715D02*
X49429757Y-59348572D01*
X49429757Y-59348572D02*
X49572614Y-59420001D01*
X49572614Y-59420001D02*
X49715471Y-59420001D01*
X49715471Y-59420001D02*
X49858328Y-58705715D01*
D11*
X35769713Y-2988101D02*
X35293522Y-2721434D01*
X35769713Y-2530958D02*
X34769713Y-2530958D01*
X34769713Y-2530958D02*
X34769713Y-2835720D01*
X34769713Y-2835720D02*
X34817332Y-2911910D01*
X34817332Y-2911910D02*
X34864951Y-2950005D01*
X34864951Y-2950005D02*
X34960189Y-2988101D01*
X34960189Y-2988101D02*
X35103046Y-2988101D01*
X35103046Y-2988101D02*
X35198284Y-2950005D01*
X35198284Y-2950005D02*
X35245903Y-2911910D01*
X35245903Y-2911910D02*
X35293522Y-2835720D01*
X35293522Y-2835720D02*
X35293522Y-2530958D01*
X35245903Y-3330958D02*
X35245903Y-3597624D01*
X35769713Y-3711910D02*
X35769713Y-3330958D01*
X35769713Y-3330958D02*
X34769713Y-3330958D01*
X34769713Y-3330958D02*
X34769713Y-3711910D01*
X35722094Y-4016672D02*
X35769713Y-4130958D01*
X35769713Y-4130958D02*
X35769713Y-4321434D01*
X35769713Y-4321434D02*
X35722094Y-4397625D01*
X35722094Y-4397625D02*
X35674474Y-4435720D01*
X35674474Y-4435720D02*
X35579236Y-4473815D01*
X35579236Y-4473815D02*
X35483998Y-4473815D01*
X35483998Y-4473815D02*
X35388760Y-4435720D01*
X35388760Y-4435720D02*
X35341141Y-4397625D01*
X35341141Y-4397625D02*
X35293522Y-4321434D01*
X35293522Y-4321434D02*
X35245903Y-4169053D01*
X35245903Y-4169053D02*
X35198284Y-4092863D01*
X35198284Y-4092863D02*
X35150665Y-4054768D01*
X35150665Y-4054768D02*
X35055427Y-4016672D01*
X35055427Y-4016672D02*
X34960189Y-4016672D01*
X34960189Y-4016672D02*
X34864951Y-4054768D01*
X34864951Y-4054768D02*
X34817332Y-4092863D01*
X34817332Y-4092863D02*
X34769713Y-4169053D01*
X34769713Y-4169053D02*
X34769713Y-4359530D01*
X34769713Y-4359530D02*
X34817332Y-4473815D01*
X35245903Y-4816673D02*
X35245903Y-5083339D01*
X35769713Y-5197625D02*
X35769713Y-4816673D01*
X35769713Y-4816673D02*
X34769713Y-4816673D01*
X34769713Y-4816673D02*
X34769713Y-5197625D01*
X34769713Y-5426197D02*
X34769713Y-5883340D01*
X35769713Y-5654768D02*
X34769713Y-5654768D01*
X35245903Y5935714D02*
X35293522Y5821428D01*
X35293522Y5821428D02*
X35341141Y5783333D01*
X35341141Y5783333D02*
X35436379Y5745237D01*
X35436379Y5745237D02*
X35579236Y5745237D01*
X35579236Y5745237D02*
X35674474Y5783333D01*
X35674474Y5783333D02*
X35722094Y5821428D01*
X35722094Y5821428D02*
X35769713Y5897618D01*
X35769713Y5897618D02*
X35769713Y6202380D01*
X35769713Y6202380D02*
X34769713Y6202380D01*
X34769713Y6202380D02*
X34769713Y5935714D01*
X34769713Y5935714D02*
X34817332Y5859523D01*
X34817332Y5859523D02*
X34864951Y5821428D01*
X34864951Y5821428D02*
X34960189Y5783333D01*
X34960189Y5783333D02*
X35055427Y5783333D01*
X35055427Y5783333D02*
X35150665Y5821428D01*
X35150665Y5821428D02*
X35198284Y5859523D01*
X35198284Y5859523D02*
X35245903Y5935714D01*
X35245903Y5935714D02*
X35245903Y6202380D01*
X34769713Y5249999D02*
X34769713Y5097618D01*
X34769713Y5097618D02*
X34817332Y5021428D01*
X34817332Y5021428D02*
X34912570Y4945237D01*
X34912570Y4945237D02*
X35103046Y4907142D01*
X35103046Y4907142D02*
X35436379Y4907142D01*
X35436379Y4907142D02*
X35626855Y4945237D01*
X35626855Y4945237D02*
X35722094Y5021428D01*
X35722094Y5021428D02*
X35769713Y5097618D01*
X35769713Y5097618D02*
X35769713Y5249999D01*
X35769713Y5249999D02*
X35722094Y5326190D01*
X35722094Y5326190D02*
X35626855Y5402380D01*
X35626855Y5402380D02*
X35436379Y5440476D01*
X35436379Y5440476D02*
X35103046Y5440476D01*
X35103046Y5440476D02*
X34912570Y5402380D01*
X34912570Y5402380D02*
X34817332Y5326190D01*
X34817332Y5326190D02*
X34769713Y5249999D01*
X34769713Y4411904D02*
X34769713Y4259523D01*
X34769713Y4259523D02*
X34817332Y4183333D01*
X34817332Y4183333D02*
X34912570Y4107142D01*
X34912570Y4107142D02*
X35103046Y4069047D01*
X35103046Y4069047D02*
X35436379Y4069047D01*
X35436379Y4069047D02*
X35626855Y4107142D01*
X35626855Y4107142D02*
X35722094Y4183333D01*
X35722094Y4183333D02*
X35769713Y4259523D01*
X35769713Y4259523D02*
X35769713Y4411904D01*
X35769713Y4411904D02*
X35722094Y4488095D01*
X35722094Y4488095D02*
X35626855Y4564285D01*
X35626855Y4564285D02*
X35436379Y4602381D01*
X35436379Y4602381D02*
X35103046Y4602381D01*
X35103046Y4602381D02*
X34912570Y4564285D01*
X34912570Y4564285D02*
X34817332Y4488095D01*
X34817332Y4488095D02*
X34769713Y4411904D01*
X34769713Y3840476D02*
X34769713Y3383333D01*
X35769713Y3611905D02*
X34769713Y3611905D01*
X29119285Y4812800D02*
X29024047Y4765180D01*
X29024047Y4765180D02*
X28833571Y4765180D01*
X28833571Y4765180D02*
X28738333Y4812800D01*
X28738333Y4812800D02*
X28690714Y4908038D01*
X28690714Y4908038D02*
X28690714Y4955657D01*
X28690714Y4955657D02*
X28738333Y5050895D01*
X28738333Y5050895D02*
X28833571Y5098514D01*
X28833571Y5098514D02*
X28976428Y5098514D01*
X28976428Y5098514D02*
X29071666Y5146133D01*
X29071666Y5146133D02*
X29119285Y5241371D01*
X29119285Y5241371D02*
X29119285Y5288990D01*
X29119285Y5288990D02*
X29071666Y5384228D01*
X29071666Y5384228D02*
X28976428Y5431847D01*
X28976428Y5431847D02*
X28833571Y5431847D01*
X28833571Y5431847D02*
X28738333Y5384228D01*
X28119285Y4765180D02*
X28214523Y4812800D01*
X28214523Y4812800D02*
X28262142Y4860419D01*
X28262142Y4860419D02*
X28309761Y4955657D01*
X28309761Y4955657D02*
X28309761Y5241371D01*
X28309761Y5241371D02*
X28262142Y5336609D01*
X28262142Y5336609D02*
X28214523Y5384228D01*
X28214523Y5384228D02*
X28119285Y5431847D01*
X28119285Y5431847D02*
X27976428Y5431847D01*
X27976428Y5431847D02*
X27881190Y5384228D01*
X27881190Y5384228D02*
X27833571Y5336609D01*
X27833571Y5336609D02*
X27785952Y5241371D01*
X27785952Y5241371D02*
X27785952Y4955657D01*
X27785952Y4955657D02*
X27833571Y4860419D01*
X27833571Y4860419D02*
X27881190Y4812800D01*
X27881190Y4812800D02*
X27976428Y4765180D01*
X27976428Y4765180D02*
X28119285Y4765180D01*
X26928809Y4812800D02*
X27024047Y4765180D01*
X27024047Y4765180D02*
X27214523Y4765180D01*
X27214523Y4765180D02*
X27309761Y4812800D01*
X27309761Y4812800D02*
X27357380Y4860419D01*
X27357380Y4860419D02*
X27404999Y4955657D01*
X27404999Y4955657D02*
X27404999Y5241371D01*
X27404999Y5241371D02*
X27357380Y5336609D01*
X27357380Y5336609D02*
X27309761Y5384228D01*
X27309761Y5384228D02*
X27214523Y5431847D01*
X27214523Y5431847D02*
X27024047Y5431847D01*
X27024047Y5431847D02*
X26928809Y5384228D01*
X26500237Y4765180D02*
X26500237Y5765180D01*
X26404999Y5146133D02*
X26119285Y4765180D01*
X26119285Y5431847D02*
X26500237Y5050895D01*
X25309761Y4812800D02*
X25404999Y4765180D01*
X25404999Y4765180D02*
X25595475Y4765180D01*
X25595475Y4765180D02*
X25690713Y4812800D01*
X25690713Y4812800D02*
X25738332Y4908038D01*
X25738332Y4908038D02*
X25738332Y5288990D01*
X25738332Y5288990D02*
X25690713Y5384228D01*
X25690713Y5384228D02*
X25595475Y5431847D01*
X25595475Y5431847D02*
X25404999Y5431847D01*
X25404999Y5431847D02*
X25309761Y5384228D01*
X25309761Y5384228D02*
X25262142Y5288990D01*
X25262142Y5288990D02*
X25262142Y5193752D01*
X25262142Y5193752D02*
X25738332Y5098514D01*
X24976427Y5431847D02*
X24595475Y5431847D01*
X24833570Y5765180D02*
X24833570Y4908038D01*
X24833570Y4908038D02*
X24785951Y4812800D01*
X24785951Y4812800D02*
X24690713Y4765180D01*
X24690713Y4765180D02*
X24595475Y4765180D01*
X48169285Y4812800D02*
X48074047Y4765180D01*
X48074047Y4765180D02*
X47883571Y4765180D01*
X47883571Y4765180D02*
X47788333Y4812800D01*
X47788333Y4812800D02*
X47740714Y4908038D01*
X47740714Y4908038D02*
X47740714Y4955657D01*
X47740714Y4955657D02*
X47788333Y5050895D01*
X47788333Y5050895D02*
X47883571Y5098514D01*
X47883571Y5098514D02*
X48026428Y5098514D01*
X48026428Y5098514D02*
X48121666Y5146133D01*
X48121666Y5146133D02*
X48169285Y5241371D01*
X48169285Y5241371D02*
X48169285Y5288990D01*
X48169285Y5288990D02*
X48121666Y5384228D01*
X48121666Y5384228D02*
X48026428Y5431847D01*
X48026428Y5431847D02*
X47883571Y5431847D01*
X47883571Y5431847D02*
X47788333Y5384228D01*
X47169285Y4765180D02*
X47264523Y4812800D01*
X47264523Y4812800D02*
X47312142Y4860419D01*
X47312142Y4860419D02*
X47359761Y4955657D01*
X47359761Y4955657D02*
X47359761Y5241371D01*
X47359761Y5241371D02*
X47312142Y5336609D01*
X47312142Y5336609D02*
X47264523Y5384228D01*
X47264523Y5384228D02*
X47169285Y5431847D01*
X47169285Y5431847D02*
X47026428Y5431847D01*
X47026428Y5431847D02*
X46931190Y5384228D01*
X46931190Y5384228D02*
X46883571Y5336609D01*
X46883571Y5336609D02*
X46835952Y5241371D01*
X46835952Y5241371D02*
X46835952Y4955657D01*
X46835952Y4955657D02*
X46883571Y4860419D01*
X46883571Y4860419D02*
X46931190Y4812800D01*
X46931190Y4812800D02*
X47026428Y4765180D01*
X47026428Y4765180D02*
X47169285Y4765180D01*
X45978809Y4812800D02*
X46074047Y4765180D01*
X46074047Y4765180D02*
X46264523Y4765180D01*
X46264523Y4765180D02*
X46359761Y4812800D01*
X46359761Y4812800D02*
X46407380Y4860419D01*
X46407380Y4860419D02*
X46454999Y4955657D01*
X46454999Y4955657D02*
X46454999Y5241371D01*
X46454999Y5241371D02*
X46407380Y5336609D01*
X46407380Y5336609D02*
X46359761Y5384228D01*
X46359761Y5384228D02*
X46264523Y5431847D01*
X46264523Y5431847D02*
X46074047Y5431847D01*
X46074047Y5431847D02*
X45978809Y5384228D01*
X45550237Y4765180D02*
X45550237Y5765180D01*
X45454999Y5146133D02*
X45169285Y4765180D01*
X45169285Y5431847D02*
X45550237Y5050895D01*
X44359761Y4812800D02*
X44454999Y4765180D01*
X44454999Y4765180D02*
X44645475Y4765180D01*
X44645475Y4765180D02*
X44740713Y4812800D01*
X44740713Y4812800D02*
X44788332Y4908038D01*
X44788332Y4908038D02*
X44788332Y5288990D01*
X44788332Y5288990D02*
X44740713Y5384228D01*
X44740713Y5384228D02*
X44645475Y5431847D01*
X44645475Y5431847D02*
X44454999Y5431847D01*
X44454999Y5431847D02*
X44359761Y5384228D01*
X44359761Y5384228D02*
X44312142Y5288990D01*
X44312142Y5288990D02*
X44312142Y5193752D01*
X44312142Y5193752D02*
X44788332Y5098514D01*
X44026427Y5431847D02*
X43645475Y5431847D01*
X43883570Y5765180D02*
X43883570Y4908038D01*
X43883570Y4908038D02*
X43835951Y4812800D01*
X43835951Y4812800D02*
X43740713Y4765180D01*
X43740713Y4765180D02*
X43645475Y4765180D01*
X67219285Y4812800D02*
X67124047Y4765180D01*
X67124047Y4765180D02*
X66933571Y4765180D01*
X66933571Y4765180D02*
X66838333Y4812800D01*
X66838333Y4812800D02*
X66790714Y4908038D01*
X66790714Y4908038D02*
X66790714Y4955657D01*
X66790714Y4955657D02*
X66838333Y5050895D01*
X66838333Y5050895D02*
X66933571Y5098514D01*
X66933571Y5098514D02*
X67076428Y5098514D01*
X67076428Y5098514D02*
X67171666Y5146133D01*
X67171666Y5146133D02*
X67219285Y5241371D01*
X67219285Y5241371D02*
X67219285Y5288990D01*
X67219285Y5288990D02*
X67171666Y5384228D01*
X67171666Y5384228D02*
X67076428Y5431847D01*
X67076428Y5431847D02*
X66933571Y5431847D01*
X66933571Y5431847D02*
X66838333Y5384228D01*
X66219285Y4765180D02*
X66314523Y4812800D01*
X66314523Y4812800D02*
X66362142Y4860419D01*
X66362142Y4860419D02*
X66409761Y4955657D01*
X66409761Y4955657D02*
X66409761Y5241371D01*
X66409761Y5241371D02*
X66362142Y5336609D01*
X66362142Y5336609D02*
X66314523Y5384228D01*
X66314523Y5384228D02*
X66219285Y5431847D01*
X66219285Y5431847D02*
X66076428Y5431847D01*
X66076428Y5431847D02*
X65981190Y5384228D01*
X65981190Y5384228D02*
X65933571Y5336609D01*
X65933571Y5336609D02*
X65885952Y5241371D01*
X65885952Y5241371D02*
X65885952Y4955657D01*
X65885952Y4955657D02*
X65933571Y4860419D01*
X65933571Y4860419D02*
X65981190Y4812800D01*
X65981190Y4812800D02*
X66076428Y4765180D01*
X66076428Y4765180D02*
X66219285Y4765180D01*
X65028809Y4812800D02*
X65124047Y4765180D01*
X65124047Y4765180D02*
X65314523Y4765180D01*
X65314523Y4765180D02*
X65409761Y4812800D01*
X65409761Y4812800D02*
X65457380Y4860419D01*
X65457380Y4860419D02*
X65504999Y4955657D01*
X65504999Y4955657D02*
X65504999Y5241371D01*
X65504999Y5241371D02*
X65457380Y5336609D01*
X65457380Y5336609D02*
X65409761Y5384228D01*
X65409761Y5384228D02*
X65314523Y5431847D01*
X65314523Y5431847D02*
X65124047Y5431847D01*
X65124047Y5431847D02*
X65028809Y5384228D01*
X64600237Y4765180D02*
X64600237Y5765180D01*
X64504999Y5146133D02*
X64219285Y4765180D01*
X64219285Y5431847D02*
X64600237Y5050895D01*
X63409761Y4812800D02*
X63504999Y4765180D01*
X63504999Y4765180D02*
X63695475Y4765180D01*
X63695475Y4765180D02*
X63790713Y4812800D01*
X63790713Y4812800D02*
X63838332Y4908038D01*
X63838332Y4908038D02*
X63838332Y5288990D01*
X63838332Y5288990D02*
X63790713Y5384228D01*
X63790713Y5384228D02*
X63695475Y5431847D01*
X63695475Y5431847D02*
X63504999Y5431847D01*
X63504999Y5431847D02*
X63409761Y5384228D01*
X63409761Y5384228D02*
X63362142Y5288990D01*
X63362142Y5288990D02*
X63362142Y5193752D01*
X63362142Y5193752D02*
X63838332Y5098514D01*
X63076427Y5431847D02*
X62695475Y5431847D01*
X62933570Y5765180D02*
X62933570Y4908038D01*
X62933570Y4908038D02*
X62885951Y4812800D01*
X62885951Y4812800D02*
X62790713Y4765180D01*
X62790713Y4765180D02*
X62695475Y4765180D01*
X86269285Y4812800D02*
X86174047Y4765180D01*
X86174047Y4765180D02*
X85983571Y4765180D01*
X85983571Y4765180D02*
X85888333Y4812800D01*
X85888333Y4812800D02*
X85840714Y4908038D01*
X85840714Y4908038D02*
X85840714Y4955657D01*
X85840714Y4955657D02*
X85888333Y5050895D01*
X85888333Y5050895D02*
X85983571Y5098514D01*
X85983571Y5098514D02*
X86126428Y5098514D01*
X86126428Y5098514D02*
X86221666Y5146133D01*
X86221666Y5146133D02*
X86269285Y5241371D01*
X86269285Y5241371D02*
X86269285Y5288990D01*
X86269285Y5288990D02*
X86221666Y5384228D01*
X86221666Y5384228D02*
X86126428Y5431847D01*
X86126428Y5431847D02*
X85983571Y5431847D01*
X85983571Y5431847D02*
X85888333Y5384228D01*
X85269285Y4765180D02*
X85364523Y4812800D01*
X85364523Y4812800D02*
X85412142Y4860419D01*
X85412142Y4860419D02*
X85459761Y4955657D01*
X85459761Y4955657D02*
X85459761Y5241371D01*
X85459761Y5241371D02*
X85412142Y5336609D01*
X85412142Y5336609D02*
X85364523Y5384228D01*
X85364523Y5384228D02*
X85269285Y5431847D01*
X85269285Y5431847D02*
X85126428Y5431847D01*
X85126428Y5431847D02*
X85031190Y5384228D01*
X85031190Y5384228D02*
X84983571Y5336609D01*
X84983571Y5336609D02*
X84935952Y5241371D01*
X84935952Y5241371D02*
X84935952Y4955657D01*
X84935952Y4955657D02*
X84983571Y4860419D01*
X84983571Y4860419D02*
X85031190Y4812800D01*
X85031190Y4812800D02*
X85126428Y4765180D01*
X85126428Y4765180D02*
X85269285Y4765180D01*
X84078809Y4812800D02*
X84174047Y4765180D01*
X84174047Y4765180D02*
X84364523Y4765180D01*
X84364523Y4765180D02*
X84459761Y4812800D01*
X84459761Y4812800D02*
X84507380Y4860419D01*
X84507380Y4860419D02*
X84554999Y4955657D01*
X84554999Y4955657D02*
X84554999Y5241371D01*
X84554999Y5241371D02*
X84507380Y5336609D01*
X84507380Y5336609D02*
X84459761Y5384228D01*
X84459761Y5384228D02*
X84364523Y5431847D01*
X84364523Y5431847D02*
X84174047Y5431847D01*
X84174047Y5431847D02*
X84078809Y5384228D01*
X83650237Y4765180D02*
X83650237Y5765180D01*
X83554999Y5146133D02*
X83269285Y4765180D01*
X83269285Y5431847D02*
X83650237Y5050895D01*
X82459761Y4812800D02*
X82554999Y4765180D01*
X82554999Y4765180D02*
X82745475Y4765180D01*
X82745475Y4765180D02*
X82840713Y4812800D01*
X82840713Y4812800D02*
X82888332Y4908038D01*
X82888332Y4908038D02*
X82888332Y5288990D01*
X82888332Y5288990D02*
X82840713Y5384228D01*
X82840713Y5384228D02*
X82745475Y5431847D01*
X82745475Y5431847D02*
X82554999Y5431847D01*
X82554999Y5431847D02*
X82459761Y5384228D01*
X82459761Y5384228D02*
X82412142Y5288990D01*
X82412142Y5288990D02*
X82412142Y5193752D01*
X82412142Y5193752D02*
X82888332Y5098514D01*
X82126427Y5431847D02*
X81745475Y5431847D01*
X81983570Y5765180D02*
X81983570Y4908038D01*
X81983570Y4908038D02*
X81935951Y4812800D01*
X81935951Y4812800D02*
X81840713Y4765180D01*
X81840713Y4765180D02*
X81745475Y4765180D01*
X105319285Y4812800D02*
X105224047Y4765180D01*
X105224047Y4765180D02*
X105033571Y4765180D01*
X105033571Y4765180D02*
X104938333Y4812800D01*
X104938333Y4812800D02*
X104890714Y4908038D01*
X104890714Y4908038D02*
X104890714Y4955657D01*
X104890714Y4955657D02*
X104938333Y5050895D01*
X104938333Y5050895D02*
X105033571Y5098514D01*
X105033571Y5098514D02*
X105176428Y5098514D01*
X105176428Y5098514D02*
X105271666Y5146133D01*
X105271666Y5146133D02*
X105319285Y5241371D01*
X105319285Y5241371D02*
X105319285Y5288990D01*
X105319285Y5288990D02*
X105271666Y5384228D01*
X105271666Y5384228D02*
X105176428Y5431847D01*
X105176428Y5431847D02*
X105033571Y5431847D01*
X105033571Y5431847D02*
X104938333Y5384228D01*
X104319285Y4765180D02*
X104414523Y4812800D01*
X104414523Y4812800D02*
X104462142Y4860419D01*
X104462142Y4860419D02*
X104509761Y4955657D01*
X104509761Y4955657D02*
X104509761Y5241371D01*
X104509761Y5241371D02*
X104462142Y5336609D01*
X104462142Y5336609D02*
X104414523Y5384228D01*
X104414523Y5384228D02*
X104319285Y5431847D01*
X104319285Y5431847D02*
X104176428Y5431847D01*
X104176428Y5431847D02*
X104081190Y5384228D01*
X104081190Y5384228D02*
X104033571Y5336609D01*
X104033571Y5336609D02*
X103985952Y5241371D01*
X103985952Y5241371D02*
X103985952Y4955657D01*
X103985952Y4955657D02*
X104033571Y4860419D01*
X104033571Y4860419D02*
X104081190Y4812800D01*
X104081190Y4812800D02*
X104176428Y4765180D01*
X104176428Y4765180D02*
X104319285Y4765180D01*
X103128809Y4812800D02*
X103224047Y4765180D01*
X103224047Y4765180D02*
X103414523Y4765180D01*
X103414523Y4765180D02*
X103509761Y4812800D01*
X103509761Y4812800D02*
X103557380Y4860419D01*
X103557380Y4860419D02*
X103604999Y4955657D01*
X103604999Y4955657D02*
X103604999Y5241371D01*
X103604999Y5241371D02*
X103557380Y5336609D01*
X103557380Y5336609D02*
X103509761Y5384228D01*
X103509761Y5384228D02*
X103414523Y5431847D01*
X103414523Y5431847D02*
X103224047Y5431847D01*
X103224047Y5431847D02*
X103128809Y5384228D01*
X102700237Y4765180D02*
X102700237Y5765180D01*
X102604999Y5146133D02*
X102319285Y4765180D01*
X102319285Y5431847D02*
X102700237Y5050895D01*
X101509761Y4812800D02*
X101604999Y4765180D01*
X101604999Y4765180D02*
X101795475Y4765180D01*
X101795475Y4765180D02*
X101890713Y4812800D01*
X101890713Y4812800D02*
X101938332Y4908038D01*
X101938332Y4908038D02*
X101938332Y5288990D01*
X101938332Y5288990D02*
X101890713Y5384228D01*
X101890713Y5384228D02*
X101795475Y5431847D01*
X101795475Y5431847D02*
X101604999Y5431847D01*
X101604999Y5431847D02*
X101509761Y5384228D01*
X101509761Y5384228D02*
X101462142Y5288990D01*
X101462142Y5288990D02*
X101462142Y5193752D01*
X101462142Y5193752D02*
X101938332Y5098514D01*
X101176427Y5431847D02*
X100795475Y5431847D01*
X101033570Y5765180D02*
X101033570Y4908038D01*
X101033570Y4908038D02*
X100985951Y4812800D01*
X100985951Y4812800D02*
X100890713Y4765180D01*
X100890713Y4765180D02*
X100795475Y4765180D01*
X52931785Y-14237200D02*
X52836547Y-14284819D01*
X52836547Y-14284819D02*
X52646071Y-14284819D01*
X52646071Y-14284819D02*
X52550833Y-14237200D01*
X52550833Y-14237200D02*
X52503214Y-14141961D01*
X52503214Y-14141961D02*
X52503214Y-14094342D01*
X52503214Y-14094342D02*
X52550833Y-13999104D01*
X52550833Y-13999104D02*
X52646071Y-13951485D01*
X52646071Y-13951485D02*
X52788928Y-13951485D01*
X52788928Y-13951485D02*
X52884166Y-13903866D01*
X52884166Y-13903866D02*
X52931785Y-13808628D01*
X52931785Y-13808628D02*
X52931785Y-13761009D01*
X52931785Y-13761009D02*
X52884166Y-13665771D01*
X52884166Y-13665771D02*
X52788928Y-13618152D01*
X52788928Y-13618152D02*
X52646071Y-13618152D01*
X52646071Y-13618152D02*
X52550833Y-13665771D01*
X51931785Y-14284819D02*
X52027023Y-14237200D01*
X52027023Y-14237200D02*
X52074642Y-14189580D01*
X52074642Y-14189580D02*
X52122261Y-14094342D01*
X52122261Y-14094342D02*
X52122261Y-13808628D01*
X52122261Y-13808628D02*
X52074642Y-13713390D01*
X52074642Y-13713390D02*
X52027023Y-13665771D01*
X52027023Y-13665771D02*
X51931785Y-13618152D01*
X51931785Y-13618152D02*
X51788928Y-13618152D01*
X51788928Y-13618152D02*
X51693690Y-13665771D01*
X51693690Y-13665771D02*
X51646071Y-13713390D01*
X51646071Y-13713390D02*
X51598452Y-13808628D01*
X51598452Y-13808628D02*
X51598452Y-14094342D01*
X51598452Y-14094342D02*
X51646071Y-14189580D01*
X51646071Y-14189580D02*
X51693690Y-14237200D01*
X51693690Y-14237200D02*
X51788928Y-14284819D01*
X51788928Y-14284819D02*
X51931785Y-14284819D01*
X50741309Y-14237200D02*
X50836547Y-14284819D01*
X50836547Y-14284819D02*
X51027023Y-14284819D01*
X51027023Y-14284819D02*
X51122261Y-14237200D01*
X51122261Y-14237200D02*
X51169880Y-14189580D01*
X51169880Y-14189580D02*
X51217499Y-14094342D01*
X51217499Y-14094342D02*
X51217499Y-13808628D01*
X51217499Y-13808628D02*
X51169880Y-13713390D01*
X51169880Y-13713390D02*
X51122261Y-13665771D01*
X51122261Y-13665771D02*
X51027023Y-13618152D01*
X51027023Y-13618152D02*
X50836547Y-13618152D01*
X50836547Y-13618152D02*
X50741309Y-13665771D01*
X50312737Y-14284819D02*
X50312737Y-13284819D01*
X50217499Y-13903866D02*
X49931785Y-14284819D01*
X49931785Y-13618152D02*
X50312737Y-13999104D01*
X49122261Y-14237200D02*
X49217499Y-14284819D01*
X49217499Y-14284819D02*
X49407975Y-14284819D01*
X49407975Y-14284819D02*
X49503213Y-14237200D01*
X49503213Y-14237200D02*
X49550832Y-14141961D01*
X49550832Y-14141961D02*
X49550832Y-13761009D01*
X49550832Y-13761009D02*
X49503213Y-13665771D01*
X49503213Y-13665771D02*
X49407975Y-13618152D01*
X49407975Y-13618152D02*
X49217499Y-13618152D01*
X49217499Y-13618152D02*
X49122261Y-13665771D01*
X49122261Y-13665771D02*
X49074642Y-13761009D01*
X49074642Y-13761009D02*
X49074642Y-13856247D01*
X49074642Y-13856247D02*
X49550832Y-13951485D01*
X48788927Y-13618152D02*
X48407975Y-13618152D01*
X48646070Y-13284819D02*
X48646070Y-14141961D01*
X48646070Y-14141961D02*
X48598451Y-14237200D01*
X48598451Y-14237200D02*
X48503213Y-14284819D01*
X48503213Y-14284819D02*
X48407975Y-14284819D01*
X71981785Y-14237200D02*
X71886547Y-14284819D01*
X71886547Y-14284819D02*
X71696071Y-14284819D01*
X71696071Y-14284819D02*
X71600833Y-14237200D01*
X71600833Y-14237200D02*
X71553214Y-14141961D01*
X71553214Y-14141961D02*
X71553214Y-14094342D01*
X71553214Y-14094342D02*
X71600833Y-13999104D01*
X71600833Y-13999104D02*
X71696071Y-13951485D01*
X71696071Y-13951485D02*
X71838928Y-13951485D01*
X71838928Y-13951485D02*
X71934166Y-13903866D01*
X71934166Y-13903866D02*
X71981785Y-13808628D01*
X71981785Y-13808628D02*
X71981785Y-13761009D01*
X71981785Y-13761009D02*
X71934166Y-13665771D01*
X71934166Y-13665771D02*
X71838928Y-13618152D01*
X71838928Y-13618152D02*
X71696071Y-13618152D01*
X71696071Y-13618152D02*
X71600833Y-13665771D01*
X70981785Y-14284819D02*
X71077023Y-14237200D01*
X71077023Y-14237200D02*
X71124642Y-14189580D01*
X71124642Y-14189580D02*
X71172261Y-14094342D01*
X71172261Y-14094342D02*
X71172261Y-13808628D01*
X71172261Y-13808628D02*
X71124642Y-13713390D01*
X71124642Y-13713390D02*
X71077023Y-13665771D01*
X71077023Y-13665771D02*
X70981785Y-13618152D01*
X70981785Y-13618152D02*
X70838928Y-13618152D01*
X70838928Y-13618152D02*
X70743690Y-13665771D01*
X70743690Y-13665771D02*
X70696071Y-13713390D01*
X70696071Y-13713390D02*
X70648452Y-13808628D01*
X70648452Y-13808628D02*
X70648452Y-14094342D01*
X70648452Y-14094342D02*
X70696071Y-14189580D01*
X70696071Y-14189580D02*
X70743690Y-14237200D01*
X70743690Y-14237200D02*
X70838928Y-14284819D01*
X70838928Y-14284819D02*
X70981785Y-14284819D01*
X69791309Y-14237200D02*
X69886547Y-14284819D01*
X69886547Y-14284819D02*
X70077023Y-14284819D01*
X70077023Y-14284819D02*
X70172261Y-14237200D01*
X70172261Y-14237200D02*
X70219880Y-14189580D01*
X70219880Y-14189580D02*
X70267499Y-14094342D01*
X70267499Y-14094342D02*
X70267499Y-13808628D01*
X70267499Y-13808628D02*
X70219880Y-13713390D01*
X70219880Y-13713390D02*
X70172261Y-13665771D01*
X70172261Y-13665771D02*
X70077023Y-13618152D01*
X70077023Y-13618152D02*
X69886547Y-13618152D01*
X69886547Y-13618152D02*
X69791309Y-13665771D01*
X69362737Y-14284819D02*
X69362737Y-13284819D01*
X69267499Y-13903866D02*
X68981785Y-14284819D01*
X68981785Y-13618152D02*
X69362737Y-13999104D01*
X68172261Y-14237200D02*
X68267499Y-14284819D01*
X68267499Y-14284819D02*
X68457975Y-14284819D01*
X68457975Y-14284819D02*
X68553213Y-14237200D01*
X68553213Y-14237200D02*
X68600832Y-14141961D01*
X68600832Y-14141961D02*
X68600832Y-13761009D01*
X68600832Y-13761009D02*
X68553213Y-13665771D01*
X68553213Y-13665771D02*
X68457975Y-13618152D01*
X68457975Y-13618152D02*
X68267499Y-13618152D01*
X68267499Y-13618152D02*
X68172261Y-13665771D01*
X68172261Y-13665771D02*
X68124642Y-13761009D01*
X68124642Y-13761009D02*
X68124642Y-13856247D01*
X68124642Y-13856247D02*
X68600832Y-13951485D01*
X67838927Y-13618152D02*
X67457975Y-13618152D01*
X67696070Y-13284819D02*
X67696070Y-14141961D01*
X67696070Y-14141961D02*
X67648451Y-14237200D01*
X67648451Y-14237200D02*
X67553213Y-14284819D01*
X67553213Y-14284819D02*
X67457975Y-14284819D01*
X91031785Y-14237200D02*
X90936547Y-14284819D01*
X90936547Y-14284819D02*
X90746071Y-14284819D01*
X90746071Y-14284819D02*
X90650833Y-14237200D01*
X90650833Y-14237200D02*
X90603214Y-14141961D01*
X90603214Y-14141961D02*
X90603214Y-14094342D01*
X90603214Y-14094342D02*
X90650833Y-13999104D01*
X90650833Y-13999104D02*
X90746071Y-13951485D01*
X90746071Y-13951485D02*
X90888928Y-13951485D01*
X90888928Y-13951485D02*
X90984166Y-13903866D01*
X90984166Y-13903866D02*
X91031785Y-13808628D01*
X91031785Y-13808628D02*
X91031785Y-13761009D01*
X91031785Y-13761009D02*
X90984166Y-13665771D01*
X90984166Y-13665771D02*
X90888928Y-13618152D01*
X90888928Y-13618152D02*
X90746071Y-13618152D01*
X90746071Y-13618152D02*
X90650833Y-13665771D01*
X90031785Y-14284819D02*
X90127023Y-14237200D01*
X90127023Y-14237200D02*
X90174642Y-14189580D01*
X90174642Y-14189580D02*
X90222261Y-14094342D01*
X90222261Y-14094342D02*
X90222261Y-13808628D01*
X90222261Y-13808628D02*
X90174642Y-13713390D01*
X90174642Y-13713390D02*
X90127023Y-13665771D01*
X90127023Y-13665771D02*
X90031785Y-13618152D01*
X90031785Y-13618152D02*
X89888928Y-13618152D01*
X89888928Y-13618152D02*
X89793690Y-13665771D01*
X89793690Y-13665771D02*
X89746071Y-13713390D01*
X89746071Y-13713390D02*
X89698452Y-13808628D01*
X89698452Y-13808628D02*
X89698452Y-14094342D01*
X89698452Y-14094342D02*
X89746071Y-14189580D01*
X89746071Y-14189580D02*
X89793690Y-14237200D01*
X89793690Y-14237200D02*
X89888928Y-14284819D01*
X89888928Y-14284819D02*
X90031785Y-14284819D01*
X88841309Y-14237200D02*
X88936547Y-14284819D01*
X88936547Y-14284819D02*
X89127023Y-14284819D01*
X89127023Y-14284819D02*
X89222261Y-14237200D01*
X89222261Y-14237200D02*
X89269880Y-14189580D01*
X89269880Y-14189580D02*
X89317499Y-14094342D01*
X89317499Y-14094342D02*
X89317499Y-13808628D01*
X89317499Y-13808628D02*
X89269880Y-13713390D01*
X89269880Y-13713390D02*
X89222261Y-13665771D01*
X89222261Y-13665771D02*
X89127023Y-13618152D01*
X89127023Y-13618152D02*
X88936547Y-13618152D01*
X88936547Y-13618152D02*
X88841309Y-13665771D01*
X88412737Y-14284819D02*
X88412737Y-13284819D01*
X88317499Y-13903866D02*
X88031785Y-14284819D01*
X88031785Y-13618152D02*
X88412737Y-13999104D01*
X87222261Y-14237200D02*
X87317499Y-14284819D01*
X87317499Y-14284819D02*
X87507975Y-14284819D01*
X87507975Y-14284819D02*
X87603213Y-14237200D01*
X87603213Y-14237200D02*
X87650832Y-14141961D01*
X87650832Y-14141961D02*
X87650832Y-13761009D01*
X87650832Y-13761009D02*
X87603213Y-13665771D01*
X87603213Y-13665771D02*
X87507975Y-13618152D01*
X87507975Y-13618152D02*
X87317499Y-13618152D01*
X87317499Y-13618152D02*
X87222261Y-13665771D01*
X87222261Y-13665771D02*
X87174642Y-13761009D01*
X87174642Y-13761009D02*
X87174642Y-13856247D01*
X87174642Y-13856247D02*
X87650832Y-13951485D01*
X86888927Y-13618152D02*
X86507975Y-13618152D01*
X86746070Y-13284819D02*
X86746070Y-14141961D01*
X86746070Y-14141961D02*
X86698451Y-14237200D01*
X86698451Y-14237200D02*
X86603213Y-14284819D01*
X86603213Y-14284819D02*
X86507975Y-14284819D01*
X110081785Y-14237200D02*
X109986547Y-14284819D01*
X109986547Y-14284819D02*
X109796071Y-14284819D01*
X109796071Y-14284819D02*
X109700833Y-14237200D01*
X109700833Y-14237200D02*
X109653214Y-14141961D01*
X109653214Y-14141961D02*
X109653214Y-14094342D01*
X109653214Y-14094342D02*
X109700833Y-13999104D01*
X109700833Y-13999104D02*
X109796071Y-13951485D01*
X109796071Y-13951485D02*
X109938928Y-13951485D01*
X109938928Y-13951485D02*
X110034166Y-13903866D01*
X110034166Y-13903866D02*
X110081785Y-13808628D01*
X110081785Y-13808628D02*
X110081785Y-13761009D01*
X110081785Y-13761009D02*
X110034166Y-13665771D01*
X110034166Y-13665771D02*
X109938928Y-13618152D01*
X109938928Y-13618152D02*
X109796071Y-13618152D01*
X109796071Y-13618152D02*
X109700833Y-13665771D01*
X109081785Y-14284819D02*
X109177023Y-14237200D01*
X109177023Y-14237200D02*
X109224642Y-14189580D01*
X109224642Y-14189580D02*
X109272261Y-14094342D01*
X109272261Y-14094342D02*
X109272261Y-13808628D01*
X109272261Y-13808628D02*
X109224642Y-13713390D01*
X109224642Y-13713390D02*
X109177023Y-13665771D01*
X109177023Y-13665771D02*
X109081785Y-13618152D01*
X109081785Y-13618152D02*
X108938928Y-13618152D01*
X108938928Y-13618152D02*
X108843690Y-13665771D01*
X108843690Y-13665771D02*
X108796071Y-13713390D01*
X108796071Y-13713390D02*
X108748452Y-13808628D01*
X108748452Y-13808628D02*
X108748452Y-14094342D01*
X108748452Y-14094342D02*
X108796071Y-14189580D01*
X108796071Y-14189580D02*
X108843690Y-14237200D01*
X108843690Y-14237200D02*
X108938928Y-14284819D01*
X108938928Y-14284819D02*
X109081785Y-14284819D01*
X107891309Y-14237200D02*
X107986547Y-14284819D01*
X107986547Y-14284819D02*
X108177023Y-14284819D01*
X108177023Y-14284819D02*
X108272261Y-14237200D01*
X108272261Y-14237200D02*
X108319880Y-14189580D01*
X108319880Y-14189580D02*
X108367499Y-14094342D01*
X108367499Y-14094342D02*
X108367499Y-13808628D01*
X108367499Y-13808628D02*
X108319880Y-13713390D01*
X108319880Y-13713390D02*
X108272261Y-13665771D01*
X108272261Y-13665771D02*
X108177023Y-13618152D01*
X108177023Y-13618152D02*
X107986547Y-13618152D01*
X107986547Y-13618152D02*
X107891309Y-13665771D01*
X107462737Y-14284819D02*
X107462737Y-13284819D01*
X107367499Y-13903866D02*
X107081785Y-14284819D01*
X107081785Y-13618152D02*
X107462737Y-13999104D01*
X106272261Y-14237200D02*
X106367499Y-14284819D01*
X106367499Y-14284819D02*
X106557975Y-14284819D01*
X106557975Y-14284819D02*
X106653213Y-14237200D01*
X106653213Y-14237200D02*
X106700832Y-14141961D01*
X106700832Y-14141961D02*
X106700832Y-13761009D01*
X106700832Y-13761009D02*
X106653213Y-13665771D01*
X106653213Y-13665771D02*
X106557975Y-13618152D01*
X106557975Y-13618152D02*
X106367499Y-13618152D01*
X106367499Y-13618152D02*
X106272261Y-13665771D01*
X106272261Y-13665771D02*
X106224642Y-13761009D01*
X106224642Y-13761009D02*
X106224642Y-13856247D01*
X106224642Y-13856247D02*
X106700832Y-13951485D01*
X105938927Y-13618152D02*
X105557975Y-13618152D01*
X105796070Y-13284819D02*
X105796070Y-14141961D01*
X105796070Y-14141961D02*
X105748451Y-14237200D01*
X105748451Y-14237200D02*
X105653213Y-14284819D01*
X105653213Y-14284819D02*
X105557975Y-14284819D01*
X62456785Y-33287200D02*
X62361547Y-33334819D01*
X62361547Y-33334819D02*
X62171071Y-33334819D01*
X62171071Y-33334819D02*
X62075833Y-33287200D01*
X62075833Y-33287200D02*
X62028214Y-33191961D01*
X62028214Y-33191961D02*
X62028214Y-33144342D01*
X62028214Y-33144342D02*
X62075833Y-33049104D01*
X62075833Y-33049104D02*
X62171071Y-33001485D01*
X62171071Y-33001485D02*
X62313928Y-33001485D01*
X62313928Y-33001485D02*
X62409166Y-32953866D01*
X62409166Y-32953866D02*
X62456785Y-32858628D01*
X62456785Y-32858628D02*
X62456785Y-32811009D01*
X62456785Y-32811009D02*
X62409166Y-32715771D01*
X62409166Y-32715771D02*
X62313928Y-32668152D01*
X62313928Y-32668152D02*
X62171071Y-32668152D01*
X62171071Y-32668152D02*
X62075833Y-32715771D01*
X61456785Y-33334819D02*
X61552023Y-33287200D01*
X61552023Y-33287200D02*
X61599642Y-33239580D01*
X61599642Y-33239580D02*
X61647261Y-33144342D01*
X61647261Y-33144342D02*
X61647261Y-32858628D01*
X61647261Y-32858628D02*
X61599642Y-32763390D01*
X61599642Y-32763390D02*
X61552023Y-32715771D01*
X61552023Y-32715771D02*
X61456785Y-32668152D01*
X61456785Y-32668152D02*
X61313928Y-32668152D01*
X61313928Y-32668152D02*
X61218690Y-32715771D01*
X61218690Y-32715771D02*
X61171071Y-32763390D01*
X61171071Y-32763390D02*
X61123452Y-32858628D01*
X61123452Y-32858628D02*
X61123452Y-33144342D01*
X61123452Y-33144342D02*
X61171071Y-33239580D01*
X61171071Y-33239580D02*
X61218690Y-33287200D01*
X61218690Y-33287200D02*
X61313928Y-33334819D01*
X61313928Y-33334819D02*
X61456785Y-33334819D01*
X60266309Y-33287200D02*
X60361547Y-33334819D01*
X60361547Y-33334819D02*
X60552023Y-33334819D01*
X60552023Y-33334819D02*
X60647261Y-33287200D01*
X60647261Y-33287200D02*
X60694880Y-33239580D01*
X60694880Y-33239580D02*
X60742499Y-33144342D01*
X60742499Y-33144342D02*
X60742499Y-32858628D01*
X60742499Y-32858628D02*
X60694880Y-32763390D01*
X60694880Y-32763390D02*
X60647261Y-32715771D01*
X60647261Y-32715771D02*
X60552023Y-32668152D01*
X60552023Y-32668152D02*
X60361547Y-32668152D01*
X60361547Y-32668152D02*
X60266309Y-32715771D01*
X59837737Y-33334819D02*
X59837737Y-32334819D01*
X59742499Y-32953866D02*
X59456785Y-33334819D01*
X59456785Y-32668152D02*
X59837737Y-33049104D01*
X58647261Y-33287200D02*
X58742499Y-33334819D01*
X58742499Y-33334819D02*
X58932975Y-33334819D01*
X58932975Y-33334819D02*
X59028213Y-33287200D01*
X59028213Y-33287200D02*
X59075832Y-33191961D01*
X59075832Y-33191961D02*
X59075832Y-32811009D01*
X59075832Y-32811009D02*
X59028213Y-32715771D01*
X59028213Y-32715771D02*
X58932975Y-32668152D01*
X58932975Y-32668152D02*
X58742499Y-32668152D01*
X58742499Y-32668152D02*
X58647261Y-32715771D01*
X58647261Y-32715771D02*
X58599642Y-32811009D01*
X58599642Y-32811009D02*
X58599642Y-32906247D01*
X58599642Y-32906247D02*
X59075832Y-33001485D01*
X58313927Y-32668152D02*
X57932975Y-32668152D01*
X58171070Y-32334819D02*
X58171070Y-33191961D01*
X58171070Y-33191961D02*
X58123451Y-33287200D01*
X58123451Y-33287200D02*
X58028213Y-33334819D01*
X58028213Y-33334819D02*
X57932975Y-33334819D01*
X81506785Y-33287200D02*
X81411547Y-33334819D01*
X81411547Y-33334819D02*
X81221071Y-33334819D01*
X81221071Y-33334819D02*
X81125833Y-33287200D01*
X81125833Y-33287200D02*
X81078214Y-33191961D01*
X81078214Y-33191961D02*
X81078214Y-33144342D01*
X81078214Y-33144342D02*
X81125833Y-33049104D01*
X81125833Y-33049104D02*
X81221071Y-33001485D01*
X81221071Y-33001485D02*
X81363928Y-33001485D01*
X81363928Y-33001485D02*
X81459166Y-32953866D01*
X81459166Y-32953866D02*
X81506785Y-32858628D01*
X81506785Y-32858628D02*
X81506785Y-32811009D01*
X81506785Y-32811009D02*
X81459166Y-32715771D01*
X81459166Y-32715771D02*
X81363928Y-32668152D01*
X81363928Y-32668152D02*
X81221071Y-32668152D01*
X81221071Y-32668152D02*
X81125833Y-32715771D01*
X80506785Y-33334819D02*
X80602023Y-33287200D01*
X80602023Y-33287200D02*
X80649642Y-33239580D01*
X80649642Y-33239580D02*
X80697261Y-33144342D01*
X80697261Y-33144342D02*
X80697261Y-32858628D01*
X80697261Y-32858628D02*
X80649642Y-32763390D01*
X80649642Y-32763390D02*
X80602023Y-32715771D01*
X80602023Y-32715771D02*
X80506785Y-32668152D01*
X80506785Y-32668152D02*
X80363928Y-32668152D01*
X80363928Y-32668152D02*
X80268690Y-32715771D01*
X80268690Y-32715771D02*
X80221071Y-32763390D01*
X80221071Y-32763390D02*
X80173452Y-32858628D01*
X80173452Y-32858628D02*
X80173452Y-33144342D01*
X80173452Y-33144342D02*
X80221071Y-33239580D01*
X80221071Y-33239580D02*
X80268690Y-33287200D01*
X80268690Y-33287200D02*
X80363928Y-33334819D01*
X80363928Y-33334819D02*
X80506785Y-33334819D01*
X79316309Y-33287200D02*
X79411547Y-33334819D01*
X79411547Y-33334819D02*
X79602023Y-33334819D01*
X79602023Y-33334819D02*
X79697261Y-33287200D01*
X79697261Y-33287200D02*
X79744880Y-33239580D01*
X79744880Y-33239580D02*
X79792499Y-33144342D01*
X79792499Y-33144342D02*
X79792499Y-32858628D01*
X79792499Y-32858628D02*
X79744880Y-32763390D01*
X79744880Y-32763390D02*
X79697261Y-32715771D01*
X79697261Y-32715771D02*
X79602023Y-32668152D01*
X79602023Y-32668152D02*
X79411547Y-32668152D01*
X79411547Y-32668152D02*
X79316309Y-32715771D01*
X78887737Y-33334819D02*
X78887737Y-32334819D01*
X78792499Y-32953866D02*
X78506785Y-33334819D01*
X78506785Y-32668152D02*
X78887737Y-33049104D01*
X77697261Y-33287200D02*
X77792499Y-33334819D01*
X77792499Y-33334819D02*
X77982975Y-33334819D01*
X77982975Y-33334819D02*
X78078213Y-33287200D01*
X78078213Y-33287200D02*
X78125832Y-33191961D01*
X78125832Y-33191961D02*
X78125832Y-32811009D01*
X78125832Y-32811009D02*
X78078213Y-32715771D01*
X78078213Y-32715771D02*
X77982975Y-32668152D01*
X77982975Y-32668152D02*
X77792499Y-32668152D01*
X77792499Y-32668152D02*
X77697261Y-32715771D01*
X77697261Y-32715771D02*
X77649642Y-32811009D01*
X77649642Y-32811009D02*
X77649642Y-32906247D01*
X77649642Y-32906247D02*
X78125832Y-33001485D01*
X77363927Y-32668152D02*
X76982975Y-32668152D01*
X77221070Y-32334819D02*
X77221070Y-33191961D01*
X77221070Y-33191961D02*
X77173451Y-33287200D01*
X77173451Y-33287200D02*
X77078213Y-33334819D01*
X77078213Y-33334819D02*
X76982975Y-33334819D01*
X100556785Y-33287200D02*
X100461547Y-33334819D01*
X100461547Y-33334819D02*
X100271071Y-33334819D01*
X100271071Y-33334819D02*
X100175833Y-33287200D01*
X100175833Y-33287200D02*
X100128214Y-33191961D01*
X100128214Y-33191961D02*
X100128214Y-33144342D01*
X100128214Y-33144342D02*
X100175833Y-33049104D01*
X100175833Y-33049104D02*
X100271071Y-33001485D01*
X100271071Y-33001485D02*
X100413928Y-33001485D01*
X100413928Y-33001485D02*
X100509166Y-32953866D01*
X100509166Y-32953866D02*
X100556785Y-32858628D01*
X100556785Y-32858628D02*
X100556785Y-32811009D01*
X100556785Y-32811009D02*
X100509166Y-32715771D01*
X100509166Y-32715771D02*
X100413928Y-32668152D01*
X100413928Y-32668152D02*
X100271071Y-32668152D01*
X100271071Y-32668152D02*
X100175833Y-32715771D01*
X99556785Y-33334819D02*
X99652023Y-33287200D01*
X99652023Y-33287200D02*
X99699642Y-33239580D01*
X99699642Y-33239580D02*
X99747261Y-33144342D01*
X99747261Y-33144342D02*
X99747261Y-32858628D01*
X99747261Y-32858628D02*
X99699642Y-32763390D01*
X99699642Y-32763390D02*
X99652023Y-32715771D01*
X99652023Y-32715771D02*
X99556785Y-32668152D01*
X99556785Y-32668152D02*
X99413928Y-32668152D01*
X99413928Y-32668152D02*
X99318690Y-32715771D01*
X99318690Y-32715771D02*
X99271071Y-32763390D01*
X99271071Y-32763390D02*
X99223452Y-32858628D01*
X99223452Y-32858628D02*
X99223452Y-33144342D01*
X99223452Y-33144342D02*
X99271071Y-33239580D01*
X99271071Y-33239580D02*
X99318690Y-33287200D01*
X99318690Y-33287200D02*
X99413928Y-33334819D01*
X99413928Y-33334819D02*
X99556785Y-33334819D01*
X98366309Y-33287200D02*
X98461547Y-33334819D01*
X98461547Y-33334819D02*
X98652023Y-33334819D01*
X98652023Y-33334819D02*
X98747261Y-33287200D01*
X98747261Y-33287200D02*
X98794880Y-33239580D01*
X98794880Y-33239580D02*
X98842499Y-33144342D01*
X98842499Y-33144342D02*
X98842499Y-32858628D01*
X98842499Y-32858628D02*
X98794880Y-32763390D01*
X98794880Y-32763390D02*
X98747261Y-32715771D01*
X98747261Y-32715771D02*
X98652023Y-32668152D01*
X98652023Y-32668152D02*
X98461547Y-32668152D01*
X98461547Y-32668152D02*
X98366309Y-32715771D01*
X97937737Y-33334819D02*
X97937737Y-32334819D01*
X97842499Y-32953866D02*
X97556785Y-33334819D01*
X97556785Y-32668152D02*
X97937737Y-33049104D01*
X96747261Y-33287200D02*
X96842499Y-33334819D01*
X96842499Y-33334819D02*
X97032975Y-33334819D01*
X97032975Y-33334819D02*
X97128213Y-33287200D01*
X97128213Y-33287200D02*
X97175832Y-33191961D01*
X97175832Y-33191961D02*
X97175832Y-32811009D01*
X97175832Y-32811009D02*
X97128213Y-32715771D01*
X97128213Y-32715771D02*
X97032975Y-32668152D01*
X97032975Y-32668152D02*
X96842499Y-32668152D01*
X96842499Y-32668152D02*
X96747261Y-32715771D01*
X96747261Y-32715771D02*
X96699642Y-32811009D01*
X96699642Y-32811009D02*
X96699642Y-32906247D01*
X96699642Y-32906247D02*
X97175832Y-33001485D01*
X96413927Y-32668152D02*
X96032975Y-32668152D01*
X96271070Y-32334819D02*
X96271070Y-33191961D01*
X96271070Y-33191961D02*
X96223451Y-33287200D01*
X96223451Y-33287200D02*
X96128213Y-33334819D01*
X96128213Y-33334819D02*
X96032975Y-33334819D01*
X119606785Y-33287200D02*
X119511547Y-33334819D01*
X119511547Y-33334819D02*
X119321071Y-33334819D01*
X119321071Y-33334819D02*
X119225833Y-33287200D01*
X119225833Y-33287200D02*
X119178214Y-33191961D01*
X119178214Y-33191961D02*
X119178214Y-33144342D01*
X119178214Y-33144342D02*
X119225833Y-33049104D01*
X119225833Y-33049104D02*
X119321071Y-33001485D01*
X119321071Y-33001485D02*
X119463928Y-33001485D01*
X119463928Y-33001485D02*
X119559166Y-32953866D01*
X119559166Y-32953866D02*
X119606785Y-32858628D01*
X119606785Y-32858628D02*
X119606785Y-32811009D01*
X119606785Y-32811009D02*
X119559166Y-32715771D01*
X119559166Y-32715771D02*
X119463928Y-32668152D01*
X119463928Y-32668152D02*
X119321071Y-32668152D01*
X119321071Y-32668152D02*
X119225833Y-32715771D01*
X118606785Y-33334819D02*
X118702023Y-33287200D01*
X118702023Y-33287200D02*
X118749642Y-33239580D01*
X118749642Y-33239580D02*
X118797261Y-33144342D01*
X118797261Y-33144342D02*
X118797261Y-32858628D01*
X118797261Y-32858628D02*
X118749642Y-32763390D01*
X118749642Y-32763390D02*
X118702023Y-32715771D01*
X118702023Y-32715771D02*
X118606785Y-32668152D01*
X118606785Y-32668152D02*
X118463928Y-32668152D01*
X118463928Y-32668152D02*
X118368690Y-32715771D01*
X118368690Y-32715771D02*
X118321071Y-32763390D01*
X118321071Y-32763390D02*
X118273452Y-32858628D01*
X118273452Y-32858628D02*
X118273452Y-33144342D01*
X118273452Y-33144342D02*
X118321071Y-33239580D01*
X118321071Y-33239580D02*
X118368690Y-33287200D01*
X118368690Y-33287200D02*
X118463928Y-33334819D01*
X118463928Y-33334819D02*
X118606785Y-33334819D01*
X117416309Y-33287200D02*
X117511547Y-33334819D01*
X117511547Y-33334819D02*
X117702023Y-33334819D01*
X117702023Y-33334819D02*
X117797261Y-33287200D01*
X117797261Y-33287200D02*
X117844880Y-33239580D01*
X117844880Y-33239580D02*
X117892499Y-33144342D01*
X117892499Y-33144342D02*
X117892499Y-32858628D01*
X117892499Y-32858628D02*
X117844880Y-32763390D01*
X117844880Y-32763390D02*
X117797261Y-32715771D01*
X117797261Y-32715771D02*
X117702023Y-32668152D01*
X117702023Y-32668152D02*
X117511547Y-32668152D01*
X117511547Y-32668152D02*
X117416309Y-32715771D01*
X116987737Y-33334819D02*
X116987737Y-32334819D01*
X116892499Y-32953866D02*
X116606785Y-33334819D01*
X116606785Y-32668152D02*
X116987737Y-33049104D01*
X115797261Y-33287200D02*
X115892499Y-33334819D01*
X115892499Y-33334819D02*
X116082975Y-33334819D01*
X116082975Y-33334819D02*
X116178213Y-33287200D01*
X116178213Y-33287200D02*
X116225832Y-33191961D01*
X116225832Y-33191961D02*
X116225832Y-32811009D01*
X116225832Y-32811009D02*
X116178213Y-32715771D01*
X116178213Y-32715771D02*
X116082975Y-32668152D01*
X116082975Y-32668152D02*
X115892499Y-32668152D01*
X115892499Y-32668152D02*
X115797261Y-32715771D01*
X115797261Y-32715771D02*
X115749642Y-32811009D01*
X115749642Y-32811009D02*
X115749642Y-32906247D01*
X115749642Y-32906247D02*
X116225832Y-33001485D01*
X115463927Y-32668152D02*
X115082975Y-32668152D01*
X115321070Y-32334819D02*
X115321070Y-33191961D01*
X115321070Y-33191961D02*
X115273451Y-33287200D01*
X115273451Y-33287200D02*
X115178213Y-33334819D01*
X115178213Y-33334819D02*
X115082975Y-33334819D01*
X43406785Y-52337200D02*
X43311547Y-52384819D01*
X43311547Y-52384819D02*
X43121071Y-52384819D01*
X43121071Y-52384819D02*
X43025833Y-52337200D01*
X43025833Y-52337200D02*
X42978214Y-52241961D01*
X42978214Y-52241961D02*
X42978214Y-52194342D01*
X42978214Y-52194342D02*
X43025833Y-52099104D01*
X43025833Y-52099104D02*
X43121071Y-52051485D01*
X43121071Y-52051485D02*
X43263928Y-52051485D01*
X43263928Y-52051485D02*
X43359166Y-52003866D01*
X43359166Y-52003866D02*
X43406785Y-51908628D01*
X43406785Y-51908628D02*
X43406785Y-51861009D01*
X43406785Y-51861009D02*
X43359166Y-51765771D01*
X43359166Y-51765771D02*
X43263928Y-51718152D01*
X43263928Y-51718152D02*
X43121071Y-51718152D01*
X43121071Y-51718152D02*
X43025833Y-51765771D01*
X42406785Y-52384819D02*
X42502023Y-52337200D01*
X42502023Y-52337200D02*
X42549642Y-52289580D01*
X42549642Y-52289580D02*
X42597261Y-52194342D01*
X42597261Y-52194342D02*
X42597261Y-51908628D01*
X42597261Y-51908628D02*
X42549642Y-51813390D01*
X42549642Y-51813390D02*
X42502023Y-51765771D01*
X42502023Y-51765771D02*
X42406785Y-51718152D01*
X42406785Y-51718152D02*
X42263928Y-51718152D01*
X42263928Y-51718152D02*
X42168690Y-51765771D01*
X42168690Y-51765771D02*
X42121071Y-51813390D01*
X42121071Y-51813390D02*
X42073452Y-51908628D01*
X42073452Y-51908628D02*
X42073452Y-52194342D01*
X42073452Y-52194342D02*
X42121071Y-52289580D01*
X42121071Y-52289580D02*
X42168690Y-52337200D01*
X42168690Y-52337200D02*
X42263928Y-52384819D01*
X42263928Y-52384819D02*
X42406785Y-52384819D01*
X41216309Y-52337200D02*
X41311547Y-52384819D01*
X41311547Y-52384819D02*
X41502023Y-52384819D01*
X41502023Y-52384819D02*
X41597261Y-52337200D01*
X41597261Y-52337200D02*
X41644880Y-52289580D01*
X41644880Y-52289580D02*
X41692499Y-52194342D01*
X41692499Y-52194342D02*
X41692499Y-51908628D01*
X41692499Y-51908628D02*
X41644880Y-51813390D01*
X41644880Y-51813390D02*
X41597261Y-51765771D01*
X41597261Y-51765771D02*
X41502023Y-51718152D01*
X41502023Y-51718152D02*
X41311547Y-51718152D01*
X41311547Y-51718152D02*
X41216309Y-51765771D01*
X40787737Y-52384819D02*
X40787737Y-51384819D01*
X40692499Y-52003866D02*
X40406785Y-52384819D01*
X40406785Y-51718152D02*
X40787737Y-52099104D01*
X39597261Y-52337200D02*
X39692499Y-52384819D01*
X39692499Y-52384819D02*
X39882975Y-52384819D01*
X39882975Y-52384819D02*
X39978213Y-52337200D01*
X39978213Y-52337200D02*
X40025832Y-52241961D01*
X40025832Y-52241961D02*
X40025832Y-51861009D01*
X40025832Y-51861009D02*
X39978213Y-51765771D01*
X39978213Y-51765771D02*
X39882975Y-51718152D01*
X39882975Y-51718152D02*
X39692499Y-51718152D01*
X39692499Y-51718152D02*
X39597261Y-51765771D01*
X39597261Y-51765771D02*
X39549642Y-51861009D01*
X39549642Y-51861009D02*
X39549642Y-51956247D01*
X39549642Y-51956247D02*
X40025832Y-52051485D01*
X39263927Y-51718152D02*
X38882975Y-51718152D01*
X39121070Y-51384819D02*
X39121070Y-52241961D01*
X39121070Y-52241961D02*
X39073451Y-52337200D01*
X39073451Y-52337200D02*
X38978213Y-52384819D01*
X38978213Y-52384819D02*
X38882975Y-52384819D01*
X62456785Y-52337200D02*
X62361547Y-52384819D01*
X62361547Y-52384819D02*
X62171071Y-52384819D01*
X62171071Y-52384819D02*
X62075833Y-52337200D01*
X62075833Y-52337200D02*
X62028214Y-52241961D01*
X62028214Y-52241961D02*
X62028214Y-52194342D01*
X62028214Y-52194342D02*
X62075833Y-52099104D01*
X62075833Y-52099104D02*
X62171071Y-52051485D01*
X62171071Y-52051485D02*
X62313928Y-52051485D01*
X62313928Y-52051485D02*
X62409166Y-52003866D01*
X62409166Y-52003866D02*
X62456785Y-51908628D01*
X62456785Y-51908628D02*
X62456785Y-51861009D01*
X62456785Y-51861009D02*
X62409166Y-51765771D01*
X62409166Y-51765771D02*
X62313928Y-51718152D01*
X62313928Y-51718152D02*
X62171071Y-51718152D01*
X62171071Y-51718152D02*
X62075833Y-51765771D01*
X61456785Y-52384819D02*
X61552023Y-52337200D01*
X61552023Y-52337200D02*
X61599642Y-52289580D01*
X61599642Y-52289580D02*
X61647261Y-52194342D01*
X61647261Y-52194342D02*
X61647261Y-51908628D01*
X61647261Y-51908628D02*
X61599642Y-51813390D01*
X61599642Y-51813390D02*
X61552023Y-51765771D01*
X61552023Y-51765771D02*
X61456785Y-51718152D01*
X61456785Y-51718152D02*
X61313928Y-51718152D01*
X61313928Y-51718152D02*
X61218690Y-51765771D01*
X61218690Y-51765771D02*
X61171071Y-51813390D01*
X61171071Y-51813390D02*
X61123452Y-51908628D01*
X61123452Y-51908628D02*
X61123452Y-52194342D01*
X61123452Y-52194342D02*
X61171071Y-52289580D01*
X61171071Y-52289580D02*
X61218690Y-52337200D01*
X61218690Y-52337200D02*
X61313928Y-52384819D01*
X61313928Y-52384819D02*
X61456785Y-52384819D01*
X60266309Y-52337200D02*
X60361547Y-52384819D01*
X60361547Y-52384819D02*
X60552023Y-52384819D01*
X60552023Y-52384819D02*
X60647261Y-52337200D01*
X60647261Y-52337200D02*
X60694880Y-52289580D01*
X60694880Y-52289580D02*
X60742499Y-52194342D01*
X60742499Y-52194342D02*
X60742499Y-51908628D01*
X60742499Y-51908628D02*
X60694880Y-51813390D01*
X60694880Y-51813390D02*
X60647261Y-51765771D01*
X60647261Y-51765771D02*
X60552023Y-51718152D01*
X60552023Y-51718152D02*
X60361547Y-51718152D01*
X60361547Y-51718152D02*
X60266309Y-51765771D01*
X59837737Y-52384819D02*
X59837737Y-51384819D01*
X59742499Y-52003866D02*
X59456785Y-52384819D01*
X59456785Y-51718152D02*
X59837737Y-52099104D01*
X58647261Y-52337200D02*
X58742499Y-52384819D01*
X58742499Y-52384819D02*
X58932975Y-52384819D01*
X58932975Y-52384819D02*
X59028213Y-52337200D01*
X59028213Y-52337200D02*
X59075832Y-52241961D01*
X59075832Y-52241961D02*
X59075832Y-51861009D01*
X59075832Y-51861009D02*
X59028213Y-51765771D01*
X59028213Y-51765771D02*
X58932975Y-51718152D01*
X58932975Y-51718152D02*
X58742499Y-51718152D01*
X58742499Y-51718152D02*
X58647261Y-51765771D01*
X58647261Y-51765771D02*
X58599642Y-51861009D01*
X58599642Y-51861009D02*
X58599642Y-51956247D01*
X58599642Y-51956247D02*
X59075832Y-52051485D01*
X58313927Y-51718152D02*
X57932975Y-51718152D01*
X58171070Y-51384819D02*
X58171070Y-52241961D01*
X58171070Y-52241961D02*
X58123451Y-52337200D01*
X58123451Y-52337200D02*
X58028213Y-52384819D01*
X58028213Y-52384819D02*
X57932975Y-52384819D01*
X81506785Y-52337200D02*
X81411547Y-52384819D01*
X81411547Y-52384819D02*
X81221071Y-52384819D01*
X81221071Y-52384819D02*
X81125833Y-52337200D01*
X81125833Y-52337200D02*
X81078214Y-52241961D01*
X81078214Y-52241961D02*
X81078214Y-52194342D01*
X81078214Y-52194342D02*
X81125833Y-52099104D01*
X81125833Y-52099104D02*
X81221071Y-52051485D01*
X81221071Y-52051485D02*
X81363928Y-52051485D01*
X81363928Y-52051485D02*
X81459166Y-52003866D01*
X81459166Y-52003866D02*
X81506785Y-51908628D01*
X81506785Y-51908628D02*
X81506785Y-51861009D01*
X81506785Y-51861009D02*
X81459166Y-51765771D01*
X81459166Y-51765771D02*
X81363928Y-51718152D01*
X81363928Y-51718152D02*
X81221071Y-51718152D01*
X81221071Y-51718152D02*
X81125833Y-51765771D01*
X80506785Y-52384819D02*
X80602023Y-52337200D01*
X80602023Y-52337200D02*
X80649642Y-52289580D01*
X80649642Y-52289580D02*
X80697261Y-52194342D01*
X80697261Y-52194342D02*
X80697261Y-51908628D01*
X80697261Y-51908628D02*
X80649642Y-51813390D01*
X80649642Y-51813390D02*
X80602023Y-51765771D01*
X80602023Y-51765771D02*
X80506785Y-51718152D01*
X80506785Y-51718152D02*
X80363928Y-51718152D01*
X80363928Y-51718152D02*
X80268690Y-51765771D01*
X80268690Y-51765771D02*
X80221071Y-51813390D01*
X80221071Y-51813390D02*
X80173452Y-51908628D01*
X80173452Y-51908628D02*
X80173452Y-52194342D01*
X80173452Y-52194342D02*
X80221071Y-52289580D01*
X80221071Y-52289580D02*
X80268690Y-52337200D01*
X80268690Y-52337200D02*
X80363928Y-52384819D01*
X80363928Y-52384819D02*
X80506785Y-52384819D01*
X79316309Y-52337200D02*
X79411547Y-52384819D01*
X79411547Y-52384819D02*
X79602023Y-52384819D01*
X79602023Y-52384819D02*
X79697261Y-52337200D01*
X79697261Y-52337200D02*
X79744880Y-52289580D01*
X79744880Y-52289580D02*
X79792499Y-52194342D01*
X79792499Y-52194342D02*
X79792499Y-51908628D01*
X79792499Y-51908628D02*
X79744880Y-51813390D01*
X79744880Y-51813390D02*
X79697261Y-51765771D01*
X79697261Y-51765771D02*
X79602023Y-51718152D01*
X79602023Y-51718152D02*
X79411547Y-51718152D01*
X79411547Y-51718152D02*
X79316309Y-51765771D01*
X78887737Y-52384819D02*
X78887737Y-51384819D01*
X78792499Y-52003866D02*
X78506785Y-52384819D01*
X78506785Y-51718152D02*
X78887737Y-52099104D01*
X77697261Y-52337200D02*
X77792499Y-52384819D01*
X77792499Y-52384819D02*
X77982975Y-52384819D01*
X77982975Y-52384819D02*
X78078213Y-52337200D01*
X78078213Y-52337200D02*
X78125832Y-52241961D01*
X78125832Y-52241961D02*
X78125832Y-51861009D01*
X78125832Y-51861009D02*
X78078213Y-51765771D01*
X78078213Y-51765771D02*
X77982975Y-51718152D01*
X77982975Y-51718152D02*
X77792499Y-51718152D01*
X77792499Y-51718152D02*
X77697261Y-51765771D01*
X77697261Y-51765771D02*
X77649642Y-51861009D01*
X77649642Y-51861009D02*
X77649642Y-51956247D01*
X77649642Y-51956247D02*
X78125832Y-52051485D01*
X77363927Y-51718152D02*
X76982975Y-51718152D01*
X77221070Y-51384819D02*
X77221070Y-52241961D01*
X77221070Y-52241961D02*
X77173451Y-52337200D01*
X77173451Y-52337200D02*
X77078213Y-52384819D01*
X77078213Y-52384819D02*
X76982975Y-52384819D01*
X31500285Y-14237200D02*
X31405047Y-14284819D01*
X31405047Y-14284819D02*
X31214571Y-14284819D01*
X31214571Y-14284819D02*
X31119333Y-14237200D01*
X31119333Y-14237200D02*
X31071714Y-14141961D01*
X31071714Y-14141961D02*
X31071714Y-14094342D01*
X31071714Y-14094342D02*
X31119333Y-13999104D01*
X31119333Y-13999104D02*
X31214571Y-13951485D01*
X31214571Y-13951485D02*
X31357428Y-13951485D01*
X31357428Y-13951485D02*
X31452666Y-13903866D01*
X31452666Y-13903866D02*
X31500285Y-13808628D01*
X31500285Y-13808628D02*
X31500285Y-13761009D01*
X31500285Y-13761009D02*
X31452666Y-13665771D01*
X31452666Y-13665771D02*
X31357428Y-13618152D01*
X31357428Y-13618152D02*
X31214571Y-13618152D01*
X31214571Y-13618152D02*
X31119333Y-13665771D01*
X30500285Y-14284819D02*
X30595523Y-14237200D01*
X30595523Y-14237200D02*
X30643142Y-14189580D01*
X30643142Y-14189580D02*
X30690761Y-14094342D01*
X30690761Y-14094342D02*
X30690761Y-13808628D01*
X30690761Y-13808628D02*
X30643142Y-13713390D01*
X30643142Y-13713390D02*
X30595523Y-13665771D01*
X30595523Y-13665771D02*
X30500285Y-13618152D01*
X30500285Y-13618152D02*
X30357428Y-13618152D01*
X30357428Y-13618152D02*
X30262190Y-13665771D01*
X30262190Y-13665771D02*
X30214571Y-13713390D01*
X30214571Y-13713390D02*
X30166952Y-13808628D01*
X30166952Y-13808628D02*
X30166952Y-14094342D01*
X30166952Y-14094342D02*
X30214571Y-14189580D01*
X30214571Y-14189580D02*
X30262190Y-14237200D01*
X30262190Y-14237200D02*
X30357428Y-14284819D01*
X30357428Y-14284819D02*
X30500285Y-14284819D01*
X29309809Y-14237200D02*
X29405047Y-14284819D01*
X29405047Y-14284819D02*
X29595523Y-14284819D01*
X29595523Y-14284819D02*
X29690761Y-14237200D01*
X29690761Y-14237200D02*
X29738380Y-14189580D01*
X29738380Y-14189580D02*
X29785999Y-14094342D01*
X29785999Y-14094342D02*
X29785999Y-13808628D01*
X29785999Y-13808628D02*
X29738380Y-13713390D01*
X29738380Y-13713390D02*
X29690761Y-13665771D01*
X29690761Y-13665771D02*
X29595523Y-13618152D01*
X29595523Y-13618152D02*
X29405047Y-13618152D01*
X29405047Y-13618152D02*
X29309809Y-13665771D01*
X28881237Y-14284819D02*
X28881237Y-13284819D01*
X28785999Y-13903866D02*
X28500285Y-14284819D01*
X28500285Y-13618152D02*
X28881237Y-13999104D01*
X27690761Y-14237200D02*
X27785999Y-14284819D01*
X27785999Y-14284819D02*
X27976475Y-14284819D01*
X27976475Y-14284819D02*
X28071713Y-14237200D01*
X28071713Y-14237200D02*
X28119332Y-14141961D01*
X28119332Y-14141961D02*
X28119332Y-13761009D01*
X28119332Y-13761009D02*
X28071713Y-13665771D01*
X28071713Y-13665771D02*
X27976475Y-13618152D01*
X27976475Y-13618152D02*
X27785999Y-13618152D01*
X27785999Y-13618152D02*
X27690761Y-13665771D01*
X27690761Y-13665771D02*
X27643142Y-13761009D01*
X27643142Y-13761009D02*
X27643142Y-13856247D01*
X27643142Y-13856247D02*
X28119332Y-13951485D01*
X27357427Y-13618152D02*
X26976475Y-13618152D01*
X27214570Y-13284819D02*
X27214570Y-14141961D01*
X27214570Y-14141961D02*
X27166951Y-14237200D01*
X27166951Y-14237200D02*
X27071713Y-14284819D01*
X27071713Y-14284819D02*
X26976475Y-14284819D01*
X36263285Y-33287200D02*
X36168047Y-33334819D01*
X36168047Y-33334819D02*
X35977571Y-33334819D01*
X35977571Y-33334819D02*
X35882333Y-33287200D01*
X35882333Y-33287200D02*
X35834714Y-33191961D01*
X35834714Y-33191961D02*
X35834714Y-33144342D01*
X35834714Y-33144342D02*
X35882333Y-33049104D01*
X35882333Y-33049104D02*
X35977571Y-33001485D01*
X35977571Y-33001485D02*
X36120428Y-33001485D01*
X36120428Y-33001485D02*
X36215666Y-32953866D01*
X36215666Y-32953866D02*
X36263285Y-32858628D01*
X36263285Y-32858628D02*
X36263285Y-32811009D01*
X36263285Y-32811009D02*
X36215666Y-32715771D01*
X36215666Y-32715771D02*
X36120428Y-32668152D01*
X36120428Y-32668152D02*
X35977571Y-32668152D01*
X35977571Y-32668152D02*
X35882333Y-32715771D01*
X35263285Y-33334819D02*
X35358523Y-33287200D01*
X35358523Y-33287200D02*
X35406142Y-33239580D01*
X35406142Y-33239580D02*
X35453761Y-33144342D01*
X35453761Y-33144342D02*
X35453761Y-32858628D01*
X35453761Y-32858628D02*
X35406142Y-32763390D01*
X35406142Y-32763390D02*
X35358523Y-32715771D01*
X35358523Y-32715771D02*
X35263285Y-32668152D01*
X35263285Y-32668152D02*
X35120428Y-32668152D01*
X35120428Y-32668152D02*
X35025190Y-32715771D01*
X35025190Y-32715771D02*
X34977571Y-32763390D01*
X34977571Y-32763390D02*
X34929952Y-32858628D01*
X34929952Y-32858628D02*
X34929952Y-33144342D01*
X34929952Y-33144342D02*
X34977571Y-33239580D01*
X34977571Y-33239580D02*
X35025190Y-33287200D01*
X35025190Y-33287200D02*
X35120428Y-33334819D01*
X35120428Y-33334819D02*
X35263285Y-33334819D01*
X34072809Y-33287200D02*
X34168047Y-33334819D01*
X34168047Y-33334819D02*
X34358523Y-33334819D01*
X34358523Y-33334819D02*
X34453761Y-33287200D01*
X34453761Y-33287200D02*
X34501380Y-33239580D01*
X34501380Y-33239580D02*
X34548999Y-33144342D01*
X34548999Y-33144342D02*
X34548999Y-32858628D01*
X34548999Y-32858628D02*
X34501380Y-32763390D01*
X34501380Y-32763390D02*
X34453761Y-32715771D01*
X34453761Y-32715771D02*
X34358523Y-32668152D01*
X34358523Y-32668152D02*
X34168047Y-32668152D01*
X34168047Y-32668152D02*
X34072809Y-32715771D01*
X33644237Y-33334819D02*
X33644237Y-32334819D01*
X33548999Y-32953866D02*
X33263285Y-33334819D01*
X33263285Y-32668152D02*
X33644237Y-33049104D01*
X32453761Y-33287200D02*
X32548999Y-33334819D01*
X32548999Y-33334819D02*
X32739475Y-33334819D01*
X32739475Y-33334819D02*
X32834713Y-33287200D01*
X32834713Y-33287200D02*
X32882332Y-33191961D01*
X32882332Y-33191961D02*
X32882332Y-32811009D01*
X32882332Y-32811009D02*
X32834713Y-32715771D01*
X32834713Y-32715771D02*
X32739475Y-32668152D01*
X32739475Y-32668152D02*
X32548999Y-32668152D01*
X32548999Y-32668152D02*
X32453761Y-32715771D01*
X32453761Y-32715771D02*
X32406142Y-32811009D01*
X32406142Y-32811009D02*
X32406142Y-32906247D01*
X32406142Y-32906247D02*
X32882332Y-33001485D01*
X32120427Y-32668152D02*
X31739475Y-32668152D01*
X31977570Y-32334819D02*
X31977570Y-33191961D01*
X31977570Y-33191961D02*
X31929951Y-33287200D01*
X31929951Y-33287200D02*
X31834713Y-33334819D01*
X31834713Y-33334819D02*
X31739475Y-33334819D01*
X107700785Y-52337200D02*
X107605547Y-52384819D01*
X107605547Y-52384819D02*
X107415071Y-52384819D01*
X107415071Y-52384819D02*
X107319833Y-52337200D01*
X107319833Y-52337200D02*
X107272214Y-52241961D01*
X107272214Y-52241961D02*
X107272214Y-52194342D01*
X107272214Y-52194342D02*
X107319833Y-52099104D01*
X107319833Y-52099104D02*
X107415071Y-52051485D01*
X107415071Y-52051485D02*
X107557928Y-52051485D01*
X107557928Y-52051485D02*
X107653166Y-52003866D01*
X107653166Y-52003866D02*
X107700785Y-51908628D01*
X107700785Y-51908628D02*
X107700785Y-51861009D01*
X107700785Y-51861009D02*
X107653166Y-51765771D01*
X107653166Y-51765771D02*
X107557928Y-51718152D01*
X107557928Y-51718152D02*
X107415071Y-51718152D01*
X107415071Y-51718152D02*
X107319833Y-51765771D01*
X106700785Y-52384819D02*
X106796023Y-52337200D01*
X106796023Y-52337200D02*
X106843642Y-52289580D01*
X106843642Y-52289580D02*
X106891261Y-52194342D01*
X106891261Y-52194342D02*
X106891261Y-51908628D01*
X106891261Y-51908628D02*
X106843642Y-51813390D01*
X106843642Y-51813390D02*
X106796023Y-51765771D01*
X106796023Y-51765771D02*
X106700785Y-51718152D01*
X106700785Y-51718152D02*
X106557928Y-51718152D01*
X106557928Y-51718152D02*
X106462690Y-51765771D01*
X106462690Y-51765771D02*
X106415071Y-51813390D01*
X106415071Y-51813390D02*
X106367452Y-51908628D01*
X106367452Y-51908628D02*
X106367452Y-52194342D01*
X106367452Y-52194342D02*
X106415071Y-52289580D01*
X106415071Y-52289580D02*
X106462690Y-52337200D01*
X106462690Y-52337200D02*
X106557928Y-52384819D01*
X106557928Y-52384819D02*
X106700785Y-52384819D01*
X105510309Y-52337200D02*
X105605547Y-52384819D01*
X105605547Y-52384819D02*
X105796023Y-52384819D01*
X105796023Y-52384819D02*
X105891261Y-52337200D01*
X105891261Y-52337200D02*
X105938880Y-52289580D01*
X105938880Y-52289580D02*
X105986499Y-52194342D01*
X105986499Y-52194342D02*
X105986499Y-51908628D01*
X105986499Y-51908628D02*
X105938880Y-51813390D01*
X105938880Y-51813390D02*
X105891261Y-51765771D01*
X105891261Y-51765771D02*
X105796023Y-51718152D01*
X105796023Y-51718152D02*
X105605547Y-51718152D01*
X105605547Y-51718152D02*
X105510309Y-51765771D01*
X105081737Y-52384819D02*
X105081737Y-51384819D01*
X104986499Y-52003866D02*
X104700785Y-52384819D01*
X104700785Y-51718152D02*
X105081737Y-52099104D01*
X103891261Y-52337200D02*
X103986499Y-52384819D01*
X103986499Y-52384819D02*
X104176975Y-52384819D01*
X104176975Y-52384819D02*
X104272213Y-52337200D01*
X104272213Y-52337200D02*
X104319832Y-52241961D01*
X104319832Y-52241961D02*
X104319832Y-51861009D01*
X104319832Y-51861009D02*
X104272213Y-51765771D01*
X104272213Y-51765771D02*
X104176975Y-51718152D01*
X104176975Y-51718152D02*
X103986499Y-51718152D01*
X103986499Y-51718152D02*
X103891261Y-51765771D01*
X103891261Y-51765771D02*
X103843642Y-51861009D01*
X103843642Y-51861009D02*
X103843642Y-51956247D01*
X103843642Y-51956247D02*
X104319832Y-52051485D01*
X103557927Y-51718152D02*
X103176975Y-51718152D01*
X103415070Y-51384819D02*
X103415070Y-52241961D01*
X103415070Y-52241961D02*
X103367451Y-52337200D01*
X103367451Y-52337200D02*
X103272213Y-52384819D01*
X103272213Y-52384819D02*
X103176975Y-52384819D01*
X68792229Y13062217D02*
X68506514Y13557088D01*
X67783346Y12809652D02*
X68649371Y13309652D01*
X67188108Y13840635D02*
X67767167Y13790055D01*
X67473822Y13345764D02*
X68339847Y13845764D01*
X68339847Y13845764D02*
X68149371Y14175678D01*
X68149371Y14175678D02*
X68060513Y14234347D01*
X68060513Y14234347D02*
X67995464Y14251777D01*
X67995464Y14251777D02*
X67889176Y14245397D01*
X67889176Y14245397D02*
X67765458Y14173969D01*
X67765458Y14173969D02*
X67706789Y14085110D01*
X67706789Y14085110D02*
X67689359Y14020061D01*
X67689359Y14020061D02*
X67695739Y13913773D01*
X67695739Y13913773D02*
X67886215Y13583859D01*
X66688108Y14706661D02*
X67267167Y14656081D01*
X66973822Y14211789D02*
X67839847Y14711789D01*
X67839847Y14711789D02*
X67649371Y15041703D01*
X67649371Y15041703D02*
X67560513Y15100372D01*
X67560513Y15100372D02*
X67495464Y15117802D01*
X67495464Y15117802D02*
X67389176Y15111423D01*
X67389176Y15111423D02*
X67265458Y15039994D01*
X67265458Y15039994D02*
X67206789Y14951136D01*
X67206789Y14951136D02*
X67189359Y14886087D01*
X67189359Y14886087D02*
X67195739Y14779799D01*
X67195739Y14779799D02*
X67386215Y14449884D01*
X66538871Y15060385D02*
X66426203Y15160293D01*
X66426203Y15160293D02*
X66307155Y15366490D01*
X66307155Y15366490D02*
X66300776Y15472778D01*
X66300776Y15472778D02*
X66318205Y15537826D01*
X66318205Y15537826D02*
X66376874Y15626685D01*
X66376874Y15626685D02*
X66459353Y15674304D01*
X66459353Y15674304D02*
X66565641Y15680684D01*
X66565641Y15680684D02*
X66630690Y15663254D01*
X66630690Y15663254D02*
X66719548Y15604585D01*
X66719548Y15604585D02*
X66856026Y15463437D01*
X66856026Y15463437D02*
X66944884Y15404768D01*
X66944884Y15404768D02*
X67009933Y15387338D01*
X67009933Y15387338D02*
X67116221Y15393718D01*
X67116221Y15393718D02*
X67198700Y15441337D01*
X67198700Y15441337D02*
X67257369Y15530195D01*
X67257369Y15530195D02*
X67274799Y15595244D01*
X67274799Y15595244D02*
X67268419Y15701532D01*
X67268419Y15701532D02*
X67149371Y15907729D01*
X67149371Y15907729D02*
X67036703Y16007637D01*
X105772380Y-29834819D02*
X105772380Y-28834819D01*
X105772380Y-28834819D02*
X105534285Y-28834819D01*
X105534285Y-28834819D02*
X105391428Y-28882438D01*
X105391428Y-28882438D02*
X105296190Y-28977676D01*
X105296190Y-28977676D02*
X105248571Y-29072914D01*
X105248571Y-29072914D02*
X105200952Y-29263390D01*
X105200952Y-29263390D02*
X105200952Y-29406247D01*
X105200952Y-29406247D02*
X105248571Y-29596723D01*
X105248571Y-29596723D02*
X105296190Y-29691961D01*
X105296190Y-29691961D02*
X105391428Y-29787200D01*
X105391428Y-29787200D02*
X105534285Y-29834819D01*
X105534285Y-29834819D02*
X105772380Y-29834819D01*
X104772380Y-29834819D02*
X104772380Y-28834819D01*
X104296190Y-29168152D02*
X104296190Y-29834819D01*
X104296190Y-29263390D02*
X104248571Y-29215771D01*
X104248571Y-29215771D02*
X104153333Y-29168152D01*
X104153333Y-29168152D02*
X104010476Y-29168152D01*
X104010476Y-29168152D02*
X103915238Y-29215771D01*
X103915238Y-29215771D02*
X103867619Y-29311009D01*
X103867619Y-29311009D02*
X103867619Y-29834819D01*
X95993809Y-28344819D02*
X95993809Y-27344819D01*
X95993809Y-27344819D02*
X95755714Y-27344819D01*
X95755714Y-27344819D02*
X95612857Y-27392438D01*
X95612857Y-27392438D02*
X95517619Y-27487676D01*
X95517619Y-27487676D02*
X95470000Y-27582914D01*
X95470000Y-27582914D02*
X95422381Y-27773390D01*
X95422381Y-27773390D02*
X95422381Y-27916247D01*
X95422381Y-27916247D02*
X95470000Y-28106723D01*
X95470000Y-28106723D02*
X95517619Y-28201961D01*
X95517619Y-28201961D02*
X95612857Y-28297200D01*
X95612857Y-28297200D02*
X95755714Y-28344819D01*
X95755714Y-28344819D02*
X95993809Y-28344819D01*
X94803333Y-27344819D02*
X94612857Y-27344819D01*
X94612857Y-27344819D02*
X94517619Y-27392438D01*
X94517619Y-27392438D02*
X94422381Y-27487676D01*
X94422381Y-27487676D02*
X94374762Y-27678152D01*
X94374762Y-27678152D02*
X94374762Y-28011485D01*
X94374762Y-28011485D02*
X94422381Y-28201961D01*
X94422381Y-28201961D02*
X94517619Y-28297200D01*
X94517619Y-28297200D02*
X94612857Y-28344819D01*
X94612857Y-28344819D02*
X94803333Y-28344819D01*
X94803333Y-28344819D02*
X94898571Y-28297200D01*
X94898571Y-28297200D02*
X94993809Y-28201961D01*
X94993809Y-28201961D02*
X95041428Y-28011485D01*
X95041428Y-28011485D02*
X95041428Y-27678152D01*
X95041428Y-27678152D02*
X94993809Y-27487676D01*
X94993809Y-27487676D02*
X94898571Y-27392438D01*
X94898571Y-27392438D02*
X94803333Y-27344819D01*
X93517619Y-27678152D02*
X93517619Y-28344819D01*
X93946190Y-27678152D02*
X93946190Y-28201961D01*
X93946190Y-28201961D02*
X93898571Y-28297200D01*
X93898571Y-28297200D02*
X93803333Y-28344819D01*
X93803333Y-28344819D02*
X93660476Y-28344819D01*
X93660476Y-28344819D02*
X93565238Y-28297200D01*
X93565238Y-28297200D02*
X93517619Y-28249580D01*
X93184285Y-27678152D02*
X92803333Y-27678152D01*
X93041428Y-27344819D02*
X93041428Y-28201961D01*
X93041428Y-28201961D02*
X92993809Y-28297200D01*
X92993809Y-28297200D02*
X92898571Y-28344819D01*
X92898571Y-28344819D02*
X92803333Y-28344819D01*
X105662857Y-27392438D02*
X105758095Y-27344819D01*
X105758095Y-27344819D02*
X105900952Y-27344819D01*
X105900952Y-27344819D02*
X106043809Y-27392438D01*
X106043809Y-27392438D02*
X106139047Y-27487676D01*
X106139047Y-27487676D02*
X106186666Y-27582914D01*
X106186666Y-27582914D02*
X106234285Y-27773390D01*
X106234285Y-27773390D02*
X106234285Y-27916247D01*
X106234285Y-27916247D02*
X106186666Y-28106723D01*
X106186666Y-28106723D02*
X106139047Y-28201961D01*
X106139047Y-28201961D02*
X106043809Y-28297200D01*
X106043809Y-28297200D02*
X105900952Y-28344819D01*
X105900952Y-28344819D02*
X105805714Y-28344819D01*
X105805714Y-28344819D02*
X105662857Y-28297200D01*
X105662857Y-28297200D02*
X105615238Y-28249580D01*
X105615238Y-28249580D02*
X105615238Y-27916247D01*
X105615238Y-27916247D02*
X105805714Y-27916247D01*
X105186666Y-27678152D02*
X105186666Y-28344819D01*
X105186666Y-27773390D02*
X105139047Y-27725771D01*
X105139047Y-27725771D02*
X105043809Y-27678152D01*
X105043809Y-27678152D02*
X104900952Y-27678152D01*
X104900952Y-27678152D02*
X104805714Y-27725771D01*
X104805714Y-27725771D02*
X104758095Y-27821009D01*
X104758095Y-27821009D02*
X104758095Y-28344819D01*
X103853333Y-28344819D02*
X103853333Y-27344819D01*
X103853333Y-28297200D02*
X103948571Y-28344819D01*
X103948571Y-28344819D02*
X104139047Y-28344819D01*
X104139047Y-28344819D02*
X104234285Y-28297200D01*
X104234285Y-28297200D02*
X104281904Y-28249580D01*
X104281904Y-28249580D02*
X104329523Y-28154342D01*
X104329523Y-28154342D02*
X104329523Y-27868628D01*
X104329523Y-27868628D02*
X104281904Y-27773390D01*
X104281904Y-27773390D02*
X104234285Y-27725771D01*
X104234285Y-27725771D02*
X104139047Y-27678152D01*
X104139047Y-27678152D02*
X103948571Y-27678152D01*
X103948571Y-27678152D02*
X103853333Y-27725771D01*
X103115238Y-31294819D02*
X103591428Y-31294819D01*
X103591428Y-31294819D02*
X103591428Y-30294819D01*
X102781904Y-31294819D02*
X102781904Y-30628152D01*
X102781904Y-30294819D02*
X102829523Y-30342438D01*
X102829523Y-30342438D02*
X102781904Y-30390057D01*
X102781904Y-30390057D02*
X102734285Y-30342438D01*
X102734285Y-30342438D02*
X102781904Y-30294819D01*
X102781904Y-30294819D02*
X102781904Y-30390057D01*
X101877143Y-30628152D02*
X101877143Y-31437676D01*
X101877143Y-31437676D02*
X101924762Y-31532914D01*
X101924762Y-31532914D02*
X101972381Y-31580533D01*
X101972381Y-31580533D02*
X102067619Y-31628152D01*
X102067619Y-31628152D02*
X102210476Y-31628152D01*
X102210476Y-31628152D02*
X102305714Y-31580533D01*
X101877143Y-31247200D02*
X101972381Y-31294819D01*
X101972381Y-31294819D02*
X102162857Y-31294819D01*
X102162857Y-31294819D02*
X102258095Y-31247200D01*
X102258095Y-31247200D02*
X102305714Y-31199580D01*
X102305714Y-31199580D02*
X102353333Y-31104342D01*
X102353333Y-31104342D02*
X102353333Y-30818628D01*
X102353333Y-30818628D02*
X102305714Y-30723390D01*
X102305714Y-30723390D02*
X102258095Y-30675771D01*
X102258095Y-30675771D02*
X102162857Y-30628152D01*
X102162857Y-30628152D02*
X101972381Y-30628152D01*
X101972381Y-30628152D02*
X101877143Y-30675771D01*
X101400952Y-31294819D02*
X101400952Y-30294819D01*
X100972381Y-31294819D02*
X100972381Y-30771009D01*
X100972381Y-30771009D02*
X101020000Y-30675771D01*
X101020000Y-30675771D02*
X101115238Y-30628152D01*
X101115238Y-30628152D02*
X101258095Y-30628152D01*
X101258095Y-30628152D02*
X101353333Y-30675771D01*
X101353333Y-30675771D02*
X101400952Y-30723390D01*
X100639047Y-30628152D02*
X100258095Y-30628152D01*
X100496190Y-30294819D02*
X100496190Y-31151961D01*
X100496190Y-31151961D02*
X100448571Y-31247200D01*
X100448571Y-31247200D02*
X100353333Y-31294819D01*
X100353333Y-31294819D02*
X100258095Y-31294819D01*
X99210475Y-31247200D02*
X99067618Y-31294819D01*
X99067618Y-31294819D02*
X98829523Y-31294819D01*
X98829523Y-31294819D02*
X98734285Y-31247200D01*
X98734285Y-31247200D02*
X98686666Y-31199580D01*
X98686666Y-31199580D02*
X98639047Y-31104342D01*
X98639047Y-31104342D02*
X98639047Y-31009104D01*
X98639047Y-31009104D02*
X98686666Y-30913866D01*
X98686666Y-30913866D02*
X98734285Y-30866247D01*
X98734285Y-30866247D02*
X98829523Y-30818628D01*
X98829523Y-30818628D02*
X99019999Y-30771009D01*
X99019999Y-30771009D02*
X99115237Y-30723390D01*
X99115237Y-30723390D02*
X99162856Y-30675771D01*
X99162856Y-30675771D02*
X99210475Y-30580533D01*
X99210475Y-30580533D02*
X99210475Y-30485295D01*
X99210475Y-30485295D02*
X99162856Y-30390057D01*
X99162856Y-30390057D02*
X99115237Y-30342438D01*
X99115237Y-30342438D02*
X99019999Y-30294819D01*
X99019999Y-30294819D02*
X98781904Y-30294819D01*
X98781904Y-30294819D02*
X98639047Y-30342438D01*
X98210475Y-31294819D02*
X98210475Y-30628152D01*
X98210475Y-30294819D02*
X98258094Y-30342438D01*
X98258094Y-30342438D02*
X98210475Y-30390057D01*
X98210475Y-30390057D02*
X98162856Y-30342438D01*
X98162856Y-30342438D02*
X98210475Y-30294819D01*
X98210475Y-30294819D02*
X98210475Y-30390057D01*
X97305714Y-31294819D02*
X97305714Y-30294819D01*
X97305714Y-31247200D02*
X97400952Y-31294819D01*
X97400952Y-31294819D02*
X97591428Y-31294819D01*
X97591428Y-31294819D02*
X97686666Y-31247200D01*
X97686666Y-31247200D02*
X97734285Y-31199580D01*
X97734285Y-31199580D02*
X97781904Y-31104342D01*
X97781904Y-31104342D02*
X97781904Y-30818628D01*
X97781904Y-30818628D02*
X97734285Y-30723390D01*
X97734285Y-30723390D02*
X97686666Y-30675771D01*
X97686666Y-30675771D02*
X97591428Y-30628152D01*
X97591428Y-30628152D02*
X97400952Y-30628152D01*
X97400952Y-30628152D02*
X97305714Y-30675771D01*
X96448571Y-31247200D02*
X96543809Y-31294819D01*
X96543809Y-31294819D02*
X96734285Y-31294819D01*
X96734285Y-31294819D02*
X96829523Y-31247200D01*
X96829523Y-31247200D02*
X96877142Y-31151961D01*
X96877142Y-31151961D02*
X96877142Y-30771009D01*
X96877142Y-30771009D02*
X96829523Y-30675771D01*
X96829523Y-30675771D02*
X96734285Y-30628152D01*
X96734285Y-30628152D02*
X96543809Y-30628152D01*
X96543809Y-30628152D02*
X96448571Y-30675771D01*
X96448571Y-30675771D02*
X96400952Y-30771009D01*
X96400952Y-30771009D02*
X96400952Y-30866247D01*
X96400952Y-30866247D02*
X96877142Y-30961485D01*
X96203332Y-28794819D02*
X95869999Y-29794819D01*
X95869999Y-29794819D02*
X95536666Y-28794819D01*
X94631904Y-29699580D02*
X94679523Y-29747200D01*
X94679523Y-29747200D02*
X94822380Y-29794819D01*
X94822380Y-29794819D02*
X94917618Y-29794819D01*
X94917618Y-29794819D02*
X95060475Y-29747200D01*
X95060475Y-29747200D02*
X95155713Y-29651961D01*
X95155713Y-29651961D02*
X95203332Y-29556723D01*
X95203332Y-29556723D02*
X95250951Y-29366247D01*
X95250951Y-29366247D02*
X95250951Y-29223390D01*
X95250951Y-29223390D02*
X95203332Y-29032914D01*
X95203332Y-29032914D02*
X95155713Y-28937676D01*
X95155713Y-28937676D02*
X95060475Y-28842438D01*
X95060475Y-28842438D02*
X94917618Y-28794819D01*
X94917618Y-28794819D02*
X94822380Y-28794819D01*
X94822380Y-28794819D02*
X94679523Y-28842438D01*
X94679523Y-28842438D02*
X94631904Y-28890057D01*
X93631904Y-29699580D02*
X93679523Y-29747200D01*
X93679523Y-29747200D02*
X93822380Y-29794819D01*
X93822380Y-29794819D02*
X93917618Y-29794819D01*
X93917618Y-29794819D02*
X94060475Y-29747200D01*
X94060475Y-29747200D02*
X94155713Y-29651961D01*
X94155713Y-29651961D02*
X94203332Y-29556723D01*
X94203332Y-29556723D02*
X94250951Y-29366247D01*
X94250951Y-29366247D02*
X94250951Y-29223390D01*
X94250951Y-29223390D02*
X94203332Y-29032914D01*
X94203332Y-29032914D02*
X94155713Y-28937676D01*
X94155713Y-28937676D02*
X94060475Y-28842438D01*
X94060475Y-28842438D02*
X93917618Y-28794819D01*
X93917618Y-28794819D02*
X93822380Y-28794819D01*
X93822380Y-28794819D02*
X93679523Y-28842438D01*
X93679523Y-28842438D02*
X93631904Y-28890057D01*
X41403332Y-28784819D02*
X41069999Y-29784819D01*
X41069999Y-29784819D02*
X40736666Y-28784819D01*
X39831904Y-29689580D02*
X39879523Y-29737200D01*
X39879523Y-29737200D02*
X40022380Y-29784819D01*
X40022380Y-29784819D02*
X40117618Y-29784819D01*
X40117618Y-29784819D02*
X40260475Y-29737200D01*
X40260475Y-29737200D02*
X40355713Y-29641961D01*
X40355713Y-29641961D02*
X40403332Y-29546723D01*
X40403332Y-29546723D02*
X40450951Y-29356247D01*
X40450951Y-29356247D02*
X40450951Y-29213390D01*
X40450951Y-29213390D02*
X40403332Y-29022914D01*
X40403332Y-29022914D02*
X40355713Y-28927676D01*
X40355713Y-28927676D02*
X40260475Y-28832438D01*
X40260475Y-28832438D02*
X40117618Y-28784819D01*
X40117618Y-28784819D02*
X40022380Y-28784819D01*
X40022380Y-28784819D02*
X39879523Y-28832438D01*
X39879523Y-28832438D02*
X39831904Y-28880057D01*
X38831904Y-29689580D02*
X38879523Y-29737200D01*
X38879523Y-29737200D02*
X39022380Y-29784819D01*
X39022380Y-29784819D02*
X39117618Y-29784819D01*
X39117618Y-29784819D02*
X39260475Y-29737200D01*
X39260475Y-29737200D02*
X39355713Y-29641961D01*
X39355713Y-29641961D02*
X39403332Y-29546723D01*
X39403332Y-29546723D02*
X39450951Y-29356247D01*
X39450951Y-29356247D02*
X39450951Y-29213390D01*
X39450951Y-29213390D02*
X39403332Y-29022914D01*
X39403332Y-29022914D02*
X39355713Y-28927676D01*
X39355713Y-28927676D02*
X39260475Y-28832438D01*
X39260475Y-28832438D02*
X39117618Y-28784819D01*
X39117618Y-28784819D02*
X39022380Y-28784819D01*
X39022380Y-28784819D02*
X38879523Y-28832438D01*
X38879523Y-28832438D02*
X38831904Y-28880057D01*
X41193809Y-28334819D02*
X41193809Y-27334819D01*
X41193809Y-27334819D02*
X40955714Y-27334819D01*
X40955714Y-27334819D02*
X40812857Y-27382438D01*
X40812857Y-27382438D02*
X40717619Y-27477676D01*
X40717619Y-27477676D02*
X40670000Y-27572914D01*
X40670000Y-27572914D02*
X40622381Y-27763390D01*
X40622381Y-27763390D02*
X40622381Y-27906247D01*
X40622381Y-27906247D02*
X40670000Y-28096723D01*
X40670000Y-28096723D02*
X40717619Y-28191961D01*
X40717619Y-28191961D02*
X40812857Y-28287200D01*
X40812857Y-28287200D02*
X40955714Y-28334819D01*
X40955714Y-28334819D02*
X41193809Y-28334819D01*
X40003333Y-27334819D02*
X39812857Y-27334819D01*
X39812857Y-27334819D02*
X39717619Y-27382438D01*
X39717619Y-27382438D02*
X39622381Y-27477676D01*
X39622381Y-27477676D02*
X39574762Y-27668152D01*
X39574762Y-27668152D02*
X39574762Y-28001485D01*
X39574762Y-28001485D02*
X39622381Y-28191961D01*
X39622381Y-28191961D02*
X39717619Y-28287200D01*
X39717619Y-28287200D02*
X39812857Y-28334819D01*
X39812857Y-28334819D02*
X40003333Y-28334819D01*
X40003333Y-28334819D02*
X40098571Y-28287200D01*
X40098571Y-28287200D02*
X40193809Y-28191961D01*
X40193809Y-28191961D02*
X40241428Y-28001485D01*
X40241428Y-28001485D02*
X40241428Y-27668152D01*
X40241428Y-27668152D02*
X40193809Y-27477676D01*
X40193809Y-27477676D02*
X40098571Y-27382438D01*
X40098571Y-27382438D02*
X40003333Y-27334819D01*
X38717619Y-27668152D02*
X38717619Y-28334819D01*
X39146190Y-27668152D02*
X39146190Y-28191961D01*
X39146190Y-28191961D02*
X39098571Y-28287200D01*
X39098571Y-28287200D02*
X39003333Y-28334819D01*
X39003333Y-28334819D02*
X38860476Y-28334819D01*
X38860476Y-28334819D02*
X38765238Y-28287200D01*
X38765238Y-28287200D02*
X38717619Y-28239580D01*
X38384285Y-27668152D02*
X38003333Y-27668152D01*
X38241428Y-27334819D02*
X38241428Y-28191961D01*
X38241428Y-28191961D02*
X38193809Y-28287200D01*
X38193809Y-28287200D02*
X38098571Y-28334819D01*
X38098571Y-28334819D02*
X38003333Y-28334819D01*
X50862857Y-27382438D02*
X50958095Y-27334819D01*
X50958095Y-27334819D02*
X51100952Y-27334819D01*
X51100952Y-27334819D02*
X51243809Y-27382438D01*
X51243809Y-27382438D02*
X51339047Y-27477676D01*
X51339047Y-27477676D02*
X51386666Y-27572914D01*
X51386666Y-27572914D02*
X51434285Y-27763390D01*
X51434285Y-27763390D02*
X51434285Y-27906247D01*
X51434285Y-27906247D02*
X51386666Y-28096723D01*
X51386666Y-28096723D02*
X51339047Y-28191961D01*
X51339047Y-28191961D02*
X51243809Y-28287200D01*
X51243809Y-28287200D02*
X51100952Y-28334819D01*
X51100952Y-28334819D02*
X51005714Y-28334819D01*
X51005714Y-28334819D02*
X50862857Y-28287200D01*
X50862857Y-28287200D02*
X50815238Y-28239580D01*
X50815238Y-28239580D02*
X50815238Y-27906247D01*
X50815238Y-27906247D02*
X51005714Y-27906247D01*
X50386666Y-27668152D02*
X50386666Y-28334819D01*
X50386666Y-27763390D02*
X50339047Y-27715771D01*
X50339047Y-27715771D02*
X50243809Y-27668152D01*
X50243809Y-27668152D02*
X50100952Y-27668152D01*
X50100952Y-27668152D02*
X50005714Y-27715771D01*
X50005714Y-27715771D02*
X49958095Y-27811009D01*
X49958095Y-27811009D02*
X49958095Y-28334819D01*
X49053333Y-28334819D02*
X49053333Y-27334819D01*
X49053333Y-28287200D02*
X49148571Y-28334819D01*
X49148571Y-28334819D02*
X49339047Y-28334819D01*
X49339047Y-28334819D02*
X49434285Y-28287200D01*
X49434285Y-28287200D02*
X49481904Y-28239580D01*
X49481904Y-28239580D02*
X49529523Y-28144342D01*
X49529523Y-28144342D02*
X49529523Y-27858628D01*
X49529523Y-27858628D02*
X49481904Y-27763390D01*
X49481904Y-27763390D02*
X49434285Y-27715771D01*
X49434285Y-27715771D02*
X49339047Y-27668152D01*
X49339047Y-27668152D02*
X49148571Y-27668152D01*
X49148571Y-27668152D02*
X49053333Y-27715771D01*
X48315238Y-31284819D02*
X48791428Y-31284819D01*
X48791428Y-31284819D02*
X48791428Y-30284819D01*
X47981904Y-31284819D02*
X47981904Y-30618152D01*
X47981904Y-30284819D02*
X48029523Y-30332438D01*
X48029523Y-30332438D02*
X47981904Y-30380057D01*
X47981904Y-30380057D02*
X47934285Y-30332438D01*
X47934285Y-30332438D02*
X47981904Y-30284819D01*
X47981904Y-30284819D02*
X47981904Y-30380057D01*
X47077143Y-30618152D02*
X47077143Y-31427676D01*
X47077143Y-31427676D02*
X47124762Y-31522914D01*
X47124762Y-31522914D02*
X47172381Y-31570533D01*
X47172381Y-31570533D02*
X47267619Y-31618152D01*
X47267619Y-31618152D02*
X47410476Y-31618152D01*
X47410476Y-31618152D02*
X47505714Y-31570533D01*
X47077143Y-31237200D02*
X47172381Y-31284819D01*
X47172381Y-31284819D02*
X47362857Y-31284819D01*
X47362857Y-31284819D02*
X47458095Y-31237200D01*
X47458095Y-31237200D02*
X47505714Y-31189580D01*
X47505714Y-31189580D02*
X47553333Y-31094342D01*
X47553333Y-31094342D02*
X47553333Y-30808628D01*
X47553333Y-30808628D02*
X47505714Y-30713390D01*
X47505714Y-30713390D02*
X47458095Y-30665771D01*
X47458095Y-30665771D02*
X47362857Y-30618152D01*
X47362857Y-30618152D02*
X47172381Y-30618152D01*
X47172381Y-30618152D02*
X47077143Y-30665771D01*
X46600952Y-31284819D02*
X46600952Y-30284819D01*
X46172381Y-31284819D02*
X46172381Y-30761009D01*
X46172381Y-30761009D02*
X46220000Y-30665771D01*
X46220000Y-30665771D02*
X46315238Y-30618152D01*
X46315238Y-30618152D02*
X46458095Y-30618152D01*
X46458095Y-30618152D02*
X46553333Y-30665771D01*
X46553333Y-30665771D02*
X46600952Y-30713390D01*
X45839047Y-30618152D02*
X45458095Y-30618152D01*
X45696190Y-30284819D02*
X45696190Y-31141961D01*
X45696190Y-31141961D02*
X45648571Y-31237200D01*
X45648571Y-31237200D02*
X45553333Y-31284819D01*
X45553333Y-31284819D02*
X45458095Y-31284819D01*
X44410475Y-31237200D02*
X44267618Y-31284819D01*
X44267618Y-31284819D02*
X44029523Y-31284819D01*
X44029523Y-31284819D02*
X43934285Y-31237200D01*
X43934285Y-31237200D02*
X43886666Y-31189580D01*
X43886666Y-31189580D02*
X43839047Y-31094342D01*
X43839047Y-31094342D02*
X43839047Y-30999104D01*
X43839047Y-30999104D02*
X43886666Y-30903866D01*
X43886666Y-30903866D02*
X43934285Y-30856247D01*
X43934285Y-30856247D02*
X44029523Y-30808628D01*
X44029523Y-30808628D02*
X44219999Y-30761009D01*
X44219999Y-30761009D02*
X44315237Y-30713390D01*
X44315237Y-30713390D02*
X44362856Y-30665771D01*
X44362856Y-30665771D02*
X44410475Y-30570533D01*
X44410475Y-30570533D02*
X44410475Y-30475295D01*
X44410475Y-30475295D02*
X44362856Y-30380057D01*
X44362856Y-30380057D02*
X44315237Y-30332438D01*
X44315237Y-30332438D02*
X44219999Y-30284819D01*
X44219999Y-30284819D02*
X43981904Y-30284819D01*
X43981904Y-30284819D02*
X43839047Y-30332438D01*
X43410475Y-31284819D02*
X43410475Y-30618152D01*
X43410475Y-30284819D02*
X43458094Y-30332438D01*
X43458094Y-30332438D02*
X43410475Y-30380057D01*
X43410475Y-30380057D02*
X43362856Y-30332438D01*
X43362856Y-30332438D02*
X43410475Y-30284819D01*
X43410475Y-30284819D02*
X43410475Y-30380057D01*
X42505714Y-31284819D02*
X42505714Y-30284819D01*
X42505714Y-31237200D02*
X42600952Y-31284819D01*
X42600952Y-31284819D02*
X42791428Y-31284819D01*
X42791428Y-31284819D02*
X42886666Y-31237200D01*
X42886666Y-31237200D02*
X42934285Y-31189580D01*
X42934285Y-31189580D02*
X42981904Y-31094342D01*
X42981904Y-31094342D02*
X42981904Y-30808628D01*
X42981904Y-30808628D02*
X42934285Y-30713390D01*
X42934285Y-30713390D02*
X42886666Y-30665771D01*
X42886666Y-30665771D02*
X42791428Y-30618152D01*
X42791428Y-30618152D02*
X42600952Y-30618152D01*
X42600952Y-30618152D02*
X42505714Y-30665771D01*
X41648571Y-31237200D02*
X41743809Y-31284819D01*
X41743809Y-31284819D02*
X41934285Y-31284819D01*
X41934285Y-31284819D02*
X42029523Y-31237200D01*
X42029523Y-31237200D02*
X42077142Y-31141961D01*
X42077142Y-31141961D02*
X42077142Y-30761009D01*
X42077142Y-30761009D02*
X42029523Y-30665771D01*
X42029523Y-30665771D02*
X41934285Y-30618152D01*
X41934285Y-30618152D02*
X41743809Y-30618152D01*
X41743809Y-30618152D02*
X41648571Y-30665771D01*
X41648571Y-30665771D02*
X41600952Y-30761009D01*
X41600952Y-30761009D02*
X41600952Y-30856247D01*
X41600952Y-30856247D02*
X42077142Y-30951485D01*
X50972380Y-29824819D02*
X50972380Y-28824819D01*
X50972380Y-28824819D02*
X50734285Y-28824819D01*
X50734285Y-28824819D02*
X50591428Y-28872438D01*
X50591428Y-28872438D02*
X50496190Y-28967676D01*
X50496190Y-28967676D02*
X50448571Y-29062914D01*
X50448571Y-29062914D02*
X50400952Y-29253390D01*
X50400952Y-29253390D02*
X50400952Y-29396247D01*
X50400952Y-29396247D02*
X50448571Y-29586723D01*
X50448571Y-29586723D02*
X50496190Y-29681961D01*
X50496190Y-29681961D02*
X50591428Y-29777200D01*
X50591428Y-29777200D02*
X50734285Y-29824819D01*
X50734285Y-29824819D02*
X50972380Y-29824819D01*
X49972380Y-29824819D02*
X49972380Y-28824819D01*
X49496190Y-29158152D02*
X49496190Y-29824819D01*
X49496190Y-29253390D02*
X49448571Y-29205771D01*
X49448571Y-29205771D02*
X49353333Y-29158152D01*
X49353333Y-29158152D02*
X49210476Y-29158152D01*
X49210476Y-29158152D02*
X49115238Y-29205771D01*
X49115238Y-29205771D02*
X49067619Y-29301009D01*
X49067619Y-29301009D02*
X49067619Y-29824819D01*
X72995208Y11392305D02*
X73045788Y11971365D01*
X73490080Y11678020D02*
X72990080Y12544045D01*
X72990080Y12544045D02*
X72660165Y12353569D01*
X72660165Y12353569D02*
X72601496Y12264710D01*
X72601496Y12264710D02*
X72584066Y12199662D01*
X72584066Y12199662D02*
X72590446Y12093373D01*
X72590446Y12093373D02*
X72661875Y11969656D01*
X72661875Y11969656D02*
X72750733Y11910986D01*
X72750733Y11910986D02*
X72815782Y11893557D01*
X72815782Y11893557D02*
X72922070Y11899936D01*
X72922070Y11899936D02*
X73251984Y12090413D01*
X72362150Y11631652D02*
X72073474Y11464985D01*
X72211661Y10939924D02*
X72624054Y11178020D01*
X72624054Y11178020D02*
X72124054Y12044045D01*
X72124054Y12044045D02*
X71711661Y11805950D01*
X71857937Y10790687D02*
X71758029Y10678019D01*
X71758029Y10678019D02*
X71551832Y10558972D01*
X71551832Y10558972D02*
X71445544Y10552592D01*
X71445544Y10552592D02*
X71380495Y10570022D01*
X71380495Y10570022D02*
X71291637Y10628691D01*
X71291637Y10628691D02*
X71244018Y10711170D01*
X71244018Y10711170D02*
X71237638Y10817458D01*
X71237638Y10817458D02*
X71255068Y10882507D01*
X71255068Y10882507D02*
X71313737Y10971365D01*
X71313737Y10971365D02*
X71454885Y11107842D01*
X71454885Y11107842D02*
X71513554Y11196701D01*
X71513554Y11196701D02*
X71530984Y11261749D01*
X71530984Y11261749D02*
X71524604Y11368038D01*
X71524604Y11368038D02*
X71476985Y11450516D01*
X71476985Y11450516D02*
X71388126Y11509185D01*
X71388126Y11509185D02*
X71323078Y11526615D01*
X71323078Y11526615D02*
X71216789Y11520235D01*
X71216789Y11520235D02*
X71010593Y11401188D01*
X71010593Y11401188D02*
X70910685Y11288520D01*
X70753817Y10703080D02*
X70465141Y10536414D01*
X70603328Y10011353D02*
X71015721Y10249448D01*
X71015721Y10249448D02*
X70515721Y11115473D01*
X70515721Y11115473D02*
X70103328Y10877378D01*
X69855892Y10734521D02*
X69361021Y10448807D01*
X70108456Y9725638D02*
X69608456Y10591664D01*
X74595238Y-31304819D02*
X75071428Y-31304819D01*
X75071428Y-31304819D02*
X75071428Y-30304819D01*
X74261904Y-31304819D02*
X74261904Y-30638152D01*
X74261904Y-30304819D02*
X74309523Y-30352438D01*
X74309523Y-30352438D02*
X74261904Y-30400057D01*
X74261904Y-30400057D02*
X74214285Y-30352438D01*
X74214285Y-30352438D02*
X74261904Y-30304819D01*
X74261904Y-30304819D02*
X74261904Y-30400057D01*
X73357143Y-30638152D02*
X73357143Y-31447676D01*
X73357143Y-31447676D02*
X73404762Y-31542914D01*
X73404762Y-31542914D02*
X73452381Y-31590533D01*
X73452381Y-31590533D02*
X73547619Y-31638152D01*
X73547619Y-31638152D02*
X73690476Y-31638152D01*
X73690476Y-31638152D02*
X73785714Y-31590533D01*
X73357143Y-31257200D02*
X73452381Y-31304819D01*
X73452381Y-31304819D02*
X73642857Y-31304819D01*
X73642857Y-31304819D02*
X73738095Y-31257200D01*
X73738095Y-31257200D02*
X73785714Y-31209580D01*
X73785714Y-31209580D02*
X73833333Y-31114342D01*
X73833333Y-31114342D02*
X73833333Y-30828628D01*
X73833333Y-30828628D02*
X73785714Y-30733390D01*
X73785714Y-30733390D02*
X73738095Y-30685771D01*
X73738095Y-30685771D02*
X73642857Y-30638152D01*
X73642857Y-30638152D02*
X73452381Y-30638152D01*
X73452381Y-30638152D02*
X73357143Y-30685771D01*
X72880952Y-31304819D02*
X72880952Y-30304819D01*
X72452381Y-31304819D02*
X72452381Y-30781009D01*
X72452381Y-30781009D02*
X72500000Y-30685771D01*
X72500000Y-30685771D02*
X72595238Y-30638152D01*
X72595238Y-30638152D02*
X72738095Y-30638152D01*
X72738095Y-30638152D02*
X72833333Y-30685771D01*
X72833333Y-30685771D02*
X72880952Y-30733390D01*
X72119047Y-30638152D02*
X71738095Y-30638152D01*
X71976190Y-30304819D02*
X71976190Y-31161961D01*
X71976190Y-31161961D02*
X71928571Y-31257200D01*
X71928571Y-31257200D02*
X71833333Y-31304819D01*
X71833333Y-31304819D02*
X71738095Y-31304819D01*
X70690475Y-31257200D02*
X70547618Y-31304819D01*
X70547618Y-31304819D02*
X70309523Y-31304819D01*
X70309523Y-31304819D02*
X70214285Y-31257200D01*
X70214285Y-31257200D02*
X70166666Y-31209580D01*
X70166666Y-31209580D02*
X70119047Y-31114342D01*
X70119047Y-31114342D02*
X70119047Y-31019104D01*
X70119047Y-31019104D02*
X70166666Y-30923866D01*
X70166666Y-30923866D02*
X70214285Y-30876247D01*
X70214285Y-30876247D02*
X70309523Y-30828628D01*
X70309523Y-30828628D02*
X70499999Y-30781009D01*
X70499999Y-30781009D02*
X70595237Y-30733390D01*
X70595237Y-30733390D02*
X70642856Y-30685771D01*
X70642856Y-30685771D02*
X70690475Y-30590533D01*
X70690475Y-30590533D02*
X70690475Y-30495295D01*
X70690475Y-30495295D02*
X70642856Y-30400057D01*
X70642856Y-30400057D02*
X70595237Y-30352438D01*
X70595237Y-30352438D02*
X70499999Y-30304819D01*
X70499999Y-30304819D02*
X70261904Y-30304819D01*
X70261904Y-30304819D02*
X70119047Y-30352438D01*
X69690475Y-31304819D02*
X69690475Y-30638152D01*
X69690475Y-30304819D02*
X69738094Y-30352438D01*
X69738094Y-30352438D02*
X69690475Y-30400057D01*
X69690475Y-30400057D02*
X69642856Y-30352438D01*
X69642856Y-30352438D02*
X69690475Y-30304819D01*
X69690475Y-30304819D02*
X69690475Y-30400057D01*
X68785714Y-31304819D02*
X68785714Y-30304819D01*
X68785714Y-31257200D02*
X68880952Y-31304819D01*
X68880952Y-31304819D02*
X69071428Y-31304819D01*
X69071428Y-31304819D02*
X69166666Y-31257200D01*
X69166666Y-31257200D02*
X69214285Y-31209580D01*
X69214285Y-31209580D02*
X69261904Y-31114342D01*
X69261904Y-31114342D02*
X69261904Y-30828628D01*
X69261904Y-30828628D02*
X69214285Y-30733390D01*
X69214285Y-30733390D02*
X69166666Y-30685771D01*
X69166666Y-30685771D02*
X69071428Y-30638152D01*
X69071428Y-30638152D02*
X68880952Y-30638152D01*
X68880952Y-30638152D02*
X68785714Y-30685771D01*
X67928571Y-31257200D02*
X68023809Y-31304819D01*
X68023809Y-31304819D02*
X68214285Y-31304819D01*
X68214285Y-31304819D02*
X68309523Y-31257200D01*
X68309523Y-31257200D02*
X68357142Y-31161961D01*
X68357142Y-31161961D02*
X68357142Y-30781009D01*
X68357142Y-30781009D02*
X68309523Y-30685771D01*
X68309523Y-30685771D02*
X68214285Y-30638152D01*
X68214285Y-30638152D02*
X68023809Y-30638152D01*
X68023809Y-30638152D02*
X67928571Y-30685771D01*
X67928571Y-30685771D02*
X67880952Y-30781009D01*
X67880952Y-30781009D02*
X67880952Y-30876247D01*
X67880952Y-30876247D02*
X68357142Y-30971485D01*
X77142857Y-27402438D02*
X77238095Y-27354819D01*
X77238095Y-27354819D02*
X77380952Y-27354819D01*
X77380952Y-27354819D02*
X77523809Y-27402438D01*
X77523809Y-27402438D02*
X77619047Y-27497676D01*
X77619047Y-27497676D02*
X77666666Y-27592914D01*
X77666666Y-27592914D02*
X77714285Y-27783390D01*
X77714285Y-27783390D02*
X77714285Y-27926247D01*
X77714285Y-27926247D02*
X77666666Y-28116723D01*
X77666666Y-28116723D02*
X77619047Y-28211961D01*
X77619047Y-28211961D02*
X77523809Y-28307200D01*
X77523809Y-28307200D02*
X77380952Y-28354819D01*
X77380952Y-28354819D02*
X77285714Y-28354819D01*
X77285714Y-28354819D02*
X77142857Y-28307200D01*
X77142857Y-28307200D02*
X77095238Y-28259580D01*
X77095238Y-28259580D02*
X77095238Y-27926247D01*
X77095238Y-27926247D02*
X77285714Y-27926247D01*
X76666666Y-27688152D02*
X76666666Y-28354819D01*
X76666666Y-27783390D02*
X76619047Y-27735771D01*
X76619047Y-27735771D02*
X76523809Y-27688152D01*
X76523809Y-27688152D02*
X76380952Y-27688152D01*
X76380952Y-27688152D02*
X76285714Y-27735771D01*
X76285714Y-27735771D02*
X76238095Y-27831009D01*
X76238095Y-27831009D02*
X76238095Y-28354819D01*
X75333333Y-28354819D02*
X75333333Y-27354819D01*
X75333333Y-28307200D02*
X75428571Y-28354819D01*
X75428571Y-28354819D02*
X75619047Y-28354819D01*
X75619047Y-28354819D02*
X75714285Y-28307200D01*
X75714285Y-28307200D02*
X75761904Y-28259580D01*
X75761904Y-28259580D02*
X75809523Y-28164342D01*
X75809523Y-28164342D02*
X75809523Y-27878628D01*
X75809523Y-27878628D02*
X75761904Y-27783390D01*
X75761904Y-27783390D02*
X75714285Y-27735771D01*
X75714285Y-27735771D02*
X75619047Y-27688152D01*
X75619047Y-27688152D02*
X75428571Y-27688152D01*
X75428571Y-27688152D02*
X75333333Y-27735771D01*
X67473809Y-28354819D02*
X67473809Y-27354819D01*
X67473809Y-27354819D02*
X67235714Y-27354819D01*
X67235714Y-27354819D02*
X67092857Y-27402438D01*
X67092857Y-27402438D02*
X66997619Y-27497676D01*
X66997619Y-27497676D02*
X66950000Y-27592914D01*
X66950000Y-27592914D02*
X66902381Y-27783390D01*
X66902381Y-27783390D02*
X66902381Y-27926247D01*
X66902381Y-27926247D02*
X66950000Y-28116723D01*
X66950000Y-28116723D02*
X66997619Y-28211961D01*
X66997619Y-28211961D02*
X67092857Y-28307200D01*
X67092857Y-28307200D02*
X67235714Y-28354819D01*
X67235714Y-28354819D02*
X67473809Y-28354819D01*
X66283333Y-27354819D02*
X66092857Y-27354819D01*
X66092857Y-27354819D02*
X65997619Y-27402438D01*
X65997619Y-27402438D02*
X65902381Y-27497676D01*
X65902381Y-27497676D02*
X65854762Y-27688152D01*
X65854762Y-27688152D02*
X65854762Y-28021485D01*
X65854762Y-28021485D02*
X65902381Y-28211961D01*
X65902381Y-28211961D02*
X65997619Y-28307200D01*
X65997619Y-28307200D02*
X66092857Y-28354819D01*
X66092857Y-28354819D02*
X66283333Y-28354819D01*
X66283333Y-28354819D02*
X66378571Y-28307200D01*
X66378571Y-28307200D02*
X66473809Y-28211961D01*
X66473809Y-28211961D02*
X66521428Y-28021485D01*
X66521428Y-28021485D02*
X66521428Y-27688152D01*
X66521428Y-27688152D02*
X66473809Y-27497676D01*
X66473809Y-27497676D02*
X66378571Y-27402438D01*
X66378571Y-27402438D02*
X66283333Y-27354819D01*
X64997619Y-27688152D02*
X64997619Y-28354819D01*
X65426190Y-27688152D02*
X65426190Y-28211961D01*
X65426190Y-28211961D02*
X65378571Y-28307200D01*
X65378571Y-28307200D02*
X65283333Y-28354819D01*
X65283333Y-28354819D02*
X65140476Y-28354819D01*
X65140476Y-28354819D02*
X65045238Y-28307200D01*
X65045238Y-28307200D02*
X64997619Y-28259580D01*
X64664285Y-27688152D02*
X64283333Y-27688152D01*
X64521428Y-27354819D02*
X64521428Y-28211961D01*
X64521428Y-28211961D02*
X64473809Y-28307200D01*
X64473809Y-28307200D02*
X64378571Y-28354819D01*
X64378571Y-28354819D02*
X64283333Y-28354819D01*
X67683332Y-28804819D02*
X67349999Y-29804819D01*
X67349999Y-29804819D02*
X67016666Y-28804819D01*
X66111904Y-29709580D02*
X66159523Y-29757200D01*
X66159523Y-29757200D02*
X66302380Y-29804819D01*
X66302380Y-29804819D02*
X66397618Y-29804819D01*
X66397618Y-29804819D02*
X66540475Y-29757200D01*
X66540475Y-29757200D02*
X66635713Y-29661961D01*
X66635713Y-29661961D02*
X66683332Y-29566723D01*
X66683332Y-29566723D02*
X66730951Y-29376247D01*
X66730951Y-29376247D02*
X66730951Y-29233390D01*
X66730951Y-29233390D02*
X66683332Y-29042914D01*
X66683332Y-29042914D02*
X66635713Y-28947676D01*
X66635713Y-28947676D02*
X66540475Y-28852438D01*
X66540475Y-28852438D02*
X66397618Y-28804819D01*
X66397618Y-28804819D02*
X66302380Y-28804819D01*
X66302380Y-28804819D02*
X66159523Y-28852438D01*
X66159523Y-28852438D02*
X66111904Y-28900057D01*
X65111904Y-29709580D02*
X65159523Y-29757200D01*
X65159523Y-29757200D02*
X65302380Y-29804819D01*
X65302380Y-29804819D02*
X65397618Y-29804819D01*
X65397618Y-29804819D02*
X65540475Y-29757200D01*
X65540475Y-29757200D02*
X65635713Y-29661961D01*
X65635713Y-29661961D02*
X65683332Y-29566723D01*
X65683332Y-29566723D02*
X65730951Y-29376247D01*
X65730951Y-29376247D02*
X65730951Y-29233390D01*
X65730951Y-29233390D02*
X65683332Y-29042914D01*
X65683332Y-29042914D02*
X65635713Y-28947676D01*
X65635713Y-28947676D02*
X65540475Y-28852438D01*
X65540475Y-28852438D02*
X65397618Y-28804819D01*
X65397618Y-28804819D02*
X65302380Y-28804819D01*
X65302380Y-28804819D02*
X65159523Y-28852438D01*
X65159523Y-28852438D02*
X65111904Y-28900057D01*
X77252380Y-29844819D02*
X77252380Y-28844819D01*
X77252380Y-28844819D02*
X77014285Y-28844819D01*
X77014285Y-28844819D02*
X76871428Y-28892438D01*
X76871428Y-28892438D02*
X76776190Y-28987676D01*
X76776190Y-28987676D02*
X76728571Y-29082914D01*
X76728571Y-29082914D02*
X76680952Y-29273390D01*
X76680952Y-29273390D02*
X76680952Y-29416247D01*
X76680952Y-29416247D02*
X76728571Y-29606723D01*
X76728571Y-29606723D02*
X76776190Y-29701961D01*
X76776190Y-29701961D02*
X76871428Y-29797200D01*
X76871428Y-29797200D02*
X77014285Y-29844819D01*
X77014285Y-29844819D02*
X77252380Y-29844819D01*
X76252380Y-29844819D02*
X76252380Y-28844819D01*
X75776190Y-29178152D02*
X75776190Y-29844819D01*
X75776190Y-29273390D02*
X75728571Y-29225771D01*
X75728571Y-29225771D02*
X75633333Y-29178152D01*
X75633333Y-29178152D02*
X75490476Y-29178152D01*
X75490476Y-29178152D02*
X75395238Y-29225771D01*
X75395238Y-29225771D02*
X75347619Y-29321009D01*
X75347619Y-29321009D02*
X75347619Y-29844819D01*
X111143332Y-47194819D02*
X110809999Y-48194819D01*
X110809999Y-48194819D02*
X110476666Y-47194819D01*
X109571904Y-48099580D02*
X109619523Y-48147200D01*
X109619523Y-48147200D02*
X109762380Y-48194819D01*
X109762380Y-48194819D02*
X109857618Y-48194819D01*
X109857618Y-48194819D02*
X110000475Y-48147200D01*
X110000475Y-48147200D02*
X110095713Y-48051961D01*
X110095713Y-48051961D02*
X110143332Y-47956723D01*
X110143332Y-47956723D02*
X110190951Y-47766247D01*
X110190951Y-47766247D02*
X110190951Y-47623390D01*
X110190951Y-47623390D02*
X110143332Y-47432914D01*
X110143332Y-47432914D02*
X110095713Y-47337676D01*
X110095713Y-47337676D02*
X110000475Y-47242438D01*
X110000475Y-47242438D02*
X109857618Y-47194819D01*
X109857618Y-47194819D02*
X109762380Y-47194819D01*
X109762380Y-47194819D02*
X109619523Y-47242438D01*
X109619523Y-47242438D02*
X109571904Y-47290057D01*
X108571904Y-48099580D02*
X108619523Y-48147200D01*
X108619523Y-48147200D02*
X108762380Y-48194819D01*
X108762380Y-48194819D02*
X108857618Y-48194819D01*
X108857618Y-48194819D02*
X109000475Y-48147200D01*
X109000475Y-48147200D02*
X109095713Y-48051961D01*
X109095713Y-48051961D02*
X109143332Y-47956723D01*
X109143332Y-47956723D02*
X109190951Y-47766247D01*
X109190951Y-47766247D02*
X109190951Y-47623390D01*
X109190951Y-47623390D02*
X109143332Y-47432914D01*
X109143332Y-47432914D02*
X109095713Y-47337676D01*
X109095713Y-47337676D02*
X109000475Y-47242438D01*
X109000475Y-47242438D02*
X108857618Y-47194819D01*
X108857618Y-47194819D02*
X108762380Y-47194819D01*
X108762380Y-47194819D02*
X108619523Y-47242438D01*
X108619523Y-47242438D02*
X108571904Y-47290057D01*
X110532857Y-45804819D02*
X111009047Y-45804819D01*
X111009047Y-45804819D02*
X111009047Y-44804819D01*
X110199523Y-45281009D02*
X109866190Y-45281009D01*
X109723333Y-45804819D02*
X110199523Y-45804819D01*
X110199523Y-45804819D02*
X110199523Y-44804819D01*
X110199523Y-44804819D02*
X109723333Y-44804819D01*
X109294761Y-45804819D02*
X109294761Y-44804819D01*
X109294761Y-44804819D02*
X109056666Y-44804819D01*
X109056666Y-44804819D02*
X108913809Y-44852438D01*
X108913809Y-44852438D02*
X108818571Y-44947676D01*
X108818571Y-44947676D02*
X108770952Y-45042914D01*
X108770952Y-45042914D02*
X108723333Y-45233390D01*
X108723333Y-45233390D02*
X108723333Y-45376247D01*
X108723333Y-45376247D02*
X108770952Y-45566723D01*
X108770952Y-45566723D02*
X108818571Y-45661961D01*
X108818571Y-45661961D02*
X108913809Y-45757200D01*
X108913809Y-45757200D02*
X109056666Y-45804819D01*
X109056666Y-45804819D02*
X109294761Y-45804819D01*
X110421904Y-42232438D02*
X110517142Y-42184819D01*
X110517142Y-42184819D02*
X110659999Y-42184819D01*
X110659999Y-42184819D02*
X110802856Y-42232438D01*
X110802856Y-42232438D02*
X110898094Y-42327676D01*
X110898094Y-42327676D02*
X110945713Y-42422914D01*
X110945713Y-42422914D02*
X110993332Y-42613390D01*
X110993332Y-42613390D02*
X110993332Y-42756247D01*
X110993332Y-42756247D02*
X110945713Y-42946723D01*
X110945713Y-42946723D02*
X110898094Y-43041961D01*
X110898094Y-43041961D02*
X110802856Y-43137200D01*
X110802856Y-43137200D02*
X110659999Y-43184819D01*
X110659999Y-43184819D02*
X110564761Y-43184819D01*
X110564761Y-43184819D02*
X110421904Y-43137200D01*
X110421904Y-43137200D02*
X110374285Y-43089580D01*
X110374285Y-43089580D02*
X110374285Y-42756247D01*
X110374285Y-42756247D02*
X110564761Y-42756247D01*
X109945713Y-43184819D02*
X109945713Y-42184819D01*
X109945713Y-42184819D02*
X109374285Y-43184819D01*
X109374285Y-43184819D02*
X109374285Y-42184819D01*
X108898094Y-43184819D02*
X108898094Y-42184819D01*
X108898094Y-42184819D02*
X108659999Y-42184819D01*
X108659999Y-42184819D02*
X108517142Y-42232438D01*
X108517142Y-42232438D02*
X108421904Y-42327676D01*
X108421904Y-42327676D02*
X108374285Y-42422914D01*
X108374285Y-42422914D02*
X108326666Y-42613390D01*
X108326666Y-42613390D02*
X108326666Y-42756247D01*
X108326666Y-42756247D02*
X108374285Y-42946723D01*
X108374285Y-42946723D02*
X108421904Y-43041961D01*
X108421904Y-43041961D02*
X108517142Y-43137200D01*
X108517142Y-43137200D02*
X108659999Y-43184819D01*
X108659999Y-43184819D02*
X108898094Y-43184819D01*
X36130000Y-4040000D02*
X37630000Y-4040000D01*
X37630000Y-4040000D02*
X37630000Y1360000D01*
X36380000Y-1840000D02*
X37380000Y-1840000D01*
X36880000Y-1740000D02*
X36380000Y-840000D01*
X36380000Y-840000D02*
X37380000Y-840000D01*
X37380000Y-840000D02*
X36880000Y-1740000D01*
X36130000Y1360000D02*
X36130000Y-4040000D01*
X37630000Y1360000D02*
X36130000Y1360000D01*
X57450000Y-7210000D02*
X58950000Y-7210000D01*
X58950000Y-7210000D02*
X58950000Y-1810000D01*
X57700000Y-5010000D02*
X58700000Y-5010000D01*
X58200000Y-4910000D02*
X57700000Y-4010000D01*
X57700000Y-4010000D02*
X58700000Y-4010000D01*
X58700000Y-4010000D02*
X58200000Y-4910000D01*
X57450000Y-1810000D02*
X57450000Y-7210000D01*
X58950000Y-1810000D02*
X57450000Y-1810000D01*
X74290000Y-7070000D02*
X75790000Y-7070000D01*
X75790000Y-7070000D02*
X75790000Y-1670000D01*
X74540000Y-4870000D02*
X75540000Y-4870000D01*
X75040000Y-4770000D02*
X74540000Y-3870000D01*
X74540000Y-3870000D02*
X75540000Y-3870000D01*
X75540000Y-3870000D02*
X75040000Y-4770000D01*
X74290000Y-1670000D02*
X74290000Y-7070000D01*
X75790000Y-1670000D02*
X74290000Y-1670000D01*
X93150000Y-7100000D02*
X94650000Y-7100000D01*
X94650000Y-7100000D02*
X94650000Y-1700000D01*
X93400000Y-4900000D02*
X94400000Y-4900000D01*
X93900000Y-4800000D02*
X93400000Y-3900000D01*
X93400000Y-3900000D02*
X94400000Y-3900000D01*
X94400000Y-3900000D02*
X93900000Y-4800000D01*
X93150000Y-1700000D02*
X93150000Y-7100000D01*
X94650000Y-1700000D02*
X93150000Y-1700000D01*
X95730000Y-7010000D02*
X97230000Y-7010000D01*
X97230000Y-7010000D02*
X97230000Y-1610000D01*
X95980000Y-4810000D02*
X96980000Y-4810000D01*
X96480000Y-4710000D02*
X95980000Y-3810000D01*
X95980000Y-3810000D02*
X96980000Y-3810000D01*
X96980000Y-3810000D02*
X96480000Y-4710000D01*
X95730000Y-1610000D02*
X95730000Y-7010000D01*
X97230000Y-1610000D02*
X95730000Y-1610000D01*
X59940000Y-24170000D02*
X61440000Y-24170000D01*
X61440000Y-24170000D02*
X61440000Y-18770000D01*
X60190000Y-21970000D02*
X61190000Y-21970000D01*
X60690000Y-21870000D02*
X60190000Y-20970000D01*
X60190000Y-20970000D02*
X61190000Y-20970000D01*
X61190000Y-20970000D02*
X60690000Y-21870000D01*
X59940000Y-18770000D02*
X59940000Y-24170000D01*
X61440000Y-18770000D02*
X59940000Y-18770000D01*
X78950000Y-24120000D02*
X80450000Y-24120000D01*
X80450000Y-24120000D02*
X80450000Y-18720000D01*
X79200000Y-21920000D02*
X80200000Y-21920000D01*
X79700000Y-21820000D02*
X79200000Y-20920000D01*
X79200000Y-20920000D02*
X80200000Y-20920000D01*
X80200000Y-20920000D02*
X79700000Y-21820000D01*
X78950000Y-18720000D02*
X78950000Y-24120000D01*
X80450000Y-18720000D02*
X78950000Y-18720000D01*
X83450000Y-9870000D02*
X83450000Y-11370000D01*
X83450000Y-11370000D02*
X88850000Y-11370000D01*
X85650000Y-10120000D02*
X85650000Y-11120000D01*
X85750000Y-10620000D02*
X86650000Y-10120000D01*
X86650000Y-10120000D02*
X86650000Y-11120000D01*
X86650000Y-11120000D02*
X85750000Y-10620000D01*
X88850000Y-9870000D02*
X83450000Y-9870000D01*
X88850000Y-11370000D02*
X88850000Y-9870000D01*
X102040000Y-9870000D02*
X102040000Y-11370000D01*
X102040000Y-11370000D02*
X107440000Y-11370000D01*
X104240000Y-10120000D02*
X104240000Y-11120000D01*
X104340000Y-10620000D02*
X105240000Y-10120000D01*
X105240000Y-10120000D02*
X105240000Y-11120000D01*
X105240000Y-11120000D02*
X104340000Y-10620000D01*
X107440000Y-9870000D02*
X102040000Y-9870000D01*
X107440000Y-11370000D02*
X107440000Y-9870000D01*
X69610000Y-38800000D02*
X71110000Y-38800000D01*
X71110000Y-38800000D02*
X71110000Y-33400000D01*
X69860000Y-36600000D02*
X70860000Y-36600000D01*
X70360000Y-36500000D02*
X69860000Y-35600000D01*
X69860000Y-35600000D02*
X70860000Y-35600000D01*
X70860000Y-35600000D02*
X70360000Y-36500000D01*
X69610000Y-33400000D02*
X69610000Y-38800000D01*
X71110000Y-33400000D02*
X69610000Y-33400000D01*
X88730000Y-38740000D02*
X90230000Y-38740000D01*
X90230000Y-38740000D02*
X90230000Y-33340000D01*
X88980000Y-36540000D02*
X89980000Y-36540000D01*
X89480000Y-36440000D02*
X88980000Y-35540000D01*
X88980000Y-35540000D02*
X89980000Y-35540000D01*
X89980000Y-35540000D02*
X89480000Y-36440000D01*
X88730000Y-33340000D02*
X88730000Y-38740000D01*
X90230000Y-33340000D02*
X88730000Y-33340000D01*
X107620000Y-31660000D02*
X109120000Y-31660000D01*
X109120000Y-31660000D02*
X109120000Y-26260000D01*
X107870000Y-29460000D02*
X108870000Y-29460000D01*
X108370000Y-29360000D02*
X107870000Y-28460000D01*
X107870000Y-28460000D02*
X108870000Y-28460000D01*
X108870000Y-28460000D02*
X108370000Y-29360000D01*
X107620000Y-26260000D02*
X107620000Y-31660000D01*
X109120000Y-26260000D02*
X107620000Y-26260000D01*
X109880000Y-31660000D02*
X111380000Y-31660000D01*
X111380000Y-31660000D02*
X111380000Y-26260000D01*
X110130000Y-29460000D02*
X111130000Y-29460000D01*
X110630000Y-29360000D02*
X110130000Y-28460000D01*
X110130000Y-28460000D02*
X111130000Y-28460000D01*
X111130000Y-28460000D02*
X110630000Y-29360000D01*
X109880000Y-26260000D02*
X109880000Y-31660000D01*
X111380000Y-26260000D02*
X109880000Y-26260000D01*
X50600000Y-58710000D02*
X52100000Y-58710000D01*
X52100000Y-58710000D02*
X52100000Y-53310000D01*
X50850000Y-56510000D02*
X51850000Y-56510000D01*
X51350000Y-56410000D02*
X50850000Y-55510000D01*
X50850000Y-55510000D02*
X51850000Y-55510000D01*
X51850000Y-55510000D02*
X51350000Y-56410000D01*
X50600000Y-53310000D02*
X50600000Y-58710000D01*
X52100000Y-53310000D02*
X50600000Y-53310000D01*
X69710000Y-58640000D02*
X71210000Y-58640000D01*
X71210000Y-58640000D02*
X71210000Y-53240000D01*
X69960000Y-56440000D02*
X70960000Y-56440000D01*
X70460000Y-56340000D02*
X69960000Y-55440000D01*
X69960000Y-55440000D02*
X70960000Y-55440000D01*
X70960000Y-55440000D02*
X70460000Y-56340000D01*
X69710000Y-53240000D02*
X69710000Y-58640000D01*
X71210000Y-53240000D02*
X69710000Y-53240000D01*
X91340000Y-59380000D02*
X92840000Y-59380000D01*
X92840000Y-59380000D02*
X92840000Y-53980000D01*
X91590000Y-57180000D02*
X92590000Y-57180000D01*
X92090000Y-57080000D02*
X91590000Y-56180000D01*
X91590000Y-56180000D02*
X92590000Y-56180000D01*
X92590000Y-56180000D02*
X92090000Y-57080000D01*
X91340000Y-53980000D02*
X91340000Y-59380000D01*
X92840000Y-53980000D02*
X91340000Y-53980000D01*
X38470000Y-24090000D02*
X39970000Y-24090000D01*
X39970000Y-24090000D02*
X39970000Y-18690000D01*
X38720000Y-21890000D02*
X39720000Y-21890000D01*
X39220000Y-21790000D02*
X38720000Y-20890000D01*
X38720000Y-20890000D02*
X39720000Y-20890000D01*
X39720000Y-20890000D02*
X39220000Y-21790000D01*
X38470000Y-18690000D02*
X38470000Y-24090000D01*
X39970000Y-18690000D02*
X38470000Y-18690000D01*
X45980000Y-38710000D02*
X47480000Y-38710000D01*
X47480000Y-38710000D02*
X47480000Y-33310000D01*
X46230000Y-36510000D02*
X47230000Y-36510000D01*
X46730000Y-36410000D02*
X46230000Y-35510000D01*
X46230000Y-35510000D02*
X47230000Y-35510000D01*
X47230000Y-35510000D02*
X46730000Y-36410000D01*
X45980000Y-33310000D02*
X45980000Y-38710000D01*
X47480000Y-33310000D02*
X45980000Y-33310000D01*
X94350000Y-59380000D02*
X95850000Y-59380000D01*
X95850000Y-59380000D02*
X95850000Y-53980000D01*
X94600000Y-57180000D02*
X95600000Y-57180000D01*
X95100000Y-57080000D02*
X94600000Y-56180000D01*
X94600000Y-56180000D02*
X95600000Y-56180000D01*
X95600000Y-56180000D02*
X95100000Y-57080000D01*
X94350000Y-53980000D02*
X94350000Y-59380000D01*
X95850000Y-53980000D02*
X94350000Y-53980000D01*
X71150000Y20788076D02*
X60757695Y14788076D01*
X60757695Y14788076D02*
X63757695Y9591924D01*
X74150000Y15591924D02*
X71150000Y20788076D01*
X63757695Y9591924D02*
X74150000Y15591924D01*
D12*
X103670000Y-27190000D02*
X106470000Y-27190000D01*
X103670000Y-28590000D02*
X103670000Y-27190000D01*
X106270000Y-27190000D02*
X106470000Y-27440000D01*
X106420000Y-27190000D02*
X106470000Y-27590000D01*
X106470000Y-27190000D02*
X106470000Y-28590000D01*
X106470000Y-27440000D02*
X106420000Y-27190000D01*
X106470000Y-27590000D02*
X106170000Y-27190000D01*
X106470000Y-28590000D02*
X103670000Y-28590000D01*
X48870000Y-27180000D02*
X51670000Y-27180000D01*
X48870000Y-28580000D02*
X48870000Y-27180000D01*
X51470000Y-27180000D02*
X51670000Y-27430000D01*
X51620000Y-27180000D02*
X51670000Y-27580000D01*
X51670000Y-27180000D02*
X51670000Y-28580000D01*
X51670000Y-27430000D02*
X51620000Y-27180000D01*
X51670000Y-27580000D02*
X51370000Y-27180000D01*
X51670000Y-28580000D02*
X48870000Y-28580000D01*
D11*
X74983076Y11044456D02*
X74858076Y11260962D01*
X74983076Y11044456D02*
X69786924Y8044456D01*
X73233076Y14075544D02*
X73358076Y13859038D01*
X73233076Y14075544D02*
X68036924Y11075544D01*
X69786924Y8044456D02*
X69661924Y8260962D01*
X68036924Y11075544D02*
X68161924Y10859038D01*
D12*
X75150000Y-27200000D02*
X77950000Y-27200000D01*
X75150000Y-28600000D02*
X75150000Y-27200000D01*
X77750000Y-27200000D02*
X77950000Y-27450000D01*
X77900000Y-27200000D02*
X77950000Y-27600000D01*
X77950000Y-27200000D02*
X77950000Y-28600000D01*
X77950000Y-27450000D02*
X77900000Y-27200000D01*
X77950000Y-27600000D02*
X77650000Y-27200000D01*
X77950000Y-28600000D02*
X75150000Y-28600000D01*
D13*
X62679938Y14858653D03*
X66144040Y16858653D03*
X68742116Y18358653D03*
X63480900Y10471347D03*
D14*
X71350962Y17440000D03*
X65288784Y13940000D03*
D15*
X68695417Y9435000D03*
X74324583Y12685000D03*
M02*
