M48
; DRILL file {KiCad 7.0.8} date 2024 February 12, Monday 18:05:59
; FORMAT={-:-/ absolute / metric / decimal}
; #@! TF.CreationDate,2024-02-12T18:05:59+09:00
; #@! TF.GenerationSoftware,Kicad,Pcbnew,7.0.8
; #@! TF.FileFunction,Plated,1,2,PTH
FMAT,2
METRIC
; #@! TA.AperFunction,Plated,PTH,ViaDrill
T1C0.400
; #@! TA.AperFunction,Plated,PTH,ComponentDrill
T2C0.813
; #@! TA.AperFunction,Plated,PTH,ComponentDrill
T3C0.850
; #@! TA.AperFunction,Plated,PTH,ComponentDrill
T4C1.000
; #@! TA.AperFunction,Plated,PTH,ComponentDrill
T5C1.300
%
G90
G05
T1
X23.871Y-13.04
X29.71Y-13.13
X32.095Y-11.335
X40.96Y-26.37
X44.79Y-4.25
X44.84Y-12.78
X51.23Y-23.86
X51.27Y-32.72
X52.79Y-23.8
X52.79Y-32.72
X54.22Y-23.8
X54.27Y-32.97
X55.59Y2.54
X59.14Y9.55
X63.04Y-29.35
X64.22Y-5.29
X64.29Y-13.6
X75.85Y6.76
X76.87Y-23.19
X76.87Y-32.41
X79.9Y-5.25
X81.04Y6.73
X83.42Y-13.13
X85.96Y-5.34
X85.96Y-12.94
X91.09Y-29.34
X91.13Y-31.7
X92.24Y-23.21
X92.3Y-32.49
X98.95Y-2.67
X100.24Y-43.32
X100.24Y-51.19
X102.29Y-13.11
X105.45Y-47.88
X105.47Y-44.42
X111.92Y-23.31
X111.94Y-32.41
T2
X36.88Y2.47
X36.88Y-5.15
X39.22Y-17.58
X39.22Y-25.2
X46.73Y-32.2
X46.73Y-39.82
X51.35Y-52.2
X51.35Y-59.82
X58.2Y-0.7
X58.2Y-8.32
X60.69Y-17.66
X60.69Y-25.28
X70.36Y-32.29
X70.36Y-39.91
X70.46Y-52.13
X70.46Y-59.75
X75.04Y-0.56
X75.04Y-8.18
X79.7Y-17.61
X79.7Y-25.23
X82.34Y-10.62
X89.48Y-32.23
X89.48Y-39.85
X89.96Y-10.62
X92.09Y-52.87
X92.09Y-60.49
X93.9Y-0.59
X93.9Y-8.21
X95.1Y-52.87
X95.1Y-60.49
X96.48Y-0.5
X96.48Y-8.12
X100.93Y-10.62
X108.37Y-25.15
X108.37Y-32.77
X108.55Y-10.62
X110.63Y-25.15
X110.63Y-32.77
T3
X20.7Y7.99
X20.7Y-7.25
X23.24Y7.99
X23.24Y-7.25
X25.78Y7.99
X25.78Y-7.25
X28.32Y7.99
X28.32Y-7.25
X30.86Y7.99
X30.86Y-7.25
X33.4Y7.99
X33.4Y-7.25
X35.94Y7.99
X35.94Y-7.25
X38.48Y7.99
X38.48Y-7.25
X41.02Y7.99
X41.02Y-7.25
X43.56Y7.99
X43.56Y-7.25
X46.1Y7.99
X46.1Y-7.25
X48.64Y7.99
X48.64Y-7.25
X51.18Y7.99
X51.18Y-7.25
T5
X68.695Y9.435
X74.325Y12.685
T4
G00X62.463Y14.734
M15
G01X62.896Y14.984
M16
G05
G00X63.264Y10.346
M15
G01X63.697Y10.596
M16
G05
G00X65.928Y16.734
M15
G01X66.361Y16.984
M16
G05
G00X68.526Y18.234
M15
G01X68.959Y18.484
M16
G05
T0
M30
