G04 #@! TF.GenerationSoftware,KiCad,Pcbnew,7.0.8*
G04 #@! TF.CreationDate,2024-02-12T18:05:53+09:00*
G04 #@! TF.ProjectId,cool939v2,636f6f6c-3933-4397-9632-2e6b69636164,rev?*
G04 #@! TF.SameCoordinates,Original*
G04 #@! TF.FileFunction,Copper,L1,Top*
G04 #@! TF.FilePolarity,Positive*
%FSLAX46Y46*%
G04 Gerber Fmt 4.6, Leading zero omitted, Abs format (unit mm)*
G04 Created by KiCad (PCBNEW 7.0.8) date 2024-02-12 18:05:53*
%MOMM*%
%LPD*%
G01*
G04 APERTURE LIST*
G04 Aperture macros list*
%AMHorizOval*
0 Thick line with rounded ends*
0 $1 width*
0 $2 $3 position (X,Y) of the first rounded end (center of the circle)*
0 $4 $5 position (X,Y) of the second rounded end (center of the circle)*
0 Add line between two ends*
20,1,$1,$2,$3,$4,$5,0*
0 Add two circle primitives to create the rounded ends*
1,1,$1,$2,$3*
1,1,$1,$4,$5*%
G04 Aperture macros list end*
G04 #@! TA.AperFunction,ComponentPad*
%ADD10C,1.600000*%
G04 #@! TD*
G04 #@! TA.AperFunction,ComponentPad*
%ADD11R,1.397000X1.397000*%
G04 #@! TD*
G04 #@! TA.AperFunction,SMDPad,CuDef*
%ADD12R,0.950000X1.300000*%
G04 #@! TD*
G04 #@! TA.AperFunction,ComponentPad*
%ADD13C,1.397000*%
G04 #@! TD*
G04 #@! TA.AperFunction,SMDPad,CuDef*
%ADD14R,1.300000X0.950000*%
G04 #@! TD*
G04 #@! TA.AperFunction,ComponentPad*
%ADD15HorizOval,1.700000X0.346410X0.200000X-0.346410X-0.200000X0*%
G04 #@! TD*
G04 #@! TA.AperFunction,ComponentPad*
%ADD16C,2.000000*%
G04 #@! TD*
G04 #@! TA.AperFunction,ViaPad*
%ADD17C,0.800000*%
G04 #@! TD*
G04 #@! TA.AperFunction,Conductor*
%ADD18C,0.250000*%
G04 #@! TD*
G04 APERTURE END LIST*
D10*
X23240000Y7990000D03*
X25780000Y7990000D03*
X33400000Y7990000D03*
X35940000Y7990000D03*
X38480000Y7990000D03*
X41020000Y7990000D03*
X43560000Y7990000D03*
X46100000Y7990000D03*
X48640000Y7990000D03*
X51180000Y7990000D03*
X20700000Y7990000D03*
X20700000Y-7250000D03*
X46100000Y-7250000D03*
X51180000Y-7250000D03*
X43560000Y-7250000D03*
X48640000Y-7250000D03*
X41020000Y-7250000D03*
X38480000Y-7250000D03*
X35940000Y-7250000D03*
X33400000Y-7250000D03*
X30860000Y-7250000D03*
X28320000Y-7250000D03*
X25780000Y-7250000D03*
X23240000Y-7250000D03*
X28320000Y7990000D03*
X30860000Y7990000D03*
D11*
X36880000Y-5150000D03*
D12*
X36880000Y-3115000D03*
X36880000Y435000D03*
D13*
X36880000Y2470000D03*
D11*
X58200000Y-8320000D03*
D12*
X58200000Y-6285000D03*
X58200000Y-2735000D03*
D13*
X58200000Y-700000D03*
D11*
X75040000Y-8180000D03*
D12*
X75040000Y-6145000D03*
X75040000Y-2595000D03*
D13*
X75040000Y-560000D03*
D11*
X93900000Y-8210000D03*
D12*
X93900000Y-6175000D03*
X93900000Y-2625000D03*
D13*
X93900000Y-590000D03*
D11*
X96480000Y-8120000D03*
D12*
X96480000Y-6085000D03*
X96480000Y-2535000D03*
D13*
X96480000Y-500000D03*
D11*
X60690000Y-25280000D03*
D12*
X60690000Y-23245000D03*
X60690000Y-19695000D03*
D13*
X60690000Y-17660000D03*
D11*
X79700000Y-25230000D03*
D12*
X79700000Y-23195000D03*
X79700000Y-19645000D03*
D13*
X79700000Y-17610000D03*
D11*
X82340000Y-10620000D03*
D14*
X84375000Y-10620000D03*
X87925000Y-10620000D03*
D13*
X89960000Y-10620000D03*
D11*
X100930000Y-10620000D03*
D14*
X102965000Y-10620000D03*
X106515000Y-10620000D03*
D13*
X108550000Y-10620000D03*
D11*
X70360000Y-39910000D03*
D12*
X70360000Y-37875000D03*
X70360000Y-34325000D03*
D13*
X70360000Y-32290000D03*
D11*
X89480000Y-39850000D03*
D12*
X89480000Y-37815000D03*
X89480000Y-34265000D03*
D13*
X89480000Y-32230000D03*
D11*
X108370000Y-32770000D03*
D12*
X108370000Y-30735000D03*
X108370000Y-27185000D03*
D13*
X108370000Y-25150000D03*
D11*
X110630000Y-32770000D03*
D12*
X110630000Y-30735000D03*
X110630000Y-27185000D03*
D13*
X110630000Y-25150000D03*
D11*
X51350000Y-59820000D03*
D12*
X51350000Y-57785000D03*
X51350000Y-54235000D03*
D13*
X51350000Y-52200000D03*
D11*
X70460000Y-59750000D03*
D12*
X70460000Y-57715000D03*
X70460000Y-54165000D03*
D13*
X70460000Y-52130000D03*
D11*
X92090000Y-60490000D03*
D12*
X92090000Y-58455000D03*
X92090000Y-54905000D03*
D13*
X92090000Y-52870000D03*
D11*
X39220000Y-25200000D03*
D12*
X39220000Y-23165000D03*
X39220000Y-19615000D03*
D13*
X39220000Y-17580000D03*
D11*
X46730000Y-39820000D03*
D12*
X46730000Y-37785000D03*
X46730000Y-34235000D03*
D13*
X46730000Y-32200000D03*
D11*
X95100000Y-60490000D03*
D12*
X95100000Y-58455000D03*
X95100000Y-54905000D03*
D13*
X95100000Y-52870000D03*
D15*
X62679938Y14858653D03*
X66144040Y16858653D03*
X68742116Y18358653D03*
X63480900Y10471347D03*
D16*
X68695417Y9435000D03*
X74324583Y12685000D03*
D17*
X29710000Y-13130000D03*
X23871000Y-13040000D03*
X63040000Y-29350000D03*
X32095000Y-11335000D03*
X51230000Y-23860000D03*
X51270000Y-32720000D03*
X52790000Y-23800000D03*
X52790000Y-32720000D03*
X85960000Y-12940000D03*
X40960000Y-26370000D03*
X85960000Y-5340000D03*
X105470000Y-44420000D03*
X105450000Y-47880000D03*
X59140000Y9550000D03*
X91130000Y-31700000D03*
X91090000Y-29340000D03*
X54220000Y-23800000D03*
X44840000Y-12780000D03*
X44790000Y-4250000D03*
X54270000Y-32970000D03*
X76870000Y-32410000D03*
X64220000Y-5290000D03*
X76870000Y-23190000D03*
X55590000Y2540000D03*
X64290000Y-13600000D03*
X92300000Y-32490000D03*
X100240000Y-51190000D03*
X100240000Y-43320000D03*
X79900000Y-5250000D03*
X83420000Y-13130000D03*
X92240000Y-23210000D03*
X111940000Y-32410000D03*
X98950000Y-2670000D03*
X75850000Y6760000D03*
X81040000Y6730000D03*
X111920000Y-23310000D03*
X102290000Y-13110000D03*
D18*
X49390000Y2540000D02*
X46790000Y5140000D01*
X46790000Y5140000D02*
X46355000Y5575000D01*
X43940000Y7990000D02*
X46790000Y5140000D01*
X43560000Y7990000D02*
X43940000Y7990000D01*
X29710000Y-13130000D02*
X23961000Y-13130000D01*
X23961000Y-13130000D02*
X23871000Y-13040000D01*
X29220000Y2440000D02*
X28955000Y2705000D01*
X28955000Y2705000D02*
X28635000Y3025000D01*
X25780000Y7990000D02*
X25780000Y5880000D01*
X25780000Y5880000D02*
X28955000Y2705000D01*
X29200000Y-10350000D02*
X29640000Y-10350000D01*
X29640000Y-10350000D02*
X38010000Y-10350000D01*
X25780000Y-7250000D02*
X28880000Y-10350000D01*
X28880000Y-10350000D02*
X29640000Y-10350000D01*
X56980000Y4170000D02*
X56980000Y-11390000D01*
X59140000Y9550000D02*
X59140000Y6330000D01*
X59140000Y6330000D02*
X56980000Y4170000D01*
X56980000Y-11390000D02*
X63040000Y-17450000D01*
X63040000Y-17450000D02*
X63040000Y-29350000D01*
X23240000Y-7250000D02*
X27325000Y-11335000D01*
X27325000Y-11335000D02*
X32095000Y-11335000D01*
X36880000Y2230000D02*
X36880000Y195000D01*
X36880000Y2470000D02*
X36880000Y435000D01*
X58200000Y-700000D02*
X58200000Y-2735000D01*
X75040000Y-560000D02*
X75040000Y-2595000D01*
X93900000Y-590000D02*
X93900000Y-2625000D01*
X96480000Y-500000D02*
X96480000Y-2535000D01*
X60690000Y-17660000D02*
X60690000Y-19695000D01*
X79700000Y-17610000D02*
X79700000Y-19645000D01*
X89960000Y-10620000D02*
X87925000Y-10620000D01*
X106515000Y-10620000D02*
X108550000Y-10620000D01*
X70360000Y-32290000D02*
X70360000Y-34325000D01*
X89480000Y-32230000D02*
X89480000Y-34265000D01*
X108370000Y-25150000D02*
X108370000Y-27185000D01*
X110630000Y-25150000D02*
X110630000Y-27185000D01*
X51350000Y-52200000D02*
X51350000Y-54235000D01*
X70460000Y-52130000D02*
X70460000Y-54165000D01*
X92090000Y-54905000D02*
X92090000Y-52870000D01*
X39220000Y-17580000D02*
X39220000Y-19615000D01*
X46730000Y-32200000D02*
X46730000Y-34235000D01*
X95100000Y-52870000D02*
X95100000Y-54905000D01*
X36880000Y-5150000D02*
X36880000Y-3115000D01*
X93900000Y-6175000D02*
X93900000Y-8210000D01*
X58200000Y-6285000D02*
X58200000Y-8320000D01*
X96480000Y-6085000D02*
X96480000Y-8120000D01*
X75040000Y-6145000D02*
X75040000Y-8180000D01*
X36880000Y-3355000D02*
X36880000Y-5390000D01*
X84375000Y-10620000D02*
X82340000Y-10620000D01*
X60690000Y-23245000D02*
X60690000Y-25280000D01*
X39220000Y-23165000D02*
X39220000Y-25200000D01*
X100930000Y-10620000D02*
X102965000Y-10620000D01*
X79700000Y-23195000D02*
X79700000Y-25230000D01*
X110630000Y-30735000D02*
X110630000Y-32770000D01*
X71210000Y-41220000D02*
X88110000Y-41220000D01*
X46730000Y-40030000D02*
X48060000Y-41360000D01*
X46730000Y-39820000D02*
X46730000Y-40030000D01*
X70360000Y-39910000D02*
X70360000Y-40370000D01*
X90790000Y-41260000D02*
X107240000Y-41260000D01*
X88110000Y-41220000D02*
X89480000Y-39850000D01*
X68910000Y-41360000D02*
X70360000Y-39910000D01*
X110630000Y-32770000D02*
X108370000Y-32770000D01*
X89480000Y-39850000D02*
X89480000Y-39950000D01*
X70360000Y-37875000D02*
X70360000Y-39910000D01*
X48060000Y-41360000D02*
X68910000Y-41360000D01*
X51270000Y-32720000D02*
X51270000Y-23900000D01*
X51270000Y-23900000D02*
X51230000Y-23860000D01*
X70360000Y-40370000D02*
X71210000Y-41220000D01*
X89480000Y-37815000D02*
X89480000Y-39850000D01*
X108370000Y-40130000D02*
X108370000Y-32770000D01*
X89480000Y-39950000D02*
X90790000Y-41260000D01*
X46730000Y-37785000D02*
X46730000Y-39820000D01*
X108370000Y-30735000D02*
X108370000Y-32770000D01*
X107240000Y-41260000D02*
X108370000Y-40130000D01*
X92090000Y-60490000D02*
X92090000Y-58455000D01*
X95100000Y-58455000D02*
X95100000Y-60490000D01*
X51350000Y-57785000D02*
X51350000Y-59820000D01*
X70460000Y-57715000D02*
X70460000Y-59750000D01*
X52790000Y-23800000D02*
X52790000Y-32720000D01*
X36728217Y3592999D02*
X35942999Y3592999D01*
X59520000Y11710000D02*
X57790000Y9980000D01*
X55683002Y1560000D02*
X52410000Y1560000D01*
X68742116Y18358653D02*
X68742116Y16024330D01*
X57790000Y5616410D02*
X56529990Y4356400D01*
X57790000Y9980000D02*
X57790000Y5616410D01*
X46428589Y4865001D02*
X38000219Y4865001D01*
X56529990Y4356400D02*
X56529990Y2406988D01*
X49203599Y2089991D02*
X46428589Y4865001D01*
X68742116Y16024330D02*
X65732785Y13014999D01*
X62220000Y11710000D02*
X59520000Y11710000D01*
X35942999Y3592999D02*
X34790000Y2440000D01*
X28312000Y3348000D02*
X28635000Y3025000D01*
X56529990Y2406988D02*
X55683002Y1560000D01*
X52410000Y1560000D02*
X51880010Y2089990D01*
X28635000Y3025000D02*
X28392000Y3268000D01*
X63524999Y13014999D02*
X62220000Y11710000D01*
X34790000Y2440000D02*
X29220000Y2440000D01*
X65732785Y13014999D02*
X63524999Y13014999D01*
X38000219Y4865001D02*
X36728217Y3592999D01*
X51880010Y2089990D02*
X49203599Y2089991D01*
X40420000Y-23250000D02*
X40960000Y-23790000D01*
X38010000Y-10350000D02*
X40420000Y-12760000D01*
X85960000Y-5340000D02*
X85960000Y-12940000D01*
X40420000Y-12760000D02*
X40420000Y-23250000D01*
X40960000Y-23790000D02*
X40960000Y-26370000D01*
X91130000Y-29380000D02*
X91090000Y-29340000D01*
X105470000Y-44420000D02*
X105470000Y-47860000D01*
X91130000Y-31700000D02*
X91130000Y-29380000D01*
X105470000Y-47860000D02*
X105450000Y-47880000D01*
X44810000Y-12750000D02*
X44840000Y-12780000D01*
X44810000Y-4990000D02*
X44810000Y-4270000D01*
X54220000Y-32920000D02*
X54270000Y-32970000D01*
X54220000Y-23800000D02*
X54220000Y-32920000D01*
X44810000Y-9620000D02*
X44810000Y-12750000D01*
X44810000Y-4270000D02*
X44790000Y-4250000D01*
X44810000Y-9620000D02*
X44810000Y-4990000D01*
X46092000Y5838000D02*
X46355000Y5575000D01*
X64220000Y-5290000D02*
X64220000Y-13530000D01*
X55590000Y2540000D02*
X49390000Y2540000D01*
X64220000Y-13530000D02*
X64290000Y-13600000D01*
X76870000Y-23190000D02*
X76870000Y-32410000D01*
X46355000Y5575000D02*
X46172000Y5758000D01*
X80490000Y-11260000D02*
X82360000Y-13130000D01*
X79900000Y-5250000D02*
X80490000Y-5840000D01*
X100240000Y-43320000D02*
X100240000Y-51190000D01*
X92240000Y-23210000D02*
X92240000Y-32430000D01*
X82360000Y-13130000D02*
X83420000Y-13130000D01*
X80490000Y-5840000D02*
X80490000Y-11260000D01*
X92240000Y-32430000D02*
X92300000Y-32490000D01*
X98950000Y-5330000D02*
X98950000Y-2670000D01*
X81010000Y6760000D02*
X81040000Y6730000D01*
X100400000Y-13110000D02*
X102290000Y-13110000D01*
X75850000Y6760000D02*
X81010000Y6760000D01*
X98950000Y-5330000D02*
X98950000Y-11660000D01*
X111920000Y-32390000D02*
X111940000Y-32410000D01*
X98950000Y-11660000D02*
X100400000Y-13110000D01*
X111920000Y-23310000D02*
X111920000Y-32390000D01*
M02*
