G04 #@! TF.GenerationSoftware,KiCad,Pcbnew,(5.1.6-0-10_14)*
G04 #@! TF.CreationDate,2022-05-03T20:52:28+09:00*
G04 #@! TF.ProjectId,cool939,636f6f6c-3933-4392-9e6b-696361645f70,rev?*
G04 #@! TF.SameCoordinates,Original*
G04 #@! TF.FileFunction,Legend,Top*
G04 #@! TF.FilePolarity,Positive*
%FSLAX46Y46*%
G04 Gerber Fmt 4.6, Leading zero omitted, Abs format (unit mm)*
G04 Created by KiCad (PCBNEW (5.1.6-0-10_14)) date 2022-05-03 20:52:28*
%MOMM*%
%LPD*%
G01*
G04 APERTURE LIST*
%ADD10C,0.300000*%
%ADD11C,0.150000*%
G04 APERTURE END LIST*
D10*
X21814285Y-61122142D02*
X21671428Y-61193571D01*
X21385714Y-61193571D01*
X21242857Y-61122142D01*
X21171428Y-61050714D01*
X21100000Y-60907857D01*
X21100000Y-60479285D01*
X21171428Y-60336428D01*
X21242857Y-60265000D01*
X21385714Y-60193571D01*
X21671428Y-60193571D01*
X21814285Y-60265000D01*
X22671428Y-61193571D02*
X22528571Y-61122142D01*
X22457142Y-61050714D01*
X22385714Y-60907857D01*
X22385714Y-60479285D01*
X22457142Y-60336428D01*
X22528571Y-60265000D01*
X22671428Y-60193571D01*
X22885714Y-60193571D01*
X23028571Y-60265000D01*
X23100000Y-60336428D01*
X23171428Y-60479285D01*
X23171428Y-60907857D01*
X23100000Y-61050714D01*
X23028571Y-61122142D01*
X22885714Y-61193571D01*
X22671428Y-61193571D01*
X24028571Y-61193571D02*
X23885714Y-61122142D01*
X23814285Y-61050714D01*
X23742857Y-60907857D01*
X23742857Y-60479285D01*
X23814285Y-60336428D01*
X23885714Y-60265000D01*
X24028571Y-60193571D01*
X24242857Y-60193571D01*
X24385714Y-60265000D01*
X24457142Y-60336428D01*
X24528571Y-60479285D01*
X24528571Y-60907857D01*
X24457142Y-61050714D01*
X24385714Y-61122142D01*
X24242857Y-61193571D01*
X24028571Y-61193571D01*
X25385714Y-61193571D02*
X25242857Y-61122142D01*
X25171428Y-60979285D01*
X25171428Y-59693571D01*
X26028571Y-61193571D02*
X26314285Y-61193571D01*
X26457142Y-61122142D01*
X26528571Y-61050714D01*
X26671428Y-60836428D01*
X26742857Y-60550714D01*
X26742857Y-59979285D01*
X26671428Y-59836428D01*
X26600000Y-59765000D01*
X26457142Y-59693571D01*
X26171428Y-59693571D01*
X26028571Y-59765000D01*
X25957142Y-59836428D01*
X25885714Y-59979285D01*
X25885714Y-60336428D01*
X25957142Y-60479285D01*
X26028571Y-60550714D01*
X26171428Y-60622142D01*
X26457142Y-60622142D01*
X26600000Y-60550714D01*
X26671428Y-60479285D01*
X26742857Y-60336428D01*
X27242857Y-59693571D02*
X28171428Y-59693571D01*
X27671428Y-60265000D01*
X27885714Y-60265000D01*
X28028571Y-60336428D01*
X28100000Y-60407857D01*
X28171428Y-60550714D01*
X28171428Y-60907857D01*
X28100000Y-61050714D01*
X28028571Y-61122142D01*
X27885714Y-61193571D01*
X27457142Y-61193571D01*
X27314285Y-61122142D01*
X27242857Y-61050714D01*
X28885714Y-61193571D02*
X29171428Y-61193571D01*
X29314285Y-61122142D01*
X29385714Y-61050714D01*
X29528571Y-60836428D01*
X29600000Y-60550714D01*
X29600000Y-59979285D01*
X29528571Y-59836428D01*
X29457142Y-59765000D01*
X29314285Y-59693571D01*
X29028571Y-59693571D01*
X28885714Y-59765000D01*
X28814285Y-59836428D01*
X28742857Y-59979285D01*
X28742857Y-60336428D01*
X28814285Y-60479285D01*
X28885714Y-60550714D01*
X29028571Y-60622142D01*
X29314285Y-60622142D01*
X29457142Y-60550714D01*
X29528571Y-60479285D01*
X29600000Y-60336428D01*
X21171428Y-63743571D02*
X21028571Y-63672142D01*
X20957142Y-63529285D01*
X20957142Y-62243571D01*
X22314285Y-63672142D02*
X22171428Y-63743571D01*
X21885714Y-63743571D01*
X21742857Y-63672142D01*
X21671428Y-63529285D01*
X21671428Y-62957857D01*
X21742857Y-62815000D01*
X21885714Y-62743571D01*
X22171428Y-62743571D01*
X22314285Y-62815000D01*
X22385714Y-62957857D01*
X22385714Y-63100714D01*
X21671428Y-63243571D01*
X22814285Y-62743571D02*
X23385714Y-62743571D01*
X23028571Y-63743571D02*
X23028571Y-62457857D01*
X23100000Y-62315000D01*
X23242857Y-62243571D01*
X23385714Y-62243571D01*
X23671428Y-62743571D02*
X24242857Y-62743571D01*
X23885714Y-62243571D02*
X23885714Y-63529285D01*
X23957142Y-63672142D01*
X24100000Y-63743571D01*
X24242857Y-63743571D01*
X24385714Y-63886428D02*
X25528571Y-63886428D01*
X25814285Y-63672142D02*
X25957142Y-63743571D01*
X26242857Y-63743571D01*
X26385714Y-63672142D01*
X26457142Y-63529285D01*
X26457142Y-63457857D01*
X26385714Y-63315000D01*
X26242857Y-63243571D01*
X26028571Y-63243571D01*
X25885714Y-63172142D01*
X25814285Y-63029285D01*
X25814285Y-62957857D01*
X25885714Y-62815000D01*
X26028571Y-62743571D01*
X26242857Y-62743571D01*
X26385714Y-62815000D01*
X27100000Y-63743571D02*
X27100000Y-62743571D01*
X27100000Y-62243571D02*
X27028571Y-62315000D01*
X27100000Y-62386428D01*
X27171428Y-62315000D01*
X27100000Y-62243571D01*
X27100000Y-62386428D01*
X28457142Y-63743571D02*
X28457142Y-62243571D01*
X28457142Y-63672142D02*
X28314285Y-63743571D01*
X28028571Y-63743571D01*
X27885714Y-63672142D01*
X27814285Y-63600714D01*
X27742857Y-63457857D01*
X27742857Y-63029285D01*
X27814285Y-62886428D01*
X27885714Y-62815000D01*
X28028571Y-62743571D01*
X28314285Y-62743571D01*
X28457142Y-62815000D01*
X29742857Y-63672142D02*
X29600000Y-63743571D01*
X29314285Y-63743571D01*
X29171428Y-63672142D01*
X29100000Y-63529285D01*
X29100000Y-62957857D01*
X29171428Y-62815000D01*
X29314285Y-62743571D01*
X29600000Y-62743571D01*
X29742857Y-62815000D01*
X29814285Y-62957857D01*
X29814285Y-63100714D01*
X29100000Y-63243571D01*
D11*
X80450000Y-18720000D02*
X78950000Y-18720000D01*
X80450000Y-24120000D02*
X80450000Y-18720000D01*
X78950000Y-24120000D02*
X80450000Y-24120000D01*
X78950000Y-18720000D02*
X78950000Y-24120000D01*
X79200000Y-21920000D02*
X80200000Y-21920000D01*
X80200000Y-20920000D02*
X79700000Y-21820000D01*
X79200000Y-20920000D02*
X80200000Y-20920000D01*
X79700000Y-21820000D02*
X79200000Y-20920000D01*
X39970000Y-18690000D02*
X38470000Y-18690000D01*
X39970000Y-24090000D02*
X39970000Y-18690000D01*
X38470000Y-24090000D02*
X39970000Y-24090000D01*
X38470000Y-18690000D02*
X38470000Y-24090000D01*
X38720000Y-21890000D02*
X39720000Y-21890000D01*
X39720000Y-20890000D02*
X39220000Y-21790000D01*
X38720000Y-20890000D02*
X39720000Y-20890000D01*
X39220000Y-21790000D02*
X38720000Y-20890000D01*
X47480000Y-33310000D02*
X45980000Y-33310000D01*
X47480000Y-38710000D02*
X47480000Y-33310000D01*
X45980000Y-38710000D02*
X47480000Y-38710000D01*
X45980000Y-33310000D02*
X45980000Y-38710000D01*
X46230000Y-36510000D02*
X47230000Y-36510000D01*
X47230000Y-35510000D02*
X46730000Y-36410000D01*
X46230000Y-35510000D02*
X47230000Y-35510000D01*
X46730000Y-36410000D02*
X46230000Y-35510000D01*
X37630000Y1360000D02*
X36130000Y1360000D01*
X37630000Y-4040000D02*
X37630000Y1360000D01*
X36130000Y-4040000D02*
X37630000Y-4040000D01*
X36130000Y1360000D02*
X36130000Y-4040000D01*
X36380000Y-1840000D02*
X37380000Y-1840000D01*
X37380000Y-840000D02*
X36880000Y-1740000D01*
X36380000Y-840000D02*
X37380000Y-840000D01*
X36880000Y-1740000D02*
X36380000Y-840000D01*
X71210000Y-53240000D02*
X69710000Y-53240000D01*
X71210000Y-58640000D02*
X71210000Y-53240000D01*
X69710000Y-58640000D02*
X71210000Y-58640000D01*
X69710000Y-53240000D02*
X69710000Y-58640000D01*
X69960000Y-56440000D02*
X70960000Y-56440000D01*
X70960000Y-55440000D02*
X70460000Y-56340000D01*
X69960000Y-55440000D02*
X70960000Y-55440000D01*
X70460000Y-56340000D02*
X69960000Y-55440000D01*
X52100000Y-53310000D02*
X50600000Y-53310000D01*
X52100000Y-58710000D02*
X52100000Y-53310000D01*
X50600000Y-58710000D02*
X52100000Y-58710000D01*
X50600000Y-53310000D02*
X50600000Y-58710000D01*
X50850000Y-56510000D02*
X51850000Y-56510000D01*
X51850000Y-55510000D02*
X51350000Y-56410000D01*
X50850000Y-55510000D02*
X51850000Y-55510000D01*
X51350000Y-56410000D02*
X50850000Y-55510000D01*
X90230000Y-33340000D02*
X88730000Y-33340000D01*
X90230000Y-38740000D02*
X90230000Y-33340000D01*
X88730000Y-38740000D02*
X90230000Y-38740000D01*
X88730000Y-33340000D02*
X88730000Y-38740000D01*
X88980000Y-36540000D02*
X89980000Y-36540000D01*
X89980000Y-35540000D02*
X89480000Y-36440000D01*
X88980000Y-35540000D02*
X89980000Y-35540000D01*
X89480000Y-36440000D02*
X88980000Y-35540000D01*
X109120000Y-26260000D02*
X107620000Y-26260000D01*
X109120000Y-31660000D02*
X109120000Y-26260000D01*
X107620000Y-31660000D02*
X109120000Y-31660000D01*
X107620000Y-26260000D02*
X107620000Y-31660000D01*
X107870000Y-29460000D02*
X108870000Y-29460000D01*
X108870000Y-28460000D02*
X108370000Y-29360000D01*
X107870000Y-28460000D02*
X108870000Y-28460000D01*
X108370000Y-29360000D02*
X107870000Y-28460000D01*
X75790000Y-1670000D02*
X74290000Y-1670000D01*
X75790000Y-7070000D02*
X75790000Y-1670000D01*
X74290000Y-7070000D02*
X75790000Y-7070000D01*
X74290000Y-1670000D02*
X74290000Y-7070000D01*
X74540000Y-4870000D02*
X75540000Y-4870000D01*
X75540000Y-3870000D02*
X75040000Y-4770000D01*
X74540000Y-3870000D02*
X75540000Y-3870000D01*
X75040000Y-4770000D02*
X74540000Y-3870000D01*
X58950000Y-1810000D02*
X57450000Y-1810000D01*
X58950000Y-7210000D02*
X58950000Y-1810000D01*
X57450000Y-7210000D02*
X58950000Y-7210000D01*
X57450000Y-1810000D02*
X57450000Y-7210000D01*
X57700000Y-5010000D02*
X58700000Y-5010000D01*
X58700000Y-4010000D02*
X58200000Y-4910000D01*
X57700000Y-4010000D02*
X58700000Y-4010000D01*
X58200000Y-4910000D02*
X57700000Y-4010000D01*
X97230000Y-1610000D02*
X95730000Y-1610000D01*
X97230000Y-7010000D02*
X97230000Y-1610000D01*
X95730000Y-7010000D02*
X97230000Y-7010000D01*
X95730000Y-1610000D02*
X95730000Y-7010000D01*
X95980000Y-4810000D02*
X96980000Y-4810000D01*
X96980000Y-3810000D02*
X96480000Y-4710000D01*
X95980000Y-3810000D02*
X96980000Y-3810000D01*
X96480000Y-4710000D02*
X95980000Y-3810000D01*
X94650000Y-1700000D02*
X93150000Y-1700000D01*
X94650000Y-7100000D02*
X94650000Y-1700000D01*
X93150000Y-7100000D02*
X94650000Y-7100000D01*
X93150000Y-1700000D02*
X93150000Y-7100000D01*
X93400000Y-4900000D02*
X94400000Y-4900000D01*
X94400000Y-3900000D02*
X93900000Y-4800000D01*
X93400000Y-3900000D02*
X94400000Y-3900000D01*
X93900000Y-4800000D02*
X93400000Y-3900000D01*
X88850000Y-11370000D02*
X88850000Y-9870000D01*
X83450000Y-11370000D02*
X88850000Y-11370000D01*
X83450000Y-9870000D02*
X83450000Y-11370000D01*
X88850000Y-9870000D02*
X83450000Y-9870000D01*
X85650000Y-10120000D02*
X85650000Y-11120000D01*
X86650000Y-11120000D02*
X85750000Y-10620000D01*
X86650000Y-10120000D02*
X86650000Y-11120000D01*
X85750000Y-10620000D02*
X86650000Y-10120000D01*
X104340000Y-10620000D02*
X105240000Y-10120000D01*
X105240000Y-10120000D02*
X105240000Y-11120000D01*
X105240000Y-11120000D02*
X104340000Y-10620000D01*
X104240000Y-10120000D02*
X104240000Y-11120000D01*
X107440000Y-9870000D02*
X102040000Y-9870000D01*
X102040000Y-9870000D02*
X102040000Y-11370000D01*
X102040000Y-11370000D02*
X107440000Y-11370000D01*
X107440000Y-11370000D02*
X107440000Y-9870000D01*
X71110000Y-33400000D02*
X69610000Y-33400000D01*
X71110000Y-38800000D02*
X71110000Y-33400000D01*
X69610000Y-38800000D02*
X71110000Y-38800000D01*
X69610000Y-33400000D02*
X69610000Y-38800000D01*
X69860000Y-36600000D02*
X70860000Y-36600000D01*
X70860000Y-35600000D02*
X70360000Y-36500000D01*
X69860000Y-35600000D02*
X70860000Y-35600000D01*
X70360000Y-36500000D02*
X69860000Y-35600000D01*
X95850000Y-53980000D02*
X94350000Y-53980000D01*
X95850000Y-59380000D02*
X95850000Y-53980000D01*
X94350000Y-59380000D02*
X95850000Y-59380000D01*
X94350000Y-53980000D02*
X94350000Y-59380000D01*
X94600000Y-57180000D02*
X95600000Y-57180000D01*
X95600000Y-56180000D02*
X95100000Y-57080000D01*
X94600000Y-56180000D02*
X95600000Y-56180000D01*
X95100000Y-57080000D02*
X94600000Y-56180000D01*
X92840000Y-53980000D02*
X91340000Y-53980000D01*
X92840000Y-59380000D02*
X92840000Y-53980000D01*
X91340000Y-59380000D02*
X92840000Y-59380000D01*
X91340000Y-53980000D02*
X91340000Y-59380000D01*
X91590000Y-57180000D02*
X92590000Y-57180000D01*
X92590000Y-56180000D02*
X92090000Y-57080000D01*
X91590000Y-56180000D02*
X92590000Y-56180000D01*
X92090000Y-57080000D02*
X91590000Y-56180000D01*
X110630000Y-29360000D02*
X110130000Y-28460000D01*
X110130000Y-28460000D02*
X111130000Y-28460000D01*
X111130000Y-28460000D02*
X110630000Y-29360000D01*
X110130000Y-29460000D02*
X111130000Y-29460000D01*
X109880000Y-26260000D02*
X109880000Y-31660000D01*
X109880000Y-31660000D02*
X111380000Y-31660000D01*
X111380000Y-31660000D02*
X111380000Y-26260000D01*
X111380000Y-26260000D02*
X109880000Y-26260000D01*
X61440000Y-18770000D02*
X59940000Y-18770000D01*
X61440000Y-24170000D02*
X61440000Y-18770000D01*
X59940000Y-24170000D02*
X61440000Y-24170000D01*
X59940000Y-18770000D02*
X59940000Y-24170000D01*
X60190000Y-21970000D02*
X61190000Y-21970000D01*
X61190000Y-20970000D02*
X60690000Y-21870000D01*
X60190000Y-20970000D02*
X61190000Y-20970000D01*
X60690000Y-21870000D02*
X60190000Y-20970000D01*
X95972380Y-30768571D02*
X96115238Y-30816190D01*
X96162857Y-30863809D01*
X96210476Y-30959047D01*
X96210476Y-31101904D01*
X96162857Y-31197142D01*
X96115238Y-31244761D01*
X96020000Y-31292380D01*
X95639047Y-31292380D01*
X95639047Y-30292380D01*
X95972380Y-30292380D01*
X96067619Y-30340000D01*
X96115238Y-30387619D01*
X96162857Y-30482857D01*
X96162857Y-30578095D01*
X96115238Y-30673333D01*
X96067619Y-30720952D01*
X95972380Y-30768571D01*
X95639047Y-30768571D01*
X96781904Y-31292380D02*
X96686666Y-31244761D01*
X96639047Y-31197142D01*
X96591428Y-31101904D01*
X96591428Y-30816190D01*
X96639047Y-30720952D01*
X96686666Y-30673333D01*
X96781904Y-30625714D01*
X96924761Y-30625714D01*
X97020000Y-30673333D01*
X97067619Y-30720952D01*
X97115238Y-30816190D01*
X97115238Y-31101904D01*
X97067619Y-31197142D01*
X97020000Y-31244761D01*
X96924761Y-31292380D01*
X96781904Y-31292380D01*
X97400952Y-30625714D02*
X97781904Y-30625714D01*
X97543809Y-30292380D02*
X97543809Y-31149523D01*
X97591428Y-31244761D01*
X97686666Y-31292380D01*
X97781904Y-31292380D01*
X97972380Y-30625714D02*
X98353333Y-30625714D01*
X98115238Y-30292380D02*
X98115238Y-31149523D01*
X98162857Y-31244761D01*
X98258095Y-31292380D01*
X98353333Y-31292380D01*
X98829523Y-31292380D02*
X98734285Y-31244761D01*
X98686666Y-31197142D01*
X98639047Y-31101904D01*
X98639047Y-30816190D01*
X98686666Y-30720952D01*
X98734285Y-30673333D01*
X98829523Y-30625714D01*
X98972380Y-30625714D01*
X99067619Y-30673333D01*
X99115238Y-30720952D01*
X99162857Y-30816190D01*
X99162857Y-31101904D01*
X99115238Y-31197142D01*
X99067619Y-31244761D01*
X98972380Y-31292380D01*
X98829523Y-31292380D01*
X99591428Y-31292380D02*
X99591428Y-30625714D01*
X99591428Y-30720952D02*
X99639047Y-30673333D01*
X99734285Y-30625714D01*
X99877142Y-30625714D01*
X99972380Y-30673333D01*
X100020000Y-30768571D01*
X100020000Y-31292380D01*
X100020000Y-30768571D02*
X100067619Y-30673333D01*
X100162857Y-30625714D01*
X100305714Y-30625714D01*
X100400952Y-30673333D01*
X100448571Y-30768571D01*
X100448571Y-31292380D01*
X101639047Y-31244761D02*
X101781904Y-31292380D01*
X102020000Y-31292380D01*
X102115238Y-31244761D01*
X102162857Y-31197142D01*
X102210476Y-31101904D01*
X102210476Y-31006666D01*
X102162857Y-30911428D01*
X102115238Y-30863809D01*
X102020000Y-30816190D01*
X101829523Y-30768571D01*
X101734285Y-30720952D01*
X101686666Y-30673333D01*
X101639047Y-30578095D01*
X101639047Y-30482857D01*
X101686666Y-30387619D01*
X101734285Y-30340000D01*
X101829523Y-30292380D01*
X102067619Y-30292380D01*
X102210476Y-30340000D01*
X102639047Y-31292380D02*
X102639047Y-30625714D01*
X102639047Y-30292380D02*
X102591428Y-30340000D01*
X102639047Y-30387619D01*
X102686666Y-30340000D01*
X102639047Y-30292380D01*
X102639047Y-30387619D01*
X103543809Y-31292380D02*
X103543809Y-30292380D01*
X103543809Y-31244761D02*
X103448571Y-31292380D01*
X103258095Y-31292380D01*
X103162857Y-31244761D01*
X103115238Y-31197142D01*
X103067619Y-31101904D01*
X103067619Y-30816190D01*
X103115238Y-30720952D01*
X103162857Y-30673333D01*
X103258095Y-30625714D01*
X103448571Y-30625714D01*
X103543809Y-30673333D01*
X104400952Y-31244761D02*
X104305714Y-31292380D01*
X104115238Y-31292380D01*
X104020000Y-31244761D01*
X103972380Y-31149523D01*
X103972380Y-30768571D01*
X104020000Y-30673333D01*
X104115238Y-30625714D01*
X104305714Y-30625714D01*
X104400952Y-30673333D01*
X104448571Y-30768571D01*
X104448571Y-30863809D01*
X103972380Y-30959047D01*
X41172380Y-30758571D02*
X41315238Y-30806190D01*
X41362857Y-30853809D01*
X41410476Y-30949047D01*
X41410476Y-31091904D01*
X41362857Y-31187142D01*
X41315238Y-31234761D01*
X41220000Y-31282380D01*
X40839047Y-31282380D01*
X40839047Y-30282380D01*
X41172380Y-30282380D01*
X41267619Y-30330000D01*
X41315238Y-30377619D01*
X41362857Y-30472857D01*
X41362857Y-30568095D01*
X41315238Y-30663333D01*
X41267619Y-30710952D01*
X41172380Y-30758571D01*
X40839047Y-30758571D01*
X41981904Y-31282380D02*
X41886666Y-31234761D01*
X41839047Y-31187142D01*
X41791428Y-31091904D01*
X41791428Y-30806190D01*
X41839047Y-30710952D01*
X41886666Y-30663333D01*
X41981904Y-30615714D01*
X42124761Y-30615714D01*
X42220000Y-30663333D01*
X42267619Y-30710952D01*
X42315238Y-30806190D01*
X42315238Y-31091904D01*
X42267619Y-31187142D01*
X42220000Y-31234761D01*
X42124761Y-31282380D01*
X41981904Y-31282380D01*
X42600952Y-30615714D02*
X42981904Y-30615714D01*
X42743809Y-30282380D02*
X42743809Y-31139523D01*
X42791428Y-31234761D01*
X42886666Y-31282380D01*
X42981904Y-31282380D01*
X43172380Y-30615714D02*
X43553333Y-30615714D01*
X43315238Y-30282380D02*
X43315238Y-31139523D01*
X43362857Y-31234761D01*
X43458095Y-31282380D01*
X43553333Y-31282380D01*
X44029523Y-31282380D02*
X43934285Y-31234761D01*
X43886666Y-31187142D01*
X43839047Y-31091904D01*
X43839047Y-30806190D01*
X43886666Y-30710952D01*
X43934285Y-30663333D01*
X44029523Y-30615714D01*
X44172380Y-30615714D01*
X44267619Y-30663333D01*
X44315238Y-30710952D01*
X44362857Y-30806190D01*
X44362857Y-31091904D01*
X44315238Y-31187142D01*
X44267619Y-31234761D01*
X44172380Y-31282380D01*
X44029523Y-31282380D01*
X44791428Y-31282380D02*
X44791428Y-30615714D01*
X44791428Y-30710952D02*
X44839047Y-30663333D01*
X44934285Y-30615714D01*
X45077142Y-30615714D01*
X45172380Y-30663333D01*
X45220000Y-30758571D01*
X45220000Y-31282380D01*
X45220000Y-30758571D02*
X45267619Y-30663333D01*
X45362857Y-30615714D01*
X45505714Y-30615714D01*
X45600952Y-30663333D01*
X45648571Y-30758571D01*
X45648571Y-31282380D01*
X46839047Y-31234761D02*
X46981904Y-31282380D01*
X47220000Y-31282380D01*
X47315238Y-31234761D01*
X47362857Y-31187142D01*
X47410476Y-31091904D01*
X47410476Y-30996666D01*
X47362857Y-30901428D01*
X47315238Y-30853809D01*
X47220000Y-30806190D01*
X47029523Y-30758571D01*
X46934285Y-30710952D01*
X46886666Y-30663333D01*
X46839047Y-30568095D01*
X46839047Y-30472857D01*
X46886666Y-30377619D01*
X46934285Y-30330000D01*
X47029523Y-30282380D01*
X47267619Y-30282380D01*
X47410476Y-30330000D01*
X47839047Y-31282380D02*
X47839047Y-30615714D01*
X47839047Y-30282380D02*
X47791428Y-30330000D01*
X47839047Y-30377619D01*
X47886666Y-30330000D01*
X47839047Y-30282380D01*
X47839047Y-30377619D01*
X48743809Y-31282380D02*
X48743809Y-30282380D01*
X48743809Y-31234761D02*
X48648571Y-31282380D01*
X48458095Y-31282380D01*
X48362857Y-31234761D01*
X48315238Y-31187142D01*
X48267619Y-31091904D01*
X48267619Y-30806190D01*
X48315238Y-30710952D01*
X48362857Y-30663333D01*
X48458095Y-30615714D01*
X48648571Y-30615714D01*
X48743809Y-30663333D01*
X49600952Y-31234761D02*
X49505714Y-31282380D01*
X49315238Y-31282380D01*
X49220000Y-31234761D01*
X49172380Y-31139523D01*
X49172380Y-30758571D01*
X49220000Y-30663333D01*
X49315238Y-30615714D01*
X49505714Y-30615714D01*
X49600952Y-30663333D01*
X49648571Y-30758571D01*
X49648571Y-30853809D01*
X49172380Y-30949047D01*
X67452380Y-30778571D02*
X67595238Y-30826190D01*
X67642857Y-30873809D01*
X67690476Y-30969047D01*
X67690476Y-31111904D01*
X67642857Y-31207142D01*
X67595238Y-31254761D01*
X67500000Y-31302380D01*
X67119047Y-31302380D01*
X67119047Y-30302380D01*
X67452380Y-30302380D01*
X67547619Y-30350000D01*
X67595238Y-30397619D01*
X67642857Y-30492857D01*
X67642857Y-30588095D01*
X67595238Y-30683333D01*
X67547619Y-30730952D01*
X67452380Y-30778571D01*
X67119047Y-30778571D01*
X68261904Y-31302380D02*
X68166666Y-31254761D01*
X68119047Y-31207142D01*
X68071428Y-31111904D01*
X68071428Y-30826190D01*
X68119047Y-30730952D01*
X68166666Y-30683333D01*
X68261904Y-30635714D01*
X68404761Y-30635714D01*
X68500000Y-30683333D01*
X68547619Y-30730952D01*
X68595238Y-30826190D01*
X68595238Y-31111904D01*
X68547619Y-31207142D01*
X68500000Y-31254761D01*
X68404761Y-31302380D01*
X68261904Y-31302380D01*
X68880952Y-30635714D02*
X69261904Y-30635714D01*
X69023809Y-30302380D02*
X69023809Y-31159523D01*
X69071428Y-31254761D01*
X69166666Y-31302380D01*
X69261904Y-31302380D01*
X69452380Y-30635714D02*
X69833333Y-30635714D01*
X69595238Y-30302380D02*
X69595238Y-31159523D01*
X69642857Y-31254761D01*
X69738095Y-31302380D01*
X69833333Y-31302380D01*
X70309523Y-31302380D02*
X70214285Y-31254761D01*
X70166666Y-31207142D01*
X70119047Y-31111904D01*
X70119047Y-30826190D01*
X70166666Y-30730952D01*
X70214285Y-30683333D01*
X70309523Y-30635714D01*
X70452380Y-30635714D01*
X70547619Y-30683333D01*
X70595238Y-30730952D01*
X70642857Y-30826190D01*
X70642857Y-31111904D01*
X70595238Y-31207142D01*
X70547619Y-31254761D01*
X70452380Y-31302380D01*
X70309523Y-31302380D01*
X71071428Y-31302380D02*
X71071428Y-30635714D01*
X71071428Y-30730952D02*
X71119047Y-30683333D01*
X71214285Y-30635714D01*
X71357142Y-30635714D01*
X71452380Y-30683333D01*
X71500000Y-30778571D01*
X71500000Y-31302380D01*
X71500000Y-30778571D02*
X71547619Y-30683333D01*
X71642857Y-30635714D01*
X71785714Y-30635714D01*
X71880952Y-30683333D01*
X71928571Y-30778571D01*
X71928571Y-31302380D01*
X73119047Y-31254761D02*
X73261904Y-31302380D01*
X73500000Y-31302380D01*
X73595238Y-31254761D01*
X73642857Y-31207142D01*
X73690476Y-31111904D01*
X73690476Y-31016666D01*
X73642857Y-30921428D01*
X73595238Y-30873809D01*
X73500000Y-30826190D01*
X73309523Y-30778571D01*
X73214285Y-30730952D01*
X73166666Y-30683333D01*
X73119047Y-30588095D01*
X73119047Y-30492857D01*
X73166666Y-30397619D01*
X73214285Y-30350000D01*
X73309523Y-30302380D01*
X73547619Y-30302380D01*
X73690476Y-30350000D01*
X74119047Y-31302380D02*
X74119047Y-30635714D01*
X74119047Y-30302380D02*
X74071428Y-30350000D01*
X74119047Y-30397619D01*
X74166666Y-30350000D01*
X74119047Y-30302380D01*
X74119047Y-30397619D01*
X75023809Y-31302380D02*
X75023809Y-30302380D01*
X75023809Y-31254761D02*
X74928571Y-31302380D01*
X74738095Y-31302380D01*
X74642857Y-31254761D01*
X74595238Y-31207142D01*
X74547619Y-31111904D01*
X74547619Y-30826190D01*
X74595238Y-30730952D01*
X74642857Y-30683333D01*
X74738095Y-30635714D01*
X74928571Y-30635714D01*
X75023809Y-30683333D01*
X75880952Y-31254761D02*
X75785714Y-31302380D01*
X75595238Y-31302380D01*
X75500000Y-31254761D01*
X75452380Y-31159523D01*
X75452380Y-30778571D01*
X75500000Y-30683333D01*
X75595238Y-30635714D01*
X75785714Y-30635714D01*
X75880952Y-30683333D01*
X75928571Y-30778571D01*
X75928571Y-30873809D01*
X75452380Y-30969047D01*
M02*
