M48
; DRILL file {KiCad (5.1.6-0-10_14)} date Tuesday, May 03, 2022 at 08:52:30 PM
; FORMAT={-:-/ absolute / metric / decimal}
; #@! TF.CreationDate,2022-05-03T20:52:30+09:00
; #@! TF.GenerationSoftware,Kicad,Pcbnew,(5.1.6-0-10_14)
; #@! TF.FileFunction,Plated,1,2,PTH
FMAT,2
METRIC
T1C0.400
T2C0.813
T3C1.000
T4C1.300
%
G90
G05
T1
X23.871Y-12.529
X29.6Y-12.53
X40.96Y-26.37
X44.79Y-4.25
X44.84Y-12.78
X51.23Y-23.86
X51.27Y-32.72
X52.79Y-23.8
X52.79Y-32.72
X54.22Y-23.8
X54.27Y-32.97
X55.59Y2.54
X59.14Y9.55
X64.22Y-5.29
X64.29Y-13.6
X75.85Y6.76
X76.87Y-23.19
X76.87Y-32.41
X79.9Y-5.25
X81.04Y6.73
X83.42Y-13.13
X85.96Y-5.34
X85.96Y-12.94
X91.09Y-29.34
X91.13Y-31.7
X92.24Y-23.21
X92.3Y-32.49
X98.95Y-2.67
X100.24Y-43.32
X100.24Y-51.19
X102.29Y-13.11
X111.92Y-23.31
X111.94Y-32.41
T2
X70.36Y-32.29
X70.36Y-39.91
X36.88Y2.47
X36.88Y-5.15
X70.46Y-52.13
X70.46Y-59.75
X100.93Y-10.62
X108.55Y-10.62
X89.48Y-32.23
X89.48Y-39.85
X110.63Y-25.15
X110.63Y-32.77
X60.69Y-17.66
X60.69Y-25.28
X93.9Y-0.59
X93.9Y-8.21
X82.34Y-10.62
X89.96Y-10.62
X46.73Y-32.2
X46.73Y-39.82
X75.04Y-0.56
X75.04Y-8.18
X58.2Y-0.7
X58.2Y-8.32
X79.7Y-17.61
X79.7Y-25.23
X96.48Y-0.5
X96.48Y-8.12
X92.09Y-52.87
X92.09Y-60.49
X108.37Y-25.15
X108.37Y-32.77
X51.35Y-52.2
X51.35Y-59.82
X25.772Y7.991
X25.772Y-7.229
X28.312Y7.991
X28.312Y-7.229
X30.852Y7.991
X30.852Y-7.229
X33.392Y7.991
X33.392Y-7.229
X35.932Y7.991
X35.932Y-7.229
X38.472Y7.991
X38.472Y-7.229
X41.012Y7.991
X41.012Y-7.229
X43.552Y7.991
X43.552Y-7.229
X46.092Y7.991
X46.092Y-7.229
X48.632Y7.991
X48.632Y-7.229
X51.172Y7.991
X51.172Y-7.229
X53.712Y7.991
X53.712Y-7.229
X95.1Y-52.87
X95.1Y-60.49
X39.22Y-17.58
X39.22Y-25.2
T4
X68.695Y9.435
X74.325Y12.685
T3
G00X62.463Y14.734
M15
G01X62.896Y14.984
M16
G05
G00X63.264Y10.346
M15
G01X63.697Y10.596
M16
G05
G00X65.928Y16.734
M15
G01X66.361Y16.984
M16
G05
G00X68.526Y18.234
M15
G01X68.959Y18.484
M16
G05
T0
M30
