M48
; DRILL file {KiCad (5.1.6-0-10_14)} date Tuesday, May 03, 2022 at 10:50:31 PM
; FORMAT={-:-/ absolute / metric / decimal}
; #@! TF.CreationDate,2022-05-03T22:50:31+09:00
; #@! TF.GenerationSoftware,Kicad,Pcbnew,(5.1.6-0-10_14)
; #@! TF.FileFunction,NonPlated,1,2,NPTH
FMAT,2
METRIC
T1C0.600
%
G90
G05
T1
X134.674Y158.967
X134.674Y158.078
X134.674Y157.189
X134.674Y156.3
X134.674Y155.411
X134.674Y154.522
X134.674Y153.633
X136.706Y158.967
X136.706Y158.078
X136.706Y157.189
X136.706Y156.3
X136.706Y155.411
X136.706Y154.522
X136.706Y153.633
X134.714Y77.377
X134.714Y76.488
X134.714Y75.599
X134.714Y74.71
X134.714Y73.821
X134.714Y72.932
X134.714Y72.043
X136.746Y77.377
X136.746Y76.488
X136.746Y75.599
X136.746Y74.71
X136.746Y73.821
X136.746Y72.932
X136.746Y72.043
T0
M30
