G04 #@! TF.GenerationSoftware,KiCad,Pcbnew,(5.1.6-0-10_14)*
G04 #@! TF.CreationDate,2022-05-29T14:21:09+09:00*
G04 #@! TF.ProjectId,cool939,636f6f6c-3933-4392-9e6b-696361645f70,rev?*
G04 #@! TF.SameCoordinates,Original*
G04 #@! TF.FileFunction,Copper,L2,Bot*
G04 #@! TF.FilePolarity,Positive*
%FSLAX46Y46*%
G04 Gerber Fmt 4.6, Leading zero omitted, Abs format (unit mm)*
G04 Created by KiCad (PCBNEW (5.1.6-0-10_14)) date 2022-05-29 14:21:09*
%MOMM*%
%LPD*%
G01*
G04 APERTURE LIST*
G04 #@! TA.AperFunction,SMDPad,CuDef*
%ADD10R,0.950000X1.300000*%
G04 #@! TD*
G04 #@! TA.AperFunction,ComponentPad*
%ADD11R,1.397000X1.397000*%
G04 #@! TD*
G04 #@! TA.AperFunction,ComponentPad*
%ADD12C,1.397000*%
G04 #@! TD*
G04 #@! TA.AperFunction,ComponentPad*
%ADD13C,2.000000*%
G04 #@! TD*
G04 #@! TA.AperFunction,ComponentPad*
%ADD14C,1.524000*%
G04 #@! TD*
G04 #@! TA.AperFunction,SMDPad,CuDef*
%ADD15R,1.800000X0.820000*%
G04 #@! TD*
G04 #@! TA.AperFunction,SMDPad,CuDef*
%ADD16R,2.550000X2.500000*%
G04 #@! TD*
G04 #@! TA.AperFunction,SMDPad,CuDef*
%ADD17R,1.524000X1.524000*%
G04 #@! TD*
G04 #@! TA.AperFunction,ViaPad*
%ADD18C,0.800000*%
G04 #@! TD*
G04 #@! TA.AperFunction,Conductor*
%ADD19C,0.250000*%
G04 #@! TD*
G04 APERTURE END LIST*
D10*
X253750000Y-16665000D03*
X253750000Y-20215000D03*
D11*
X253750000Y-22250000D03*
D12*
X253750000Y-14630000D03*
D13*
X231514583Y9775000D03*
X225885417Y13025000D03*
D14*
X279038000Y-7201400D03*
X276498000Y-7201400D03*
X273958000Y-7201400D03*
X271418000Y-7201400D03*
X268878000Y-7201400D03*
X266338000Y-7201400D03*
X263798000Y-7201400D03*
X261258000Y-7201400D03*
X258718000Y-7201400D03*
X256178000Y-7201400D03*
X253638000Y-7201400D03*
X251098000Y-7201400D03*
X251098000Y8018600D03*
X253638000Y8018600D03*
X256178000Y8018600D03*
X258718000Y8018600D03*
X261258000Y8018600D03*
X263798000Y8018600D03*
X266338000Y8018600D03*
X268878000Y8018600D03*
X271418000Y8018600D03*
X273958000Y8018600D03*
X276498000Y8018600D03*
X279038000Y8018600D03*
D15*
X252270000Y-29230000D03*
X252270000Y-27730000D03*
X247270000Y-27730000D03*
X247270000Y-29230000D03*
D10*
X204360000Y-53295000D03*
X204360000Y-56845000D03*
D11*
X204360000Y-58880000D03*
D12*
X204360000Y-51260000D03*
D10*
X242500000Y-33385000D03*
X242500000Y-36935000D03*
D11*
X242500000Y-38970000D03*
D12*
X242500000Y-31350000D03*
D10*
X246280000Y5000D03*
X246280000Y-3545000D03*
D11*
X246280000Y-5580000D03*
D12*
X246280000Y2040000D03*
D16*
X192940000Y2540000D03*
X205867000Y5080000D03*
D12*
X282060000Y-13100000D03*
D11*
X282060000Y-20720000D03*
D10*
X282060000Y-18685000D03*
X282060000Y-15135000D03*
D12*
X263490000Y-31220000D03*
D11*
X263490000Y-38840000D03*
D10*
X263490000Y-36805000D03*
X263490000Y-33255000D03*
D12*
X227100000Y-51370000D03*
D11*
X227100000Y-58990000D03*
D10*
X227100000Y-56955000D03*
X227100000Y-53405000D03*
D16*
X173890000Y2540000D03*
X186817000Y5080000D03*
D15*
X221320000Y-29290000D03*
X221320000Y-27790000D03*
X226320000Y-27790000D03*
X226320000Y-29290000D03*
G04 #@! TA.AperFunction,ComponentPad*
G36*
G01*
X238737690Y15604775D02*
X239430510Y15204775D01*
G75*
G02*
X239741632Y14043653I-425000J-736122D01*
G01*
X239741632Y14043653D01*
G75*
G02*
X238580510Y13732531I-736122J425000D01*
G01*
X237887690Y14132531D01*
G75*
G02*
X237576568Y15293653I425000J736122D01*
G01*
X237576568Y15293653D01*
G75*
G02*
X238737690Y15604775I736122J-425000D01*
G01*
G37*
G04 #@! TD.AperFunction*
G04 #@! TA.AperFunction,ComponentPad*
G36*
G01*
X235338652Y12717469D02*
X236031472Y12317469D01*
G75*
G02*
X236342594Y11156347I-425000J-736122D01*
G01*
X236342594Y11156347D01*
G75*
G02*
X235181472Y10845225I-736122J425000D01*
G01*
X234488652Y11245225D01*
G75*
G02*
X234177530Y12406347I425000J736122D01*
G01*
X234177530Y12406347D01*
G75*
G02*
X235338652Y12717469I736122J-425000D01*
G01*
G37*
G04 #@! TD.AperFunction*
G04 #@! TA.AperFunction,ComponentPad*
G36*
G01*
X231874550Y14717469D02*
X232567370Y14317469D01*
G75*
G02*
X232878492Y13156347I-425000J-736122D01*
G01*
X232878492Y13156347D01*
G75*
G02*
X231717370Y12845225I-736122J425000D01*
G01*
X231024550Y13245225D01*
G75*
G02*
X230713428Y14406347I425000J736122D01*
G01*
X230713428Y14406347D01*
G75*
G02*
X231874550Y14717469I736122J-425000D01*
G01*
G37*
G04 #@! TD.AperFunction*
G04 #@! TA.AperFunction,ComponentPad*
G36*
G01*
X229276474Y16217469D02*
X229969294Y15817469D01*
G75*
G02*
X230280416Y14656347I-425000J-736122D01*
G01*
X230280416Y14656347D01*
G75*
G02*
X229119294Y14345225I-736122J425000D01*
G01*
X228426474Y14745225D01*
G75*
G02*
X228115352Y15906347I425000J736122D01*
G01*
X228115352Y15906347D01*
G75*
G02*
X229276474Y16217469I736122J-425000D01*
G01*
G37*
G04 #@! TD.AperFunction*
D12*
X231970000Y-51340000D03*
D11*
X231970000Y-58960000D03*
D10*
X231970000Y-56925000D03*
X231970000Y-53375000D03*
D15*
X197770000Y-29230000D03*
X197770000Y-27730000D03*
X192770000Y-27730000D03*
X192770000Y-29230000D03*
D16*
X226277500Y-35560000D03*
X239204500Y-33020000D03*
X178652500Y-16510000D03*
X191579500Y-13970000D03*
X197702500Y-16510000D03*
X210629500Y-13970000D03*
X207227500Y-35560000D03*
X220154500Y-33020000D03*
X216752500Y-16510000D03*
X229679500Y-13970000D03*
X188177500Y-35560000D03*
X201104500Y-33020000D03*
X235802500Y-16510000D03*
X248729500Y-13970000D03*
X235802500Y-54610000D03*
X248729500Y-52070000D03*
X261996500Y-16510000D03*
X274923500Y-13970000D03*
X269140000Y2540000D03*
X282067000Y5080000D03*
X245327500Y-35560000D03*
X258254500Y-33020000D03*
X183415000Y-54610000D03*
X196342000Y-52070000D03*
X250090000Y2540000D03*
X263017000Y5080000D03*
D10*
X256560000Y-16745000D03*
X256560000Y-20295000D03*
D11*
X256560000Y-22330000D03*
D12*
X256560000Y-14710000D03*
D10*
X227340000Y-2775000D03*
X227340000Y-6325000D03*
D11*
X227340000Y-8360000D03*
D12*
X227340000Y-740000D03*
D10*
X208240000Y-2515000D03*
X208240000Y-6065000D03*
D11*
X208240000Y-8100000D03*
D12*
X208240000Y-480000D03*
D16*
X211990000Y2540000D03*
X224917000Y5080000D03*
D17*
X190630000Y-47740000D03*
X190630000Y-45200000D03*
X190630000Y-42660000D03*
D10*
X201760000Y-53315000D03*
X201760000Y-56865000D03*
D11*
X201760000Y-58900000D03*
D12*
X201760000Y-51280000D03*
D10*
X232080000Y-21165000D03*
X232080000Y-24715000D03*
D11*
X232080000Y-26750000D03*
D12*
X232080000Y-19130000D03*
D10*
X194010000Y-19445000D03*
X194010000Y-22995000D03*
D11*
X194010000Y-25030000D03*
D12*
X194010000Y-17410000D03*
D10*
X206870000Y-53365000D03*
X206870000Y-56915000D03*
D11*
X206870000Y-58950000D03*
D12*
X206870000Y-51330000D03*
D10*
X260940000Y-33255000D03*
X260940000Y-36805000D03*
D11*
X260940000Y-38840000D03*
D12*
X260940000Y-31220000D03*
D10*
X229540000Y-53435000D03*
X229540000Y-56985000D03*
D11*
X229540000Y-59020000D03*
D12*
X229540000Y-51400000D03*
D10*
X212880000Y-19635000D03*
X212880000Y-23185000D03*
D11*
X212880000Y-25220000D03*
D12*
X212880000Y-17600000D03*
D10*
X189180000Y-2645000D03*
X189180000Y-6195000D03*
D11*
X189180000Y-8230000D03*
D12*
X189180000Y-610000D03*
D10*
X234570000Y-21145000D03*
X234570000Y-24695000D03*
D11*
X234570000Y-26730000D03*
D12*
X234570000Y-19110000D03*
D16*
X231040000Y2540000D03*
X243967000Y5080000D03*
X209609000Y-54610000D03*
X222536000Y-52070000D03*
X266758500Y-35560000D03*
X279685500Y-33020000D03*
X254852500Y-54610000D03*
X267779500Y-52070000D03*
D18*
X235760000Y-12140000D03*
X255710000Y-8594980D03*
X260180000Y-1430000D03*
X204480000Y-34570000D03*
X204310000Y-8955000D03*
X207080000Y-23960000D03*
X208930000Y-23950000D03*
X208970000Y-27730000D03*
X213860000Y-8840000D03*
X278050000Y-12740000D03*
X216680000Y-4740000D03*
X203450000Y-27730000D03*
X200920000Y-47640000D03*
X232200000Y-29210000D03*
X218930000Y-29340000D03*
X190570000Y-29340000D03*
X257600000Y-29875000D03*
X245270000Y-29230000D03*
X216650000Y-29330000D03*
X202490000Y-29955000D03*
X189810000Y-40350000D03*
X260880000Y2780000D03*
X248010000Y5550000D03*
X249680000Y-5070000D03*
X202600000Y-37940000D03*
X205370000Y-29230000D03*
X214490000Y-29490000D03*
X215570000Y-23710000D03*
X228330000Y-31150010D03*
X228320000Y-29350000D03*
X178652500Y-10747500D03*
X218140000Y-10880000D03*
X192970000Y-5260000D03*
X218120000Y-9800000D03*
X204410000Y-31760000D03*
X209460000Y-44950000D03*
X209450000Y-50860000D03*
X204440000Y-22820000D03*
X192970000Y-9810000D03*
X237890000Y-43210000D03*
X229640000Y-31240000D03*
X228770000Y-22100000D03*
X237880000Y-50360000D03*
X216650000Y-8960000D03*
X216630000Y-6540000D03*
X244470000Y-22200000D03*
X252440000Y-5100000D03*
X244450000Y-31880000D03*
X231450000Y-3560000D03*
X231980000Y-11210000D03*
X251265153Y-2590152D03*
X265260000Y-2880000D03*
X262300000Y-14270000D03*
X250080000Y-1430000D03*
X266790000Y-27020000D03*
X266710000Y-31440000D03*
X273080000Y-1570000D03*
X246460000Y5540000D03*
X248040000Y-5220000D03*
X263500000Y1890000D03*
X261750000Y-13130000D03*
D19*
X189180000Y-610000D02*
X189180000Y2520000D01*
X186817000Y4883000D02*
X186817000Y5080000D01*
X189180000Y2520000D02*
X186817000Y4883000D01*
X189180000Y-2645000D02*
X189180000Y-610000D01*
X206120000Y5080000D02*
X205867000Y5080000D01*
X208240000Y2960000D02*
X206120000Y5080000D01*
X208240000Y-2515000D02*
X208240000Y-480000D01*
X208240000Y-480000D02*
X208240000Y2960000D01*
X226140000Y5080000D02*
X227340000Y3880000D01*
X224917000Y5080000D02*
X226140000Y5080000D01*
X227340000Y3880000D02*
X227340000Y-740000D01*
X227340000Y-740000D02*
X227340000Y-2775000D01*
X243967000Y4353000D02*
X246280000Y2040000D01*
X246280000Y5000D02*
X246280000Y2040000D01*
X243967000Y5080000D02*
X243967000Y4353000D01*
X194010000Y-17410000D02*
X194010000Y-16400500D01*
X194010000Y-17410000D02*
X194010000Y-19445000D01*
X194010000Y-16400500D02*
X191579500Y-13970000D01*
X212880000Y-17600000D02*
X212880000Y-19635000D01*
X212880000Y-16220500D02*
X210629500Y-13970000D01*
X212880000Y-17600000D02*
X212880000Y-16220500D01*
X232080000Y-19130000D02*
X232080000Y-16370500D01*
X232080000Y-19130000D02*
X232080000Y-21165000D01*
X232080000Y-16370500D02*
X229679500Y-13970000D01*
X235760000Y-12140000D02*
X242740000Y-12140000D01*
X243720000Y-11160000D02*
X247600000Y-11160000D01*
X247600000Y-11160000D02*
X248729500Y-12289500D01*
X234570000Y-21145000D02*
X234570000Y-19110000D01*
X248729500Y-12289500D02*
X248729500Y-13970000D01*
X242740000Y-12140000D02*
X243720000Y-11160000D01*
X267240000Y-59880000D02*
X267935000Y-59185000D01*
X267779500Y-52070000D02*
X268292501Y-52583001D01*
X268292501Y-52583001D02*
X268292501Y-58827499D01*
X267935000Y-59185000D02*
X268217501Y-58902499D01*
X268292501Y-58827499D02*
X267935000Y-59185000D01*
X268541500Y-51308000D02*
X268097705Y-51751795D01*
X261090000Y-60740000D02*
X261950000Y-59880000D01*
X231970000Y-51340000D02*
X231970000Y-53375000D01*
X231970000Y-51340000D02*
X232700000Y-51340000D01*
X237847498Y-60740000D02*
X261090000Y-60740000D01*
X268217501Y-52508001D02*
X267779500Y-52070000D01*
X232700000Y-51340000D02*
X232700000Y-55592502D01*
X232700000Y-55592502D02*
X237847498Y-60740000D01*
X261950000Y-59880000D02*
X267240000Y-59880000D01*
X203500000Y-35415500D02*
X203500000Y-41580000D01*
X201104500Y-33020000D02*
X203500000Y-35415500D01*
X203500000Y-41580000D02*
X204360000Y-42440000D01*
X204360000Y-42440000D02*
X204360000Y-51260000D01*
X204360000Y-51260000D02*
X204360000Y-53295000D01*
X206870000Y-51330000D02*
X206870000Y-49770000D01*
X220667501Y-39132499D02*
X220667501Y-33533001D01*
X220667501Y-33533001D02*
X220154500Y-33020000D01*
X213590000Y-43050000D02*
X216750000Y-43050000D01*
X206870000Y-51330000D02*
X206870000Y-53365000D01*
X220154500Y-33020000D02*
X221170500Y-33020000D01*
X206870000Y-49770000D02*
X213590000Y-43050000D01*
X216750000Y-43050000D02*
X220667501Y-39132499D01*
X239569500Y-33385000D02*
X239204500Y-33020000D01*
X242500000Y-33385000D02*
X239569500Y-33385000D01*
X242500000Y-31350000D02*
X242500000Y-33385000D01*
X229540000Y-51400000D02*
X229540000Y-50100000D01*
X229540000Y-50100000D02*
X230450000Y-49190000D01*
X230450000Y-49190000D02*
X248130000Y-49190000D01*
X248729500Y-49789500D02*
X248729500Y-52070000D01*
X248130000Y-49190000D02*
X248729500Y-49789500D01*
X229540000Y-53435000D02*
X229540000Y-51400000D01*
X264420000Y-30290000D02*
X279000000Y-30290000D01*
X279685500Y-30975500D02*
X279685500Y-33020000D01*
X263490000Y-31220000D02*
X264420000Y-30290000D01*
X279000000Y-30290000D02*
X279685500Y-30975500D01*
X263490000Y-31220000D02*
X263490000Y-33255000D01*
X227100000Y-51370000D02*
X223236000Y-51370000D01*
X223236000Y-51370000D02*
X222536000Y-52070000D01*
X227100000Y-51370000D02*
X227100000Y-53405000D01*
X222536000Y-52070000D02*
X223552000Y-52070000D01*
X227340000Y-6325000D02*
X227340000Y-8360000D01*
X239989200Y-5905020D02*
X242127801Y-5905019D01*
X247650000Y-4090000D02*
X247650000Y-4210000D01*
X247650000Y-4210000D02*
X246280000Y-5580000D01*
X249500000Y-2240000D02*
X247650000Y-4090000D01*
X250590000Y-2240000D02*
X251190000Y-1640000D01*
X250590000Y-2240000D02*
X249500000Y-2240000D01*
X263474999Y-2375001D02*
X255714999Y-2375001D01*
X251190000Y-1640000D02*
X254979998Y-1640000D01*
X254979998Y-1640000D02*
X255714999Y-2375001D01*
X247324980Y-8594980D02*
X246280000Y-7550000D01*
X246280000Y-7550000D02*
X246280000Y-5580000D01*
X255710000Y-8594980D02*
X247324980Y-8594980D01*
X265640000Y6190000D02*
X265640000Y-210000D01*
X265640000Y-210000D02*
X263474999Y-2375001D01*
X264828300Y6988300D02*
X264841700Y6988300D01*
X263798000Y8018600D02*
X264828300Y6988300D01*
X264841700Y6988300D02*
X265640000Y6190000D01*
X242127801Y-5905019D02*
X242306410Y-5726410D01*
X246280000Y-5580000D02*
X242452820Y-5580000D01*
X242452820Y-5580000D02*
X242306410Y-5726410D01*
X246280000Y-3545000D02*
X246280000Y-5580000D01*
X256560000Y-22330000D02*
X256610000Y-22330000D01*
X256560000Y-20295000D02*
X256560000Y-22330000D01*
X227340000Y-8360000D02*
X228110000Y-8360000D01*
X230820000Y-5650000D02*
X230820000Y-5635031D01*
X228110000Y-8360000D02*
X230820000Y-5650000D01*
X230820000Y-5635031D02*
X239719209Y-5635031D01*
X239719209Y-5635031D02*
X239989200Y-5905020D01*
X208240000Y-6065000D02*
X208240000Y-8100000D01*
X189180000Y-8230000D02*
X208110000Y-8230000D01*
X189180000Y-8230000D02*
X189180000Y-6195000D01*
X208240000Y-8100000D02*
X227080000Y-8100000D01*
X227080000Y-8100000D02*
X227340000Y-8360000D01*
X208110000Y-8230000D02*
X208240000Y-8100000D01*
X265189990Y6003600D02*
X265189990Y-23600D01*
X264673590Y6520000D02*
X265189990Y6003600D01*
X261258000Y8018600D02*
X262345001Y6931599D01*
X264248591Y6931599D02*
X264660190Y6520000D01*
X262345001Y6931599D02*
X264248591Y6931599D01*
X264660190Y6520000D02*
X264673590Y6520000D01*
X265189990Y-23600D02*
X263783590Y-1430000D01*
X263783590Y-1430000D02*
X260180000Y-1430000D01*
X234570000Y-26730000D02*
X241290000Y-26730000D01*
X244070000Y-25170000D02*
X242510000Y-26730000D01*
X242510000Y-26730000D02*
X241290000Y-26730000D01*
X253750000Y-22250000D02*
X253750000Y-23198500D01*
X251778500Y-25170000D02*
X244070000Y-25170000D01*
X253750000Y-23198500D02*
X251778500Y-25170000D01*
X253750000Y-20215000D02*
X253750000Y-22250000D01*
X212690000Y-25030000D02*
X212880000Y-25220000D01*
X212880000Y-23185000D02*
X212880000Y-25220000D01*
X232080000Y-24715000D02*
X232080000Y-26750000D01*
X234550000Y-26750000D02*
X234570000Y-26730000D01*
X231450000Y-26750000D02*
X232080000Y-26750000D01*
X229920000Y-25220000D02*
X231450000Y-26750000D01*
X194010000Y-22995000D02*
X194010000Y-25030000D01*
X212880000Y-25220000D02*
X229920000Y-25220000D01*
X234570000Y-26730000D02*
X234570000Y-24695000D01*
X232080000Y-26750000D02*
X234550000Y-26750000D01*
X194010000Y-25030000D02*
X212690000Y-25030000D01*
X212636410Y-44640000D02*
X241470000Y-44640000D01*
X260940000Y-36805000D02*
X260940000Y-38840000D01*
X242500000Y-36935000D02*
X242500000Y-38970000D01*
X260940000Y-38840000D02*
X263490000Y-38840000D01*
X206870000Y-56915000D02*
X206870000Y-58950000D01*
X207893501Y-49382909D02*
X212636410Y-44640000D01*
X207893501Y-57926499D02*
X207893501Y-49382909D01*
X206870000Y-58950000D02*
X207893501Y-57926499D01*
X241470000Y-44640000D02*
X242500000Y-43610000D01*
X242500000Y-43610000D02*
X242500000Y-38970000D01*
X263490000Y-36805000D02*
X263490000Y-38840000D01*
X204360000Y-56845000D02*
X204360000Y-58880000D01*
X206990000Y-17420000D02*
X207750000Y-18180000D01*
X204310000Y-14720000D02*
X206990000Y-17400000D01*
X206990000Y-17400000D02*
X206990000Y-17420000D01*
X234260000Y-59390000D02*
X232400000Y-59390000D01*
X232400000Y-59390000D02*
X231970000Y-58960000D01*
X236060010Y-61190010D02*
X234260000Y-59390000D01*
X269270000Y-57190000D02*
X269270000Y-58486410D01*
X266566400Y-61190010D02*
X236060010Y-61190010D01*
X269270000Y-58486410D02*
X266566400Y-61190010D01*
X282060000Y-44400000D02*
X269270000Y-57190000D01*
X282060000Y-20720000D02*
X282060000Y-44400000D01*
X204480000Y-34570000D02*
X204879999Y-34969999D01*
X205580000Y-42190000D02*
X205360000Y-41970000D01*
X205580000Y-52390000D02*
X205580000Y-42190000D01*
X205360000Y-41970000D02*
X205360000Y-41960000D01*
X204879999Y-41479999D02*
X205360000Y-41960000D01*
X205360000Y-41960000D02*
X205500000Y-42100000D01*
X205580000Y-52390000D02*
X205580000Y-51890000D01*
X205580000Y-60770000D02*
X205580000Y-52390000D01*
X203170000Y-60770000D02*
X205580000Y-60770000D01*
X205580000Y-60770000D02*
X206650000Y-60770000D01*
X204879999Y-37929999D02*
X204879999Y-41269999D01*
X204879999Y-34969999D02*
X204879999Y-37929999D01*
X204879999Y-37929999D02*
X204879999Y-41479999D01*
X206650000Y-60770000D02*
X225320000Y-60770000D01*
X201760000Y-56865000D02*
X201760000Y-58900000D01*
X201760000Y-59360000D02*
X203170000Y-60770000D01*
X201760000Y-58900000D02*
X201760000Y-59360000D01*
X204310000Y-8955000D02*
X204310000Y-14720000D01*
X229540000Y-59020000D02*
X231910000Y-59020000D01*
X231910000Y-59020000D02*
X231970000Y-58960000D01*
X282060000Y-20720000D02*
X282060000Y-18685000D01*
X225320000Y-60770000D02*
X227100000Y-58990000D01*
X229540000Y-56985000D02*
X229540000Y-59020000D01*
X227100000Y-58990000D02*
X227100000Y-56955000D01*
X231970000Y-58960000D02*
X231970000Y-56925000D01*
X227130000Y-59020000D02*
X227100000Y-58990000D01*
X229540000Y-59020000D02*
X227130000Y-59020000D01*
X207750000Y-18180000D02*
X207750000Y-23290000D01*
X207750000Y-23290000D02*
X207080000Y-23960000D01*
X211985002Y-22240000D02*
X210640000Y-22240000D01*
X235492002Y-27790000D02*
X236101992Y-27180010D01*
X208970000Y-27730000D02*
X215800000Y-27730000D01*
X252370000Y-26070000D02*
X251104486Y-26070000D01*
X213860000Y-8840000D02*
X213903501Y-8883501D01*
X225054486Y-26030000D02*
X226320000Y-27295514D01*
X210640000Y-22240000D02*
X208930000Y-23950000D01*
X213903501Y-20321501D02*
X211985002Y-22240000D01*
X236101992Y-27180010D02*
X242696401Y-27180009D01*
X242696401Y-27180009D02*
X244256400Y-25620010D01*
X215800000Y-27730000D02*
X217500000Y-26030000D01*
X213903501Y-8883501D02*
X213903501Y-20321501D01*
X244256400Y-25620010D02*
X250654496Y-25620010D01*
X217500000Y-26030000D02*
X225054486Y-26030000D01*
X226320000Y-27790000D02*
X235492002Y-27790000D01*
X219590000Y-4740000D02*
X216680000Y-4740000D01*
X273894999Y-27745001D02*
X278050000Y-23590000D01*
X255840000Y-26070000D02*
X257515001Y-27745001D01*
X252370000Y-26070000D02*
X255840000Y-26070000D01*
X257515001Y-27745001D02*
X273894999Y-27745001D01*
X221690000Y-2640000D02*
X219590000Y-4740000D01*
X218870000Y6360000D02*
X218870000Y3840000D01*
X278050000Y-23590000D02*
X278050000Y-12740000D01*
X221690000Y1020000D02*
X221690000Y-2640000D01*
X221030000Y8520000D02*
X218870000Y6360000D01*
X218870000Y3840000D02*
X221690000Y1020000D01*
X231795960Y13781347D02*
X226641764Y13781347D01*
X226641764Y13781347D02*
X225885417Y13025000D01*
X225885417Y9765417D02*
X224640000Y8520000D01*
X224640000Y8520000D02*
X221030000Y8520000D01*
X225885417Y13025000D02*
X225885417Y9765417D01*
X203450000Y-27730000D02*
X208970000Y-27730000D01*
X197770000Y-27730000D02*
X203450000Y-27730000D01*
X251104486Y-26070000D02*
X250654496Y-25620010D01*
X252370000Y-27630000D02*
X252270000Y-27730000D01*
X252370000Y-26070000D02*
X252370000Y-27630000D01*
X252270000Y-27235514D02*
X252270000Y-27730000D01*
X226320000Y-27295514D02*
X226320000Y-27790000D01*
X190730000Y-47640000D02*
X190630000Y-47740000D01*
X200920000Y-47640000D02*
X190730000Y-47640000D01*
X244910000Y-29230000D02*
X232220000Y-29230000D01*
X192660000Y-29340000D02*
X192770000Y-29230000D01*
X190570000Y-29340000D02*
X192660000Y-29340000D01*
X232220000Y-29230000D02*
X232200000Y-29210000D01*
X247270000Y-29230000D02*
X245270000Y-29230000D01*
X221270000Y-29340000D02*
X221320000Y-29290000D01*
X218930000Y-29340000D02*
X221270000Y-29340000D01*
X273710000Y4440000D02*
X275930000Y4440000D01*
X275930000Y4440000D02*
X279440000Y930000D01*
X271418000Y6732000D02*
X273710000Y4440000D01*
X271418000Y8018600D02*
X271418000Y6732000D01*
X279440000Y-560000D02*
X279440000Y930000D01*
X280250000Y-1370000D02*
X279440000Y-560000D01*
X280250000Y-11720000D02*
X280250000Y-1370000D01*
X278500010Y-13469990D02*
X280250000Y-11720000D01*
X278500010Y-23776400D02*
X278500010Y-13469990D01*
X274081400Y-28195010D02*
X278500010Y-23776400D01*
X259279989Y-28195011D02*
X274081400Y-28195010D01*
X257600000Y-29875000D02*
X259279989Y-28195011D01*
X245270000Y-29230000D02*
X244910000Y-29230000D01*
X247270000Y-29230000D02*
X246080000Y-29230000D01*
X215764999Y-30215001D02*
X216650000Y-29330000D01*
X202490000Y-29955000D02*
X213881998Y-29955000D01*
X213881998Y-29955000D02*
X214141999Y-30215001D01*
X214141999Y-30215001D02*
X215764999Y-30215001D01*
X190630000Y-41170000D02*
X189810000Y-40350000D01*
X190630000Y-42660000D02*
X190630000Y-41170000D01*
X238572243Y11781347D02*
X238643600Y11709990D01*
X235260062Y11781347D02*
X238572243Y11781347D01*
X242479990Y11709990D02*
X242720010Y11709990D01*
X238643600Y11709990D02*
X242479990Y11709990D01*
X242479990Y11709990D02*
X242763600Y11709990D01*
X247284999Y5201999D02*
X247696998Y4790000D01*
X247284999Y7145001D02*
X247284999Y5201999D01*
X242720010Y11709990D02*
X247284999Y7145001D01*
X247696998Y4790000D02*
X256040000Y4790000D01*
X256040000Y4790000D02*
X256250000Y4790000D01*
X256250000Y4790000D02*
X258260000Y2780000D01*
X258260000Y2780000D02*
X260880000Y2780000D01*
X248010000Y5550000D02*
X248010000Y7100000D01*
X248010000Y7100000D02*
X242950000Y12160000D01*
X235240000Y15750000D02*
X231966537Y15750000D01*
X242950000Y12160000D02*
X238830000Y12160000D01*
X238830000Y12160000D02*
X235240000Y15750000D01*
X231966537Y15750000D02*
X231738268Y15521732D01*
X229197884Y15281347D02*
X231497883Y15281347D01*
X231497883Y15281347D02*
X231738268Y15521732D01*
X231738268Y15521732D02*
X231497884Y15281347D01*
X251991501Y-4401501D02*
X251323002Y-5070000D01*
X251991501Y-4401501D02*
X252065497Y-4401501D01*
X275544999Y-4374999D02*
X276498000Y-5328000D01*
X252065497Y-4401501D02*
X252091999Y-4374999D01*
X252091999Y-4374999D02*
X275544999Y-4374999D01*
X251323002Y-5070000D02*
X249680000Y-5070000D01*
X276498000Y-7201400D02*
X276498000Y-5328000D01*
X197770000Y-29230000D02*
X205370000Y-29230000D01*
X214490000Y-29490000D02*
X205630000Y-29490000D01*
X252250000Y-20740000D02*
X252250000Y-20890000D01*
X205370000Y-29230000D02*
X205630000Y-29490000D01*
X243720000Y-23710000D02*
X244729990Y-24719990D01*
X252250000Y-22100000D02*
X252250000Y-20740000D01*
X215570000Y-23710000D02*
X243720000Y-23710000D01*
X251430010Y-24719990D02*
X252250000Y-23900000D01*
X244729990Y-24719990D02*
X251430010Y-24719990D01*
X252250000Y-23900000D02*
X252250000Y-22100000D01*
X252250000Y-20740000D02*
X252250000Y-13040000D01*
X252250000Y-13040000D02*
X253825001Y-11464999D01*
X279038000Y-10602000D02*
X279038000Y-7201400D01*
X253825001Y-11464999D02*
X278175001Y-11464999D01*
X278175001Y-11464999D02*
X279038000Y-10602000D01*
X190630000Y-45200000D02*
X201190000Y-45200000D01*
X202600000Y-43790000D02*
X202600000Y-37940000D01*
X201190000Y-45200000D02*
X202600000Y-43790000D01*
X228320000Y-29350000D02*
X226380000Y-29350000D01*
X226380000Y-29350000D02*
X226320000Y-29290000D01*
X217968501Y-30694999D02*
X218423512Y-31150010D01*
X190110000Y-27730000D02*
X189540000Y-28300000D01*
X190214999Y-30694999D02*
X217968501Y-30694999D01*
X189540000Y-28300000D02*
X189540000Y-30020000D01*
X192770000Y-27730000D02*
X190110000Y-27730000D01*
X189540000Y-30020000D02*
X190214999Y-30694999D01*
X218423512Y-31150010D02*
X228330000Y-31150010D01*
X218260000Y-27790000D02*
X221320000Y-27790000D01*
X217920000Y-28130000D02*
X218260000Y-27790000D01*
X218365010Y-30425010D02*
X217920000Y-29980000D01*
X244105010Y-30425010D02*
X243480000Y-29800000D01*
X243480000Y-29800000D02*
X238610020Y-29800000D01*
X251794990Y-30365010D02*
X245535010Y-30365010D01*
X245475010Y-30425010D02*
X244105010Y-30425010D01*
X238610020Y-29800000D02*
X237985010Y-30425010D01*
X252270000Y-29890000D02*
X251794990Y-30365010D01*
X217920000Y-29980000D02*
X217920000Y-28130000D01*
X237985010Y-30425010D02*
X218365010Y-30425010D01*
X245535010Y-30365010D02*
X245475010Y-30425010D01*
X252270000Y-29230000D02*
X252270000Y-29890000D01*
X178652500Y-16510000D02*
X178652500Y-20662500D01*
X178652500Y-20662500D02*
X181620000Y-23630000D01*
X188177500Y-26667500D02*
X188177500Y-35560000D01*
X173890000Y2540000D02*
X173890000Y-2080000D01*
X173890000Y-2080000D02*
X178652500Y-6842500D01*
X178652500Y-6842500D02*
X178652500Y-10747500D01*
X188177500Y-48272500D02*
X183415000Y-53035000D01*
X186010000Y-24500000D02*
X188177500Y-26667500D01*
X178652500Y-10747500D02*
X178652500Y-16510000D01*
X188177500Y-35560000D02*
X188177500Y-48272500D01*
X184675699Y-24500000D02*
X186010000Y-24500000D01*
X233740000Y-10220000D02*
X233475001Y-10484999D01*
X181620000Y-23630000D02*
X183805699Y-23630000D01*
X233475001Y-10484999D02*
X218535001Y-10484999D01*
X183805699Y-23630000D02*
X184675699Y-24500000D01*
X183415000Y-54610000D02*
X182372000Y-54610000D01*
X263798000Y-7201400D02*
X263978600Y-7201400D01*
X262780000Y-10220000D02*
X263798000Y-9202000D01*
X263798000Y-9202000D02*
X263798000Y-7201400D01*
X233740000Y-10220000D02*
X262780000Y-10220000D01*
X218535001Y-10484999D02*
X218140000Y-10880000D01*
X183415000Y-53035000D02*
X183415000Y-54610000D01*
X197702500Y-16510000D02*
X197702500Y-20602500D01*
X204410000Y-31760000D02*
X207227500Y-34577500D01*
X209450000Y-41840000D02*
X209450000Y-42140000D01*
X209450000Y-40850000D02*
X209450000Y-41840000D01*
X195690000Y-11340000D02*
X197702500Y-13352500D01*
X195390000Y-11040000D02*
X195690000Y-11340000D01*
X203680000Y-22060000D02*
X204440000Y-22820000D01*
X207227500Y-35560000D02*
X207227500Y-38627500D01*
X209460000Y-44950000D02*
X209460000Y-41850000D01*
X209460000Y-41850000D02*
X209450000Y-41840000D01*
X209450000Y-50860000D02*
X209450000Y-54451000D01*
X209450000Y-54451000D02*
X209609000Y-54610000D01*
X197702500Y-20602500D02*
X199160000Y-22060000D01*
X199160000Y-22060000D02*
X203680000Y-22060000D01*
X194200000Y-11040000D02*
X195390000Y-11040000D01*
X195510000Y-11160000D02*
X195690000Y-11340000D01*
X197702500Y-13352500D02*
X197702500Y-16510000D01*
X192970000Y-9810000D02*
X194200000Y-11040000D01*
X192940000Y-5230000D02*
X192970000Y-5260000D01*
X192940000Y2540000D02*
X192940000Y-5230000D01*
X207227500Y-38627500D02*
X209450000Y-40850000D01*
X207227500Y-34577500D02*
X207227500Y-35560000D01*
X218120000Y-9800000D02*
X218153511Y-9833511D01*
X218153511Y-9833511D02*
X233490079Y-9833511D01*
X233490079Y-9833511D02*
X233553600Y-9769990D01*
X233553600Y-9769990D02*
X260810010Y-9769990D01*
X260810010Y-9769990D02*
X261258000Y-9322000D01*
X261258000Y-9322000D02*
X261258000Y-7201400D01*
X216650000Y-8960000D02*
X218772998Y-8960000D01*
X218772998Y-8960000D02*
X219196499Y-9383501D01*
X219196499Y-9383501D02*
X233303679Y-9383501D01*
X233367200Y-9319980D02*
X258190020Y-9319980D01*
X233303679Y-9383501D02*
X233367200Y-9319980D01*
X258190020Y-9319980D02*
X258718000Y-8792000D01*
X258718000Y-8792000D02*
X258718000Y-7201400D01*
X235802500Y-54610000D02*
X235802500Y-52437500D01*
X235802500Y-52437500D02*
X237880000Y-50360000D01*
X226277500Y-35560000D02*
X226277500Y-38687500D01*
X216752500Y-16510000D02*
X216640000Y-16397500D01*
X229430000Y-41840000D02*
X236520000Y-41840000D01*
X216752500Y-16510000D02*
X216752500Y-19132500D01*
X219640000Y-22020000D02*
X228690000Y-22020000D01*
X236520000Y-41840000D02*
X237890000Y-43210000D01*
X228800000Y-32080000D02*
X227200000Y-32080000D01*
X229640000Y-31240000D02*
X228800000Y-32080000D01*
X226277500Y-33002500D02*
X226277500Y-35560000D01*
X216640000Y-8970000D02*
X216650000Y-8960000D01*
X228690000Y-22020000D02*
X228770000Y-22100000D01*
X216752500Y-19132500D02*
X219640000Y-22020000D01*
X226277500Y-38687500D02*
X229430000Y-41840000D01*
X216640000Y-16397500D02*
X216640000Y-8970000D01*
X227200000Y-32080000D02*
X226277500Y-33002500D01*
X211990000Y-1900000D02*
X216630000Y-6540000D01*
X211990000Y2540000D02*
X211990000Y-1900000D01*
X245352500Y-38482500D02*
X249630000Y-42760000D01*
X249630000Y-45690000D02*
X254830000Y-50890000D01*
X249630000Y-42760000D02*
X249630000Y-45690000D01*
X245327500Y-38482500D02*
X245352500Y-38482500D01*
X256178000Y-5808000D02*
X255470000Y-5100000D01*
X256178000Y-7201400D02*
X256178000Y-5808000D01*
X255470000Y-5100000D02*
X252440000Y-5100000D01*
X245327500Y-32757500D02*
X244450000Y-31880000D01*
X245327500Y-35560000D02*
X245327500Y-32757500D01*
X235802500Y-18821002D02*
X235802500Y-19872500D01*
X238130000Y-22200000D02*
X239740000Y-22200000D01*
X239740000Y-22200000D02*
X239181498Y-22200000D01*
X233110000Y-11210000D02*
X233470000Y-11210000D01*
X235802500Y-16510000D02*
X235802500Y-18821002D01*
X231040000Y2540000D02*
X231040000Y-3150000D01*
X231040000Y-3150000D02*
X231450000Y-3560000D01*
X233470000Y-11210000D02*
X235802500Y-13542500D01*
X235802500Y-13542500D02*
X235802500Y-16510000D01*
X231980000Y-11210000D02*
X233110000Y-11210000D01*
X244470000Y-22200000D02*
X239740000Y-22200000D01*
X235802500Y-19872500D02*
X238130000Y-22200000D01*
X245327500Y-35560000D02*
X245327500Y-38482500D01*
X254830000Y-54587500D02*
X254852500Y-54610000D01*
X254830000Y-50890000D02*
X254830000Y-54587500D01*
X251555001Y-2880000D02*
X251265153Y-2590152D01*
X265260000Y-2880000D02*
X251555001Y-2880000D01*
X267010000Y-2880000D02*
X265260000Y-2880000D01*
X261996500Y-14573500D02*
X262300000Y-14270000D01*
X261996500Y-16510000D02*
X261996500Y-14573500D01*
X250090000Y2540000D02*
X250090000Y-1420000D01*
X250090000Y-1420000D02*
X250080000Y-1430000D01*
X269140000Y-750000D02*
X267010000Y-2880000D01*
X269140000Y2540000D02*
X269140000Y-750000D01*
X262590000Y-22820000D02*
X262590000Y-17103500D01*
X262590000Y-17103500D02*
X261996500Y-16510000D01*
X266790000Y-27020000D02*
X262590000Y-22820000D01*
X266758500Y-35560000D02*
X266758500Y-31488500D01*
X266758500Y-31488500D02*
X266710000Y-31440000D01*
X234485000Y9775000D02*
X234014583Y9775000D01*
X231514583Y9775000D02*
X234485000Y9775000D01*
X249335011Y-3924989D02*
X248040000Y-5220000D01*
X250465011Y-3924989D02*
X249335011Y-3924989D01*
X253910000Y-3924989D02*
X250465011Y-3924989D01*
X270725011Y-3924989D02*
X253910000Y-3924989D01*
X273080000Y-1570000D02*
X270725011Y-3924989D01*
X246460000Y6650000D02*
X246460000Y5540000D01*
X243335000Y9775000D02*
X246460000Y6650000D01*
X234485000Y9775000D02*
X243335000Y9775000D01*
X260940000Y-31220000D02*
X260940000Y-33255000D01*
X260940000Y-33255000D02*
X258489500Y-33255000D01*
X258489500Y-33255000D02*
X258254500Y-33020000D01*
X258254500Y-33020000D02*
X258767501Y-33533001D01*
X282505001Y4641999D02*
X282505001Y1604999D01*
X282960000Y-1990000D02*
X282505001Y-2444999D01*
X282505001Y1604999D02*
X282960000Y1150000D01*
X282067000Y5080000D02*
X282505001Y4641999D01*
X282960000Y1150000D02*
X282960000Y-1990000D01*
X282505001Y-2444999D02*
X282505001Y-12654999D01*
X282505001Y-12654999D02*
X282060000Y-13100000D01*
X282060000Y-13100000D02*
X282060000Y-15135000D01*
X201732000Y-51308000D02*
X201760000Y-51280000D01*
X198120000Y-51308000D02*
X201732000Y-51308000D01*
X201760000Y-51280000D02*
X201760000Y-53315000D01*
X196342000Y-52070000D02*
X197358000Y-52070000D01*
X197358000Y-52070000D02*
X198120000Y-51308000D01*
X263017000Y2373000D02*
X263017000Y5080000D01*
X256560000Y-14710000D02*
X260170000Y-14710000D01*
X260170000Y-14710000D02*
X261750000Y-13130000D01*
X256560000Y-14710000D02*
X256560000Y-16745000D01*
X263500000Y1890000D02*
X263017000Y2373000D01*
X253750000Y-14630000D02*
X253750000Y-12176410D01*
X254011401Y-11915009D02*
X274465009Y-11915009D01*
X274923500Y-12373500D02*
X274923500Y-13970000D01*
X253750000Y-12176410D02*
X254011401Y-11915009D01*
X274465009Y-11915009D02*
X274923500Y-12373500D01*
X253750000Y-14630000D02*
X253750000Y-16665000D01*
M02*
