G04 #@! TF.GenerationSoftware,KiCad,Pcbnew,(5.1.6-0-10_14)*
G04 #@! TF.CreationDate,2022-05-29T14:21:09+09:00*
G04 #@! TF.ProjectId,cool939,636f6f6c-3933-4392-9e6b-696361645f70,rev?*
G04 #@! TF.SameCoordinates,Original*
G04 #@! TF.FileFunction,Legend,Top*
G04 #@! TF.FilePolarity,Positive*
%FSLAX46Y46*%
G04 Gerber Fmt 4.6, Leading zero omitted, Abs format (unit mm)*
G04 Created by KiCad (PCBNEW (5.1.6-0-10_14)) date 2022-05-29 14:21:09*
%MOMM*%
%LPD*%
G01*
G04 APERTURE LIST*
%ADD10C,0.300000*%
%ADD11C,0.150000*%
G04 APERTURE END LIST*
D10*
X275064285Y-61122142D02*
X274921428Y-61193571D01*
X274635714Y-61193571D01*
X274492857Y-61122142D01*
X274421428Y-61050714D01*
X274350000Y-60907857D01*
X274350000Y-60479285D01*
X274421428Y-60336428D01*
X274492857Y-60265000D01*
X274635714Y-60193571D01*
X274921428Y-60193571D01*
X275064285Y-60265000D01*
X275921428Y-61193571D02*
X275778571Y-61122142D01*
X275707142Y-61050714D01*
X275635714Y-60907857D01*
X275635714Y-60479285D01*
X275707142Y-60336428D01*
X275778571Y-60265000D01*
X275921428Y-60193571D01*
X276135714Y-60193571D01*
X276278571Y-60265000D01*
X276350000Y-60336428D01*
X276421428Y-60479285D01*
X276421428Y-60907857D01*
X276350000Y-61050714D01*
X276278571Y-61122142D01*
X276135714Y-61193571D01*
X275921428Y-61193571D01*
X277278571Y-61193571D02*
X277135714Y-61122142D01*
X277064285Y-61050714D01*
X276992857Y-60907857D01*
X276992857Y-60479285D01*
X277064285Y-60336428D01*
X277135714Y-60265000D01*
X277278571Y-60193571D01*
X277492857Y-60193571D01*
X277635714Y-60265000D01*
X277707142Y-60336428D01*
X277778571Y-60479285D01*
X277778571Y-60907857D01*
X277707142Y-61050714D01*
X277635714Y-61122142D01*
X277492857Y-61193571D01*
X277278571Y-61193571D01*
X278635714Y-61193571D02*
X278492857Y-61122142D01*
X278421428Y-60979285D01*
X278421428Y-59693571D01*
X279278571Y-61193571D02*
X279564285Y-61193571D01*
X279707142Y-61122142D01*
X279778571Y-61050714D01*
X279921428Y-60836428D01*
X279992857Y-60550714D01*
X279992857Y-59979285D01*
X279921428Y-59836428D01*
X279850000Y-59765000D01*
X279707142Y-59693571D01*
X279421428Y-59693571D01*
X279278571Y-59765000D01*
X279207142Y-59836428D01*
X279135714Y-59979285D01*
X279135714Y-60336428D01*
X279207142Y-60479285D01*
X279278571Y-60550714D01*
X279421428Y-60622142D01*
X279707142Y-60622142D01*
X279850000Y-60550714D01*
X279921428Y-60479285D01*
X279992857Y-60336428D01*
X280492857Y-59693571D02*
X281421428Y-59693571D01*
X280921428Y-60265000D01*
X281135714Y-60265000D01*
X281278571Y-60336428D01*
X281350000Y-60407857D01*
X281421428Y-60550714D01*
X281421428Y-60907857D01*
X281350000Y-61050714D01*
X281278571Y-61122142D01*
X281135714Y-61193571D01*
X280707142Y-61193571D01*
X280564285Y-61122142D01*
X280492857Y-61050714D01*
X282135714Y-61193571D02*
X282421428Y-61193571D01*
X282564285Y-61122142D01*
X282635714Y-61050714D01*
X282778571Y-60836428D01*
X282850000Y-60550714D01*
X282850000Y-59979285D01*
X282778571Y-59836428D01*
X282707142Y-59765000D01*
X282564285Y-59693571D01*
X282278571Y-59693571D01*
X282135714Y-59765000D01*
X282064285Y-59836428D01*
X281992857Y-59979285D01*
X281992857Y-60336428D01*
X282064285Y-60479285D01*
X282135714Y-60550714D01*
X282278571Y-60622142D01*
X282564285Y-60622142D01*
X282707142Y-60550714D01*
X282778571Y-60479285D01*
X282850000Y-60336428D01*
X273492857Y-63743571D02*
X273492857Y-62743571D01*
X273492857Y-63029285D02*
X273564285Y-62886428D01*
X273635714Y-62815000D01*
X273778571Y-62743571D01*
X273921428Y-62743571D01*
X274421428Y-63743571D02*
X274421428Y-62743571D01*
X274421428Y-62243571D02*
X274350000Y-62315000D01*
X274421428Y-62386428D01*
X274492857Y-62315000D01*
X274421428Y-62243571D01*
X274421428Y-62386428D01*
X275778571Y-62743571D02*
X275778571Y-63957857D01*
X275707142Y-64100714D01*
X275635714Y-64172142D01*
X275492857Y-64243571D01*
X275278571Y-64243571D01*
X275135714Y-64172142D01*
X275778571Y-63672142D02*
X275635714Y-63743571D01*
X275350000Y-63743571D01*
X275207142Y-63672142D01*
X275135714Y-63600714D01*
X275064285Y-63457857D01*
X275064285Y-63029285D01*
X275135714Y-62886428D01*
X275207142Y-62815000D01*
X275350000Y-62743571D01*
X275635714Y-62743571D01*
X275778571Y-62815000D01*
X276492857Y-63743571D02*
X276492857Y-62243571D01*
X277135714Y-63743571D02*
X277135714Y-62957857D01*
X277064285Y-62815000D01*
X276921428Y-62743571D01*
X276707142Y-62743571D01*
X276564285Y-62815000D01*
X276492857Y-62886428D01*
X277635714Y-62743571D02*
X278207142Y-62743571D01*
X277850000Y-62243571D02*
X277850000Y-63529285D01*
X277921428Y-63672142D01*
X278064285Y-63743571D01*
X278207142Y-63743571D01*
X278350000Y-63886428D02*
X279492857Y-63886428D01*
X279778571Y-63672142D02*
X279921428Y-63743571D01*
X280207142Y-63743571D01*
X280350000Y-63672142D01*
X280421428Y-63529285D01*
X280421428Y-63457857D01*
X280350000Y-63315000D01*
X280207142Y-63243571D01*
X279992857Y-63243571D01*
X279850000Y-63172142D01*
X279778571Y-63029285D01*
X279778571Y-62957857D01*
X279850000Y-62815000D01*
X279992857Y-62743571D01*
X280207142Y-62743571D01*
X280350000Y-62815000D01*
X281064285Y-63743571D02*
X281064285Y-62743571D01*
X281064285Y-62243571D02*
X280992857Y-62315000D01*
X281064285Y-62386428D01*
X281135714Y-62315000D01*
X281064285Y-62243571D01*
X281064285Y-62386428D01*
X282421428Y-63743571D02*
X282421428Y-62243571D01*
X282421428Y-63672142D02*
X282278571Y-63743571D01*
X281992857Y-63743571D01*
X281850000Y-63672142D01*
X281778571Y-63600714D01*
X281707142Y-63457857D01*
X281707142Y-63029285D01*
X281778571Y-62886428D01*
X281850000Y-62815000D01*
X281992857Y-62743571D01*
X282278571Y-62743571D01*
X282421428Y-62815000D01*
X283707142Y-63672142D02*
X283564285Y-63743571D01*
X283278571Y-63743571D01*
X283135714Y-63672142D01*
X283064285Y-63529285D01*
X283064285Y-62957857D01*
X283135714Y-62815000D01*
X283278571Y-62743571D01*
X283564285Y-62743571D01*
X283707142Y-62815000D01*
X283778571Y-62957857D01*
X283778571Y-63100714D01*
X283064285Y-63243571D01*
D11*
X253750000Y-18840000D02*
X253250000Y-17940000D01*
X253250000Y-17940000D02*
X254250000Y-17940000D01*
X254250000Y-17940000D02*
X253750000Y-18840000D01*
X253250000Y-18940000D02*
X254250000Y-18940000D01*
X253000000Y-15740000D02*
X253000000Y-21140000D01*
X253000000Y-21140000D02*
X254500000Y-21140000D01*
X254500000Y-21140000D02*
X254500000Y-15740000D01*
X254500000Y-15740000D02*
X253000000Y-15740000D01*
X204360000Y-55470000D02*
X203860000Y-54570000D01*
X203860000Y-54570000D02*
X204860000Y-54570000D01*
X204860000Y-54570000D02*
X204360000Y-55470000D01*
X203860000Y-55570000D02*
X204860000Y-55570000D01*
X203610000Y-52370000D02*
X203610000Y-57770000D01*
X203610000Y-57770000D02*
X205110000Y-57770000D01*
X205110000Y-57770000D02*
X205110000Y-52370000D01*
X205110000Y-52370000D02*
X203610000Y-52370000D01*
X242500000Y-35560000D02*
X242000000Y-34660000D01*
X242000000Y-34660000D02*
X243000000Y-34660000D01*
X243000000Y-34660000D02*
X242500000Y-35560000D01*
X242000000Y-35660000D02*
X243000000Y-35660000D01*
X241750000Y-32460000D02*
X241750000Y-37860000D01*
X241750000Y-37860000D02*
X243250000Y-37860000D01*
X243250000Y-37860000D02*
X243250000Y-32460000D01*
X243250000Y-32460000D02*
X241750000Y-32460000D01*
X246280000Y-2170000D02*
X245780000Y-1270000D01*
X245780000Y-1270000D02*
X246780000Y-1270000D01*
X246780000Y-1270000D02*
X246280000Y-2170000D01*
X245780000Y-2270000D02*
X246780000Y-2270000D01*
X245530000Y930000D02*
X245530000Y-4470000D01*
X245530000Y-4470000D02*
X247030000Y-4470000D01*
X247030000Y-4470000D02*
X247030000Y930000D01*
X247030000Y930000D02*
X245530000Y930000D01*
X282060000Y-17310000D02*
X281560000Y-16410000D01*
X281560000Y-16410000D02*
X282560000Y-16410000D01*
X282560000Y-16410000D02*
X282060000Y-17310000D01*
X281560000Y-17410000D02*
X282560000Y-17410000D01*
X281310000Y-14210000D02*
X281310000Y-19610000D01*
X281310000Y-19610000D02*
X282810000Y-19610000D01*
X282810000Y-19610000D02*
X282810000Y-14210000D01*
X282810000Y-14210000D02*
X281310000Y-14210000D01*
X263490000Y-35430000D02*
X262990000Y-34530000D01*
X262990000Y-34530000D02*
X263990000Y-34530000D01*
X263990000Y-34530000D02*
X263490000Y-35430000D01*
X262990000Y-35530000D02*
X263990000Y-35530000D01*
X262740000Y-32330000D02*
X262740000Y-37730000D01*
X262740000Y-37730000D02*
X264240000Y-37730000D01*
X264240000Y-37730000D02*
X264240000Y-32330000D01*
X264240000Y-32330000D02*
X262740000Y-32330000D01*
X227850000Y-52480000D02*
X226350000Y-52480000D01*
X227850000Y-57880000D02*
X227850000Y-52480000D01*
X226350000Y-57880000D02*
X227850000Y-57880000D01*
X226350000Y-52480000D02*
X226350000Y-57880000D01*
X226600000Y-55680000D02*
X227600000Y-55680000D01*
X227600000Y-54680000D02*
X227100000Y-55580000D01*
X226600000Y-54680000D02*
X227600000Y-54680000D01*
X227100000Y-55580000D02*
X226600000Y-54680000D01*
X231970000Y-55550000D02*
X231470000Y-54650000D01*
X231470000Y-54650000D02*
X232470000Y-54650000D01*
X232470000Y-54650000D02*
X231970000Y-55550000D01*
X231470000Y-55650000D02*
X232470000Y-55650000D01*
X231220000Y-52450000D02*
X231220000Y-57850000D01*
X231220000Y-57850000D02*
X232720000Y-57850000D01*
X232720000Y-57850000D02*
X232720000Y-52450000D01*
X232720000Y-52450000D02*
X231220000Y-52450000D01*
X256560000Y-18920000D02*
X256060000Y-18020000D01*
X256060000Y-18020000D02*
X257060000Y-18020000D01*
X257060000Y-18020000D02*
X256560000Y-18920000D01*
X256060000Y-19020000D02*
X257060000Y-19020000D01*
X255810000Y-15820000D02*
X255810000Y-21220000D01*
X255810000Y-21220000D02*
X257310000Y-21220000D01*
X257310000Y-21220000D02*
X257310000Y-15820000D01*
X257310000Y-15820000D02*
X255810000Y-15820000D01*
X227340000Y-4950000D02*
X226840000Y-4050000D01*
X226840000Y-4050000D02*
X227840000Y-4050000D01*
X227840000Y-4050000D02*
X227340000Y-4950000D01*
X226840000Y-5050000D02*
X227840000Y-5050000D01*
X226590000Y-1850000D02*
X226590000Y-7250000D01*
X226590000Y-7250000D02*
X228090000Y-7250000D01*
X228090000Y-7250000D02*
X228090000Y-1850000D01*
X228090000Y-1850000D02*
X226590000Y-1850000D01*
X208240000Y-4690000D02*
X207740000Y-3790000D01*
X207740000Y-3790000D02*
X208740000Y-3790000D01*
X208740000Y-3790000D02*
X208240000Y-4690000D01*
X207740000Y-4790000D02*
X208740000Y-4790000D01*
X207490000Y-1590000D02*
X207490000Y-6990000D01*
X207490000Y-6990000D02*
X208990000Y-6990000D01*
X208990000Y-6990000D02*
X208990000Y-1590000D01*
X208990000Y-1590000D02*
X207490000Y-1590000D01*
X201760000Y-55490000D02*
X201260000Y-54590000D01*
X201260000Y-54590000D02*
X202260000Y-54590000D01*
X202260000Y-54590000D02*
X201760000Y-55490000D01*
X201260000Y-55590000D02*
X202260000Y-55590000D01*
X201010000Y-52390000D02*
X201010000Y-57790000D01*
X201010000Y-57790000D02*
X202510000Y-57790000D01*
X202510000Y-57790000D02*
X202510000Y-52390000D01*
X202510000Y-52390000D02*
X201010000Y-52390000D01*
X232080000Y-23340000D02*
X231580000Y-22440000D01*
X231580000Y-22440000D02*
X232580000Y-22440000D01*
X232580000Y-22440000D02*
X232080000Y-23340000D01*
X231580000Y-23440000D02*
X232580000Y-23440000D01*
X231330000Y-20240000D02*
X231330000Y-25640000D01*
X231330000Y-25640000D02*
X232830000Y-25640000D01*
X232830000Y-25640000D02*
X232830000Y-20240000D01*
X232830000Y-20240000D02*
X231330000Y-20240000D01*
X194010000Y-21620000D02*
X193510000Y-20720000D01*
X193510000Y-20720000D02*
X194510000Y-20720000D01*
X194510000Y-20720000D02*
X194010000Y-21620000D01*
X193510000Y-21720000D02*
X194510000Y-21720000D01*
X193260000Y-18520000D02*
X193260000Y-23920000D01*
X193260000Y-23920000D02*
X194760000Y-23920000D01*
X194760000Y-23920000D02*
X194760000Y-18520000D01*
X194760000Y-18520000D02*
X193260000Y-18520000D01*
X206870000Y-55540000D02*
X206370000Y-54640000D01*
X206370000Y-54640000D02*
X207370000Y-54640000D01*
X207370000Y-54640000D02*
X206870000Y-55540000D01*
X206370000Y-55640000D02*
X207370000Y-55640000D01*
X206120000Y-52440000D02*
X206120000Y-57840000D01*
X206120000Y-57840000D02*
X207620000Y-57840000D01*
X207620000Y-57840000D02*
X207620000Y-52440000D01*
X207620000Y-52440000D02*
X206120000Y-52440000D01*
X260940000Y-35430000D02*
X260440000Y-34530000D01*
X260440000Y-34530000D02*
X261440000Y-34530000D01*
X261440000Y-34530000D02*
X260940000Y-35430000D01*
X260440000Y-35530000D02*
X261440000Y-35530000D01*
X260190000Y-32330000D02*
X260190000Y-37730000D01*
X260190000Y-37730000D02*
X261690000Y-37730000D01*
X261690000Y-37730000D02*
X261690000Y-32330000D01*
X261690000Y-32330000D02*
X260190000Y-32330000D01*
X229540000Y-55610000D02*
X229040000Y-54710000D01*
X229040000Y-54710000D02*
X230040000Y-54710000D01*
X230040000Y-54710000D02*
X229540000Y-55610000D01*
X229040000Y-55710000D02*
X230040000Y-55710000D01*
X228790000Y-52510000D02*
X228790000Y-57910000D01*
X228790000Y-57910000D02*
X230290000Y-57910000D01*
X230290000Y-57910000D02*
X230290000Y-52510000D01*
X230290000Y-52510000D02*
X228790000Y-52510000D01*
X212880000Y-21810000D02*
X212380000Y-20910000D01*
X212380000Y-20910000D02*
X213380000Y-20910000D01*
X213380000Y-20910000D02*
X212880000Y-21810000D01*
X212380000Y-21910000D02*
X213380000Y-21910000D01*
X212130000Y-18710000D02*
X212130000Y-24110000D01*
X212130000Y-24110000D02*
X213630000Y-24110000D01*
X213630000Y-24110000D02*
X213630000Y-18710000D01*
X213630000Y-18710000D02*
X212130000Y-18710000D01*
X189180000Y-4820000D02*
X188680000Y-3920000D01*
X188680000Y-3920000D02*
X189680000Y-3920000D01*
X189680000Y-3920000D02*
X189180000Y-4820000D01*
X188680000Y-4920000D02*
X189680000Y-4920000D01*
X188430000Y-1720000D02*
X188430000Y-7120000D01*
X188430000Y-7120000D02*
X189930000Y-7120000D01*
X189930000Y-7120000D02*
X189930000Y-1720000D01*
X189930000Y-1720000D02*
X188430000Y-1720000D01*
X234570000Y-23320000D02*
X234070000Y-22420000D01*
X234070000Y-22420000D02*
X235070000Y-22420000D01*
X235070000Y-22420000D02*
X234570000Y-23320000D01*
X234070000Y-23420000D02*
X235070000Y-23420000D01*
X233820000Y-20220000D02*
X233820000Y-25620000D01*
X233820000Y-25620000D02*
X235320000Y-25620000D01*
X235320000Y-25620000D02*
X235320000Y-20220000D01*
X235320000Y-20220000D02*
X233820000Y-20220000D01*
X245722380Y-30658571D02*
X245865238Y-30706190D01*
X245912857Y-30753809D01*
X245960476Y-30849047D01*
X245960476Y-30991904D01*
X245912857Y-31087142D01*
X245865238Y-31134761D01*
X245770000Y-31182380D01*
X245389047Y-31182380D01*
X245389047Y-30182380D01*
X245722380Y-30182380D01*
X245817619Y-30230000D01*
X245865238Y-30277619D01*
X245912857Y-30372857D01*
X245912857Y-30468095D01*
X245865238Y-30563333D01*
X245817619Y-30610952D01*
X245722380Y-30658571D01*
X245389047Y-30658571D01*
X246531904Y-31182380D02*
X246436666Y-31134761D01*
X246389047Y-31087142D01*
X246341428Y-30991904D01*
X246341428Y-30706190D01*
X246389047Y-30610952D01*
X246436666Y-30563333D01*
X246531904Y-30515714D01*
X246674761Y-30515714D01*
X246770000Y-30563333D01*
X246817619Y-30610952D01*
X246865238Y-30706190D01*
X246865238Y-30991904D01*
X246817619Y-31087142D01*
X246770000Y-31134761D01*
X246674761Y-31182380D01*
X246531904Y-31182380D01*
X247150952Y-30515714D02*
X247531904Y-30515714D01*
X247293809Y-30182380D02*
X247293809Y-31039523D01*
X247341428Y-31134761D01*
X247436666Y-31182380D01*
X247531904Y-31182380D01*
X247722380Y-30515714D02*
X248103333Y-30515714D01*
X247865238Y-30182380D02*
X247865238Y-31039523D01*
X247912857Y-31134761D01*
X248008095Y-31182380D01*
X248103333Y-31182380D01*
X248579523Y-31182380D02*
X248484285Y-31134761D01*
X248436666Y-31087142D01*
X248389047Y-30991904D01*
X248389047Y-30706190D01*
X248436666Y-30610952D01*
X248484285Y-30563333D01*
X248579523Y-30515714D01*
X248722380Y-30515714D01*
X248817619Y-30563333D01*
X248865238Y-30610952D01*
X248912857Y-30706190D01*
X248912857Y-30991904D01*
X248865238Y-31087142D01*
X248817619Y-31134761D01*
X248722380Y-31182380D01*
X248579523Y-31182380D01*
X249341428Y-31182380D02*
X249341428Y-30515714D01*
X249341428Y-30610952D02*
X249389047Y-30563333D01*
X249484285Y-30515714D01*
X249627142Y-30515714D01*
X249722380Y-30563333D01*
X249770000Y-30658571D01*
X249770000Y-31182380D01*
X249770000Y-30658571D02*
X249817619Y-30563333D01*
X249912857Y-30515714D01*
X250055714Y-30515714D01*
X250150952Y-30563333D01*
X250198571Y-30658571D01*
X250198571Y-31182380D01*
X251389047Y-31134761D02*
X251531904Y-31182380D01*
X251770000Y-31182380D01*
X251865238Y-31134761D01*
X251912857Y-31087142D01*
X251960476Y-30991904D01*
X251960476Y-30896666D01*
X251912857Y-30801428D01*
X251865238Y-30753809D01*
X251770000Y-30706190D01*
X251579523Y-30658571D01*
X251484285Y-30610952D01*
X251436666Y-30563333D01*
X251389047Y-30468095D01*
X251389047Y-30372857D01*
X251436666Y-30277619D01*
X251484285Y-30230000D01*
X251579523Y-30182380D01*
X251817619Y-30182380D01*
X251960476Y-30230000D01*
X252389047Y-31182380D02*
X252389047Y-30515714D01*
X252389047Y-30182380D02*
X252341428Y-30230000D01*
X252389047Y-30277619D01*
X252436666Y-30230000D01*
X252389047Y-30182380D01*
X252389047Y-30277619D01*
X253293809Y-31182380D02*
X253293809Y-30182380D01*
X253293809Y-31134761D02*
X253198571Y-31182380D01*
X253008095Y-31182380D01*
X252912857Y-31134761D01*
X252865238Y-31087142D01*
X252817619Y-30991904D01*
X252817619Y-30706190D01*
X252865238Y-30610952D01*
X252912857Y-30563333D01*
X253008095Y-30515714D01*
X253198571Y-30515714D01*
X253293809Y-30563333D01*
X254150952Y-31134761D02*
X254055714Y-31182380D01*
X253865238Y-31182380D01*
X253770000Y-31134761D01*
X253722380Y-31039523D01*
X253722380Y-30658571D01*
X253770000Y-30563333D01*
X253865238Y-30515714D01*
X254055714Y-30515714D01*
X254150952Y-30563333D01*
X254198571Y-30658571D01*
X254198571Y-30753809D01*
X253722380Y-30849047D01*
X219772380Y-30718571D02*
X219915238Y-30766190D01*
X219962857Y-30813809D01*
X220010476Y-30909047D01*
X220010476Y-31051904D01*
X219962857Y-31147142D01*
X219915238Y-31194761D01*
X219820000Y-31242380D01*
X219439047Y-31242380D01*
X219439047Y-30242380D01*
X219772380Y-30242380D01*
X219867619Y-30290000D01*
X219915238Y-30337619D01*
X219962857Y-30432857D01*
X219962857Y-30528095D01*
X219915238Y-30623333D01*
X219867619Y-30670952D01*
X219772380Y-30718571D01*
X219439047Y-30718571D01*
X220581904Y-31242380D02*
X220486666Y-31194761D01*
X220439047Y-31147142D01*
X220391428Y-31051904D01*
X220391428Y-30766190D01*
X220439047Y-30670952D01*
X220486666Y-30623333D01*
X220581904Y-30575714D01*
X220724761Y-30575714D01*
X220820000Y-30623333D01*
X220867619Y-30670952D01*
X220915238Y-30766190D01*
X220915238Y-31051904D01*
X220867619Y-31147142D01*
X220820000Y-31194761D01*
X220724761Y-31242380D01*
X220581904Y-31242380D01*
X221200952Y-30575714D02*
X221581904Y-30575714D01*
X221343809Y-30242380D02*
X221343809Y-31099523D01*
X221391428Y-31194761D01*
X221486666Y-31242380D01*
X221581904Y-31242380D01*
X221772380Y-30575714D02*
X222153333Y-30575714D01*
X221915238Y-30242380D02*
X221915238Y-31099523D01*
X221962857Y-31194761D01*
X222058095Y-31242380D01*
X222153333Y-31242380D01*
X222629523Y-31242380D02*
X222534285Y-31194761D01*
X222486666Y-31147142D01*
X222439047Y-31051904D01*
X222439047Y-30766190D01*
X222486666Y-30670952D01*
X222534285Y-30623333D01*
X222629523Y-30575714D01*
X222772380Y-30575714D01*
X222867619Y-30623333D01*
X222915238Y-30670952D01*
X222962857Y-30766190D01*
X222962857Y-31051904D01*
X222915238Y-31147142D01*
X222867619Y-31194761D01*
X222772380Y-31242380D01*
X222629523Y-31242380D01*
X223391428Y-31242380D02*
X223391428Y-30575714D01*
X223391428Y-30670952D02*
X223439047Y-30623333D01*
X223534285Y-30575714D01*
X223677142Y-30575714D01*
X223772380Y-30623333D01*
X223820000Y-30718571D01*
X223820000Y-31242380D01*
X223820000Y-30718571D02*
X223867619Y-30623333D01*
X223962857Y-30575714D01*
X224105714Y-30575714D01*
X224200952Y-30623333D01*
X224248571Y-30718571D01*
X224248571Y-31242380D01*
X225439047Y-31194761D02*
X225581904Y-31242380D01*
X225820000Y-31242380D01*
X225915238Y-31194761D01*
X225962857Y-31147142D01*
X226010476Y-31051904D01*
X226010476Y-30956666D01*
X225962857Y-30861428D01*
X225915238Y-30813809D01*
X225820000Y-30766190D01*
X225629523Y-30718571D01*
X225534285Y-30670952D01*
X225486666Y-30623333D01*
X225439047Y-30528095D01*
X225439047Y-30432857D01*
X225486666Y-30337619D01*
X225534285Y-30290000D01*
X225629523Y-30242380D01*
X225867619Y-30242380D01*
X226010476Y-30290000D01*
X226439047Y-31242380D02*
X226439047Y-30575714D01*
X226439047Y-30242380D02*
X226391428Y-30290000D01*
X226439047Y-30337619D01*
X226486666Y-30290000D01*
X226439047Y-30242380D01*
X226439047Y-30337619D01*
X227343809Y-31242380D02*
X227343809Y-30242380D01*
X227343809Y-31194761D02*
X227248571Y-31242380D01*
X227058095Y-31242380D01*
X226962857Y-31194761D01*
X226915238Y-31147142D01*
X226867619Y-31051904D01*
X226867619Y-30766190D01*
X226915238Y-30670952D01*
X226962857Y-30623333D01*
X227058095Y-30575714D01*
X227248571Y-30575714D01*
X227343809Y-30623333D01*
X228200952Y-31194761D02*
X228105714Y-31242380D01*
X227915238Y-31242380D01*
X227820000Y-31194761D01*
X227772380Y-31099523D01*
X227772380Y-30718571D01*
X227820000Y-30623333D01*
X227915238Y-30575714D01*
X228105714Y-30575714D01*
X228200952Y-30623333D01*
X228248571Y-30718571D01*
X228248571Y-30813809D01*
X227772380Y-30909047D01*
X191222380Y-30658571D02*
X191365238Y-30706190D01*
X191412857Y-30753809D01*
X191460476Y-30849047D01*
X191460476Y-30991904D01*
X191412857Y-31087142D01*
X191365238Y-31134761D01*
X191270000Y-31182380D01*
X190889047Y-31182380D01*
X190889047Y-30182380D01*
X191222380Y-30182380D01*
X191317619Y-30230000D01*
X191365238Y-30277619D01*
X191412857Y-30372857D01*
X191412857Y-30468095D01*
X191365238Y-30563333D01*
X191317619Y-30610952D01*
X191222380Y-30658571D01*
X190889047Y-30658571D01*
X192031904Y-31182380D02*
X191936666Y-31134761D01*
X191889047Y-31087142D01*
X191841428Y-30991904D01*
X191841428Y-30706190D01*
X191889047Y-30610952D01*
X191936666Y-30563333D01*
X192031904Y-30515714D01*
X192174761Y-30515714D01*
X192270000Y-30563333D01*
X192317619Y-30610952D01*
X192365238Y-30706190D01*
X192365238Y-30991904D01*
X192317619Y-31087142D01*
X192270000Y-31134761D01*
X192174761Y-31182380D01*
X192031904Y-31182380D01*
X192650952Y-30515714D02*
X193031904Y-30515714D01*
X192793809Y-30182380D02*
X192793809Y-31039523D01*
X192841428Y-31134761D01*
X192936666Y-31182380D01*
X193031904Y-31182380D01*
X193222380Y-30515714D02*
X193603333Y-30515714D01*
X193365238Y-30182380D02*
X193365238Y-31039523D01*
X193412857Y-31134761D01*
X193508095Y-31182380D01*
X193603333Y-31182380D01*
X194079523Y-31182380D02*
X193984285Y-31134761D01*
X193936666Y-31087142D01*
X193889047Y-30991904D01*
X193889047Y-30706190D01*
X193936666Y-30610952D01*
X193984285Y-30563333D01*
X194079523Y-30515714D01*
X194222380Y-30515714D01*
X194317619Y-30563333D01*
X194365238Y-30610952D01*
X194412857Y-30706190D01*
X194412857Y-30991904D01*
X194365238Y-31087142D01*
X194317619Y-31134761D01*
X194222380Y-31182380D01*
X194079523Y-31182380D01*
X194841428Y-31182380D02*
X194841428Y-30515714D01*
X194841428Y-30610952D02*
X194889047Y-30563333D01*
X194984285Y-30515714D01*
X195127142Y-30515714D01*
X195222380Y-30563333D01*
X195270000Y-30658571D01*
X195270000Y-31182380D01*
X195270000Y-30658571D02*
X195317619Y-30563333D01*
X195412857Y-30515714D01*
X195555714Y-30515714D01*
X195650952Y-30563333D01*
X195698571Y-30658571D01*
X195698571Y-31182380D01*
X196889047Y-31134761D02*
X197031904Y-31182380D01*
X197270000Y-31182380D01*
X197365238Y-31134761D01*
X197412857Y-31087142D01*
X197460476Y-30991904D01*
X197460476Y-30896666D01*
X197412857Y-30801428D01*
X197365238Y-30753809D01*
X197270000Y-30706190D01*
X197079523Y-30658571D01*
X196984285Y-30610952D01*
X196936666Y-30563333D01*
X196889047Y-30468095D01*
X196889047Y-30372857D01*
X196936666Y-30277619D01*
X196984285Y-30230000D01*
X197079523Y-30182380D01*
X197317619Y-30182380D01*
X197460476Y-30230000D01*
X197889047Y-31182380D02*
X197889047Y-30515714D01*
X197889047Y-30182380D02*
X197841428Y-30230000D01*
X197889047Y-30277619D01*
X197936666Y-30230000D01*
X197889047Y-30182380D01*
X197889047Y-30277619D01*
X198793809Y-31182380D02*
X198793809Y-30182380D01*
X198793809Y-31134761D02*
X198698571Y-31182380D01*
X198508095Y-31182380D01*
X198412857Y-31134761D01*
X198365238Y-31087142D01*
X198317619Y-30991904D01*
X198317619Y-30706190D01*
X198365238Y-30610952D01*
X198412857Y-30563333D01*
X198508095Y-30515714D01*
X198698571Y-30515714D01*
X198793809Y-30563333D01*
X199650952Y-31134761D02*
X199555714Y-31182380D01*
X199365238Y-31182380D01*
X199270000Y-31134761D01*
X199222380Y-31039523D01*
X199222380Y-30658571D01*
X199270000Y-30563333D01*
X199365238Y-30515714D01*
X199555714Y-30515714D01*
X199650952Y-30563333D01*
X199698571Y-30658571D01*
X199698571Y-30753809D01*
X199222380Y-30849047D01*
M02*
